<svg width="68" height="71" viewBox="0 0 68 71" fill="none" xmlns="http://www.w3.org/2000/svg">
<path fill-rule="evenodd" clip-rule="evenodd" d="M32 70.0183C49.6731 70.0183 64 55.6914 64 38.0183C64 20.3452 49.6731 6.01831 32 6.01831C14.3269 6.01831 0 20.3452 0 38.0183C0 55.6914 14.3269 70.0183 32 70.0183Z" fill="#54499E"/>
<mask id="mask0" mask-type="alpha" maskUnits="userSpaceOnUse" x="0" y="6" width="64" height="65">
<path fill-rule="evenodd" clip-rule="evenodd" d="M32 70.0183C49.6731 70.0183 64 55.6914 64 38.0183C64 20.3452 49.6731 6.01831 32 6.01831C14.3269 6.01831 0 20.3452 0 38.0183C0 55.6914 14.3269 70.0183 32 70.0183Z" fill="white"/>
</mask>
<g mask="url(#mask0)">
</g>
<g clip-path="url(#clip0)">
<path d="M28.9545 42.6385L25.2279 46.3657C25.0105 46.5832 24.7255 46.6916 24.4405 46.6916C24.1555 46.6916 23.8705 46.5832 23.653 46.3657C23.2188 45.9308 23.2188 45.2257 23.653 44.7908L27.3795 41.0635C27.8145 40.6294 28.5195 40.6294 28.9545 41.0635V41.0643C29.3886 41.4992 29.3894 42.2035 28.9545 42.6385Z" fill="#DFE7F4"/>
<path d="M28.9545 42.6384L25.228 46.3657C25.0105 46.5832 24.7255 46.6915 24.4405 46.6915C24.1555 46.6915 23.8705 46.5832 23.6531 46.3657L28.9545 41.0643C29.3887 41.4992 29.3894 42.2035 28.9545 42.6384Z" fill="#C7CFE1"/>
<path d="M49.8866 32.8549C49.8866 39.8701 44.1792 45.5782 37.1633 45.5782C34.5797 45.5782 32.0912 44.8071 29.9678 43.3487C29.3191 42.9034 28.7179 42.4039 28.1665 41.8525C27.6158 41.301 27.1148 40.6991 26.6695 40.0497C25.2111 37.927 24.4399 35.4385 24.4399 32.8549C24.4399 25.839 30.1481 20.1316 37.1633 20.1316C40.6716 20.1316 43.8526 21.5588 46.1556 23.8633C48.4601 26.1671 49.8866 29.3473 49.8866 32.8549Z" fill="#BCB2FF"/>
<path d="M49.8864 32.8549C49.8864 39.87 44.179 45.5782 37.1631 45.5782C34.5795 45.5782 32.0909 44.8071 29.9675 43.3487C29.3189 42.9034 28.7177 42.4039 28.1663 41.8524L46.1554 23.8633C48.4599 26.167 49.8864 29.3473 49.8864 32.8549Z" fill="white"/>
<path d="M49.8864 32.8549C49.8864 39.87 44.179 45.5782 37.1631 45.5782C34.5795 45.5782 32.0909 44.8071 29.9675 43.3487C29.3189 42.9034 28.7177 42.4039 28.1663 41.8524L46.1554 23.8633C48.4599 26.167 49.8864 29.3473 49.8864 32.8549Z" fill="url(#paint0_linear)"/>
<path d="M27.7805 32.8557C27.7805 33.4705 28.279 33.969 28.8938 33.969C29.5086 33.969 30.0071 33.4705 30.0071 32.8557C30.0071 28.9093 33.2176 25.6988 37.164 25.6988C37.7788 25.6988 38.2773 25.2003 38.2773 24.5855C38.2773 23.9707 37.7788 23.4722 37.164 23.4722C31.9899 23.4722 27.7805 27.6816 27.7805 32.8557Z" fill="#F0F7FF"/>
<path d="M46.9431 23.0758C44.4382 20.5702 40.9788 19.0183 37.164 19.0183C29.5336 19.0183 23.3267 25.2252 23.3267 32.8542C23.3267 35.6648 24.1653 38.3708 25.7514 40.6791C26.236 41.3849 26.7801 42.0402 27.3797 42.6392C27.9794 43.2396 28.6333 43.7821 29.3384 44.2668C31.6473 45.8528 34.3533 46.6915 37.164 46.6915C44.793 46.6915 50.9999 40.4846 50.9999 32.8542C50.9999 29.0401 49.448 25.5815 46.9431 23.0758ZM37.164 44.465C34.8053 44.465 32.5357 43.7621 30.5986 42.4314C30.0063 42.0246 29.4579 41.5682 28.9547 41.0642C28.4507 40.5618 27.9935 40.0118 27.5868 39.4188C26.2561 37.4825 25.5532 35.2128 25.5532 32.8542C25.5532 26.4528 30.7619 21.2449 37.164 21.2449C40.3651 21.2449 43.2678 22.5474 45.3689 24.65C47.4715 26.7519 48.7733 29.6546 48.7733 32.8542C48.7733 39.2563 43.5654 44.465 37.164 44.465Z" fill="#334973"/>
<path d="M51 32.8541C51 40.4846 44.7931 46.6915 37.1641 46.6915C34.3535 46.6915 31.6475 45.8528 29.3385 44.2667C28.6334 43.7821 27.9796 43.2396 27.3799 42.6391L28.9548 41.0642C29.458 41.5682 30.0065 42.0246 30.5988 42.4313C32.5359 43.7621 34.8055 44.4649 37.1641 44.4649C43.5655 44.4649 48.7734 39.2562 48.7734 32.8541C48.7734 29.6546 47.4716 26.7519 45.369 24.65L46.9432 23.0758C49.4481 25.5814 51 29.04 51 32.8541Z" fill="#1F3259"/>
<path d="M26.8016 47.9391L18.0489 56.6925C17.6138 57.1276 16.9086 57.1263 16.4748 56.6925L14.9006 55.1183L13.3257 53.5434C12.8924 53.1101 12.8905 52.4043 13.3257 51.9692L22.079 43.2158C22.2876 43.0073 22.5703 42.89 22.8657 42.89C23.1611 42.89 23.4446 43.0073 23.6532 43.2158L25.2281 44.7908L26.8016 46.3649C27.2365 46.7999 27.2365 47.5049 26.8016 47.9391Z" fill="#334973"/>
<path d="M26.8016 47.9391L18.049 56.6925C17.6138 57.1276 16.9086 57.1263 16.4748 56.6925L14.9006 55.1183L25.2282 44.7908L26.8016 46.365C27.2365 46.7999 27.2365 47.505 26.8016 47.9391Z" fill="#1F3259"/>
</g>
<defs>
<linearGradient id="paint0_linear" x1="39.0263" y1="23.8633" x2="39.0263" y2="45.5782" gradientUnits="userSpaceOnUse">
<stop stop-color="white"/>
<stop offset="1" stop-color="white" stop-opacity="0"/>
</linearGradient>
<clipPath id="clip0">
<rect width="38" height="38" fill="white" transform="translate(13 19.0183)"/>
</clipPath>
</defs>
</svg>
