<svg width="50" height="43" viewBox="0 0 50 43" fill="none" xmlns="http://www.w3.org/2000/svg">
<path d="M18.887 9.62387C20.563 8.14068 23.0561 8.00442 24.8559 9.33473C25.6296 9.90663 26.3447 10.5594 26.9882 11.2843L27.5092 11.876C27.5092 11.876 23.4095 12.9979 28.3906 15.3714L34.4936 20.7607L38.3365 26.3161L38.9378 27.3688C40.1941 28.7929 40.0969 30.8347 38.6885 32.1087C37.2802 33.3826 35.1199 33.2609 33.8636 31.8366L33.8351 31.8623C35.0914 33.2865 34.9681 35.4738 33.5597 36.7477C32.1513 38.0217 29.9912 37.8999 28.7349 36.4757L28.7241 36.4856C29.9804 37.9097 29.8571 40.097 28.4487 41.371C27.0403 42.6449 24.88 42.5231 23.6238 41.0989L23.8397 41.3111L10.1128 26.4897C9.42783 25.7488 8.82829 24.9385 8.32269 24.0745C7.17657 22.116 7.59549 19.6165 9.29486 18.1125L18.887 9.62387Z" fill="#FFDECF"/>
<path d="M28.724 36.4855L28.7348 36.4757C29.9911 37.8998 32.1512 38.0217 33.5596 36.7477L13.55 14.3468L9.29486 18.1125C7.59549 19.6163 7.17657 22.116 8.32268 24.0745C8.82829 24.9385 9.42773 25.7487 10.1128 26.4897L23.8396 41.3111L23.6237 41.0989C24.8799 42.5231 27.0401 42.6449 28.4486 41.3709C29.857 40.097 29.9803 37.9097 28.724 36.4855Z" fill="#FFCDBE"/>
<path d="M23.3191 10.4823L21.5656 12.0486C20.1897 13.2777 20.0706 15.3896 21.2997 16.7655C22.5288 18.1415 24.6406 18.2606 26.0166 17.0314L28.0731 15.1945L38.9376 27.3687L40.7904 25.7444C42.1985 23.9732 42.1259 21.4451 40.6185 19.7575L31.728 9.80479C30.5144 8.44617 28.6188 7.92201 26.8796 8.46424C25.5623 8.87495 24.3482 9.5631 23.3191 10.4823Z" fill="#C78760"/>
<path d="M40.6186 19.7575L35.6054 14.1453L30.8931 18.3546L38.9376 27.3687L40.7904 25.7444C42.1986 23.9732 42.126 21.4451 40.6186 19.7575Z" fill="#875042"/>
<path d="M15.08 27.8301L13.732 29.0741C12.3236 30.3481 10.1635 30.2262 8.90717 28.8021C7.65089 27.3779 7.7742 25.1906 9.18259 23.9167L10.5306 22.6726C11.939 21.3987 14.0991 21.5204 15.3554 22.9447C16.6117 24.3688 16.4884 26.5561 15.08 27.8301Z" fill="#C78760"/>
<path d="M24.1816 38.1489L22.8336 39.3929C21.4253 40.6668 19.2651 40.5451 18.0087 39.1208C16.7525 37.6967 16.8758 35.5094 18.2842 34.2354L19.6321 32.9914C21.0405 31.7175 23.2008 31.8393 24.4571 33.2634C25.7133 34.6877 25.59 36.875 24.1816 38.1489Z" fill="#875042"/>
<path d="M19.6388 32.9984L18.2908 34.2424C16.8824 35.5164 14.7223 35.3945 13.466 33.9704C12.2097 32.5462 12.333 30.3589 13.7414 29.085L15.0894 27.8409C16.4978 26.567 18.6579 26.6888 19.9142 28.113C21.1705 29.5371 21.0472 31.7244 19.6388 32.9984Z" fill="#C78760"/>
<path d="M19.6388 32.9984C21.0381 31.7326 21.1682 29.5655 19.9376 28.1408L13.4426 33.9424C13.4506 33.9516 13.4579 33.9612 13.466 33.9703C14.7223 35.3944 16.8824 35.5163 18.2908 34.2423L19.6388 32.9984Z" fill="#875042"/>
<path d="M18.8757 8.25348H7.45654L9.53685 12.2665L13.5499 14.3468L18.5232 9.95507C19.0173 9.51885 19.1421 8.82142 18.8757 8.25348V8.25348Z" fill="#BCB2FF"/>
<path d="M0 8.25348V11.4107L6.43421 18.6969C6.96417 19.297 7.88019 19.3538 8.48031 18.824L13.5502 14.3469L7.45663 8.25348H0Z" fill="#54499E"/>
<path d="M30.957 8.25348C30.9241 8.63674 31.0426 9.03199 31.3191 9.34162L35.5792 14.1132L39.9019 12.0417L42.0531 8.25348H30.957Z" fill="#BCB2FF"/>
<path d="M42.0532 8.25348L35.5793 14.1132L40.2427 19.3363C40.7758 19.9335 41.6922 19.9854 42.2894 19.4522L49.4785 13.0336V8.25348H42.0532Z" fill="#54499E"/>
<rect y="0.215332" width="18.8748" height="8.03531" fill="#54499E"/>
<rect width="18.5269" height="8.03531" transform="matrix(-1 0 0 1 49.4785 0.21814)" fill="#54499E"/>
<rect x="7.45654" y="0.21814" width="11.4182" height="8.03531" fill="#BCB2FF"/>
<rect width="11.1014" height="8.03531" transform="matrix(-1 0 0 1 42.053 0.215332)" fill="#BCB2FF"/>
</svg>
