<svg width="87" height="87" viewBox="0 0 87 87" fill="none" xmlns="http://www.w3.org/2000/svg">
<g clip-path="url(#clip0)">
<path d="M46.8259 7.40334L7.44507 1.41917C5.61757 1.13251 3.75424 1.63417 2.35674 2.81667C0.959237 4.03501 0.135071 5.79084 0.135071 7.61834V83.1192C0.135071 85.09 1.74757 86.7025 3.7184 86.7025H15.3642V67.89C15.3642 64.4142 18.1592 61.6192 21.6351 61.6192H30.5934C34.0692 61.6192 36.8642 64.4142 36.8642 67.89V86.7025H52.0934V13.6025C52.0934 10.5208 49.8717 7.905 46.8259 7.40334ZM19.8434 53.5567H14.4684C12.9849 53.5567 11.7809 52.3527 11.7809 50.8692C11.7809 49.3857 12.9849 48.1817 14.4684 48.1817H19.8434C21.3269 48.1817 22.5309 49.3857 22.5309 50.8692C22.5309 52.3527 21.3269 53.5567 19.8434 53.5567ZM19.8434 42.8067H14.4684C12.9849 42.8067 11.7809 41.6027 11.7809 40.1192C11.7809 38.6357 12.9849 37.4317 14.4684 37.4317H19.8434C21.3269 37.4317 22.5309 38.6357 22.5309 40.1192C22.5309 41.6027 21.3269 42.8067 19.8434 42.8067ZM19.8434 32.0567H14.4684C12.9849 32.0567 11.7809 30.8527 11.7809 29.3692C11.7809 27.8857 12.9849 26.6817 14.4684 26.6817H19.8434C21.3269 26.6817 22.5309 27.8857 22.5309 29.3692C22.5309 30.8527 21.3269 32.0567 19.8434 32.0567ZM19.8434 21.3067H14.4684C12.9849 21.3067 11.7809 20.1027 11.7809 18.6192C11.7809 17.1357 12.9849 15.9317 14.4684 15.9317H19.8434C21.3269 15.9317 22.5309 17.1357 22.5309 18.6192C22.5309 20.1027 21.3269 21.3067 19.8434 21.3067ZM37.7601 53.5567H32.3851C30.9016 53.5567 29.6976 52.3527 29.6976 50.8692C29.6976 49.3857 30.9016 48.1817 32.3851 48.1817H37.7601C39.2436 48.1817 40.4476 49.3857 40.4476 50.8692C40.4476 52.3527 39.2436 53.5567 37.7601 53.5567ZM37.7601 42.8067H32.3851C30.9016 42.8067 29.6976 41.6027 29.6976 40.1192C29.6976 38.6357 30.9016 37.4317 32.3851 37.4317H37.7601C39.2436 37.4317 40.4476 38.6357 40.4476 40.1192C40.4476 41.6027 39.2436 42.8067 37.7601 42.8067ZM37.7601 32.0567H32.3851C30.9016 32.0567 29.6976 30.8527 29.6976 29.3692C29.6976 27.8857 30.9016 26.6817 32.3851 26.6817H37.7601C39.2436 26.6817 40.4476 27.8857 40.4476 29.3692C40.4476 30.8527 39.2436 32.0567 37.7601 32.0567ZM37.7601 21.3067H32.3851C30.9016 21.3067 29.6976 20.1027 29.6976 18.6192C29.6976 17.1357 30.9016 15.9317 32.3851 15.9317H37.7601C39.2436 15.9317 40.4476 17.1357 40.4476 18.6192C40.4476 20.1027 39.2436 21.3067 37.7601 21.3067Z" fill="#CCCCCC"/>
<path d="M81.1901 39.5532L55.6767 34.2104V86.7027H79.8642C83.3221 86.7027 86.1351 83.8898 86.1351 80.4319V45.6807C86.1351 42.7209 84.1176 40.2018 81.1901 39.5532ZM72.6976 75.9527H67.3226C65.8391 75.9527 64.6351 74.7487 64.6351 73.2652C64.6351 71.7817 65.8391 70.5777 67.3226 70.5777H72.6976C74.1811 70.5777 75.3851 71.7817 75.3851 73.2652C75.3851 74.7487 74.1811 75.9527 72.6976 75.9527ZM72.6976 65.2027H67.3226C65.8391 65.2027 64.6351 63.9987 64.6351 62.5152C64.6351 61.0317 65.8391 59.8277 67.3226 59.8277H72.6976C74.1811 59.8277 75.3851 61.0317 75.3851 62.5152C75.3851 63.9987 74.1811 65.2027 72.6976 65.2027ZM72.6976 54.4527H67.3226C65.8391 54.4527 64.6351 53.2487 64.6351 51.7652C64.6351 50.2817 65.8391 49.0777 67.3226 49.0777H72.6976C74.1811 49.0777 75.3851 50.2817 75.3851 51.7652C75.3851 53.2487 74.1811 54.4527 72.6976 54.4527Z" fill="#CCCCCC"/>
</g>
<defs>
<clipPath id="clip0">
<rect width="86" height="86" fill="white" transform="translate(0.135071 0.702637)"/>
</clipPath>
</defs>
</svg>
