<svg width="579" height="417" viewBox="0 0 579 417" fill="none" xmlns="http://www.w3.org/2000/svg">
<g clip-path="url(#clip0)">
<path opacity="0.1" d="M569.832 279.959C556.402 307.768 529.135 326.363 500.876 338.626C462.833 355.141 420.938 361.691 379.62 358.921C372.379 358.437 365.16 357.665 357.962 356.602C332.966 352.942 308.596 345.818 285.55 335.435C278.899 332.428 272.382 329.145 266 325.587C255.341 319.656 245.128 312.951 235.442 305.525C233.006 303.658 230.604 301.744 228.235 299.782C226.592 298.422 224.965 297.032 223.312 295.682C219.825 292.836 216.236 290.132 212.233 288.107C211.025 287.496 209.787 286.947 208.523 286.463C195.847 281.623 181.23 283.449 168.034 287.224C157.996 290.096 148.211 294.028 138.183 296.834C133.723 298.12 129.178 299.09 124.582 299.736C114.321 301.04 103.902 300.121 94.0242 297.042L93.1802 296.778C91.765 296.332 90.3616 295.843 88.97 295.312L88.1259 294.987C86.7781 294.466 85.459 293.906 84.1684 293.308L83.3244 292.922C81.9766 292.293 80.6574 291.628 79.3669 290.928C78.9019 290.685 78.442 290.421 77.9871 290.172C70.6446 286.055 63.9704 280.839 58.1946 274.702C58.0278 274.535 57.8712 274.362 57.6892 274.195C56.8856 273.322 56.0971 272.434 55.3339 271.526C55.0509 271.191 54.7678 270.856 54.4899 270.511C53.5835 269.402 52.7091 268.267 51.8667 267.107C51.7403 266.939 51.619 266.767 51.4977 266.6C48.0465 261.807 45.1852 256.612 42.9763 251.13C42.9055 250.962 42.8398 250.79 42.7792 250.622C42.1053 248.88 41.4903 247.11 40.9344 245.31C40.7069 244.559 40.4896 243.788 40.2975 243.037C40.2318 242.814 40.1712 242.586 40.1156 242.362C37.3256 231.337 37.0072 219.876 37.0072 208.48C37.0072 207.151 37.0072 205.823 37.0072 204.497C37.0881 186.064 37.3711 167.317 40.0802 149.138C40.0802 149.011 40.1156 148.884 40.1358 148.762C41.0425 142.642 42.2758 136.575 43.8304 130.588C45.4575 124.306 47.5369 118.15 50.0522 112.17C56.2841 97.4566 65.3464 84.0671 75.4094 71.6567C100.756 40.4279 133.998 14.212 172.906 4.39938C214.831 -6.16919 261.426 3.95797 295.244 30.9857C305.555 39.2255 314.819 48.9822 326.399 55.299C336.507 60.799 348.339 63.0771 359.165 58.7492C368.111 55.1722 373.934 53.3964 383.982 53.9393C404.783 55.1206 425.29 59.4323 444.815 66.7301C445.603 67.0193 446.392 67.3187 447.175 67.618C498.076 87.1671 541.831 126.007 564.575 175.917C565.178 177.236 565.763 178.565 566.329 179.905C579.89 211.702 584.792 248.968 569.832 279.959Z" fill="#6C63FF"/>
<path opacity="0.1" d="M60.8027 377.258C85.445 377.258 105.422 374.037 105.422 370.063C105.422 366.09 85.445 362.869 60.8027 362.869C36.1603 362.869 16.1837 366.09 16.1837 370.063C16.1837 374.037 36.1603 377.258 60.8027 377.258Z" fill="#6C63FF"/>
<path opacity="0.1" d="M461.079 416.285C504.773 416.285 540.194 412.832 540.194 408.573C540.194 404.314 504.773 400.861 461.079 400.861C417.386 400.861 381.965 404.314 381.965 408.573C381.965 412.832 417.386 416.285 461.079 416.285Z" fill="#6C63FF"/>
<path d="M532.708 54.9541H65.013C61.5265 54.9541 58.7002 57.7913 58.7002 61.2912V321.751C58.7002 325.251 61.5265 328.088 65.013 328.088H532.708C536.195 328.088 539.021 325.251 539.021 321.751V61.2912C539.021 57.7913 536.195 54.9541 532.708 54.9541Z" fill="url(#paint0_linear)"/>
<path d="M532 58.7949H65.7761C62.2897 58.7949 59.4634 61.6321 59.4634 65.132V320.843C59.4634 324.343 62.2897 327.18 65.7761 327.18H532C535.487 327.18 538.313 324.343 538.313 320.843V65.132C538.313 61.6321 535.487 58.7949 532 58.7949Z" fill="white"/>
<path d="M532 58.7949H65.7761C62.2897 58.7949 59.4634 61.6321 59.4634 65.132V320.843C59.4634 324.343 62.2897 327.18 65.7761 327.18H532C535.487 327.18 538.313 324.343 538.313 320.843V65.132C538.313 61.6321 535.487 58.7949 532 58.7949Z" fill="white"/>
<path opacity="0.04" d="M532 58.7949H65.7761C62.2897 58.7949 59.4634 61.6321 59.4634 65.132V320.843C59.4634 324.343 62.2897 327.18 65.7761 327.18H532C535.487 327.18 538.313 324.343 538.313 320.843V65.132C538.313 61.6321 535.487 58.7949 532 58.7949Z" fill="white"/>
<path d="M535.882 55.7153H61.8945C61.2497 55.7153 60.6314 55.9725 60.1754 56.4301C59.7195 56.8878 59.4634 57.5085 59.4634 58.1558V68.4707H538.293V58.1558C538.293 57.5121 538.04 56.8944 537.588 56.4373C537.137 55.9802 536.524 55.7207 535.882 55.7153Z" fill="#5A5773"/>
<path d="M69.0259 65.3908C70.8403 65.3908 72.3111 63.9142 72.3111 62.0929C72.3111 60.2715 70.8403 58.7949 69.0259 58.7949C67.2115 58.7949 65.7406 60.2715 65.7406 62.0929C65.7406 63.9142 67.2115 65.3908 69.0259 65.3908Z" fill="white"/>
<path d="M77.8708 65.3908C79.6852 65.3908 81.1561 63.9142 81.1561 62.0929C81.1561 60.2715 79.6852 58.7949 77.8708 58.7949C76.0564 58.7949 74.5856 60.2715 74.5856 62.0929C74.5856 63.9142 76.0564 65.3908 77.8708 65.3908Z" fill="white"/>
<path d="M86.7157 65.3908C88.5301 65.3908 90.0009 63.9142 90.0009 62.0929C90.0009 60.2715 88.5301 58.7949 86.7157 58.7949C84.9013 58.7949 83.4304 60.2715 83.4304 62.0929C83.4304 63.9142 84.9013 65.3908 86.7157 65.3908Z" fill="white"/>
<path opacity="0.2" d="M227.406 92.459H98.9016V103.408H227.406V92.459Z" fill="#6C63FF"/>
<path opacity="0.1" d="M498.875 136.362H98.9016V304.789H498.875V136.362Z" fill="#5A5773"/>
<path opacity="0.1" d="M333.09 147.347H326.242V133.993C326.242 118.924 314.273 106.397 299.262 106.169C295.643 106.13 292.051 106.812 288.695 108.173C285.339 109.535 282.284 111.55 279.707 114.102C277.13 116.654 275.082 119.692 273.68 123.043C272.278 126.393 271.551 129.989 271.54 133.622V147.347H264.706C261.687 147.356 258.793 148.565 256.658 150.708C254.522 152.852 253.318 155.757 253.309 158.788V213.696C253.318 216.728 254.522 219.632 256.658 221.776C258.793 223.92 261.687 225.128 264.706 225.137H333.09C336.11 225.128 339.003 223.919 341.138 221.776C343.272 219.632 344.475 216.727 344.483 213.696V158.788C344.475 155.757 343.272 152.852 341.138 150.709C339.003 148.565 336.11 147.356 333.09 147.347ZM302.891 183.041V202.706C302.898 203.748 302.51 204.753 301.806 205.518C301.102 206.282 300.135 206.75 299.101 206.826C298.561 206.852 298.021 206.767 297.514 206.577C297.008 206.387 296.545 206.096 296.154 205.721C295.763 205.346 295.451 204.896 295.238 204.397C295.026 203.898 294.916 203.361 294.916 202.818V183.03C293.067 182.125 291.578 180.618 290.692 178.754C289.807 176.89 289.576 174.78 290.039 172.768C290.502 170.755 291.63 168.96 293.24 167.675C294.85 166.389 296.846 165.689 298.903 165.689C300.961 165.689 302.957 166.389 304.567 167.675C306.177 168.96 307.305 170.755 307.768 172.768C308.231 174.78 308 176.89 307.115 178.754C306.229 180.618 304.74 182.125 302.891 183.03V183.041ZM318.276 147.347H279.515V133.622C279.515 128.465 281.556 123.518 285.19 119.871C288.823 116.224 293.75 114.175 298.888 114.175C304.026 114.175 308.954 116.224 312.587 119.871C316.22 123.518 318.261 128.465 318.261 133.622L318.276 147.347Z" fill="black"/>
<path d="M333.09 146.332H326.242V132.978C326.242 117.909 314.273 105.382 299.262 105.153C295.643 105.115 292.051 105.797 288.695 107.158C285.339 108.52 282.284 110.534 279.707 113.086C277.13 115.638 275.082 118.677 273.68 122.027C272.278 125.378 271.551 128.973 271.54 132.607V146.332H264.706C261.687 146.341 258.793 147.55 256.658 149.693C254.522 151.837 253.318 154.741 253.309 157.773V212.681C253.318 215.712 254.522 218.617 256.658 220.761C258.793 222.904 261.687 224.113 264.706 224.122H333.09C336.11 224.113 339.003 222.904 341.138 220.76C343.272 218.617 344.475 215.712 344.483 212.681V157.773C344.475 154.742 343.272 151.837 341.138 149.693C339.003 147.55 336.11 146.341 333.09 146.332ZM302.891 182.025V201.691C302.898 202.732 302.51 203.737 301.806 204.502C301.102 205.267 300.135 205.735 299.101 205.811C298.561 205.836 298.021 205.752 297.514 205.562C297.008 205.372 296.545 205.08 296.154 204.706C295.763 204.331 295.451 203.881 295.238 203.382C295.026 202.883 294.916 202.346 294.916 201.803V182.015C293.067 181.11 291.578 179.603 290.692 177.739C289.807 175.875 289.576 173.765 290.039 171.752C290.502 169.74 291.63 167.945 293.24 166.659C294.85 165.374 296.846 164.674 298.903 164.674C300.961 164.674 302.957 165.374 304.567 166.659C306.177 167.945 307.305 169.74 307.768 171.752C308.231 173.765 308 175.875 307.115 177.739C306.229 179.603 304.74 181.11 302.891 182.015V182.025ZM318.276 146.332H279.515V132.607C279.515 127.449 281.556 122.503 285.19 118.856C288.823 115.209 293.75 113.16 298.888 113.16C304.026 113.16 308.954 115.209 312.587 118.856C316.22 122.503 318.261 127.449 318.261 132.607L318.276 146.332Z" fill="#6C63FF"/>
<path opacity="0.1" d="M498.875 120.151H458.39V129.746H498.875V120.151Z" fill="#5A5773"/>
<path d="M512.653 410.896C512.386 409.551 511.93 408.251 511.298 407.035L505.233 397.943H505.269C505.269 397.943 504.313 393.377 505.269 391.134C506.224 388.891 501.862 383.376 501.862 383.376C501.862 383.376 501.331 381.991 502.716 380.286C504.101 378.582 501.862 373.589 501.862 373.589C501.862 373.589 500.801 363.163 500.694 361.569C500.588 359.976 499.734 351.148 499.734 351.148L497.712 332.431L494.114 282.825L494.048 281.897C494.493 281.679 494.73 281.542 494.73 281.542L494.013 254.113L494.634 253.55C500.063 248.618 512.582 237.202 512.456 236.954C512.329 236.705 510.939 217.892 510.778 213.183C510.639 209.837 509.91 206.542 508.625 203.452C508.311 202.828 507.407 198.713 507.032 196.973C506.931 196.496 506.866 196.196 506.866 196.196C506.866 196.196 503.196 189.174 503.515 185.983C503.833 182.792 504.47 180.402 496.646 179.286C496.646 179.286 490.075 178.301 486.163 175.617C483.85 174.01 481.321 172.739 478.653 171.843C478.653 171.843 476.459 167.784 474.933 169.159C474.287 167.71 473.803 166.194 473.492 164.638L473.447 164.354C476.344 162.326 478.43 159.33 479.33 155.901C479.381 155.708 479.421 155.51 479.467 155.317C479.618 155.369 479.777 155.398 479.937 155.404C481.266 155.404 482.085 153.917 483.328 153.445C483.833 153.247 484.455 153.217 484.844 152.816C484.973 152.662 485.068 152.482 485.126 152.29C485.183 152.097 485.201 151.895 485.178 151.695C485.19 151.556 485.19 151.417 485.178 151.279C485.18 151.23 485.18 151.181 485.178 151.132V151.182C484.839 149.335 483.414 147.697 483.571 145.819C483.722 144.054 485.269 142.501 485.143 140.781C485.141 140.645 485.129 140.51 485.107 140.375V140.436C484.919 139.765 484.572 139.149 484.096 138.64C483.552 137.896 482.838 137.294 482.014 136.885C481.311 136.575 480.498 136.504 479.841 136.134C477.91 135.078 477.915 132.328 476.768 130.451C476.276 129.667 475.578 129.035 474.752 128.624C473.925 128.213 473.001 128.04 472.082 128.122C470.647 128.264 469.348 129.03 467.928 129.279C465.987 129.624 464.011 128.99 462.171 128.264C460.331 127.539 458.466 126.742 456.49 126.742C454.514 126.742 452.376 127.757 451.779 129.629C451.461 130.644 451.618 131.735 451.375 132.765C450.94 134.581 449.353 135.88 447.711 136.783C446.7 137.346 445.497 137.991 445.184 139.056C445.184 139.026 445.184 139 445.184 138.975C445.161 139.06 445.144 139.146 445.133 139.234C445.123 139.347 445.123 139.461 445.133 139.574C445.133 140.304 445.517 140.999 445.775 141.694C446.255 143.017 446.245 144.469 445.745 145.784C445.371 146.748 444.734 147.595 444.37 148.554C444.198 149.001 444.086 149.468 444.036 149.944V149.863C444.024 150.079 444.024 150.296 444.036 150.513C444.03 151.254 444.204 151.985 444.542 152.644C444.774 153.098 445.094 153.502 445.484 153.83C445.873 154.159 446.325 154.406 446.811 154.556C447.822 154.79 448.454 153.795 449.52 154.049C449.711 154.095 449.898 154.154 450.081 154.227C450.117 154.455 450.152 154.683 450.192 154.906C450.837 158.321 452.65 161.402 455.317 163.618C455.317 163.74 455.358 163.862 455.373 163.988C455.696 166.011 455.836 168.059 455.792 170.107C455.792 170.107 454.2 167.768 452.017 172.284C452.017 172.284 446.321 175.582 444.355 175.957C442.389 176.333 435.409 178.773 435.409 178.773C434.356 179.537 433.089 179.948 431.79 179.945C429.611 179.945 427.802 184.73 428.065 187.333C428.328 189.935 427.908 191.853 425.881 191.96C423.855 192.066 424.962 196.191 424.977 196.262L424.79 197.15C424.395 198.967 423.536 202.863 423.233 203.472C421.948 206.563 421.217 209.857 421.075 213.204C420.918 217.912 419.559 236.654 419.402 236.974C419.296 237.182 427.873 245.051 433.903 250.551L434.777 251.343L432.002 277.361C432.083 278.363 432.38 279.336 432.872 280.212C433.364 281.088 434.04 281.846 434.853 282.435C434.853 282.739 434.853 283.048 434.822 283.368C434.701 286.412 434.458 290.096 433.973 291.06C433.124 292.765 433.336 301.908 433.336 301.908C433.336 301.908 432.482 320.518 431.421 322.542C430.359 324.567 430.142 328.814 430.461 329.646C430.779 330.478 429.394 352.827 429.394 352.827L428.333 362.828C428.333 362.828 428.651 372.397 427.691 372.61C426.731 372.823 426.2 379.419 426.2 379.419C426.2 379.419 422.798 384.097 424.284 385.797C425.77 387.496 424.067 388.247 423.91 388.668C423.754 389.089 420.665 390.698 422.899 396.644C422.92 396.703 422.944 396.76 422.97 396.817C420.878 399.734 414.247 409.146 414.651 410.577C414.949 411.487 415.582 412.249 416.42 412.708C417.982 413.646 420.66 414.083 424.921 412.708C431.997 410.419 431.492 408.77 431.492 408.77C431.528 407.999 431.857 407.272 432.412 406.738C432.967 406.203 433.705 405.903 434.474 405.899C437.4 405.686 439.584 402.976 439.584 402.976L439.24 401.693L438.77 399.917C438.825 399.409 439.184 398.521 440.791 398.029C443.243 397.283 442.601 392.605 442.601 392.605C442.601 392.605 442.389 387.714 443.45 387.075C444.511 386.436 444.092 378.353 444.092 378.353C444.092 378.353 445.264 372.503 446.963 368.566C448.661 364.629 450.693 341.239 450.693 341.239C450.693 341.239 452.073 329.752 453.351 326.454C454.63 323.156 455.803 313.907 455.803 313.907C455.803 313.907 463.682 298.589 463.783 295.185C463.783 295.185 464.794 291.993 465.805 295.505C466.816 299.016 469.656 307.418 469.656 307.418L472.421 317.732L475.721 333.152L477.854 346.13C477.854 346.13 477.531 351.021 478.36 352.726C479.189 354.431 480.381 358.358 479.745 359.104C479.108 359.849 481.018 363.361 481.554 364.101C482.09 364.842 481.554 380.586 481.554 380.586C481.554 380.586 484 393.986 487.513 396.314C487.758 396.476 488.019 396.612 488.291 396.72C488.241 398.171 488.19 400.115 488.256 401.129C488.248 401.356 488.286 401.582 488.367 401.794C488.686 402.22 492.304 405.092 493.052 405.092C493.8 405.092 496.454 406.954 496.565 407.857C496.676 408.76 504.344 412.586 505.43 412.697C506.517 412.809 511.783 413.758 512.506 412.271C512.685 411.836 512.736 411.359 512.653 410.896ZM493.816 219.251L494.361 219.723C494.361 219.723 494.922 224.112 495.322 225.426C495.721 226.74 495.241 229.297 495.241 229.297C495.278 230.252 495.467 231.194 495.802 232.088C496.277 233.047 494.842 235.132 494.842 235.132H493.563L493.164 218.703L493.816 219.251ZM455.792 170.199V170.102C455.782 170.133 455.777 170.168 455.777 170.199H455.792ZM436.157 233.443C435.96 233.018 435.931 232.534 436.076 232.088C436.189 231.847 436.279 231.596 436.344 231.337C436.501 230.671 436.599 229.991 436.637 229.308C436.638 229.299 436.638 229.291 436.637 229.282C436.591 229.039 436.182 226.684 436.561 225.436C436.94 224.188 437.516 219.733 437.516 219.733L437.88 219.424L438.724 218.688C438.724 218.688 438.724 218.414 438.785 217.963C438.962 221.819 439.103 226.081 438.876 226.294C438.451 226.715 436.905 230.86 437.279 231.022C437.4 231.078 437.233 232.737 436.95 234.97C436.632 234.491 436.366 233.979 436.157 233.443Z" fill="url(#paint1_linear)"/>
<path d="M476.894 174.253V180.565L463.995 187.074C463.995 187.074 451.188 179.296 454.347 176.201C456.369 174.243 455.979 168.865 455.434 165.166C455.115 163.015 454.746 161.437 454.746 161.437C454.746 161.437 477.753 154.841 474.276 159.849C473.113 161.523 473.022 163.689 473.412 165.836C474.2 170.092 476.894 174.253 476.894 174.253Z" fill="#C37098"/>
<path d="M441.56 235.975L439.897 256.533C439.897 256.533 437.405 254.265 434.18 251.312C428.201 245.838 419.71 238.009 419.811 237.801C419.968 237.482 421.327 218.83 421.474 214.142C421.612 210.815 422.334 207.538 423.607 204.462C423.91 203.853 424.764 199.977 425.123 198.165C425.245 197.602 425.32 197.237 425.32 197.237L428.11 196.11C428.11 196.11 439.735 209.13 439.735 209.368C439.735 209.606 438.942 219.607 438.942 219.607L438.118 220.327L437.759 220.637C437.759 220.637 437.203 225.005 436.809 226.314C436.414 227.623 436.839 229.896 436.885 230.14C436.847 230.823 436.751 231.502 436.596 232.169C436.53 232.426 436.441 232.675 436.329 232.915C436.186 233.359 436.215 233.841 436.409 234.265C436.634 234.853 436.926 235.413 437.279 235.934L441.56 235.975Z" fill="#3F3D56"/>
<path d="M512.011 237.801C512.132 238.05 499.734 249.41 494.361 254.316L491.925 256.533L490.278 235.975H494.548C494.548 235.975 495.974 233.91 495.499 232.956C495.167 232.066 494.981 231.129 494.948 230.18C494.948 230.18 495.418 227.643 495.024 226.329C494.629 225.015 494.073 220.652 494.073 220.652L493.533 220.185L492.891 219.622C492.891 219.622 492.097 209.622 492.097 209.383C492.097 209.145 503.722 196.125 503.722 196.125L506.492 197.237C506.492 197.237 506.552 197.536 506.653 198.013C507.027 199.743 507.922 203.838 508.23 204.462C509.503 207.537 510.225 210.815 510.363 214.142C510.495 218.83 511.849 237.481 512.011 237.801Z" fill="#3F3D56"/>
<path d="M512.061 412.307C511.318 413.788 506.103 412.814 505.026 412.733C503.949 412.652 496.348 408.811 496.242 407.913C496.136 407.015 493.502 405.163 492.764 405.163C492.026 405.163 488.443 402.302 488.125 401.88C488.044 401.67 488.008 401.446 488.018 401.221C487.907 399.481 488.125 395 488.125 395L503.414 395.848L510.843 407.066C511.47 408.276 511.922 409.569 512.188 410.907C512.278 411.376 512.234 411.861 512.061 412.307Z" fill="#3F3D56"/>
<path opacity="0.1" d="M512.061 412.307C511.318 413.788 506.103 412.814 505.026 412.733C503.949 412.652 496.348 408.811 496.242 407.913C496.136 407.015 493.502 405.163 492.764 405.163C492.026 405.163 488.443 402.302 488.125 401.88C488.044 401.67 488.008 401.446 488.018 401.221C487.907 399.481 488.125 395 488.125 395L503.414 395.848L510.843 407.066C511.47 408.276 511.922 409.569 512.188 410.907C512.278 411.376 512.234 411.861 512.061 412.307Z" fill="black"/>
<path opacity="0.1" d="M512.061 412.307C511.318 413.788 506.103 412.814 505.026 412.733C503.949 412.652 496.348 408.811 496.242 407.913C496.136 407.015 493.502 405.163 492.764 405.163C492.026 405.163 488.443 402.301 488.125 401.88C488.044 401.67 488.008 401.446 488.018 401.221L492.972 404.366C492.972 404.366 496.136 406.396 496.98 407.598C497.824 408.801 504.475 411.302 505.026 411.353C505.435 411.394 509.802 410.551 512.188 410.906C512.278 411.376 512.234 411.861 512.061 412.307Z" fill="black"/>
<path d="M439.786 403.048C439.786 403.048 437.622 405.747 434.731 405.955C433.968 405.961 433.237 406.26 432.688 406.792C432.138 407.323 431.813 408.046 431.78 408.811C431.78 408.811 432.285 410.455 425.295 412.733C421.075 414.098 418.421 413.667 416.875 412.733C416.045 412.274 415.418 411.516 415.121 410.613C414.646 408.923 423.976 396.061 423.976 396.061L432.467 395.554L438.532 398.304L439.462 401.789L439.786 403.048Z" fill="#3F3D56"/>
<path opacity="0.1" d="M439.786 403.048C439.786 403.048 437.622 405.747 434.731 405.955C433.968 405.961 433.237 406.26 432.688 406.792C432.138 407.323 431.813 408.046 431.78 408.811C431.78 408.811 432.285 410.455 425.295 412.733C421.075 414.098 418.421 413.667 416.875 412.733C416.045 412.274 415.418 411.516 415.121 410.613C414.646 408.923 423.976 396.061 423.976 396.061L432.467 395.554L438.532 398.304L439.462 401.789L439.786 403.048Z" fill="black"/>
<path opacity="0.1" d="M439.786 403.048C439.786 403.048 437.622 405.747 434.731 405.955C433.969 405.961 433.237 406.26 432.688 406.792C432.138 407.323 431.813 408.046 431.78 408.811C431.78 408.811 432.285 410.455 425.295 412.733C421.075 414.098 418.421 413.667 416.875 412.733C420.853 412.317 429.642 409.796 430.521 408.923C431.578 407.863 432.897 404.95 433.791 404.9C434.413 404.859 437.572 402.951 439.467 401.769L439.786 403.048Z" fill="black"/>
<path d="M504.89 391.246C503.939 393.468 504.89 398.019 504.89 398.019C504.89 398.019 490.738 398.76 487.281 396.431C483.823 394.102 481.377 380.764 481.377 380.764C481.377 380.764 481.883 365.101 481.377 364.36C480.872 363.619 478.951 360.129 479.583 359.388C480.215 358.647 479.077 354.73 478.213 353.036C477.349 351.341 477.708 346.475 477.708 346.475L475.595 333.558L472.33 318.215L469.555 307.945C469.555 307.945 466.71 299.584 465.744 296.093C464.779 292.602 463.758 295.774 463.758 295.774C463.657 299.163 455.853 314.404 455.853 314.404C455.853 314.404 454.691 323.613 453.427 326.891C452.164 330.168 450.789 341.605 450.789 341.605C450.789 341.605 448.767 364.888 447.099 368.805C445.431 372.722 444.284 378.541 444.284 378.541C444.284 378.541 444.709 386.588 443.652 387.222C442.596 387.857 442.768 392.727 442.768 392.727C442.768 392.727 443.4 397.38 440.973 398.126C438.547 398.872 438.952 400.455 438.952 400.455C438.952 400.455 425.457 402.677 423.243 396.746C421.029 390.815 424.087 389.237 424.254 388.811C424.421 388.384 426.104 387.649 424.628 385.949C423.152 384.249 426.523 379.602 426.523 379.602C426.523 379.602 427.054 373.041 427.999 372.828C428.944 372.615 428.636 363.092 428.636 363.092L429.687 353.142C429.687 353.142 431.062 330.914 430.744 330.067C430.425 329.22 430.638 324.993 431.694 322.964C432.75 320.934 433.589 302.425 433.589 302.425C433.589 302.425 433.377 293.328 434.221 291.633C434.726 290.674 434.939 286.986 435.06 283.977C435.151 281.679 435.171 279.776 435.171 279.776L446.978 275.332L462.141 270.466L474.898 276.605L493.563 280.202L493.795 283.434L497.359 332.807L499.38 351.432C499.38 351.432 500.224 360.215 500.331 361.803C500.437 363.391 501.488 373.767 501.488 373.767C501.488 373.767 503.702 378.739 502.332 380.434C500.962 382.128 501.488 383.478 501.488 383.478C501.488 383.478 505.84 389.024 504.89 391.246Z" fill="#3F3D56"/>
<path opacity="0.1" d="M474.286 159.848C473.123 161.523 473.033 163.689 473.422 165.835C470.766 167.716 467.567 168.669 464.319 168.547C461.071 168.425 457.952 167.235 455.444 165.16C455.125 163.009 454.756 161.431 454.756 161.431C454.756 161.431 477.763 154.846 474.286 159.848Z" fill="black"/>
<path d="M479.664 153.374C479.664 156.315 478.795 159.189 477.168 161.634C475.541 164.078 473.228 165.984 470.522 167.109C467.816 168.234 464.838 168.528 461.966 167.955C459.093 167.381 456.454 165.965 454.383 163.886C452.312 161.807 450.902 159.158 450.33 156.275C449.759 153.391 450.052 150.402 451.173 147.686C452.294 144.969 454.192 142.647 456.627 141.014C459.063 139.38 461.926 138.508 464.855 138.508C466.802 138.499 468.732 138.877 470.533 139.621C472.334 140.365 473.97 141.459 475.347 142.842C476.724 144.224 477.815 145.867 478.555 147.674C479.296 149.482 479.673 151.42 479.664 153.374Z" fill="#C37098"/>
<path opacity="0.1" d="M482.747 178.078L477.895 264.813L451.537 259.258L446.316 224.487L451.486 177.809L455.378 178.311L462.242 179.189L469.04 179.61L476.409 178.788L482.747 178.078Z" fill="black"/>
<path d="M482.747 178.713L477.895 265.448L451.537 259.892L446.316 225.122L451.486 178.449L455.378 178.946L462.242 179.824L469.04 180.245L476.409 179.423L482.747 178.713Z" fill="#6C63FF"/>
<path d="M461.079 181.042L470.571 181.361L467.902 185.111C467.902 185.111 468.089 192.686 469.358 194.857C470.627 197.029 470.253 230.576 470.253 230.576L467.726 235.391L463.404 229.993L463.46 185.699L461.079 181.042Z" fill="#3F3D56"/>
<path opacity="0.1" d="M461.079 181.042L470.571 181.361L467.902 185.111C467.902 185.111 468.089 192.686 469.358 194.857C470.627 197.029 470.253 230.576 470.253 230.576L467.726 235.391L463.404 229.993L463.46 185.699L461.079 181.042Z" fill="black"/>
<path opacity="0.1" d="M475.944 171.198L467.089 181.041L472.148 186.333L480.533 178.129L475.944 171.198Z" fill="black"/>
<path d="M475.944 170.564L467.089 180.407L472.148 185.699L480.533 177.495L475.944 170.564Z" fill="#6C63FF"/>
<path opacity="0.1" d="M463.349 180.565L454.382 171.569L453.538 176.277L457.652 186.597L463.349 180.565Z" fill="black"/>
<path d="M463.662 179.93L454.701 170.935L453.857 175.643L457.971 185.963L463.662 179.93Z" fill="#6C63FF"/>
<path opacity="0.1" d="M493.841 283.449C489.537 285.508 484.928 286.846 480.194 287.412C471.496 288.523 465.805 277.412 465.805 277.412L462.484 281.75C461.428 286.357 445.35 287.519 438.815 285.773C437.459 285.437 436.184 284.831 435.065 283.992C435.156 281.694 435.176 279.791 435.176 279.791L446.983 275.347L462.146 270.481L474.903 276.62L493.568 280.217L493.841 283.449Z" fill="black"/>
<path opacity="0.1" d="M482.747 178.718L477.9 265.448L451.537 259.892L446.306 225.127L451.471 178.449L455.363 178.956C455.263 180.656 455.073 182.35 454.792 184.03C454.16 186.998 458.062 208.059 458.062 208.059C458.062 208.059 465.476 231.677 468.812 228.273C472.148 224.868 476.899 206.892 476.899 206.892C480.119 200.225 476.955 181.523 476.717 181.148C476.552 180.595 476.45 180.025 476.414 179.448L482.747 178.718Z" fill="black"/>
<path opacity="0.1" d="M494.134 245.833L494.356 254.331L491.92 256.549L490.278 235.975H493.917L494.134 245.833Z" fill="black"/>
<path opacity="0.1" d="M436.89 230.155C436.852 230.838 436.756 231.517 436.601 232.184C436.601 231.997 436.601 231.89 436.561 231.875C436.409 231.834 436.591 231.058 436.89 230.155Z" fill="black"/>
<path opacity="0.1" d="M441.56 235.974L439.897 256.533C439.897 256.533 437.405 254.265 434.181 251.312L434.565 247.669C434.565 247.669 435.924 238.719 436.42 234.305C436.644 234.893 436.936 235.454 437.289 235.974H441.56Z" fill="black"/>
<path d="M455.858 171.249C455.858 171.249 454.281 168.92 452.118 173.415C452.118 173.415 446.478 176.698 444.537 177.068C442.596 177.439 435.692 179.874 435.692 179.874C434.649 180.631 433.395 181.037 432.108 181.036C429.945 181.036 428.151 185.8 428.414 188.393C428.676 190.986 428.257 192.893 426.255 193C424.254 193.106 425.356 197.282 425.356 197.282L438.694 212.63C438.694 212.63 439.538 226.76 439.119 227.187C438.699 227.613 437.168 231.753 437.537 231.895C437.906 232.037 435.515 247.664 435.515 247.664L432.3 277.99C432.3 277.99 432.3 283.064 438.841 284.814C445.381 286.564 461.468 285.408 462.505 280.801L465.825 276.458C465.825 276.458 471.516 287.574 480.215 286.463C488.913 285.352 494.453 282.176 494.453 282.176L493.502 245.833L492.871 219.637L506.451 197.236C506.451 197.236 502.812 190.25 503.131 187.089C503.449 183.928 504.076 181.533 496.328 180.422C496.328 180.422 489.792 179.443 485.941 176.769C483.652 175.174 481.151 173.91 478.511 173.014C478.511 173.014 476.338 168.955 474.827 170.346C474.827 170.346 476.343 176.084 476.217 176.942C476.09 177.799 476.454 181.675 476.692 182.076C476.929 182.477 480.093 201.153 476.874 207.82C476.874 207.82 472.148 225.796 468.787 229.201C465.426 232.605 458.037 208.987 458.037 208.987C458.037 208.987 454.135 187.921 454.767 184.958C455.398 181.995 455.858 171.249 455.858 171.249Z" fill="#3F3D56"/>
<path d="M467.139 240.632C468.421 240.632 469.459 239.59 469.459 238.303C469.459 237.017 468.421 235.975 467.139 235.975C465.858 235.975 464.819 237.017 464.819 238.303C464.819 239.59 465.858 240.632 467.139 240.632Z" fill="#3F3D56"/>
<path d="M467.139 251.612C468.421 251.612 469.459 250.569 469.459 249.283C469.459 247.997 468.421 246.954 467.139 246.954C465.858 246.954 464.819 247.997 464.819 249.283C464.819 250.569 465.858 251.612 467.139 251.612Z" fill="#3F3D56"/>
<path opacity="0.1" d="M467.139 240.632C468.421 240.632 469.459 239.59 469.459 238.303C469.459 237.017 468.421 235.975 467.139 235.975C465.858 235.975 464.819 237.017 464.819 238.303C464.819 239.59 465.858 240.632 467.139 240.632Z" fill="black"/>
<path opacity="0.1" d="M467.139 251.612C468.421 251.612 469.459 250.569 469.459 249.283C469.459 247.997 468.421 246.954 467.139 246.954C465.858 246.954 464.819 247.997 464.819 249.283C464.819 250.569 465.858 251.612 467.139 251.612Z" fill="black"/>
<path opacity="0.1" d="M487.988 388.07C487.988 388.07 497.51 388.811 498.455 389.551C499.401 390.292 487.988 388.07 487.988 388.07Z" fill="black" stroke="#6C63FF" stroke-miterlimit="10"/>
<path opacity="0.1" d="M431.295 380.555C431.295 380.555 433.316 383.092 432.457 384.259C431.598 385.426 431.295 380.555 431.295 380.555Z" fill="black" stroke="#6C63FF" stroke-miterlimit="10"/>
<path opacity="0.1" d="M433.721 389.703C433.721 389.703 437.41 387.268 438.886 388.886C440.362 390.505 433.721 389.703 433.721 389.703Z" fill="black" stroke="#6C63FF" stroke-miterlimit="10"/>
<path opacity="0.1" d="M479.664 153.374C479.667 154.642 479.507 155.906 479.189 157.134C478.877 156.991 478.616 156.756 478.441 156.461C478.266 156.165 478.184 155.823 478.208 155.48C478.274 154.876 478.673 154.323 478.587 153.724C478.461 152.801 477.349 152.425 476.763 151.695C476.04 150.812 476.196 149.528 476.257 148.387C476.318 147.245 476.03 145.85 474.963 145.459C474.645 145.342 474.296 145.332 473.988 145.2C473.149 144.845 472.891 143.8 472.33 143.079C471.208 141.628 468.979 141.659 467.276 142.349C466.534 142.706 465.775 143.024 465.001 143.303C464.614 143.44 464.202 143.495 463.793 143.464C463.383 143.434 462.984 143.318 462.621 143.125C462.287 142.912 462.019 142.618 461.676 142.405C460.533 141.715 459.037 142.405 458.047 143.293C457.056 144.18 456.263 145.373 455.014 145.916C454.453 146.169 453.761 146.322 453.498 146.869C453.368 147.168 453.312 147.494 453.336 147.818C453.336 149.792 453.569 151.796 453.159 153.729C452.896 154.972 452.027 156.383 450.769 156.231C450.612 156.207 450.458 156.168 450.309 156.114C449.93 154.082 449.977 151.993 450.448 149.98C450.919 147.967 451.803 146.076 453.043 144.425C454.284 142.775 455.853 141.403 457.652 140.396C459.451 139.389 461.439 138.769 463.489 138.577C465.54 138.385 467.608 138.625 469.561 139.28C471.514 139.936 473.309 140.993 474.833 142.385C476.356 143.776 477.573 145.471 478.406 147.362C479.24 149.252 479.672 151.297 479.674 153.364L479.664 153.374Z" fill="black"/>
<path d="M449.647 155.272C450.026 155.358 450.385 155.556 450.774 155.607C452.032 155.759 452.902 154.348 453.164 153.105C453.574 151.172 453.361 149.168 453.346 147.194C453.318 146.87 453.372 146.543 453.503 146.246C453.791 145.698 454.484 145.545 455.019 145.292C456.242 144.744 457.041 143.577 458.052 142.669C459.063 141.76 460.533 141.091 461.676 141.781C462.014 141.984 462.287 142.288 462.621 142.501C462.986 142.692 463.385 142.805 463.795 142.836C464.206 142.867 464.618 142.813 465.006 142.679C465.79 142.445 466.523 142.034 467.276 141.725C468.964 141.035 471.198 141.009 472.33 142.45C472.891 143.176 473.149 144.216 473.988 144.571C474.296 144.703 474.645 144.718 474.963 144.835C476.03 145.236 476.303 146.621 476.257 147.763C476.212 148.904 476.06 150.188 476.763 151.071C477.349 151.791 478.461 152.167 478.587 153.1C478.668 153.699 478.274 154.257 478.208 154.856C478.193 155.078 478.222 155.301 478.294 155.513C478.365 155.724 478.478 155.919 478.625 156.086C478.772 156.253 478.951 156.389 479.151 156.486C479.351 156.583 479.568 156.639 479.79 156.652C481.104 156.652 481.918 155.175 483.146 154.703C483.652 154.506 484.263 154.475 484.662 154.074C484.811 153.882 484.916 153.659 484.97 153.421C485.024 153.184 485.026 152.938 484.976 152.699C484.728 150.756 483.177 149.067 483.343 147.118C483.5 145.251 485.224 143.622 484.86 141.786C484.674 141.108 484.327 140.487 483.849 139.974C483.307 139.237 482.601 138.638 481.787 138.224C481.084 137.92 480.27 137.849 479.628 137.478C477.718 136.428 477.723 133.688 476.596 131.821C476.112 131.049 475.426 130.426 474.613 130.02C473.8 129.614 472.891 129.44 471.986 129.517C470.566 129.66 469.277 130.416 467.872 130.669C465.947 131.014 463.996 130.38 462.171 129.654C460.346 128.929 458.502 128.132 456.546 128.132C454.59 128.132 452.472 129.147 451.876 131.004C451.562 132.019 451.719 133.105 451.476 134.124C451.052 135.936 449.455 137.224 447.847 138.122C446.74 138.741 445.411 139.452 445.28 140.715C445.194 141.517 445.634 142.237 445.911 143.014C446.384 144.327 446.374 145.767 445.881 147.073C445.512 148.031 444.896 148.874 444.522 149.828C444.256 150.475 444.131 151.172 444.153 151.871C444.176 152.571 444.346 153.258 444.653 153.887C444.889 154.345 445.215 154.75 445.612 155.077C446.009 155.405 446.469 155.647 446.963 155.789C447.958 156.028 448.585 155.038 449.647 155.272Z" fill="#3F3D56"/>
<g opacity="0.1">
<path opacity="0.1" d="M453.164 151.999C452.902 153.242 452.027 154.653 450.769 154.501C450.379 154.45 450.026 154.252 449.642 154.166C448.585 153.932 447.958 154.927 446.963 154.673C446.468 154.531 446.008 154.289 445.61 153.961C445.212 153.634 444.884 153.229 444.648 152.77C444.384 152.254 444.224 151.69 444.178 151.111C444.077 152.01 444.241 152.918 444.648 153.724C444.884 154.183 445.212 154.588 445.61 154.915C446.008 155.242 446.468 155.485 446.963 155.627C447.974 155.86 448.585 154.866 449.642 155.12C450.011 155.249 450.388 155.359 450.769 155.449C452.027 155.607 452.902 154.196 453.164 152.953C453.372 151.855 453.453 150.736 453.407 149.62C453.402 150.419 453.321 151.216 453.164 151.999Z" fill="black"/>
<path opacity="0.1" d="M446.24 144.358C446.304 143.527 446.191 142.691 445.906 141.908C445.678 141.386 445.484 140.851 445.325 140.304C445.304 140.389 445.287 140.476 445.275 140.563C445.189 141.36 445.634 142.085 445.906 142.861C446.083 143.343 446.195 143.847 446.24 144.358Z" fill="black"/>
<path opacity="0.1" d="M484.855 141.684C484.617 143.125 483.455 144.48 483.338 145.997C483.31 146.256 483.31 146.518 483.338 146.778C483.591 145.007 485.153 143.44 484.855 141.684Z" fill="black"/>
<path opacity="0.1" d="M484.94 152.39C484.897 152.602 484.798 152.798 484.652 152.958C484.278 153.359 483.641 153.389 483.136 153.587C481.908 154.059 481.114 155.551 479.78 155.535C479.438 155.516 479.111 155.393 478.84 155.183C478.569 154.973 478.368 154.685 478.264 154.358C478.233 154.468 478.209 154.58 478.193 154.693C478.179 154.915 478.208 155.138 478.28 155.349C478.352 155.559 478.465 155.753 478.612 155.92C478.759 156.086 478.938 156.222 479.137 156.319C479.337 156.416 479.554 156.472 479.775 156.484C481.094 156.484 481.903 155.008 483.131 154.541C483.636 154.343 484.253 154.313 484.647 153.912C484.796 153.719 484.901 153.496 484.955 153.259C485.009 153.021 485.011 152.775 484.961 152.537C484.956 152.476 484.945 152.435 484.94 152.39Z" fill="black"/>
<path opacity="0.1" d="M478.602 151.969C478.476 151.045 477.364 150.67 476.778 149.939C476.418 149.459 476.223 148.875 476.222 148.275C476.181 149.219 476.196 150.183 476.778 150.893C477.359 151.603 478.244 151.908 478.527 152.638C478.598 152.423 478.624 152.195 478.602 151.969Z" fill="black"/>
<path opacity="0.1" d="M476.252 146.656C476.293 145.515 476.02 144.12 474.953 143.729C474.64 143.612 474.291 143.597 473.983 143.47C473.144 143.115 472.881 142.07 472.325 141.349C471.198 139.903 468.969 139.929 467.271 140.619C466.513 140.928 465.79 141.339 465.001 141.573C464.614 141.71 464.202 141.765 463.793 141.734C463.383 141.704 462.984 141.588 462.621 141.395C462.287 141.182 462.014 140.888 461.676 140.674C460.528 139.984 459.032 140.674 458.047 141.562C457.061 142.45 456.263 143.638 455.014 144.185C454.448 144.439 453.761 144.591 453.468 145.139C453.339 145.438 453.285 145.764 453.311 146.088C453.311 146.286 453.311 146.484 453.311 146.682C453.318 146.477 453.368 146.277 453.458 146.093C453.751 145.545 454.438 145.393 455.004 145.139C456.227 144.591 457.026 143.424 458.037 142.516C459.048 141.608 460.518 140.938 461.666 141.628C462.004 141.831 462.277 142.136 462.611 142.344C462.973 142.538 463.372 142.654 463.782 142.685C464.192 142.715 464.604 142.66 464.991 142.521C465.764 142.245 466.521 141.929 467.261 141.573C468.954 140.882 471.183 140.852 472.315 142.298C472.871 143.019 473.134 144.064 473.973 144.419C474.281 144.551 474.63 144.566 474.943 144.683C475.807 145.007 476.151 145.982 476.227 146.946L476.252 146.656Z" fill="black"/>
</g>
<g opacity="0.1">
<path opacity="0.1" d="M451.36 151.969C451.389 151.127 451.689 150.317 452.216 149.661C452.743 149.005 453.468 148.538 454.281 148.331C456.535 147.778 458.9 147.886 461.094 148.641C465.891 150.234 460.488 155.967 460.488 155.967C460.488 155.967 456.894 159.519 453.543 157.038C452.554 156.287 451.861 155.208 451.587 153.993C451.423 153.332 451.347 152.651 451.36 151.969Z" fill="black"/>
<path opacity="0.1" d="M477.728 151.969C477.699 151.126 477.398 150.316 476.87 149.659C476.342 149.003 475.616 148.537 474.802 148.331C472.549 147.779 470.187 147.886 467.994 148.64C463.197 150.234 468.6 155.967 468.6 155.967C468.6 155.967 472.189 159.519 475.545 157.037C476.534 156.287 477.227 155.208 477.501 153.993C477.665 153.331 477.741 152.651 477.728 151.969Z" fill="black"/>
<path opacity="0.1" d="M460.19 148.174V148.412H468.949V148.128L460.19 148.174Z" fill="black"/>
<path opacity="0.1" d="M462.985 150.716H463.263V149.909C463.263 149.909 464.152 149.214 465.628 149.909V150.63H466.134V150.158H465.886C465.886 150.158 465.987 149.179 464.339 149.336C464.339 149.336 463.015 149.209 463.045 150.051H462.742L462.985 150.716Z" fill="black"/>
</g>
<path d="M451.36 151.639C451.389 150.797 451.69 149.987 452.216 149.331C452.743 148.675 453.468 148.208 454.281 148.001C456.536 147.452 458.899 147.559 461.095 148.31C465.891 149.909 460.488 155.637 460.488 155.637C460.488 155.637 456.894 159.188 453.544 156.707C452.552 155.958 451.858 154.879 451.588 153.663C451.423 153.001 451.346 152.321 451.36 151.639Z" fill="#6C63FF"/>
<path d="M477.728 151.639C477.699 150.797 477.398 149.986 476.87 149.33C476.342 148.674 475.616 148.208 474.802 148.001C472.549 147.452 470.187 147.559 467.994 148.311C463.197 149.909 468.6 155.637 468.6 155.637C468.6 155.637 472.189 159.189 475.545 156.708C476.536 155.959 477.23 154.88 477.501 153.664C477.665 153.002 477.742 152.321 477.728 151.639Z" fill="#6C63FF"/>
<path d="M460.19 147.854V148.098H468.949V147.809L460.19 147.854Z" fill="#6C63FF"/>
<path d="M462.985 150.396H463.263V149.589C463.263 149.589 464.152 148.899 465.628 149.589V150.315H466.134V149.838H465.886C465.886 149.838 465.987 148.863 464.339 149.016C464.339 149.016 463.015 148.894 463.045 149.731H462.742L462.985 150.396Z" fill="#6C63FF"/>
<path d="M62.2381 232.25H59.3673V297.143H62.2381V232.25Z" fill="#535461"/>
<path d="M80.2816 296.946L80.0997 299.868L79.847 303.993L79.7408 305.713L79.4881 309.843L79.3769 311.563L79.1242 315.688L76.2281 362.605C76.1046 364.624 75.2185 366.52 73.7506 367.905C72.2827 369.291 70.3435 370.063 68.3283 370.063H53.2768C51.2622 370.063 49.3235 369.291 47.8564 367.905C46.3893 366.519 45.5043 364.623 45.382 362.605L42.4708 315.688L42.2181 311.563L42.1119 309.843L41.8643 305.703L41.7581 303.983L41.5054 299.858L41.3235 296.935C41.289 296.374 41.3693 295.812 41.5594 295.284C41.7496 294.755 42.0456 294.272 42.4292 293.862C42.8128 293.453 43.2758 293.127 43.7897 292.904C44.3037 292.681 44.8576 292.567 45.4174 292.567H76.1928C76.7533 292.566 77.3079 292.681 77.8223 292.905C78.3367 293.128 78.7999 293.455 79.1833 293.866C79.5666 294.276 79.8619 294.762 80.0508 295.291C80.2397 295.821 80.3183 296.384 80.2816 296.946Z" fill="#3F3D56"/>
<path d="M80.0997 299.868L79.847 303.993H41.7531L41.5004 299.868H80.0997Z" fill="#9D9CB5"/>
<path d="M79.7409 305.713L79.4882 309.843H42.117L41.8593 305.713H79.7409Z" fill="#9D9CB5"/>
<path d="M79.377 311.563L79.1243 315.688H42.4809L42.2231 311.563H79.377Z" fill="#9D9CB5"/>
<path d="M37.1185 256.574C53.8379 268.715 60.8027 287.711 60.8027 287.711C60.8027 287.711 40.6514 287.016 23.9066 274.875C7.1619 262.733 0.222412 243.737 0.222412 243.737C0.222412 243.737 20.3939 244.432 37.1185 256.574Z" fill="#6C63FF"/>
<path d="M0.247681 243.737C0.247681 243.737 21.1622 255.407 27.8692 265.047C34.5762 274.687 60.8027 287.716 60.8027 287.716" stroke="#535461" stroke-width="2" stroke-miterlimit="10"/>
<path d="M47.9093 232.134C57.0069 238.73 60.8027 249.08 60.8027 249.08C60.8027 249.08 49.8349 248.705 40.7322 242.094C31.6295 235.483 27.8439 225.147 27.8439 225.147C27.8439 225.147 38.8116 225.498 47.9093 232.134Z" fill="#6C63FF"/>
<path d="M27.8439 225.122C27.8439 225.122 39.2261 231.464 42.8752 236.716C46.5244 241.967 60.8027 249.055 60.8027 249.055" stroke="#535461" stroke-width="2" stroke-miterlimit="10"/>
<path d="M74.0297 248.532C63.5725 260.065 61.3638 275.134 61.3638 275.134C61.3638 275.134 76.102 271.506 86.5542 259.973C97.0064 248.441 99.2201 233.367 99.2201 233.367C99.2201 233.367 84.4819 236.994 74.0297 248.532Z" fill="#6C63FF"/>
<path d="M99.2201 233.367C99.2201 233.367 85.604 245.188 82.1418 253.337C78.6796 261.485 61.3638 275.154 61.3638 275.154" stroke="#535461" stroke-width="2" stroke-miterlimit="10"/>
</g>
<defs>
<linearGradient id="paint0_linear" x1="298.858" y1="328.088" x2="298.858" y2="54.9541" gradientUnits="userSpaceOnUse">
<stop stop-color="#808080" stop-opacity="0.25"/>
<stop offset="0.54" stop-color="#808080" stop-opacity="0.12"/>
<stop offset="1" stop-color="#808080" stop-opacity="0.1"/>
</linearGradient>
<linearGradient id="paint1_linear" x1="93015.1" y1="245281" x2="93015.1" y2="83106.9" gradientUnits="userSpaceOnUse">
<stop stop-color="#808080" stop-opacity="0.25"/>
<stop offset="0.54" stop-color="#808080" stop-opacity="0.12"/>
<stop offset="1" stop-color="#808080" stop-opacity="0.1"/>
</linearGradient>
<clipPath id="clip0">
<rect width="579" height="416" fill="white" transform="translate(0 0.284668)"/>
</clipPath>
</defs>
</svg>
