<svg width="486" height="265" viewBox="0 0 486 265" fill="none" xmlns="http://www.w3.org/2000/svg">
<path d="M135.866 147.837C135.872 147.024 135.71 146.218 135.39 145.47C135.07 144.722 134.599 144.048 134.007 143.49C133.415 142.932 132.714 142.503 131.948 142.227C131.182 141.952 130.368 141.838 129.556 141.892C128.744 141.945 127.952 142.166 127.229 142.539C126.506 142.912 125.868 143.431 125.354 144.062C124.84 144.693 124.462 145.423 124.244 146.206C124.025 146.99 123.97 147.81 124.083 148.615L107.073 170.878C106.348 172.329 106.066 173.962 106.264 175.572C106.463 177.181 107.132 178.697 108.188 179.929L109.522 181.484L115.644 180.261L122.583 174.142L121.767 167.207L130.338 153.745L130.327 153.735C131.827 153.64 133.235 152.977 134.264 151.881C135.293 150.786 135.866 149.34 135.866 147.837V147.837Z" fill="#FFB9B9"/>
<path d="M18.24 256.678L15.4634 246.371L53.9167 230.764L58.0144 245.975L18.24 256.678Z" fill="#FFB8B8"/>
<path d="M8.95217 261.996L0 228.764L0.420551 228.651C3.85287 227.727 7.51165 228.204 10.5921 229.977C13.6726 231.749 15.9225 234.672 16.8469 238.103L16.8472 238.104L22.3148 258.401L8.95217 261.996Z" fill="#2F2E41"/>
<path d="M71.2077 255.031L62.5713 248.754L82.6874 212.471L95.4344 221.736L71.2077 255.031Z" fill="#FFB8B8"/>
<path d="M67.3224 265L39.4739 244.758L39.73 244.406C41.8207 241.533 44.9676 239.608 48.4786 239.053C51.9896 238.499 55.5771 239.361 58.452 241.451L58.4527 241.451L75.4616 253.814L67.3224 265Z" fill="#2F2E41"/>
<path d="M144.623 204.329L122.889 183.227C120.993 181.385 118.494 180.29 115.854 180.143C113.214 179.995 110.609 180.806 108.519 182.425L67.4824 227.989L71.1559 233.7L110.338 207.184L136.868 241.859L162.174 229.213L144.623 204.329Z" fill="#2F2E41"/>
<path d="M135.236 208.816L119.318 207.592L107.79 204.799C107.139 203.784 106.193 202.992 105.079 202.529C103.965 202.065 102.736 201.953 101.556 202.208C100.377 202.462 99.3032 203.07 98.4792 203.951C97.6552 204.832 97.1201 205.944 96.9456 207.137C96.7711 208.33 96.9654 209.548 97.5027 210.628C98.0399 211.708 98.8944 212.598 99.9517 213.179C101.009 213.76 102.219 214.005 103.419 213.879C104.619 213.754 105.752 213.266 106.667 212.479L106.665 212.488L113.604 215.343L143.399 225.542L147.072 222.686L135.236 208.816Z" fill="#FFB9B9"/>
<path d="M173.602 252.874L164.622 258.585H154.01L104.624 240.228L32.3815 253.282L30.3408 237.78L96.4616 208.816L154.419 227.989L173.602 252.874Z" fill="#2F2E41"/>
<path d="M154.419 153.745C163.21 153.745 170.337 146.622 170.337 137.835C170.337 129.049 163.21 121.926 154.419 121.926C145.628 121.926 138.501 129.049 138.501 137.835C138.501 146.622 145.628 153.745 154.419 153.745Z" fill="#FFB9B9"/>
<path d="M195.605 201.355C195.605 210.957 194.092 220.499 191.12 229.629L189.928 233.293L184.214 259.401L178.092 261.032L173.602 255.321L164.623 248.794L158.092 238.188L152.492 228.862L150.746 225.95L144.623 195.354L121.359 182.3L113.604 181.077L115.236 176.589L122.175 167.207L129.113 166.391L131.154 164.759L132.787 165.575L141.787 169.04L170.965 156.719L175.235 157.416L189.928 169.654C193.684 179.802 195.607 190.536 195.605 201.355V201.355Z" fill="#CCCCCC"/>
<path opacity="0.1" d="M191.152 197.802L175.643 208L152.493 228.862L150.746 225.95L145.848 201.474H147.072L159.725 178.222L191.152 197.802Z" fill="black"/>
<path d="M159.725 175.773L147.072 199.026L139.725 207.185L133.195 208.816L150.746 227.989L175.643 205.553L191.152 195.354L159.725 175.773Z" fill="#CCCCCC"/>
<path d="M142.038 126.006L140.313 126.669C140.052 126.492 139.827 126.265 139.653 126.001C139.479 125.737 139.359 125.442 139.299 125.131C139.239 124.821 139.241 124.502 139.305 124.193C139.368 123.883 139.492 123.589 139.67 123.327C139.679 123.314 139.688 123.3 139.698 123.286L136.511 123.137C138.557 120.414 141.158 118.156 144.142 116.512C147.127 114.869 150.426 113.877 153.823 113.604C157.219 113.33 160.635 113.781 163.844 114.925C167.054 116.07 169.983 117.882 172.439 120.243C172.584 119.744 174.166 120.715 174.812 121.701C175.029 120.888 176.512 124.817 177.036 127.594C177.279 126.67 178.213 128.163 177.395 129.595C177.913 129.519 178.148 130.845 177.746 131.583C178.313 131.317 178.218 132.899 177.603 133.957C178.412 133.885 177.534 150.543 165.39 149.329C164.545 145.447 164.783 145.688 163.788 140.696C163.324 140.204 162.817 139.756 162.31 139.309L159.571 136.892C156.385 134.081 153.486 130.612 149.242 129.562C146.325 128.84 144.481 128.677 146.071 125.392C144.634 125.991 143.293 126.881 141.844 127.438C141.864 126.979 142.066 126.465 142.038 126.006Z" fill="#2F2E41"/>
<path d="M162.378 142.527C163.956 142.527 165.235 141.248 165.235 139.671C165.235 138.094 163.956 136.815 162.378 136.815C160.8 136.815 159.521 138.094 159.521 139.671C159.521 141.248 160.8 142.527 162.378 142.527Z" fill="#FFB9B9"/>
<path d="M29.1426 72.2289L28.2708 85.314L41.3628 86.1854L42.2346 73.1003L29.1426 72.2289Z" fill="#E6E6E6"/>
<path d="M20.6957 79.1769L36.5931 80.235L35.5344 96.1241L19.637 95.0659L20.6957 79.1769ZM35.8559 80.8798L21.3408 79.9137L20.3742 94.4211L34.8892 95.3872L35.8559 80.8798Z" fill="#CCCCCC"/>
<path d="M103.128 33.4276L90.2996 36.1825L93.056 49.0039L105.884 46.249L103.128 33.4276Z" fill="#E6E6E6"/>
<path d="M94.1237 27.2173L97.4708 42.7862L81.8937 46.1315L78.5466 30.5626L94.1237 27.2173ZM96.648 42.2547L93.592 28.0396L79.3694 31.094L82.4254 45.3091L96.648 42.2547Z" fill="#CCCCCC"/>
<path d="M89.6482 95.0007L80.072 103.966L89.0418 113.537L98.618 104.572L89.6482 95.0007Z" fill="#E6E6E6"/>
<path d="M99.3067 93.6596L87.6785 104.546L76.7866 92.9236L88.4149 82.0375L99.3067 93.6596ZM87.7105 103.567L98.3276 93.6276L88.3828 83.0161L77.7657 92.9556L87.7105 103.567Z" fill="#CCCCCC"/>
<path d="M464.822 0H193.443C192.462 -1.59385e-06 191.491 0.276234 190.585 0.812936C189.678 1.34964 188.855 2.13629 188.161 3.12799C187.468 4.11968 186.918 5.297 186.542 6.59272C186.167 7.88843 185.974 9.27717 185.974 10.6796V226.871C185.974 228.274 186.167 229.662 186.542 230.958C186.918 232.254 187.468 233.431 188.161 234.423C188.855 235.415 189.678 236.201 190.585 236.738C191.491 237.275 192.462 237.551 193.443 237.551H464.822C466.803 237.551 468.703 236.426 470.104 234.423C471.505 232.42 472.292 229.704 472.292 226.871V10.6796C472.292 7.84722 471.505 5.13082 470.104 3.128C468.703 1.12517 466.803 1.60947e-06 464.822 0Z" fill="#3F3D56"/>
<path d="M459.459 18.8739H200.299V233.646H459.459V18.8739Z" fill="white"/>
<path d="M390.44 13.0164C392.598 13.0164 394.347 11.2681 394.347 9.11148C394.347 6.95484 392.598 5.20654 390.44 5.20654C388.282 5.20654 386.533 6.95484 386.533 9.11148C386.533 11.2681 388.282 13.0164 390.44 13.0164Z" fill="white"/>
<path d="M459.459 231.401H200.299V18.8743L459.459 231.401Z" fill="#F2F2F2"/>
<path d="M259.904 217.574C280.127 217.574 296.52 201.189 296.52 180.977C296.52 160.765 280.127 144.38 259.904 144.38C239.681 144.38 223.287 160.765 223.287 180.977C223.287 201.189 239.681 217.574 259.904 217.574Z" fill="#6C63FF"/>
<path d="M268.055 208.484C259.047 208.484 250.241 205.814 242.75 200.812C235.26 195.809 229.422 188.7 225.975 180.381C222.528 172.063 221.626 162.91 223.383 154.079C225.14 145.249 229.478 137.137 235.848 130.77C242.218 124.404 250.334 120.068 259.169 118.312C268.005 116.555 277.163 117.457 285.485 120.902C293.808 124.348 300.922 130.183 305.926 137.669C310.931 145.155 313.602 153.957 313.602 162.96C313.602 168.939 312.424 174.858 310.135 180.381C307.846 185.905 304.491 190.923 300.262 195.15C296.032 199.377 291.011 202.731 285.485 205.018C279.959 207.306 274.037 208.484 268.055 208.484V208.484ZM268.055 118.032C259.164 118.032 250.473 120.667 243.081 125.604C235.689 130.541 229.927 137.557 226.525 145.767C223.123 153.977 222.232 163.01 223.967 171.725C225.701 180.441 229.983 188.446 236.269 194.729C242.556 201.013 250.566 205.292 259.285 207.025C268.005 208.759 277.044 207.869 285.257 204.469C293.471 201.068 300.492 195.31 305.431 187.921C310.371 180.533 313.007 171.846 313.007 162.96C313.007 157.06 311.844 151.218 309.585 145.767C307.326 140.316 304.015 135.363 299.841 131.191C295.667 127.019 290.711 123.71 285.257 121.452C279.804 119.194 273.958 118.032 268.055 118.032L268.055 118.032Z" fill="#3F3D56"/>
<path d="M391.321 129.384H355.738V136.815H391.321V129.384Z" fill="#3F3D56"/>
<path d="M424.986 89.124H322.073V92.3089H424.986V89.124Z" fill="#3F3D56"/>
<path d="M424.986 101.637H322.073V104.822H424.986V101.637Z" fill="#3F3D56"/>
<path d="M424.986 114.15H322.073V117.335H424.986V114.15Z" fill="#3F3D56"/>
<path d="M441.807 30.8856H426.937V45.7484H441.807V30.8856Z" fill="#6C63FF"/>
<path d="M448.712 52.6489H430.654V34.6012H448.712V52.6489ZM431.439 51.8643H447.926V35.3859H431.439L431.439 51.8643Z" fill="#CCCCCC"/>
<path d="M476.432 229.741H450.311V227.064C450.311 226.994 450.301 226.925 450.282 226.861C450.263 226.796 450.236 226.738 450.201 226.689C450.167 226.639 450.126 226.6 450.08 226.573C450.035 226.547 449.986 226.533 449.937 226.533H440.982C440.933 226.533 440.884 226.547 440.839 226.573C440.794 226.6 440.752 226.639 440.718 226.689C440.683 226.738 440.656 226.796 440.637 226.861C440.618 226.925 440.608 226.994 440.608 227.064V229.741H435.011V227.064C435.011 226.994 435.001 226.925 434.983 226.861C434.964 226.796 434.936 226.738 434.902 226.689C434.867 226.639 434.826 226.6 434.781 226.573C434.735 226.547 434.687 226.533 434.638 226.533H425.682C425.633 226.533 425.585 226.547 425.539 226.573C425.494 226.6 425.453 226.639 425.418 226.689C425.384 226.738 425.356 226.796 425.337 226.861C425.319 226.925 425.309 226.994 425.309 227.064V227.064V229.741H419.712V227.064C419.712 226.994 419.702 226.925 419.683 226.861C419.664 226.796 419.637 226.738 419.602 226.689C419.568 226.639 419.526 226.6 419.481 226.573C419.436 226.547 419.387 226.533 419.338 226.533H410.383C410.334 226.533 410.285 226.547 410.24 226.573C410.194 226.6 410.153 226.639 410.119 226.689C410.084 226.738 410.057 226.796 410.038 226.861C410.019 226.925 410.009 226.994 410.009 227.064V227.064V229.741H404.412V227.064C404.412 226.994 404.402 226.925 404.384 226.861C404.365 226.796 404.337 226.738 404.303 226.689C404.268 226.639 404.227 226.6 404.182 226.573C404.136 226.547 404.088 226.533 404.039 226.533H395.083C395.034 226.533 394.985 226.547 394.94 226.573C394.895 226.6 394.854 226.639 394.819 226.689C394.784 226.738 394.757 226.796 394.738 226.861C394.719 226.925 394.71 226.994 394.71 227.064V229.741H389.112V227.064C389.112 226.994 389.103 226.925 389.084 226.861C389.065 226.796 389.038 226.738 389.003 226.689C388.968 226.639 388.927 226.6 388.882 226.573C388.837 226.547 388.788 226.533 388.739 226.533H379.783C379.734 226.533 379.686 226.547 379.641 226.573C379.595 226.6 379.554 226.639 379.52 226.689C379.485 226.738 379.457 226.796 379.439 226.861C379.42 226.925 379.41 226.994 379.41 227.064V227.064V229.741H373.813V227.064C373.813 226.994 373.803 226.925 373.784 226.861C373.766 226.796 373.738 226.738 373.704 226.689C373.669 226.639 373.628 226.6 373.583 226.573C373.537 226.547 373.489 226.533 373.44 226.533H364.484C364.435 226.533 364.386 226.547 364.341 226.573C364.296 226.6 364.255 226.639 364.22 226.689C364.185 226.738 364.158 226.796 364.139 226.861C364.12 226.925 364.111 226.994 364.111 227.064V227.064V229.741H358.513V227.064C358.513 226.994 358.504 226.925 358.485 226.861C358.466 226.796 358.439 226.738 358.404 226.689C358.369 226.639 358.328 226.6 358.283 226.573C358.238 226.547 358.189 226.533 358.14 226.533H287.986C287.937 226.533 287.889 226.547 287.843 226.573C287.798 226.6 287.757 226.639 287.722 226.689C287.688 226.738 287.66 226.796 287.641 226.861C287.623 226.925 287.613 226.994 287.613 227.064V227.064V229.741H282.016V227.064C282.016 226.994 282.006 226.925 281.987 226.861C281.968 226.796 281.941 226.738 281.906 226.689C281.872 226.639 281.83 226.6 281.785 226.573C281.74 226.547 281.691 226.533 281.642 226.533H272.687C272.638 226.533 272.589 226.547 272.544 226.573C272.498 226.6 272.457 226.639 272.423 226.689C272.388 226.738 272.361 226.796 272.342 226.861C272.323 226.925 272.313 226.994 272.313 227.064V227.064V229.741H266.716V227.064C266.716 226.994 266.706 226.925 266.688 226.861C266.669 226.796 266.641 226.738 266.607 226.689C266.572 226.639 266.531 226.6 266.486 226.573C266.44 226.547 266.392 226.533 266.343 226.533H257.387C257.338 226.533 257.289 226.547 257.244 226.573C257.199 226.6 257.158 226.639 257.123 226.689C257.088 226.738 257.061 226.796 257.042 226.861C257.023 226.925 257.014 226.994 257.014 227.064V227.064V229.741H251.416V227.064C251.416 226.994 251.407 226.925 251.388 226.861C251.369 226.796 251.342 226.738 251.307 226.689C251.272 226.639 251.231 226.6 251.186 226.573C251.141 226.547 251.092 226.533 251.043 226.533H242.087C242.038 226.533 241.99 226.547 241.945 226.573C241.899 226.6 241.858 226.639 241.824 226.689C241.789 226.738 241.761 226.796 241.743 226.861C241.724 226.925 241.714 226.994 241.714 227.064V227.064V229.741H236.117V227.064C236.117 226.994 236.107 226.925 236.088 226.861C236.07 226.796 236.042 226.738 236.008 226.689C235.973 226.639 235.932 226.6 235.886 226.573C235.841 226.547 235.793 226.533 235.744 226.533H226.788C226.739 226.533 226.69 226.547 226.645 226.573C226.6 226.6 226.559 226.639 226.524 226.689C226.489 226.738 226.462 226.796 226.443 226.861C226.424 226.925 226.415 226.994 226.415 227.064V227.064V229.741H220.817V227.064C220.817 226.994 220.808 226.925 220.789 226.861C220.77 226.796 220.743 226.738 220.708 226.689C220.673 226.639 220.632 226.6 220.587 226.573C220.542 226.547 220.493 226.533 220.444 226.533H211.488C211.389 226.533 211.294 226.589 211.224 226.689C211.154 226.788 211.115 226.923 211.115 227.064V229.741H205.518V227.064C205.518 226.994 205.508 226.925 205.489 226.861C205.471 226.796 205.443 226.738 205.408 226.689C205.374 226.639 205.333 226.6 205.287 226.573C205.242 226.547 205.194 226.533 205.145 226.533H196.189C196.09 226.533 195.995 226.589 195.925 226.689C195.855 226.788 195.816 226.923 195.816 227.064V229.741H178.65C176.275 229.741 173.997 231.083 172.317 233.472C170.638 235.862 169.694 239.102 169.694 242.481V248.241C169.694 251.62 170.638 254.86 172.317 257.249C173.997 259.638 176.275 260.981 178.65 260.981H476.432C478.807 260.981 481.085 259.638 482.765 257.249C484.444 254.86 485.388 251.62 485.388 248.241V242.481C485.388 240.808 485.156 239.151 484.706 237.605C484.256 236.06 483.596 234.655 482.765 233.472C481.933 232.289 480.946 231.351 479.859 230.711C478.773 230.071 477.608 229.741 476.432 229.741V229.741Z" fill="#3F3D56"/>
</svg>
