<svg width="439" height="438" viewBox="0 0 439 438" fill="none" xmlns="http://www.w3.org/2000/svg">
<path fill-rule="evenodd" clip-rule="evenodd" d="M251.549 34.6163C303.155 33.0044 360.132 -21.0447 400.695 10.5991C441.77 42.6421 406.928 110.294 414.284 161.569C419.869 200.499 440.068 234.827 438.501 274.118C436.439 325.84 445.315 390.098 403.913 421.681C362.642 453.163 301.279 432.086 251.549 416.73C212.291 404.608 191 365.445 155.457 344.96C113.39 320.716 53.3866 326.313 25.7763 286.613C-3.78823 244.103 -5.0445 185.632 10.3489 136.314C25.8564 86.6307 60.7798 40.0747 109.085 19.7079C154.125 0.717604 202.623 36.1446 251.549 34.6163Z" fill="#EDEDED"/>
<g clip-path="url(#clip0)">
<path d="M233.179 87.0641L225.356 91.2963L128.967 143.438L121.143 147.67C117.347 149.729 114.53 153.197 113.309 157.313C112.089 161.429 112.565 165.857 114.633 169.625L186.412 300.053C188.488 303.816 191.986 306.61 196.138 307.82C200.29 309.03 204.756 308.558 208.557 306.507L208.577 306.496L320.572 245.912L320.593 245.901C324.389 243.842 327.206 240.374 328.427 236.258C329.647 232.142 329.171 227.714 327.103 223.946L255.324 93.5186C253.247 89.7548 249.75 86.9615 245.598 85.7515C241.446 84.5415 236.98 85.0135 233.179 87.0641Z" fill="#F2F2F2"/>
<path d="M235.429 91.1521L226.162 96.1649L132.659 146.745L123.393 151.758C120.689 153.224 118.683 155.694 117.814 158.625C116.945 161.556 117.284 164.71 118.757 167.393L190.535 297.82C192.014 300.5 194.505 302.49 197.461 303.351C200.418 304.213 203.598 303.877 206.305 302.417L206.325 302.406L318.321 241.822L318.341 241.811C321.044 240.344 323.051 237.875 323.92 234.943C324.789 232.012 324.45 228.859 322.977 226.176L251.199 95.7486C249.72 93.0683 247.229 91.0791 244.272 90.2174C241.316 89.3557 238.135 89.6919 235.429 91.1521Z" fill="white"/>
<path d="M236.974 131.637L195.204 154.232C194.571 154.575 193.827 154.654 193.135 154.452C192.444 154.251 191.861 153.785 191.516 153.158C191.171 152.53 191.091 151.793 191.294 151.107C191.497 150.421 191.967 149.844 192.6 149.501L234.37 126.906C235.003 126.564 235.747 126.484 236.438 126.686C237.13 126.888 237.713 127.353 238.058 127.981C238.403 128.608 238.483 129.346 238.28 130.031C238.076 130.717 237.606 131.295 236.974 131.637H236.974Z" fill="#F2F2F2"/>
<path d="M251.209 134.296L199.597 162.216C198.964 162.558 198.22 162.637 197.529 162.435C196.837 162.234 196.255 161.768 195.909 161.141C195.564 160.513 195.484 159.776 195.688 159.09C195.891 158.404 196.361 157.827 196.994 157.485L248.606 129.565C248.919 129.396 249.263 129.289 249.618 129.251C249.973 129.213 250.332 129.245 250.674 129.345C251.016 129.445 251.336 129.611 251.614 129.833C251.891 130.055 252.122 130.329 252.293 130.64C252.464 130.951 252.572 131.291 252.61 131.643C252.648 131.995 252.616 132.351 252.515 132.691C252.414 133.03 252.247 133.347 252.023 133.622C251.799 133.898 251.523 134.127 251.209 134.296H251.209Z" fill="#F2F2F2"/>
<path d="M178.032 144.827L139.522 165.658C139.219 165.822 138.994 166.099 138.897 166.428C138.799 166.756 138.837 167.11 139.003 167.41L155.401 197.207C155.567 197.508 155.846 197.731 156.177 197.828C156.508 197.924 156.865 197.886 157.168 197.722L195.678 176.891C195.981 176.726 196.206 176.45 196.303 176.121C196.401 175.793 196.362 175.439 196.197 175.139L179.799 145.342C179.633 145.041 179.354 144.818 179.023 144.721C178.691 144.625 178.335 144.663 178.032 144.827Z" fill="#F2F2F2"/>
<path d="M257.699 169.444L201.043 200.092C200.73 200.262 200.386 200.369 200.031 200.406C199.676 200.444 199.317 200.412 198.975 200.312C198.632 200.212 198.313 200.047 198.035 199.825C197.757 199.603 197.526 199.328 197.355 199.018C197.185 198.707 197.077 198.366 197.039 198.014C197.001 197.662 197.033 197.306 197.134 196.967C197.234 196.627 197.402 196.311 197.626 196.035C197.85 195.76 198.126 195.531 198.44 195.361L255.095 164.713C255.728 164.371 256.472 164.292 257.164 164.494C257.855 164.695 258.438 165.161 258.783 165.788C259.128 166.416 259.208 167.153 259.005 167.839C258.802 168.525 258.332 169.102 257.699 169.444H257.699Z" fill="#F2F2F2"/>
<path d="M271.935 172.104L205.437 208.076C204.804 208.418 204.06 208.497 203.368 208.295C202.677 208.094 202.094 207.628 201.749 207.001C201.404 206.373 201.324 205.636 201.527 204.95C201.731 204.264 202.2 203.687 202.833 203.345L269.331 167.373C269.964 167.03 270.708 166.951 271.399 167.153C272.091 167.354 272.673 167.82 273.019 168.447C273.364 169.075 273.444 169.813 273.24 170.498C273.037 171.184 272.567 171.761 271.935 172.104H271.935Z" fill="#F2F2F2"/>
<path d="M179.466 225.192C185.834 225.192 190.997 220.073 190.997 213.759C190.997 207.446 185.834 202.327 179.466 202.327C173.097 202.327 167.935 207.446 167.935 213.759C167.935 220.073 173.097 225.192 179.466 225.192Z" fill="#F2F2F2"/>
<path d="M351.994 140.805H224.367C220.039 140.81 215.891 142.516 212.831 145.55C209.771 148.583 208.05 152.696 208.045 156.987V305.565C208.05 309.855 209.771 313.968 212.831 317.002C215.891 320.035 220.039 321.742 224.367 321.747H351.994C356.322 321.742 360.47 320.035 363.53 317.002C366.59 313.968 368.311 309.855 368.316 305.565V156.987C368.311 152.696 366.59 148.583 363.53 145.55C360.47 142.516 356.322 140.81 351.994 140.805Z" fill="#E6E6E6"/>
<path d="M351.995 145.463H224.367C221.285 145.467 218.331 146.682 216.152 148.842C213.973 151.003 212.747 153.932 212.744 156.987V305.565C212.747 308.62 213.973 311.549 216.152 313.71C218.331 315.87 221.285 317.085 224.367 317.089H351.995C355.076 317.085 358.03 315.87 360.209 313.71C362.388 311.549 363.614 308.62 363.617 305.565V156.987C363.614 153.932 362.388 151.003 360.209 148.842C358.03 146.682 355.076 145.467 351.995 145.463Z" fill="white"/>
<path d="M333.793 181.736H286.21C285.489 181.736 284.797 181.452 284.288 180.946C283.778 180.441 283.492 179.756 283.492 179.041C283.492 178.326 283.778 177.641 284.288 177.135C284.797 176.63 285.489 176.346 286.21 176.346H333.793C334.15 176.346 334.504 176.415 334.834 176.55C335.164 176.686 335.464 176.884 335.717 177.134C335.969 177.385 336.17 177.682 336.307 178.009C336.443 178.336 336.514 178.687 336.514 179.041C336.514 179.395 336.443 179.746 336.307 180.073C336.17 180.4 335.969 180.697 335.717 180.947C335.464 181.198 335.164 181.396 334.834 181.531C334.504 181.667 334.15 181.736 333.793 181.736Z" fill="#6C63FF"/>
<path d="M345.004 190.83H286.21C285.489 190.83 284.797 190.546 284.288 190.041C283.778 189.536 283.492 188.85 283.492 188.136C283.492 187.421 283.778 186.736 284.288 186.23C284.797 185.725 285.489 185.441 286.21 185.441H345.004C345.725 185.441 346.417 185.725 346.926 186.23C347.436 186.736 347.722 187.421 347.722 188.136C347.722 188.85 347.436 189.536 346.926 190.041C346.417 190.546 345.725 190.83 345.004 190.83Z" fill="#6C63FF"/>
<path d="M275.679 165.325H231.81C231.465 165.325 231.134 165.461 230.89 165.703C230.645 165.945 230.508 166.273 230.508 166.616V200.56C230.508 200.902 230.645 201.231 230.89 201.473C231.134 201.715 231.465 201.851 231.81 201.851H275.679C276.025 201.851 276.356 201.715 276.6 201.473C276.844 201.231 276.981 200.902 276.981 200.56V166.616C276.981 166.273 276.844 165.945 276.6 165.703C276.356 165.461 276.025 165.325 275.679 165.325Z" fill="#E6E6E6"/>
<path d="M243.844 186.169C243.862 189.034 242.797 191.803 240.858 193.928C238.94 196.015 236.084 197.399 233.203 196.827C230.549 196.299 228.393 194 228.662 191.218C228.706 190.616 228.883 190.03 229.179 189.502C229.476 188.974 229.884 188.517 230.377 188.162C230.87 187.806 231.435 187.562 232.033 187.446C232.631 187.329 233.248 187.344 233.839 187.488C236.36 188.136 237.365 191.738 235.264 193.429C234.76 193.834 234.036 193.125 234.545 192.715C235.933 191.598 235.504 189.153 233.828 188.54C231.877 187.826 229.809 189.361 229.669 191.339C229.503 193.684 231.315 195.45 233.537 195.866C235.94 196.316 238.324 195.096 239.953 193.412C241.819 191.457 242.85 188.861 242.827 186.169C242.831 186.038 242.887 185.914 242.982 185.823C243.077 185.732 243.203 185.682 243.335 185.682C243.467 185.682 243.594 185.732 243.689 185.823C243.784 185.914 243.839 186.038 243.844 186.169Z" fill="#2F2E41"/>
<path d="M253.779 192.581C263.803 192.581 271.93 184.525 271.93 174.586C271.93 164.647 263.803 156.59 253.779 156.59C243.754 156.59 235.628 164.647 235.628 174.586C235.628 184.525 243.754 192.581 253.779 192.581Z" fill="#6C63FF"/>
<path d="M252.85 182.264L252.832 181.592C254.093 181.557 255.206 181.478 256.042 180.873C256.279 180.691 256.474 180.461 256.613 180.199C256.752 179.936 256.833 179.647 256.849 179.35C256.864 179.169 256.837 178.987 256.769 178.818C256.701 178.649 256.595 178.498 256.459 178.377C255.904 177.912 255.011 178.063 254.36 178.358L253.799 178.614L254.875 170.816L255.547 170.907L254.631 177.54C255.516 177.282 256.335 177.393 256.896 177.863C257.112 178.05 257.281 178.283 257.39 178.545C257.5 178.807 257.547 179.091 257.527 179.374C257.507 179.772 257.4 180.161 257.213 180.514C257.025 180.867 256.762 181.175 256.442 181.416C255.368 182.194 253.972 182.233 252.85 182.264Z" fill="#2F2E41"/>
<path d="M262.523 171.479H258.87V172.152H262.523V171.479Z" fill="#2F2E41"/>
<path d="M250.992 171.479H247.339V172.152H250.992V171.479Z" fill="#2F2E41"/>
<path d="M243.725 201.851C245.085 200.995 246.556 200.325 248.096 199.857C247.949 199.339 247.952 198.79 248.103 198.274C248.308 197.621 248.72 197.051 249.278 196.649C249.836 196.247 250.51 196.035 251.199 196.044H255.622C256.313 196.036 256.988 196.248 257.547 196.65C258.106 197.053 258.519 197.623 258.725 198.277C258.877 198.793 258.879 199.34 258.732 199.857C260.272 200.325 261.743 200.996 263.104 201.851H243.725Z" fill="#2F2E41"/>
<path d="M274.57 167.907C274.239 167.51 273.833 167.182 273.373 166.942C272.97 166.733 272.522 166.624 272.067 166.623C271.443 166.63 270.836 166.833 270.334 167.201C268.954 168.169 267.998 170.257 267.998 172.675C267.998 175.708 269.503 178.223 271.46 178.66C271.66 178.704 271.863 178.727 272.067 178.727C274.309 178.727 276.137 176.014 276.137 172.675C276.137 170.738 275.523 169.013 274.57 167.907Z" fill="#3F3D56"/>
<path d="M237.291 167.056H237.288C236.834 166.777 236.312 166.627 235.779 166.623C235.324 166.624 234.876 166.733 234.473 166.942C234.013 167.182 233.606 167.51 233.276 167.907L233.272 167.91C232.323 169.017 231.709 170.742 231.709 172.675C231.709 175.284 232.821 177.51 234.381 178.361C234.808 178.598 235.289 178.724 235.779 178.727C235.887 178.727 235.996 178.721 236.104 178.707H236.107C238.197 178.458 239.848 175.849 239.848 172.675C239.848 170.133 238.787 167.951 237.291 167.056Z" fill="#3F3D56"/>
<path d="M234.636 177.782C234.716 177.782 234.796 177.763 234.868 177.727C234.94 177.69 235.002 177.637 235.049 177.572C235.096 177.507 235.127 177.432 235.139 177.353C235.151 177.273 235.143 177.192 235.118 177.117C234.145 174.25 233.853 171.2 234.263 168.203C234.673 165.206 235.774 162.343 237.482 159.837C239.189 157.331 241.457 155.249 244.108 153.753C246.759 152.257 249.722 151.387 252.767 151.211C255.812 151.034 258.857 151.557 261.666 152.737C264.474 153.918 266.97 155.724 268.96 158.016C270.95 160.309 272.38 163.025 273.139 165.954C273.897 168.883 273.965 171.947 273.335 174.906C273.307 175.037 273.333 175.173 273.407 175.285C273.481 175.397 273.596 175.476 273.728 175.504C273.86 175.531 273.998 175.506 274.111 175.433C274.224 175.36 274.303 175.245 274.331 175.114C274.993 172.003 274.923 168.782 274.125 165.702C273.328 162.622 271.824 159.766 269.733 157.356C267.641 154.946 265.016 153.046 262.063 151.805C259.111 150.564 255.909 150.015 252.707 150.2C249.505 150.385 246.39 151.3 243.603 152.874C240.815 154.447 238.432 156.636 236.637 159.271C234.842 161.906 233.684 164.916 233.253 168.067C232.823 171.218 233.131 174.425 234.153 177.439C234.188 177.539 234.252 177.626 234.339 177.688C234.425 177.749 234.529 177.782 234.636 177.782Z" fill="#3F3D56"/>
<path d="M262.897 162.926C263.616 163.899 263.261 165.21 262.504 166.049C261.519 167.14 259.947 167.209 258.583 167.006C257.052 166.779 255.428 166.068 253.878 166.547C252.557 166.955 251.614 168.143 250.242 168.442C249.025 168.706 247.569 168.356 247.142 167.07C246.937 166.452 247.92 166.187 248.124 166.802C248.4 167.634 249.592 167.617 250.274 167.387C251.369 167.017 252.212 166.119 253.288 165.69C254.556 165.184 255.932 165.412 257.223 165.7C258.44 165.972 259.841 166.375 261.053 165.867C261.95 165.492 262.664 164.309 262.019 163.436C261.631 162.911 262.514 162.408 262.897 162.926Z" fill="#2F2E41"/>
<path d="M333.721 224.766H269.181C268.824 224.766 268.47 224.697 268.141 224.561C267.811 224.426 267.511 224.227 267.259 223.977C267.006 223.727 266.806 223.43 266.67 223.103C266.533 222.776 266.463 222.426 266.463 222.072C266.463 221.718 266.533 221.367 266.67 221.04C266.806 220.714 267.006 220.416 267.259 220.166C267.511 219.916 267.811 219.717 268.141 219.582C268.47 219.447 268.824 219.377 269.181 219.377H333.721C334.441 219.378 335.132 219.662 335.641 220.167C336.15 220.673 336.436 221.357 336.436 222.072C336.436 222.786 336.15 223.471 335.641 223.976C335.132 224.481 334.441 224.766 333.721 224.766Z" fill="#E6E6E6"/>
<path d="M344.933 233.861H269.18C268.823 233.862 268.47 233.792 268.139 233.657C267.809 233.522 267.509 233.323 267.257 233.073C267.004 232.823 266.803 232.525 266.667 232.198C266.53 231.871 266.459 231.521 266.459 231.166C266.459 230.812 266.53 230.462 266.667 230.134C266.803 229.807 267.004 229.51 267.257 229.26C267.509 229.01 267.809 228.811 268.139 228.676C268.47 228.541 268.823 228.471 269.18 228.472H344.933C345.29 228.471 345.644 228.541 345.974 228.676C346.304 228.811 346.604 229.01 346.856 229.26C347.109 229.51 347.31 229.807 347.446 230.134C347.583 230.462 347.654 230.812 347.654 231.166C347.654 231.521 347.583 231.871 347.446 232.198C347.31 232.525 347.109 232.823 346.856 233.073C346.604 233.323 346.304 233.522 345.974 233.657C345.644 233.792 345.29 233.862 344.933 233.861Z" fill="#E6E6E6"/>
<path d="M333.721 257.454H269.181C268.46 257.454 267.768 257.17 267.259 256.665C266.749 256.159 266.463 255.474 266.463 254.759C266.463 254.044 266.749 253.359 267.259 252.854C267.768 252.348 268.46 252.064 269.181 252.064H333.721C334.442 252.064 335.133 252.348 335.643 252.854C336.153 253.359 336.439 254.044 336.439 254.759C336.439 255.474 336.153 256.159 335.643 256.665C335.133 257.17 334.442 257.454 333.721 257.454Z" fill="#E6E6E6"/>
<path d="M344.933 266.549H269.181C268.46 266.549 267.768 266.265 267.259 265.759C266.749 265.254 266.463 264.569 266.463 263.854C266.463 263.139 266.749 262.454 267.259 261.948C267.768 261.443 268.46 261.159 269.181 261.159H344.933C345.654 261.159 346.345 261.443 346.855 261.948C347.364 262.454 347.651 263.139 347.651 263.854C347.651 264.569 347.364 265.254 346.855 265.759C346.345 266.265 345.654 266.549 344.933 266.549Z" fill="#E6E6E6"/>
<path d="M243.637 237.95C250.005 237.95 255.168 232.831 255.168 226.517C255.168 220.203 250.005 215.085 243.637 215.085C237.268 215.085 232.105 220.203 232.105 226.517C232.105 232.831 237.268 237.95 243.637 237.95Z" fill="#E6E6E6"/>
<path d="M243.637 270.902C250.005 270.902 255.168 265.783 255.168 259.469C255.168 253.156 250.005 248.037 243.637 248.037C237.268 248.037 232.105 253.156 232.105 259.469C232.105 265.783 237.268 270.902 243.637 270.902Z" fill="#E6E6E6"/>
<path d="M333.721 290.406H269.181C268.46 290.406 267.768 290.122 267.259 289.617C266.749 289.111 266.463 288.426 266.463 287.711C266.463 286.997 266.749 286.311 267.259 285.806C267.768 285.301 268.46 285.017 269.181 285.017H333.721C334.442 285.017 335.133 285.301 335.643 285.806C336.153 286.311 336.439 286.997 336.439 287.711C336.439 288.426 336.153 289.111 335.643 289.617C335.133 290.122 334.442 290.406 333.721 290.406Z" fill="#E6E6E6"/>
<path d="M344.933 299.501H269.181C268.46 299.501 267.768 299.217 267.259 298.711C266.749 298.206 266.463 297.521 266.463 296.806C266.463 296.091 266.749 295.406 267.259 294.901C267.768 294.395 268.46 294.111 269.181 294.111H344.933C345.654 294.111 346.345 294.395 346.855 294.901C347.364 295.406 347.651 296.091 347.651 296.806C347.651 297.521 347.364 298.206 346.855 298.711C346.345 299.217 345.654 299.501 344.933 299.501Z" fill="#E6E6E6"/>
<path d="M243.637 303.854C250.005 303.854 255.168 298.735 255.168 292.422C255.168 286.108 250.005 280.989 243.637 280.989C237.268 280.989 232.105 286.108 232.105 292.422C232.105 298.735 237.268 303.854 243.637 303.854Z" fill="#E6E6E6"/>
</g>
<defs>
<clipPath id="clip0">
<rect width="255.675" height="236.658" fill="white" transform="translate(112.641 85.0884)"/>
</clipPath>
</defs>
</svg>
