<svg width="484" height="390" viewBox="0 0 484 390" fill="none" xmlns="http://www.w3.org/2000/svg">
<g clip-path="url(#clip0)">
<path opacity="0.1" d="M248.53 389.286C369.079 389.286 466.803 302.205 466.803 194.784C466.803 87.3634 369.079 0.281738 248.53 0.281738C127.981 0.281738 30.2573 87.3634 30.2573 194.784C30.2573 302.205 127.981 389.286 248.53 389.286Z" fill="#6C63FF"/>
<path opacity="0.1" d="M80.5531 306.733C125.002 306.733 161.034 301.157 161.034 294.278C161.034 287.399 125.002 281.822 80.5531 281.822C36.1045 281.822 0.0717773 287.399 0.0717773 294.278C0.0717773 301.157 36.1045 306.733 80.5531 306.733Z" fill="#6C63FF"/>
<path opacity="0.1" d="M119.236 366.071C136.524 366.071 150.539 363.181 150.539 359.615C150.539 356.049 136.524 353.158 119.236 353.158C101.947 353.158 87.9321 356.049 87.9321 359.615C87.9321 363.181 101.947 366.071 119.236 366.071Z" fill="#6C63FF"/>
<path opacity="0.1" d="M333.133 341.231C350.421 341.231 364.437 338.34 364.437 334.774C364.437 331.208 350.421 328.317 333.133 328.317C315.845 328.317 301.83 331.208 301.83 334.774C301.83 338.34 315.845 341.231 333.133 341.231Z" fill="#6C63FF"/>
<path opacity="0.1" d="M226.912 335.811C255.026 335.811 277.817 331.956 277.817 327.201C277.817 322.445 255.026 318.59 226.912 318.59C198.799 318.59 176.008 322.445 176.008 327.201C176.008 331.956 198.799 335.811 226.912 335.811Z" fill="#6C63FF"/>
<path opacity="0.1" d="M376.902 301.183C435.541 301.183 483.076 293.749 483.076 284.579C483.076 275.409 435.541 267.975 376.902 267.975C318.263 267.975 270.728 275.409 270.728 284.579C270.728 293.749 318.263 301.183 376.902 301.183Z" fill="#6C63FF"/>
<path d="M22.0778 255.599C19.6928 260.231 18.5789 265.412 18.8493 270.614C19.1197 275.815 20.7647 280.853 23.6172 285.214C24.5531 286.616 25.414 287.625 26.1019 287.891C29.4007 289.185 36.0076 292.367 36.0076 292.367L51.9167 286.125C51.9167 286.125 54.4996 272.483 56.9421 260.77C58.6079 252.781 60.2175 245.694 60.8773 244.451C62.5243 241.391 60.8773 208.076 60.8773 208.076C60.8773 208.076 44.9682 207.01 40.5932 219.256L38.6794 222.993L22.0778 255.599Z" fill="#A8A8A8"/>
<path opacity="0.1" d="M43.1992 259.28C52.871 270.348 56.9512 260.775 56.9512 260.775C58.617 252.786 60.2266 245.699 60.8864 244.456C62.5334 241.396 60.8864 208.081 60.8864 208.081C60.8864 208.081 44.9773 207.015 40.6023 219.26L38.6885 222.998C37.4626 232.795 36.2507 251.315 43.1992 259.28Z" fill="white"/>
<path d="M45.3237 290.129L101.473 283.654L111.492 217.835L103.916 200.741C100.715 193.461 96.2835 186.785 90.8144 181.006C87.0009 176.993 82.3919 173.134 77.5443 171.195C76.8819 170.929 76.2055 170.698 75.5182 170.504C74.7282 170.264 73.8926 170.214 73.0795 170.358C72.2664 170.502 71.4988 170.835 70.8391 171.331C63.914 176.232 61.4387 197.069 60.6386 207.099C60.3094 211.221 59.7517 215.322 58.9681 219.382L45.3237 290.129Z" fill="#A8A8A8"/>
<path opacity="0.1" d="M82.7054 217.125L71.0076 245.858C77.1372 241.382 86.2195 217.008 86.2195 217.008L94.3565 244.797L87.8712 215.509C88.8206 209.148 89.0966 202.706 88.6947 196.288C88.18 188.935 81.2689 177.133 77.5162 171.19C76.8538 170.924 76.1775 170.693 75.4902 170.499C74.7001 170.259 73.8645 170.209 73.0514 170.353C72.2384 170.497 71.4707 170.83 70.811 171.326C73.7589 177.236 81.1286 192.013 83.3745 196.405C86.2241 201.937 82.7054 217.125 82.7054 217.125Z" fill="white"/>
<path d="M92.2559 292.367H122.722C123.975 292.367 125.215 292.113 126.367 291.62C127.519 291.127 128.558 290.405 129.421 289.498C130.285 288.591 130.955 287.519 131.39 286.345C131.825 285.172 132.017 283.922 131.954 282.673C131.28 269.629 129.572 246.372 125.511 231.608C123.316 223.643 120.766 219.461 118.426 217.401C117.329 216.344 115.913 215.679 114.398 215.509C113.248 215.41 112.098 215.689 111.122 216.303C105.465 221.718 98.8581 250.212 98.8581 250.212L92.2559 292.367Z" fill="#A8A8A8"/>
<path opacity="0.1" d="M120.382 267.097C121.636 270.568 122.132 274.572 120.382 278.473L113.593 281.823C113.593 281.823 95.344 274.1 97.562 258.271C97.562 258.271 98.1609 255.001 104.445 255.253C107.979 255.424 111.382 256.641 114.221 258.751C117.059 260.86 119.204 263.765 120.382 267.097Z" fill="white"/>
<path opacity="0.1" d="M113.129 225.488C112.918 219.938 115.936 218.013 118.43 217.401C117.333 216.344 115.917 215.679 114.402 215.509C112.666 216.959 111.435 218.922 110.888 221.115L104.524 252.085C104.524 252.085 113.484 234.79 113.129 225.488Z" fill="white"/>
<path d="M84.2403 249.979L99.3258 270.582L101.941 287.588L92.2463 292.367L78.2697 295.451C76.9236 295.749 75.5395 295.839 74.1661 295.717L36.0264 292.367L41.2155 280.355L59.1367 255.234L84.2403 249.979Z" fill="#A8A8A8"/>
<path opacity="0.1" d="M78.4006 242.905C78.4006 242.905 88.6947 243.611 84.8298 261.271C80.9648 278.93 41.1968 280.346 41.1968 280.346C41.1968 280.346 49.6473 265.396 62.646 254.683C64.1059 253.482 65.5143 252.23 66.8572 250.894C69.8472 247.909 75.5651 242.662 78.4006 242.905Z" fill="white"/>
<path opacity="0.1" d="M87.6602 256.22C87.6602 256.22 101.609 268.895 100.294 288.4L87.6602 256.22Z" fill="black"/>
<path opacity="0.1" d="M111.127 216.303C111.127 216.303 96.4905 235.738 94.8481 265.644L111.127 216.303Z" fill="black"/>
<path opacity="0.1" d="M60.8915 208.066C60.8915 208.066 67.9757 240.186 50.2886 264.396L60.8915 208.066Z" fill="black"/>
<path d="M189.919 327.023H266.254C266.992 327.019 267.717 326.825 268.357 326.459C268.997 326.093 269.532 325.567 269.909 324.934C270.285 324.3 270.492 323.58 270.507 322.844C270.523 322.107 270.347 321.379 269.998 320.73L231.849 249.96C231.483 249.281 230.94 248.714 230.278 248.319C229.615 247.924 228.858 247.715 228.087 247.715C227.315 247.715 226.558 247.924 225.895 248.319C225.233 248.714 224.69 249.281 224.325 249.96L186.157 320.73C185.807 321.381 185.631 322.11 185.648 322.848C185.664 323.587 185.872 324.308 186.251 324.942C186.63 325.576 187.167 326.101 187.81 326.466C188.453 326.83 189.179 327.023 189.919 327.023ZM232.944 314.091H223.23V304.397H232.944V314.091ZM232.944 297.931H223.23V278.538H232.944V297.931Z" fill="#464353"/>
<path opacity="0.1" d="M189.919 327.023H266.254C266.992 327.019 267.717 326.825 268.357 326.459C268.997 326.093 269.532 325.567 269.909 324.934C270.285 324.3 270.492 323.58 270.507 322.844C270.523 322.107 270.347 321.379 269.998 320.73L231.849 249.96C231.483 249.281 230.94 248.714 230.278 248.319C229.615 247.924 228.858 247.715 228.087 247.715C227.315 247.715 226.558 247.924 225.895 248.319C225.233 248.714 224.69 249.281 224.325 249.96L186.157 320.73C185.807 321.381 185.631 322.11 185.648 322.848C185.664 323.587 185.872 324.308 186.251 324.942C186.63 325.576 187.167 326.101 187.81 326.466C188.453 326.83 189.179 327.023 189.919 327.023ZM232.944 314.091H223.23V304.397H232.944V314.091ZM232.944 297.931H223.23V278.538H232.944V297.931Z" fill="black"/>
<path d="M189.919 329.359H266.254C266.992 329.355 267.717 329.161 268.357 328.795C268.997 328.429 269.532 327.903 269.909 327.27C270.285 326.636 270.492 325.916 270.507 325.18C270.523 324.443 270.347 323.715 269.998 323.066L231.849 252.296C231.483 251.617 230.94 251.05 230.278 250.655C229.615 250.26 228.858 250.051 228.087 250.051C227.315 250.051 226.558 250.26 225.895 250.655C225.233 251.05 224.69 251.617 224.325 252.296L186.157 323.066C185.807 323.716 185.631 324.446 185.648 325.184C185.664 325.923 185.872 326.644 186.251 327.278C186.63 327.912 187.167 328.437 187.81 328.802C188.453 329.166 189.179 329.359 189.919 329.359ZM232.944 316.427H223.23V306.733H232.944V316.427ZM232.944 300.267H223.23V280.874H232.944V300.267Z" fill="#464353"/>
<path d="M109.475 110.876C109.423 111.852 109.91 112.745 110.195 113.679C110.668 115.484 110.621 117.385 110.06 119.164C109.536 121.033 108.656 123.009 109.325 124.836C109.48 125.266 109.713 125.658 109.854 126.088C110.434 127.863 109.358 129.732 108.179 131.185L112.806 134.423C113.482 134.982 114.286 135.365 115.146 135.539C116.012 135.642 117.018 135.179 117.195 134.329C117.256 134.039 117.195 133.736 117.252 133.441C117.309 133.061 117.456 132.699 117.681 132.387C117.907 132.075 118.204 131.821 118.548 131.647C119.243 131.307 120.018 131.163 120.789 131.232C123.629 131.386 126.044 133.25 128.627 134.446C130.329 135.182 132.094 135.767 133.9 136.193C134.925 136.46 136.062 136.703 136.988 136.193C137.915 135.684 138.34 134.502 138.27 133.432C138.126 132.368 137.794 131.338 137.288 130.391C136.777 129.444 136.469 128.402 136.385 127.331C136.385 125.761 137.246 124.331 137.536 122.789C137.943 120.598 137.115 118.37 136.104 116.38C135.093 114.389 133.867 112.474 133.376 110.306C133.278 109.649 133.107 109.005 132.866 108.386C132.632 107.916 132.315 107.492 131.93 107.134C130.194 105.419 127.719 104.606 125.295 104.429C122.871 104.251 120.424 104.648 118.019 105.064C117.101 105.195 116.198 105.409 115.319 105.704C114.064 106.202 112.872 106.847 111.768 107.624C110.673 108.381 109.545 109.488 109.475 110.876Z" fill="#464353"/>
<g opacity="0.1">
<path opacity="0.1" d="M136.371 126.373C136.371 126.513 136.371 126.653 136.399 126.788C136.544 125.419 137.265 124.135 137.522 122.766C137.621 122.217 137.651 121.658 137.611 121.103C137.611 121.345 137.564 121.57 137.522 121.831C137.227 123.373 136.352 124.803 136.371 126.373Z" fill="black"/>
<path opacity="0.1" d="M110.509 115.548C110.564 114.602 110.458 113.654 110.196 112.745C109.919 112.036 109.692 111.308 109.517 110.567C109.517 110.665 109.48 110.759 109.475 110.857C109.423 111.833 109.91 112.726 110.196 113.66C110.376 114.274 110.482 114.908 110.509 115.548Z" fill="black"/>
<path opacity="0.1" d="M138.229 133.175C138.196 133.592 138.065 133.996 137.847 134.354C137.63 134.712 137.331 135.014 136.975 135.235C136.039 135.744 134.911 135.501 133.886 135.235C132.08 134.809 130.315 134.223 128.613 133.483C126.03 132.292 123.616 130.428 120.775 130.273C120.004 130.205 119.229 130.349 118.534 130.689C118.19 130.863 117.893 131.117 117.668 131.429C117.442 131.741 117.295 132.103 117.238 132.483C117.205 132.778 117.238 133.081 117.182 133.371C116.999 134.221 115.998 134.684 115.132 134.581C114.272 134.407 113.468 134.023 112.793 133.464L108.633 130.549C108.479 130.759 108.324 130.965 108.165 131.156L112.793 134.399C113.468 134.958 114.272 135.341 115.132 135.515C115.998 135.618 117.004 135.156 117.182 134.305C117.243 134.016 117.182 133.712 117.238 133.418C117.295 133.037 117.442 132.676 117.668 132.363C117.893 132.051 118.19 131.798 118.534 131.624C119.229 131.283 120.004 131.139 120.775 131.208C123.616 131.362 126.03 133.226 128.613 134.417C130.315 135.157 132.08 135.744 133.886 136.169C134.911 136.436 136.048 136.679 136.975 136.169C137.901 135.66 138.327 134.478 138.257 133.408C138.252 133.329 138.238 133.254 138.229 133.175Z" fill="black"/>
<path opacity="0.1" d="M109.854 126.064C109.912 126.252 109.954 126.444 109.98 126.639C110.053 126.133 110.01 125.617 109.854 125.13C109.714 124.7 109.48 124.308 109.325 123.878C109.213 123.566 109.14 123.241 109.11 122.911C109.041 123.553 109.115 124.202 109.325 124.812C109.48 125.242 109.714 125.639 109.854 126.064Z" fill="black"/>
</g>
<path d="M115.347 303.341C115.315 303.474 115.239 303.593 115.132 303.678C115.018 303.737 114.89 303.764 114.762 303.757C113.096 303.794 111.431 303.757 109.77 303.874C108.197 304.009 106.62 304.341 105.053 304.164C104.551 304.181 104.057 304.043 103.638 303.767C103.219 303.492 102.896 303.093 102.713 302.626C102.614 302.423 102.527 302.214 102.451 302C102.019 300.899 101.802 299.726 101.81 298.543C101.81 298.23 101.81 297.927 101.81 297.609C101.79 297.266 101.744 296.926 101.675 296.59C101.533 296.206 101.55 295.781 101.721 295.408C102.386 294.198 103.991 293.955 105.226 293.862C108.088 293.647 110.966 293.858 113.766 294.488C113.985 295.562 114.233 296.628 114.495 297.693C114.689 298.475 114.895 299.253 115.113 300.029C115.26 300.509 115.378 300.997 115.469 301.491C115.584 302.108 115.543 302.745 115.347 303.341Z" fill="#464353"/>
<path opacity="0.06" d="M115.347 303.342C115.315 303.475 115.239 303.593 115.132 303.678C115.018 303.737 114.89 303.764 114.762 303.757C113.096 303.795 111.43 303.757 109.769 303.874C108.197 304.01 106.62 304.341 105.053 304.164C104.551 304.182 104.057 304.043 103.638 303.768C103.218 303.492 102.895 303.094 102.713 302.627C102.614 302.423 102.527 302.214 102.451 302.001H103.05C105.02 302.001 106.995 301.931 108.965 301.931C109.559 301.931 110.158 301.903 110.747 301.833C111.337 301.762 111.819 301.664 112.357 301.599C113.162 301.522 113.972 301.489 114.781 301.501H115.445C115.567 302.113 115.533 302.746 115.347 303.342Z" fill="black"/>
<path d="M149.809 294.666C149.288 295.274 148.622 295.741 147.872 296.025C144.541 297.427 140.69 296.796 137.251 295.656C136.481 295.371 135.691 295.144 134.888 294.979C134.154 294.876 133.415 294.824 132.674 294.824C132.146 294.824 131.617 294.782 131.088 294.75C129.75 294.666 128.416 294.535 127.087 294.404C126.161 294.336 125.241 294.197 124.336 293.988C124.079 293.922 123.832 293.822 123.602 293.689C123.405 293.603 123.237 293.463 123.118 293.285C122.999 293.107 122.933 292.899 122.928 292.685C122.965 292.091 123.583 291.75 124.126 291.493C128.94 289.414 134.172 288.513 139.366 287.789C139.894 287.7 140.408 287.543 140.896 287.321C141.481 287.088 141.541 287.471 141.831 287.901C141.969 288.1 142.125 288.284 142.299 288.452C142.864 288.961 143.526 289.349 144.246 289.592C145.509 290.059 146.862 290.185 148.125 290.629C148.507 290.761 148.873 290.937 149.215 291.152C149.517 291.317 149.778 291.548 149.977 291.828C150.176 292.108 150.308 292.43 150.363 292.769C150.418 293.108 150.394 293.456 150.295 293.784C150.195 294.113 150.021 294.414 149.786 294.666H149.809Z" fill="#464353"/>
<path opacity="0.06" d="M149.809 294.666C149.288 295.274 148.622 295.741 147.872 296.025C144.54 297.427 140.689 296.796 137.25 295.656C136.481 295.371 135.691 295.144 134.887 294.979C134.154 294.876 133.415 294.824 132.674 294.824C132.145 294.824 131.617 294.782 131.088 294.75C131.518 294.343 131.958 293.946 132.407 293.563C132.733 293.259 133.108 293.013 133.516 292.834C134.025 292.668 134.567 292.631 135.093 292.727C137.77 293.096 140.175 294.969 142.875 294.806C144.132 294.661 145.349 294.269 146.454 293.652C147.353 293.286 148.154 292.717 148.794 291.989C148.987 291.738 149.134 291.454 149.229 291.152C149.531 291.317 149.792 291.548 149.99 291.828C150.189 292.108 150.321 292.43 150.376 292.769C150.432 293.108 150.408 293.456 150.308 293.784C150.208 294.113 150.034 294.414 149.8 294.666H149.809Z" fill="black"/>
<path d="M148.869 213.472C148.401 214.406 147.802 215.42 146.791 215.71C145.322 216.13 143.909 214.813 143.268 213.43C142.394 211.4 142.229 209.136 142.8 207.001C143.066 205.922 143.474 204.885 143.703 203.801C143.868 202.889 143.968 201.966 144.002 201.04C144.141 199.658 144.108 198.265 143.904 196.891C143.151 192.878 139.693 189.883 138.542 185.94C137.962 183.973 137.99 181.88 138.022 179.829C138.011 179.311 138.065 178.793 138.181 178.287C138.216 178.15 138.263 178.015 138.322 177.886C139.094 176.176 141.382 175.942 142.973 174.947C143.853 174.4 145.851 172.639 146.59 174.246C146.749 174.604 146.869 174.979 146.945 175.363C147.25 176.792 147.128 178.47 147.203 179.82C147.488 184.922 148.761 190.014 148.171 195.088C148.031 195.953 147.962 196.828 147.965 197.704C148.092 199.9 149.467 201.801 150.099 203.904C151.072 207.066 150.291 210.51 148.869 213.472Z" fill="#FBBEBE"/>
<path opacity="0.1" d="M146.969 175.372C146.621 175.246 146.241 175.246 145.893 175.372L142.725 176.307C141.615 176.602 140.533 176.995 139.492 177.479C139.037 177.702 138.606 177.97 138.205 178.278C138.24 178.14 138.287 178.006 138.345 177.876C139.118 176.166 141.406 175.933 142.997 174.938C143.876 174.391 145.874 172.63 146.613 174.237C146.774 174.601 146.894 174.982 146.969 175.372Z" fill="black"/>
<path d="M147.175 175.017C146.984 174.901 146.769 174.832 146.546 174.814C146.324 174.796 146.1 174.83 145.893 174.914L142.725 175.849C141.615 176.144 140.533 176.537 139.492 177.021C138.939 177.29 138.422 177.626 137.952 178.021C136.474 175.456 136.081 172.415 135.809 169.471C135.66 167.757 135.547 166.038 135.482 164.332C135.408 163.105 135.433 161.874 135.557 160.651C135.735 159.249 136.142 157.88 136.394 156.488C136.545 155.673 136.642 154.849 136.684 154.021C136.806 152.213 136.723 150.396 136.436 148.607C136.164 146.704 135.729 144.828 135.136 143C134.836 142.164 134.476 141.356 134.148 140.533L134.036 140.244C133.444 138.737 132.961 137.19 132.59 135.614C132.44 134.969 132.431 134.292 131.935 133.853C132.401 133.797 132.87 133.778 133.339 133.797C133.432 133.797 133.526 133.797 133.62 133.797C135.542 133.917 137.394 134.564 138.972 135.665C141.006 137.13 142.551 139.171 143.408 141.524C144.396 144.154 144.559 147.013 144.686 149.821C144.938 155.34 145.094 160.863 145.154 166.388C145.154 167.449 145.2 168.579 145.809 169.453C145.979 169.668 146.136 169.894 146.277 170.13C146.497 170.597 146.464 171.116 146.642 171.588C146.772 171.871 146.921 172.146 147.086 172.41C147.296 172.81 147.412 173.252 147.428 173.704C147.443 174.155 147.357 174.604 147.175 175.017Z" fill="#464353"/>
<path d="M116.03 120.178C115.562 120.023 115.094 119.86 114.626 119.71L115.6 119.785C115.762 119.894 115.907 120.026 116.03 120.178Z" fill="#FBBEBE"/>
<path d="M135.191 137.039C135.098 137.356 135.004 137.674 134.901 137.973C134.664 138.741 134.374 139.492 134.035 140.22C133.505 141.418 132.754 142.505 131.822 143.425C131.514 143.749 131.137 143.998 130.718 144.154C130.364 144.245 129.997 144.279 129.632 144.257C128.385 144.257 127.137 144.238 125.889 144.201C124.918 144.212 123.948 144.116 122.997 143.916C121.951 143.631 120.956 143.183 120.05 142.589C116.554 140.431 113.681 137.142 112.451 133.245C112.296 132.75 112.189 132.157 112.53 131.769C112.866 131.495 113.29 131.351 113.723 131.362H113.779C114.785 131.232 115.755 130.899 116.629 130.386C117.195 130.096 117.652 129.631 117.93 129.059C118.119 128.382 118.105 127.663 117.888 126.994L116.849 122.285C116.741 121.531 116.457 120.812 116.021 120.187C116.325 120.294 116.629 120.393 116.957 120.477C119.848 121.257 123.011 120.785 125.847 121.808C126.933 122.205 128.018 122.92 128.346 124.032C128.893 125.901 127.064 127.84 127.588 129.708C127.939 130.979 129.235 131.713 130.395 132.306L131.177 132.703L133.343 133.801L133.642 133.951L133.689 133.974C134.372 134.32 135.093 134.749 135.332 135.483C135.433 136.004 135.385 136.544 135.191 137.039Z" fill="#FBBEBE"/>
<path opacity="0.1" d="M140.9 148.008C140.82 149.203 140.529 150.373 140.039 151.466C139.099 153.355 138.596 155.43 138.565 157.539C138.205 163.846 135.804 171.354 139.243 176.652C139.328 176.783 139.412 176.914 139.491 177.049C138.939 177.318 138.422 177.654 137.952 178.049C136.473 175.484 136.08 172.443 135.809 169.499C135.659 167.785 135.547 166.066 135.481 164.36C135.408 163.133 135.433 161.902 135.556 160.679C135.734 159.277 136.141 157.908 136.394 156.516C136.544 155.701 136.641 154.877 136.684 154.049C136.805 152.241 136.722 150.424 136.436 148.635C136.164 146.732 135.729 144.856 135.135 143.028C134.836 142.192 134.475 141.384 134.148 140.561L134.035 140.272C133.505 141.469 132.754 142.556 131.822 143.477C131.514 143.8 131.137 144.05 130.718 144.205C130.364 144.296 129.997 144.331 129.632 144.308C128.385 144.308 127.137 144.29 125.889 144.252C124.918 144.263 123.948 144.167 122.997 143.967C121.951 143.682 120.956 143.234 120.05 142.64C116.554 140.482 113.681 137.193 112.451 133.297C112.296 132.801 112.189 132.208 112.53 131.82C112.866 131.546 113.29 131.402 113.723 131.414H113.779L117.991 136.614C118.474 137.164 118.883 137.775 119.207 138.431C119.27 138.651 119.401 138.846 119.582 138.987C119.728 139.054 119.889 139.083 120.05 139.071C124.003 139.071 129.272 139.071 133.226 139.071C133.239 138.372 133.036 137.685 132.646 137.104C132.524 137.132 132.36 137.142 132.613 137.067C132.384 135.55 131.894 134.085 131.162 132.736C131.119 132.643 131.07 132.553 131.017 132.465C130.703 132.003 130.469 131.491 130.325 130.951C130.824 130.792 131.36 130.792 131.86 130.951C132.435 131.199 132.735 131.82 132.987 132.395C133.203 132.862 133.418 133.362 133.61 133.852C133.61 133.904 133.656 133.96 133.675 134.011C134.083 134.978 134.345 136 134.452 137.043C134.48 137.427 134.574 137.912 134.892 138.039C134.942 138.061 134.996 138.074 135.051 138.076C135.38 137.956 135.738 137.936 136.079 138.019C136.42 138.102 136.728 138.285 136.965 138.543C137.425 139.07 137.747 139.702 137.9 140.384C138.053 141.065 138.275 141.729 138.565 142.365C139.168 143.514 138.247 144.028 139.337 144.733C139.847 145.013 140.285 145.407 140.619 145.883C140.927 146.546 141.025 147.288 140.9 148.008Z" fill="black"/>
<path opacity="0.1" d="M113.723 294.507C113.943 295.581 114.191 296.646 114.453 297.711L114.425 297.777C112.287 296.842 110.097 295.866 107.762 295.66C105.596 295.474 103.242 296.058 101.768 297.627C101.748 297.285 101.702 296.945 101.633 296.609C101.491 296.224 101.508 295.799 101.679 295.427C102.344 294.217 103.949 293.974 105.184 293.88C108.046 293.665 110.924 293.876 113.723 294.507Z" fill="black"/>
<path opacity="0.1" d="M132.155 137.959C132.374 137.959 132.295 137.959 132.187 137.997C132.08 138.034 131.903 138.034 132.155 137.959Z" fill="black"/>
<path opacity="0.1" d="M142.323 288.452C140.236 289.78 138.275 291.295 136.464 292.979C135.939 293.541 135.312 293.999 134.616 294.329C133.898 294.56 133.139 294.638 132.389 294.558C129.445 294.439 126.511 294.149 123.602 293.689C123.405 293.603 123.237 293.463 123.118 293.285C122.999 293.107 122.933 292.899 122.928 292.685C122.965 292.091 123.583 291.75 124.126 291.493C128.94 289.414 134.172 288.513 139.366 287.789C139.894 287.7 140.408 287.543 140.896 287.321C141.481 287.088 141.541 287.471 141.831 287.901C141.976 288.101 142.141 288.285 142.323 288.452Z" fill="black"/>
<path d="M107.992 132.54C108.679 133.152 109.466 133.647 110.163 134.24C112.034 135.824 113.214 138.039 114.374 140.197C113.686 140.445 112.942 140.496 112.226 140.342C111.858 142.414 111.92 144.54 112.409 146.588C111.472 147.23 110.745 148.131 110.317 149.181C109.984 150.247 109.756 151.342 109.634 152.452C108.96 157.313 108.283 162.175 107.603 167.037C107.59 167.513 107.426 167.973 107.135 168.35C107.005 168.455 106.886 168.572 106.78 168.701C106.636 169.015 106.58 169.362 106.616 169.705C106.588 170.046 106.363 170.453 106.022 170.406C105.856 170.366 105.709 170.27 105.605 170.135C105.264 169.774 104.951 169.386 104.669 168.976C101.909 174.265 100.58 179.965 99.1199 185.748C98.0765 189.869 97.033 194.036 96.9816 198.288C96.9957 200.299 97.1222 202.308 97.3606 204.305L97.7723 208.407C98.1046 211.706 98.4368 215.009 98.7971 218.307C99.031 220.4 99.265 222.512 100.018 224.484C101.141 227.478 99.8967 230.856 100.374 234.024C100.748 236.504 101.492 239.069 100.744 241.461C100.444 242.419 99.9201 243.293 99.527 244.218C98.5631 246.516 98.4649 249.072 98.3806 251.562C98.2291 253.745 98.3107 255.937 98.6239 258.103C99.0264 260.341 99.9294 262.532 99.7516 264.793C99.5036 268.012 97.1266 270.764 96.8365 273.978C96.6072 276.543 97.7349 279.019 98.9468 281.294C99.8405 282.972 98.5959 285.139 98.1233 286.985C97.1874 290.601 98.7456 294.385 100.655 297.595C100.703 297.705 100.79 297.794 100.898 297.847C101.118 297.926 101.314 297.712 101.46 297.529C102.896 295.689 105.441 294.993 107.776 295.193C110.111 295.394 112.296 296.357 114.439 297.31L117.476 290.559C117.991 289.414 118.515 288.176 118.258 286.947C118.075 286.069 117.509 285.326 117.107 284.523C116.171 282.626 116.124 280.416 116.115 278.29L116.058 266.283C118.426 263.312 119.872 259.78 120.784 256.089C122.184 261.281 122.281 266.736 121.065 271.974C120.84 272.766 120.684 273.575 120.597 274.394C120.415 277.725 123.03 280.542 123.728 283.803C123.795 284.053 123.814 284.313 123.784 284.569C123.705 284.885 123.574 285.185 123.395 285.457C122.141 287.728 122.277 290.479 122.46 293.068C125.741 293.638 129.056 293.992 132.384 294.128C133.134 294.203 133.892 294.125 134.611 293.899C135.307 293.567 135.934 293.108 136.459 292.544C138.584 290.549 140.917 288.787 143.417 287.288C142.021 284.975 140.066 283.048 137.732 281.682C138.486 280.575 140.203 280.664 141.204 279.776C141.707 279.279 142.035 278.634 142.14 277.935C142.514 276.104 142.051 274.198 141.588 272.399C140.689 268.858 139.786 265.302 138.312 261.957C137.646 260.582 137.058 259.171 136.553 257.729C135.327 253.702 136.183 249.32 135.257 245.204C134.957 243.886 134.476 242.527 134.812 241.214C135.327 239.191 137.62 237.99 138.125 235.963C139.936 228.744 140.259 221.265 141.288 213.897C141.519 212.49 141.642 211.067 141.658 209.641C141.658 208.15 141.391 206.674 141.284 205.188C140.863 199.241 142.767 193.308 142.28 187.365C141.969 183.703 140.76 180.173 138.762 177.087C135.322 171.784 137.723 164.281 138.083 157.974C138.11 155.865 138.612 153.789 139.552 151.9C140.047 150.809 140.34 149.638 140.418 148.443C140.562 147.706 140.471 146.943 140.156 146.261C139.827 145.783 139.389 145.389 138.879 145.112C137.788 144.402 138.71 143.888 138.107 142.739C137.816 142.103 137.594 141.439 137.442 140.758C137.289 140.077 136.967 139.446 136.506 138.922C136.27 138.663 135.961 138.48 135.621 138.397C135.28 138.314 134.922 138.334 134.593 138.454C134.148 138.454 134.026 137.866 133.989 137.422C133.863 135.796 133.189 134.268 132.529 132.773C132.276 132.199 131.977 131.577 131.401 131.33C130.9 131.173 130.363 131.173 129.862 131.33C130.007 131.871 130.243 132.385 130.559 132.848C131.37 134.269 131.91 135.828 132.15 137.445C131.682 137.585 132.618 137.445 132.15 137.445C132.569 138.028 132.784 138.732 132.763 139.449C128.814 139.449 123.545 139.449 119.591 139.449C119.431 139.462 119.269 139.433 119.123 139.365C118.943 139.223 118.811 139.029 118.744 138.809C118.423 138.153 118.013 137.543 117.528 136.997L112.895 131.292C112.792 131.143 112.656 131.02 112.498 130.933C112.306 130.879 112.104 130.879 111.913 130.933C110.411 131.152 109.302 131.778 107.992 132.54Z" fill="#6C63FF"/>
<path opacity="0.1" d="M124.616 209.832C125.415 209.822 126.202 210.025 126.895 210.421C127.239 210.623 127.524 210.911 127.723 211.257C127.922 211.603 128.027 211.994 128.027 212.393C127.976 213.276 127.298 213.976 126.806 214.729C126.502 215.187 126.26 215.683 126.086 216.205C126.032 216.324 126.019 216.457 126.048 216.583C126.104 216.761 126.296 216.85 126.46 216.929C127.055 217.198 127.564 217.627 127.928 218.169C128.293 218.71 128.499 219.342 128.523 219.994C128.481 221.816 126.699 223.292 126.797 225.133C126.841 225.516 126.907 225.897 126.993 226.273C127.207 227.842 126.989 229.439 126.362 230.894C125.796 232.361 125.023 233.739 124.415 235.192C122.773 239.14 122.417 243.512 122.544 247.806C122.642 250.721 121.608 253.496 120.672 256.272C121.201 250.682 121.341 245.062 121.093 239.453C121.027 237.93 120.836 236.491 120.906 234.963C121.018 232.538 122.375 230.333 122.721 227.955C122.918 226.595 122.787 225.212 122.82 223.839C122.885 221.036 123.648 218.27 123.699 215.457C123.765 213.472 123.582 211.426 124.616 209.832Z" fill="black"/>
<path d="M105.091 133.54C104.16 134.003 103.29 134.577 102.498 135.25C101.671 136.07 100.98 137.016 100.449 138.053C99.8027 139.228 99.2232 140.438 98.7129 141.678C98.0532 143.285 97.5057 145.065 97.9596 146.743C98.3714 148.261 99.5365 149.443 100.341 150.793C101.146 152.143 101.619 153.727 102.236 155.208C103.06 157.184 104.188 159.025 105.002 161.006C105.816 162.987 106.307 165.211 105.792 167.271C105.643 167.878 104.655 168.35 104.655 168.972C104.655 169.999 106.143 171.116 107.131 171.415C108.268 171.765 109.508 171.242 110.439 170.481C112.147 169.131 113.186 167.108 113.953 165.071C115.188 161.8 115.848 158.329 116.442 154.881C116.873 152.349 117.275 149.812 117.504 147.261C117.715 144.963 117.78 142.589 117.172 140.384C116.605 138.36 115.5 136.526 113.976 135.077C112.76 133.909 110.766 132.339 108.998 132.297C107.599 132.292 106.288 132.881 105.091 133.54Z" fill="#464353"/>
<path d="M118.393 189.86C118.342 190.179 118.223 190.483 118.043 190.752C117.862 191.021 117.626 191.247 117.35 191.416C116.798 191.751 116.196 191.997 115.567 192.144C114.313 192.509 112.984 192.845 111.716 192.523C110.719 192.199 109.799 191.676 109.011 190.986L94.843 180.156C93.7048 179.351 92.6583 178.423 91.722 177.39C91.1845 176.724 90.6906 176.023 90.2434 175.293C89.6513 174.457 89.1876 173.537 88.8678 172.564C88.7535 172.136 88.6969 171.695 88.6993 171.251C88.6956 170.832 88.7986 170.419 88.9988 170.051C89.3404 169.481 90.0703 169.364 90.6692 169.205C92.6795 168.686 94.766 168.528 96.8317 168.738C97.0131 168.729 97.1925 168.78 97.3427 168.882C97.4929 168.984 97.6059 169.132 97.6646 169.303C97.9781 169.878 98.2494 170.476 98.5302 171.074C98.9611 172.093 99.5226 173.053 100.201 173.928C100.854 174.638 101.549 175.307 102.283 175.933C103.78 177.334 105.006 179.016 106.602 180.306C108.45 181.796 110.696 182.688 112.802 183.786C114.907 184.884 116.985 186.309 118.042 188.435C118.288 188.869 118.409 189.362 118.393 189.86Z" fill="#FBBEBE"/>
<path opacity="0.1" d="M134.793 114.305C134.794 117.255 133.666 120.093 131.64 122.24C129.614 124.387 126.843 125.68 123.894 125.855C120.945 126.03 118.041 125.073 115.775 123.181C113.509 121.288 112.052 118.603 111.703 115.674C111.354 112.745 112.139 109.794 113.897 107.423C115.655 105.053 118.254 103.442 121.162 102.922C124.07 102.401 127.067 103.009 129.541 104.621C132.014 106.233 133.778 108.728 134.47 111.596C134.685 112.483 134.794 113.393 134.793 114.305Z" fill="black"/>
<path d="M134.793 113.838C134.794 116.787 133.666 119.626 131.64 121.773C129.614 123.919 126.843 125.212 123.894 125.387C120.945 125.562 118.041 124.605 115.775 122.713C113.509 120.821 112.052 118.135 111.703 115.206C111.354 112.277 112.139 109.326 113.897 106.955C115.655 104.585 118.254 102.975 121.162 102.454C124.07 101.933 127.067 102.541 129.541 104.153C132.014 105.765 133.778 108.26 134.47 111.128C134.685 112.015 134.794 112.925 134.793 113.838Z" fill="#FBBEBE"/>
<path opacity="0.1" d="M98.5302 171.055C97.9968 171.396 97.206 171.284 96.5462 171.135C93.9446 170.555 91.0716 170.139 88.6993 171.251C88.6956 170.832 88.7986 170.419 88.9988 170.051C89.3404 169.481 90.0703 169.364 90.6692 169.205C92.6795 168.686 94.766 168.528 96.8317 168.738C97.0131 168.729 97.1925 168.78 97.3427 168.882C97.493 168.984 97.6059 169.132 97.6646 169.303C97.9781 169.859 98.2494 170.457 98.5302 171.055Z" fill="black"/>
<path d="M93.6406 155.325C93.065 157.194 92.5924 159.114 91.4648 160.698C91.092 161.114 90.8113 161.605 90.6412 162.137C90.6284 162.53 90.5639 162.919 90.4494 163.296C90.2903 163.613 89.9534 163.823 89.8177 164.15C89.6165 164.618 89.8785 165.22 89.6118 165.66C89.4869 165.836 89.3372 165.993 89.1673 166.127C88.5309 166.715 88.3719 167.654 88.3578 168.523C88.3438 169.392 88.428 170.28 88.1426 171.098C90.6132 169.626 93.7575 170.065 96.565 170.691C97.3465 170.864 98.315 170.995 98.8204 170.369C99.3257 169.743 99.0356 168.921 99.1058 168.168C99.1994 167.187 99.8732 166.374 100.29 165.482C100.758 164.478 100.917 163.356 101.277 162.31C102.021 160.109 103.616 158.315 104.641 156.236C105.021 155.521 105.247 154.735 105.306 153.928C105.27 152.882 104.997 151.858 104.506 150.934C103.532 148.781 102.373 146.716 101.043 144.762C100.449 143.888 99.424 142.272 98.5022 143.669C97.7535 144.795 97.2856 146.229 96.7335 147.462C95.5436 150.018 94.5108 152.644 93.6406 155.325Z" fill="#464353"/>
<path d="M135.861 137.188C134.456 137.285 133.047 137.067 131.737 136.55C130.427 136.034 129.25 135.232 128.29 134.203C128.128 134.056 128.011 133.866 127.953 133.656C127.926 133.383 128.003 133.11 128.168 132.89C128.73 132.026 129.698 131.456 130.147 130.526C130.597 129.596 130.442 128.526 130.484 127.508C130.559 125.681 131.28 123.873 131.341 122.074C131.362 121.614 131.328 121.153 131.238 120.701C131.022 120.03 130.89 119.335 130.845 118.631C130.906 117.262 132.141 116.197 132.347 114.847C132.613 113.128 131.186 111.633 129.75 110.642C128.654 109.884 127.465 109.27 126.212 108.815C125.443 108.54 124.646 108.348 123.835 108.241C122.324 108.037 120.786 108.209 119.357 108.741C118.766 108.963 118.206 109.262 117.692 109.628C117.385 109.822 117.13 110.086 116.948 110.399C116.798 110.752 116.73 111.134 116.751 111.516C116.723 113.427 116.938 115.459 116.026 117.122C115.558 118.015 114.762 118.739 114.374 119.682C114.215 120.075 114.116 120.489 114.079 120.911C114.032 121.349 114.009 121.789 114.009 122.229C113.981 124.691 114.009 127.288 115.263 129.423C115.706 130.069 116.107 130.741 116.466 131.437C116.639 131.789 116.72 132.179 116.699 132.571C116.679 132.963 116.558 133.343 116.349 133.675C116.095 133.978 115.775 134.218 115.413 134.376C114.484 134.821 113.473 135.07 112.443 135.107C111.413 135.144 110.387 134.968 109.428 134.591C110.549 133.53 111.319 132.153 111.635 130.643C111.951 129.134 111.799 127.564 111.197 126.144C110.859 125.57 110.639 124.935 110.551 124.275C110.598 123.681 110.757 123.101 111.019 122.565C111.661 120.809 111.76 118.902 111.305 117.089C111.019 115.978 110.523 114.903 110.434 113.758C110.36 112.894 110.398 112.024 110.547 111.17C110.803 109.642 111.477 108.214 112.496 107.044C113.514 105.874 114.836 105.008 116.316 104.541C116.555 104.461 116.784 104.386 117.046 104.321C118.181 104.069 119.341 103.946 120.504 103.952C123.101 103.868 125.735 103.793 128.238 104.471C129.708 104.855 131.075 105.557 132.244 106.526C133.073 107.222 133.735 108.096 134.181 109.082C134.424 109.65 134.608 110.242 134.728 110.848C134.836 111.348 134.916 111.852 134.995 112.357C135.561 115.95 136.127 119.612 135.524 123.2C135.285 124.602 134.869 126.004 134.682 127.433C134.228 130.727 135.047 134.002 135.861 137.188Z" fill="#464353"/>
<path d="M119.236 141.804C119.716 141.804 120.106 141.415 120.106 140.935C120.106 140.455 119.716 140.066 119.236 140.066C118.755 140.066 118.365 140.455 118.365 140.935C118.365 141.415 118.755 141.804 119.236 141.804Z" fill="white"/>
<path d="M133.924 141.393C134.404 141.393 134.794 141.004 134.794 140.524C134.794 140.044 134.404 139.655 133.924 139.655C133.443 139.655 133.053 140.044 133.053 140.524C133.053 141.004 133.443 141.393 133.924 141.393Z" fill="white"/>
<path opacity="0.1" d="M119.235 97.0193L117.364 93.492C117.482 93.351 117.612 93.2197 117.752 93.0996C118.022 92.9333 118.339 92.858 118.655 92.8847L119.235 97.0193Z" fill="black"/>
<path opacity="0.1" d="M124.397 92.7209L122.277 95.8511L121.07 92.4172C121.585 92.1963 122.142 92.091 122.703 92.1089C123.298 92.2173 123.87 92.4241 124.397 92.7209Z" fill="black"/>
<g opacity="0.1">
<path opacity="0.1" d="M116.349 132.75C116.095 133.053 115.775 133.293 115.413 133.451C113.754 134.243 111.861 134.401 110.093 133.895C109.887 134.144 109.665 134.38 109.428 134.6C110.387 134.977 111.413 135.153 112.443 135.116C113.473 135.079 114.484 134.83 115.413 134.385C115.775 134.227 116.095 133.987 116.349 133.684C116.51 133.451 116.62 133.187 116.671 132.908C116.723 132.629 116.715 132.343 116.648 132.068C116.601 132.315 116.499 132.548 116.349 132.75Z" fill="black"/>
<path opacity="0.1" d="M111.272 117.104C111.425 117.716 111.514 118.342 111.539 118.972C111.593 118.03 111.503 117.085 111.272 116.169C110.987 115.057 110.491 113.983 110.402 112.838C110.402 112.693 110.402 112.548 110.378 112.399C110.356 112.857 110.364 113.316 110.402 113.772C110.491 114.917 110.987 115.992 111.272 117.104Z" fill="black"/>
<path opacity="0.1" d="M135.491 123.215C135.69 121.979 135.774 120.728 135.744 119.477C135.727 120.416 135.643 121.353 135.491 122.28C135.253 123.682 134.836 125.083 134.649 126.513C134.552 127.28 134.516 128.053 134.541 128.826C134.554 128.365 134.59 127.905 134.649 127.447C134.836 126.018 135.253 124.63 135.491 123.215Z" fill="black"/>
<path opacity="0.1" d="M111.178 125.219C110.933 124.759 110.736 124.275 110.589 123.775C110.549 123.944 110.53 124.116 110.532 124.289C110.621 124.949 110.84 125.584 111.178 126.158C111.522 126.941 111.72 127.78 111.763 128.634C111.848 127.465 111.647 126.293 111.178 125.219Z" fill="black"/>
<path opacity="0.1" d="M131.238 120.682C131.279 120.896 131.308 121.111 131.327 121.327C131.327 121.257 131.327 121.192 131.327 121.122C131.348 120.661 131.314 120.2 131.224 119.748C131.121 119.257 130.952 118.772 130.873 118.276C130.849 118.387 130.835 118.5 130.831 118.613C130.881 119.317 131.018 120.012 131.238 120.682Z" fill="black"/>
<path opacity="0.1" d="M128.29 133.25C128.218 133.175 128.15 133.095 128.088 133.012C127.973 133.199 127.925 133.42 127.953 133.638C128.011 133.848 128.128 134.037 128.29 134.184C129.249 135.213 130.427 136.016 131.737 136.532C133.047 137.049 134.456 137.266 135.861 137.17C135.781 136.861 135.701 136.558 135.627 136.235C134.26 136.298 132.896 136.064 131.629 135.548C130.363 135.033 129.223 134.249 128.29 133.25Z" fill="black"/>
<path opacity="0.1" d="M132.338 113.96C132.335 113.942 132.335 113.925 132.338 113.908C132.604 112.189 131.177 110.694 129.741 109.703C128.645 108.945 127.456 108.331 126.203 107.877C125.434 107.601 124.637 107.409 123.826 107.302C122.315 107.098 120.777 107.27 119.348 107.802C118.757 108.025 118.197 108.323 117.682 108.69C117.376 108.883 117.121 109.148 116.938 109.46C116.788 109.813 116.721 110.195 116.742 110.577C116.742 110.899 116.742 111.222 116.742 111.549V111.511C116.721 111.129 116.788 110.747 116.938 110.395C117.121 110.082 117.376 109.817 117.682 109.624C118.197 109.257 118.757 108.959 119.348 108.736C120.777 108.204 122.315 108.033 123.826 108.236C124.637 108.343 125.434 108.536 126.203 108.811C127.456 109.265 128.645 109.879 129.741 110.638C130.934 111.441 132.108 112.6 132.338 113.96Z" fill="black"/>
<path opacity="0.1" d="M116.026 116.198C115.558 117.09 114.763 117.814 114.374 118.758C114.215 119.15 114.116 119.565 114.079 119.987C114.033 120.424 114.009 120.864 114.009 121.304C114.009 121.701 114.009 122.103 114.009 122.505C114.009 122.416 114.009 122.327 114.009 122.238C114.009 121.798 114.033 121.359 114.079 120.921C114.116 120.499 114.215 120.085 114.374 119.692C114.763 118.758 115.539 118.024 116.026 117.132C116.779 115.73 116.765 114.119 116.751 112.516C116.813 113.784 116.564 115.048 116.026 116.198Z" fill="black"/>
</g>
<path opacity="0.1" d="M134.696 110.881C134.631 110.972 134.556 111.055 134.471 111.128C134.306 111.264 134.121 111.374 133.923 111.455C132.562 112.044 132.618 110.124 131.907 109.465C131.451 109.129 130.891 108.964 130.325 108.998C128.956 108.929 127.585 108.869 126.212 108.816C123.924 108.732 121.641 108.69 119.357 108.741C118.262 108.76 117.171 108.805 116.082 108.876C114.818 108.96 113.462 109.124 112.385 109.722C112.017 109.924 111.684 110.185 111.398 110.493C111.141 110.773 110.869 111.128 110.514 111.194C110.77 109.665 111.445 108.237 112.463 107.067C113.481 105.897 114.803 105.031 116.283 104.564C118.679 102.782 121.673 101.994 124.637 102.364C127.602 102.734 130.309 104.234 132.192 106.55C133.022 107.246 133.684 108.119 134.129 109.105C134.38 109.676 134.57 110.271 134.696 110.881Z" fill="black"/>
<path d="M133.924 110.521C132.562 111.11 132.618 109.19 131.907 108.531C131.451 108.195 130.891 108.03 130.325 108.064C125.584 107.752 120.828 107.712 116.082 107.942C114.393 108.054 112.54 108.307 111.403 109.559C111.113 109.876 110.809 110.287 110.373 110.273C110.228 109.339 110.125 108.367 110.055 107.41C110.013 107.051 110.032 106.687 110.111 106.335C110.228 105.933 110.495 105.592 110.631 105.2C110.764 104.701 110.812 104.182 110.771 103.667C110.792 101.761 111.305 99.8928 112.26 98.2427C113.216 96.5927 114.583 95.2169 116.227 94.2487C116.64 94.0472 117.022 93.7893 117.364 93.4825C117.483 93.3414 117.613 93.2102 117.752 93.0901C118.023 92.9238 118.339 92.8485 118.655 92.8751C118.88 92.8751 119.123 92.8751 119.32 92.8751C119.925 92.8086 120.517 92.6511 121.075 92.4079C121.59 92.187 122.147 92.0817 122.708 92.0996C123.302 92.208 123.875 92.4148 124.401 92.7116C124.655 92.8334 124.92 92.9289 125.192 92.9966C125.618 93.0947 126.058 93.0901 126.484 93.1741C127.173 93.3494 127.828 93.6401 128.421 94.0338C129.128 94.4145 129.782 94.8857 130.367 95.4354C131.004 96.1613 131.513 96.9889 131.874 97.8835C132.494 99.1194 132.965 100.424 133.278 101.771C133.657 103.705 133.47 105.798 134.368 107.554C134.916 108.657 135.416 109.881 133.924 110.521Z" fill="#FED253"/>
<path opacity="0.1" d="M110.205 109.054C110.205 109.054 119.904 100.243 134.349 107.55C134.349 107.55 118.042 103.845 110.205 109.054Z" fill="black"/>
<path d="M4.51217 154.078C3.19265 151.919 1.20869 149.943 1.51752 147.495C5.14853 147.911 8.59238 147.028 11.9193 145.491C15.2461 143.954 18.3344 141.959 21.4507 140.001C22.6766 139.23 23.8979 138.473 25.1144 137.773C27.0422 136.67 28.956 135.437 30.9166 134.357C33.7241 132.816 36.5877 131.554 39.7414 131.311C40.3127 131.267 40.8859 131.253 41.4587 131.269C45.3424 131.344 49.3664 132.386 52.7822 130.648L52.9928 130.536C54.9299 129.475 56.3384 127.672 57.9995 126.209C59.1937 125.178 60.4939 124.276 61.8785 123.518C64.4005 122.117 67.1332 120.996 69.7114 119.673C70.3713 119.334 70.9979 118.934 71.583 118.477L72.0229 118.127L72.1211 118.043C72.2287 117.954 72.3364 117.865 72.4393 117.772L72.6405 117.594L72.8464 117.408L73.0055 117.258L73.2628 117.015L73.2909 116.982L73.698 116.581L73.8618 116.417L74.1472 116.123L74.3156 115.955C74.6011 115.66 74.8865 115.361 75.1766 115.072C75.4667 114.782 75.8598 114.389 76.2107 114.067L76.5476 113.768L76.6459 113.684L76.9172 113.46L77.0436 113.352L77.3103 113.147L77.4413 113.044C77.5723 112.946 77.708 112.852 77.8437 112.759C77.9686 112.673 78.1 112.596 78.2368 112.53L77.3618 110.414L79.8791 109.376L114.598 193.495L112.076 194.532L92.218 146.411L92.0777 146.551C87.4775 151.084 81.8426 154.431 75.6586 156.306H75.6211C72.1632 157.348 68.2936 158.086 65.3832 160.02C64.3512 160.69 63.4544 161.547 62.7394 162.548C62.0563 163.52 61.579 164.627 60.8678 165.561C60.7321 165.734 60.5824 165.902 60.4326 166.061C59.5817 166.903 58.6401 167.649 57.6251 168.285L57.1806 168.589C54.1659 170.707 51.0251 172.64 47.7755 174.377C45.9003 175.352 43.9451 176.165 41.9313 176.807C40.4667 177.274 38.9553 177.615 37.4908 178.077C36.5056 178.375 35.5489 178.76 34.6318 179.227C32.1519 180.521 30.2475 182.548 28.446 184.712C26.8691 186.608 25.3718 188.617 23.6405 190.346C22.5549 191.42 20.9032 192.439 19.593 191.808L19.3263 191.654C19.3685 191.584 19.4012 191.514 19.4386 191.439C20.4727 189.276 19.2 186.604 17.4874 184.87C17.3096 184.688 17.1271 184.511 16.94 184.342C16.7528 184.174 16.4159 183.875 16.1492 183.642C14.6846 182.385 13.1265 181.217 12.1111 179.596C11.3361 178.234 10.8101 176.745 10.5576 175.199C10.0897 172.999 9.7762 170.733 8.57834 168.86C7.79225 167.622 6.62246 166.566 5.77086 165.379C5.23254 164.677 4.87867 163.851 4.74145 162.978C4.5496 161.459 5.25615 159.974 5.52286 158.46C5.60221 158.048 5.63517 157.628 5.62112 157.208C5.52338 156.087 5.14176 155.01 4.51217 154.078Z" fill="url(#paint0_linear)"/>
<path d="M111.194 193.81L113.673 192.79L79.5321 110.085L77.0533 111.106L111.194 193.81Z" fill="#D6D8E1"/>
<path d="M9.41619 168.565C10.5907 170.411 10.9042 172.635 11.358 174.798C11.6098 176.318 12.1277 177.783 12.8881 179.124C13.8894 180.717 15.4195 181.866 16.856 183.1C17.1181 183.329 17.3801 183.567 17.6328 183.791C17.8153 183.955 17.9977 184.132 18.1709 184.305C19.8554 186.01 21.1047 188.641 20.0893 190.766C20.0581 190.839 20.0222 190.909 19.9817 190.977C20.0639 191.032 20.1499 191.082 20.239 191.126C21.5305 191.752 23.1542 190.752 24.221 189.692C25.9242 187.991 27.3981 186.02 28.9469 184.156C30.7157 182.025 32.592 180.03 35.0298 178.76C35.9298 178.299 36.8694 177.921 37.8373 177.629C39.2738 177.162 40.7618 176.83 42.203 176.381C44.1825 175.749 46.1047 174.951 47.9489 173.994C51.1493 172.284 54.2431 170.382 57.2136 168.299L57.6535 168C58.651 167.376 59.5767 166.644 60.4142 165.818C60.5639 165.659 60.709 165.496 60.8447 165.323C61.5653 164.389 62.0378 163.319 62.7163 162.361C63.42 161.377 64.3025 160.534 65.3179 159.876C68.1816 157.974 71.981 157.245 75.3828 156.222H75.4202C81.499 154.376 87.0385 151.084 91.5633 146.631C91.9383 146.318 92.2186 145.907 92.3727 145.444C92.5178 144.785 92.1622 144.131 91.8206 143.552C91.4229 142.87 91.0345 142.188 90.6508 141.496C88.9252 138.36 87.3847 135.126 86.0372 131.811C85.7424 131.082 85.457 130.358 85.1809 129.625C84.4728 127.756 83.8271 125.861 83.2437 123.939C83.0519 123.304 82.8647 122.664 82.6869 122.023C82.6542 121.902 82.6167 121.771 82.584 121.631C81.8072 118.515 80.7685 111.222 77.5679 113.404C76.6161 114.083 75.7309 114.851 74.9242 115.698C74.3019 116.328 73.6936 116.978 73.0526 117.604C72.5304 118.116 71.9789 118.599 71.4008 119.047C70.8141 119.496 70.1877 119.89 69.5292 120.225C66.9884 121.524 64.3026 122.612 61.8273 124.004C60.4642 124.748 59.1843 125.634 58.0091 126.649C56.3761 128.088 54.9911 129.863 53.0866 130.905L52.8808 131.017C49.5211 132.722 45.5673 131.699 41.7444 131.624C41.1826 131.61 40.6203 131.624 40.0599 131.666C36.9576 131.9 34.1221 133.143 31.3801 134.661C29.4523 135.726 27.5713 136.932 25.6762 138.02C24.4784 138.707 23.2805 139.45 22.0733 140.211C19.0131 142.136 15.9108 144.154 12.715 145.612C9.43958 147.098 6.05656 147.985 2.48637 147.579C2.18223 149.985 4.12875 151.929 5.42956 154.05C6.05432 154.961 6.43305 156.019 6.52915 157.119C6.54635 157.531 6.51652 157.943 6.44025 158.348C6.17822 159.838 5.50442 161.296 5.67287 162.795C5.80565 163.651 6.15159 164.459 6.67889 165.145C7.49306 166.309 8.63945 167.351 9.41619 168.565Z" fill="#F86D70"/>
<path d="M104.548 178.297C104.548 178.297 108.646 181.866 112.802 183.768C116.957 185.669 114.205 192.49 114.205 192.49C114.205 192.49 109.802 193.499 106.719 189.22C103.635 184.94 104.548 178.297 104.548 178.297Z" fill="#FBBEBE"/>
<path d="M325.422 239.056C325.422 239.056 314.566 253.319 305.559 253.436C296.552 253.553 291.264 259.444 295.541 263.125C299.818 266.807 346.422 261.023 346.422 261.023C346.422 261.023 346.862 243.494 342.824 240.934C338.786 238.373 325.422 239.056 325.422 239.056Z" fill="#444176"/>
<path d="M442.143 256.178C442.143 256.178 443.804 267.475 438.671 275.179C433.538 282.883 447.945 285.854 447.945 285.854C447.945 285.854 458.412 288.765 459.175 278.44C459.938 268.115 459.69 260.219 458.707 259.378C457.724 258.537 456.906 252.73 456.906 252.73L442.143 256.178Z" fill="#444176"/>
<path d="M277.812 277.515C277.812 277.515 277.433 240.976 313.645 226.124L322.053 210.15L326.086 200.339C327.547 196.786 329.845 193.637 332.785 191.159C335.725 188.682 339.22 186.949 342.973 186.109L349.496 184.646L351.513 176.162C352.587 171.627 354.968 167.505 358.362 164.306C361.755 161.106 366.012 158.968 370.608 158.156C374.575 157.421 378.6 157.046 382.634 157.035C384.419 157.062 386.166 157.549 387.707 158.45C389.248 159.35 390.529 160.633 391.426 162.174C391.426 162.174 425.733 161.796 427.254 180.446C427.254 180.446 430.689 197.569 435.644 200.615C435.644 200.615 444.029 198.714 452.414 210.893L461.562 242.102C461.562 242.102 485.575 264.555 478.332 285.084C478.332 285.084 468.421 299.165 418.106 289.648C418.106 289.648 364.362 306 335.754 283.575C335.749 283.603 288.106 292.736 277.812 277.515Z" fill="#A8A8A8"/>
<path opacity="0.1" d="M301.825 271.805C301.825 271.805 309.452 261.149 309.068 253.533C308.685 245.918 310.865 227.371 310.865 227.371" stroke="black" stroke-miterlimit="10"/>
<path opacity="0.1" d="M329.652 243.26C329.652 243.26 337.274 229.179 336.511 221.568C336.511 221.568 344.517 207.085 350.614 208.244" stroke="black" stroke-miterlimit="10"/>
<path opacity="0.1" d="M371.582 203.296C371.582 203.296 392.545 195.686 393.691 189.598" stroke="black" stroke-miterlimit="10"/>
<path opacity="0.1" d="M379.204 220.807C379.204 220.807 401.313 210.912 401.313 208.244H412.361C412.361 208.244 428.373 229.179 426.468 238.313" stroke="black" stroke-miterlimit="10"/>
<path opacity="0.1" d="M405.127 236.028C405.127 236.028 383.78 234.505 376.153 240.597C368.526 246.689 354.807 249.731 354.807 249.731C354.807 249.731 346.801 266.858 343.75 269.9C340.699 272.941 335.744 283.602 335.744 283.602" stroke="black" stroke-miterlimit="10"/>
<path opacity="0.1" d="M405.126 256.202C405.126 256.202 407.41 264.191 410.461 268.76C413.511 273.329 418.083 289.69 418.083 289.69" stroke="black" stroke-miterlimit="10"/>
<path opacity="0.1" d="M440.955 279.417C440.955 279.417 445.793 292.858 450.046 292.989" stroke="black" stroke-miterlimit="10"/>
<path opacity="0.1" d="M409.263 221.723C409.263 221.723 421.831 225.114 427.086 233.332C432.34 241.55 448.39 249.002 448.39 249.002" stroke="black" stroke-miterlimit="10"/>
<path opacity="0.1" d="M414.653 181.235C414.653 181.235 414.653 198.741 419.609 198.741C424.564 198.741 435.621 200.643 435.621 200.643" stroke="black" stroke-miterlimit="10"/>
<path opacity="0.1" d="M390.369 160.445C390.369 160.445 389.101 190.687 382.62 198.517" stroke="black" stroke-miterlimit="10"/>
<g opacity="0.05">
<path opacity="0.05" d="M460.776 241.737L451.628 210.529C443.243 198.349 434.858 200.25 434.858 200.25C429.903 197.204 426.473 180.077 426.473 180.077C424.948 161.426 390.64 161.81 390.64 161.81C389.741 160.266 388.457 158.981 386.913 158.081C385.369 157.18 383.617 156.694 381.829 156.67C380.21 156.67 378.554 156.722 376.897 156.857C377.833 156.951 378.73 157.083 379.588 157.254L382.255 161.824C382.255 161.824 416.558 161.44 418.083 180.091C418.083 180.091 421.518 197.218 426.473 200.264C426.473 200.264 434.858 198.358 443.243 210.543L452.391 241.751C452.391 241.751 476.404 264.205 469.161 284.733C469.161 284.733 464.271 291.68 443.931 292.521C471.355 293.526 477.546 284.733 477.546 284.733C484.789 264.191 460.776 241.737 460.776 241.737Z" fill="black"/>
<path opacity="0.05" d="M326.601 283.219C318.532 284.669 310.373 285.56 302.181 285.887C311.731 286.251 321.665 285.219 328.066 284.341C327.57 283.962 327.083 283.598 326.601 283.219Z" fill="black"/>
<path opacity="0.05" d="M408.935 289.312C397.2 292.598 385.121 294.504 372.943 294.993C390.514 295.628 407.157 291.97 414.017 290.213C412.36 289.938 410.681 289.625 408.935 289.312Z" fill="black"/>
</g>
<path d="M104.347 348.673C104.347 348.673 114.833 348.351 117.991 346.104C121.149 343.856 134.115 341.175 134.901 344.777C135.688 348.379 150.656 362.694 138.818 362.792C126.98 362.89 111.319 360.951 108.165 359.031C105.011 357.111 104.347 348.673 104.347 348.673Z" fill="#A8A8A8"/>
<path opacity="0.2" d="M139.033 361.535C127.195 361.633 111.529 359.694 108.375 357.797C105.975 356.335 105.016 351.093 104.698 348.678H104.347C104.347 348.678 105.011 357.12 108.165 359.035C111.319 360.951 126.984 362.89 138.818 362.796C142.238 362.768 143.418 361.554 143.352 359.755C142.879 360.839 141.574 361.516 139.033 361.535Z" fill="black"/>
<path d="M359.987 322.417C359.987 322.417 347.639 319.95 344.349 316.661C341.06 313.372 326.241 307.626 324.594 311.732C322.947 315.839 302.372 329.813 316.363 332.289C330.354 334.765 349.286 335.559 353.403 333.933C357.521 332.308 359.987 322.417 359.987 322.417Z" fill="#A8A8A8"/>
<path opacity="0.2" d="M316.363 330.737C330.359 333.2 349.286 334.008 353.404 332.377C356.534 331.125 358.714 325.112 359.575 322.314L359.987 322.403C359.987 322.403 357.517 332.261 353.404 333.905C349.291 335.55 330.359 334.727 316.363 332.26C312.325 331.55 311.17 329.878 311.605 327.766C311.951 329.158 313.359 330.219 316.363 330.737Z" fill="black"/>
<path opacity="0.1" d="M241.75 53.9389H238.811C239.357 53.9389 239.881 53.7224 240.267 53.3369C240.653 52.9514 240.87 52.4285 240.87 51.8833C240.87 51.3381 240.653 50.8152 240.267 50.4297C239.881 50.0442 239.357 49.8276 238.811 49.8276H215.004C214.458 49.8276 213.934 50.0442 213.548 50.4297C213.162 50.8152 212.945 51.3381 212.945 51.8833C212.945 52.4285 213.162 52.9514 213.548 53.3369C213.934 53.7224 214.458 53.9389 215.004 53.9389H217.942C217.414 53.9641 216.915 54.1914 216.55 54.5738C216.185 54.9561 215.982 55.464 215.982 55.9923C215.982 56.5205 216.185 57.0285 216.55 57.4108C216.915 57.7931 217.414 58.0204 217.942 58.0456H213.829C213.283 58.0456 212.76 58.2622 212.374 58.6477C211.987 59.0332 211.771 59.5561 211.771 60.1012C211.771 60.6464 211.987 61.1693 212.374 61.5548C212.76 61.9403 213.283 62.1569 213.829 62.1569H237.637C238.183 62.1569 238.707 61.9403 239.093 61.5548C239.479 61.1693 239.696 60.6464 239.696 60.1012C239.696 59.5561 239.479 59.0332 239.093 58.6477C238.707 58.2622 238.183 58.0456 237.637 58.0456H241.75C242.028 58.0589 242.306 58.0156 242.567 57.9184C242.828 57.8212 243.067 57.672 243.269 57.4801C243.47 57.2881 243.631 57.0573 243.74 56.8015C243.85 56.5458 243.907 56.2705 243.907 55.9923C243.907 55.7141 243.85 55.4388 243.74 55.183C243.631 54.9273 243.47 54.6964 243.269 54.5045C243.067 54.3125 242.828 54.1634 242.567 54.0662C242.306 53.969 242.028 53.9257 241.75 53.9389Z" fill="#6C63FF"/>
<path opacity="0.1" d="M334.219 126.265H331.28C331.809 126.24 332.307 126.013 332.672 125.63C333.038 125.248 333.241 124.74 333.241 124.212C333.241 123.684 333.038 123.176 332.672 122.793C332.307 122.411 331.809 122.184 331.28 122.159H307.45C307.171 122.145 306.893 122.189 306.632 122.286C306.371 122.383 306.132 122.532 305.931 122.724C305.729 122.916 305.569 123.147 305.459 123.403C305.349 123.658 305.293 123.934 305.293 124.212C305.293 124.49 305.349 124.765 305.459 125.021C305.569 125.277 305.729 125.508 305.931 125.7C306.132 125.892 306.371 126.041 306.632 126.138C306.893 126.235 307.171 126.278 307.45 126.265H310.388C309.86 126.29 309.361 126.518 308.996 126.9C308.631 127.282 308.427 127.79 308.427 128.319C308.427 128.847 308.631 129.355 308.996 129.737C309.361 130.119 309.86 130.347 310.388 130.372H306.275C305.729 130.372 305.205 130.588 304.819 130.974C304.433 131.359 304.216 131.882 304.216 132.428C304.216 132.973 304.433 133.496 304.819 133.881C305.205 134.267 305.729 134.483 306.275 134.483H330.078C330.624 134.483 331.148 134.267 331.534 133.881C331.92 133.496 332.137 132.973 332.137 132.428C332.137 131.882 331.92 131.359 331.534 130.974C331.148 130.588 330.624 130.372 330.078 130.372H334.219C334.497 130.385 334.775 130.342 335.037 130.245C335.298 130.147 335.536 129.998 335.738 129.806C335.939 129.614 336.1 129.384 336.21 129.128C336.319 128.872 336.376 128.597 336.376 128.319C336.376 128.04 336.319 127.765 336.21 127.509C336.1 127.254 335.939 127.023 335.738 126.831C335.536 126.639 335.298 126.49 335.037 126.392C334.775 126.295 334.497 126.252 334.219 126.265Z" fill="#6C63FF"/>
<path opacity="0.1" d="M197.2 112.885H194.261C194.539 112.898 194.818 112.855 195.079 112.758C195.34 112.66 195.578 112.511 195.78 112.319C195.982 112.127 196.142 111.897 196.252 111.641C196.361 111.385 196.418 111.11 196.418 110.832C196.418 110.553 196.361 110.278 196.252 110.022C196.142 109.767 195.982 109.536 195.78 109.344C195.578 109.152 195.34 109.003 195.079 108.905C194.818 108.808 194.539 108.765 194.261 108.778H170.449C170.171 108.765 169.892 108.808 169.631 108.905C169.37 109.003 169.132 109.152 168.93 109.344C168.728 109.536 168.568 109.767 168.458 110.022C168.349 110.278 168.292 110.553 168.292 110.832C168.292 111.11 168.349 111.385 168.458 111.641C168.568 111.897 168.728 112.127 168.93 112.319C169.132 112.511 169.37 112.66 169.631 112.758C169.892 112.855 170.171 112.898 170.449 112.885H173.387C173.109 112.872 172.831 112.915 172.57 113.012C172.309 113.109 172.07 113.258 171.869 113.45C171.667 113.642 171.506 113.873 171.397 114.129C171.287 114.385 171.23 114.66 171.23 114.938C171.23 115.216 171.287 115.492 171.397 115.747C171.506 116.003 171.667 116.234 171.869 116.426C172.07 116.618 172.309 116.767 172.57 116.864C172.831 116.961 173.109 117.005 173.387 116.991H169.27C168.724 116.991 168.2 117.208 167.814 117.594C167.428 117.979 167.211 118.502 167.211 119.047C167.211 119.592 167.428 120.115 167.814 120.501C168.2 120.886 168.724 121.103 169.27 121.103H193.077C193.623 121.103 194.147 120.886 194.533 120.501C194.919 120.115 195.136 119.592 195.136 119.047C195.136 118.502 194.919 117.979 194.533 117.594C194.147 117.208 193.623 116.991 193.077 116.991H197.19C197.469 117.005 197.747 116.961 198.008 116.864C198.269 116.767 198.507 116.618 198.709 116.426C198.911 116.234 199.071 116.003 199.181 115.747C199.291 115.492 199.347 115.216 199.347 114.938C199.347 114.66 199.291 114.385 199.181 114.129C199.071 113.873 198.911 113.642 198.709 113.45C198.507 113.258 198.269 113.109 198.008 113.012C197.747 112.915 197.469 112.872 197.19 112.885H197.2Z" fill="#6C63FF"/>
</g>
<defs>
<linearGradient id="paint0_linear" x1="-339358" y1="30618.9" x2="-366710" y2="30618.9" gradientUnits="userSpaceOnUse">
<stop stop-color="#808080" stop-opacity="0.25"/>
<stop offset="0.54" stop-color="#808080" stop-opacity="0.12"/>
<stop offset="1" stop-color="#808080" stop-opacity="0.1"/>
</linearGradient>
<clipPath id="clip0">
<rect width="483" height="389" fill="white" transform="translate(0.0717773 0.281738)"/>
</clipPath>
</defs>
</svg>
