<svg width="452" height="336" viewBox="0 0 452 336" fill="none" xmlns="http://www.w3.org/2000/svg">
<g clip-path="url(#clip0)">
<g opacity="0.1">
<path opacity="0.1" d="M361.921 237.902C361.921 237.902 329.654 233.706 353.718 286.014C353.718 286.014 375.649 276.601 376.522 255.37C376.7 251.238 375.358 247.185 372.751 243.978C370.145 240.77 366.454 238.632 362.379 237.968L361.921 237.902Z" fill="#6C63FF"/>
<path opacity="0.1" d="M362.395 237.824C362.395 237.824 369.7 266.99 353.743 286.018" stroke="#535461" stroke-miterlimit="10"/>
<path opacity="0.1" d="M353.307 288.713C353.307 288.713 364.925 260.033 386.621 249.395C395.756 244.991 403.217 237.736 407.884 228.721C410.064 224.427 411.847 219.941 413.211 215.322" stroke="#535461" stroke-width="2" stroke-miterlimit="10"/>
<path opacity="0.1" d="M426.844 208.542C424.582 211.389 412.877 215.557 412.877 215.557C412.877 215.557 414.286 203.177 416.548 200.35C417.064 199.612 417.725 198.988 418.491 198.516C419.257 198.043 420.111 197.733 421.001 197.604C421.891 197.474 422.798 197.529 423.667 197.764C424.535 197.999 425.346 198.409 426.05 198.97C426.754 199.531 427.336 200.23 427.76 201.024C428.184 201.819 428.442 202.692 428.516 203.589C428.591 204.487 428.482 205.391 428.195 206.245C427.908 207.098 427.449 207.884 426.848 208.554L426.844 208.542Z" fill="#6C63FF"/>
<path opacity="0.1" d="M422.827 231.093C419.382 232.253 407.303 229.368 407.303 229.368C407.303 229.368 415.192 219.762 418.637 218.602C419.471 218.26 420.367 218.092 421.268 218.11C422.169 218.128 423.058 218.331 423.878 218.707C424.698 219.082 425.432 219.622 426.035 220.293C426.639 220.965 427.098 221.753 427.385 222.609C427.672 223.465 427.781 224.371 427.705 225.271C427.628 226.17 427.369 227.045 426.941 227.84C426.514 228.635 425.928 229.334 425.221 229.894C424.513 230.454 423.698 230.862 422.827 231.093Z" fill="#6C63FF"/>
<path opacity="0.1" d="M401.049 257.755C397.493 257.016 388.516 248.417 388.516 248.417C388.516 248.417 400.167 244.113 403.727 244.851C405.337 245.301 406.717 246.347 407.587 247.777C408.457 249.208 408.751 250.916 408.411 252.556C408.07 254.195 407.12 255.644 405.753 256.609C404.387 257.573 402.705 257.982 401.049 257.751V257.755Z" fill="#6C63FF"/>
<path opacity="0.1" d="M380.037 274.212C376.407 274.084 366.107 267.131 366.107 267.131C366.107 267.131 376.869 260.908 380.498 261.04C382.162 261.21 383.7 262.006 384.799 263.269C385.898 264.532 386.477 266.166 386.419 267.84C386.36 269.514 385.668 271.104 384.483 272.286C383.298 273.469 381.709 274.155 380.037 274.208V274.212Z" fill="#6C63FF"/>
<path opacity="0.1" d="M396.055 221.293C396.521 224.904 404.386 234.527 404.386 234.527C404.386 234.527 409.564 223.22 409.103 219.609C409.046 218.708 408.806 217.827 408.396 217.023C407.986 216.218 407.415 215.506 406.72 214.931C406.024 214.356 405.218 213.93 404.352 213.68C403.485 213.429 402.576 213.36 401.682 213.475C400.787 213.59 399.926 213.889 399.151 214.351C398.376 214.813 397.704 215.43 397.177 216.162C396.649 216.895 396.278 217.729 396.085 218.611C395.892 219.494 395.882 220.406 396.055 221.293Z" fill="#6C63FF"/>
<path opacity="0.1" d="M371.723 240.869C373.243 244.171 383.625 251 383.625 251C383.625 251 385.191 238.658 383.67 235.356C383.347 234.514 382.854 233.747 382.222 233.103C381.59 232.458 380.834 231.951 379.998 231.611C379.163 231.272 378.267 231.107 377.366 231.128C376.465 231.149 375.578 231.355 374.759 231.733C373.94 232.111 373.208 232.653 372.607 233.326C372.006 233.999 371.549 234.788 371.264 235.645C370.98 236.501 370.873 237.407 370.952 238.307C371.031 239.206 371.293 240.08 371.723 240.874V240.869Z" fill="#6C63FF"/>
<path opacity="0.1" d="M350.678 263.128C351.617 266.644 360.702 275.128 360.702 275.128C360.702 275.128 364.327 263.231 363.384 259.715C363.208 258.829 362.853 257.988 362.34 257.244C361.826 256.501 361.166 255.871 360.4 255.393C359.634 254.915 358.778 254.601 357.885 254.468C356.992 254.335 356.082 254.388 355.21 254.622C354.339 254.856 353.524 255.267 352.818 255.829C352.111 256.391 351.527 257.093 351.102 257.89C350.677 258.688 350.42 259.564 350.347 260.465C350.274 261.366 350.387 262.273 350.678 263.128Z" fill="#6C63FF"/>
<path opacity="0.25" d="M426.844 208.542C424.582 211.389 412.877 215.557 412.877 215.557C412.877 215.557 414.286 203.177 416.548 200.35C417.064 199.612 417.725 198.988 418.491 198.516C419.257 198.043 420.111 197.733 421.001 197.604C421.891 197.474 422.798 197.529 423.667 197.764C424.535 197.999 425.346 198.409 426.05 198.97C426.754 199.531 427.336 200.23 427.76 201.024C428.184 201.819 428.442 202.692 428.516 203.589C428.591 204.487 428.482 205.391 428.195 206.245C427.908 207.098 427.449 207.884 426.848 208.554L426.844 208.542Z" fill="black"/>
<path opacity="0.25" d="M422.827 231.093C419.382 232.253 407.303 229.368 407.303 229.368C407.303 229.368 415.192 219.762 418.637 218.602C419.471 218.26 420.367 218.092 421.268 218.11C422.169 218.128 423.058 218.331 423.878 218.707C424.698 219.082 425.432 219.622 426.035 220.293C426.639 220.965 427.098 221.753 427.385 222.609C427.672 223.465 427.781 224.371 427.705 225.271C427.628 226.17 427.369 227.045 426.941 227.84C426.514 228.635 425.928 229.334 425.221 229.894C424.513 230.454 423.698 230.862 422.827 231.093Z" fill="black"/>
<path opacity="0.25" d="M401.049 257.755C397.493 257.016 388.516 248.417 388.516 248.417C388.516 248.417 400.167 244.113 403.727 244.851C405.337 245.301 406.717 246.347 407.587 247.777C408.457 249.208 408.751 250.916 408.411 252.556C408.07 254.195 407.12 255.644 405.753 256.609C404.387 257.573 402.705 257.982 401.049 257.751V257.755Z" fill="black"/>
<path opacity="0.25" d="M380.037 274.212C376.407 274.084 366.107 267.131 366.107 267.131C366.107 267.131 376.869 260.908 380.498 261.04C382.162 261.21 383.7 262.006 384.799 263.269C385.898 264.532 386.477 266.166 386.419 267.84C386.36 269.514 385.668 271.104 384.483 272.286C383.298 273.469 381.709 274.155 380.037 274.208V274.212Z" fill="black"/>
<path opacity="0.25" d="M396.055 221.293C396.521 224.904 404.386 234.527 404.386 234.527C404.386 234.527 409.564 223.22 409.103 219.609C409.046 218.708 408.806 217.827 408.396 217.023C407.986 216.218 407.415 215.506 406.72 214.931C406.024 214.356 405.218 213.93 404.352 213.68C403.485 213.429 402.576 213.36 401.682 213.475C400.787 213.59 399.926 213.889 399.151 214.351C398.376 214.813 397.704 215.43 397.177 216.162C396.649 216.895 396.278 217.729 396.085 218.611C395.892 219.494 395.882 220.406 396.055 221.293Z" fill="black"/>
<path opacity="0.25" d="M371.723 240.869C373.243 244.171 383.625 251 383.625 251C383.625 251 385.191 238.658 383.67 235.356C383.347 234.514 382.854 233.747 382.222 233.103C381.59 232.458 380.834 231.951 379.998 231.611C379.163 231.272 378.267 231.107 377.366 231.128C376.465 231.149 375.578 231.355 374.759 231.733C373.94 232.111 373.208 232.653 372.607 233.326C372.006 233.999 371.549 234.788 371.264 235.645C370.98 236.501 370.873 237.407 370.952 238.307C371.031 239.206 371.293 240.08 371.723 240.874V240.869Z" fill="black"/>
<path opacity="0.25" d="M350.678 263.128C351.617 266.644 360.702 275.128 360.702 275.128C360.702 275.128 364.327 263.231 363.384 259.715C363.208 258.829 362.853 257.988 362.34 257.244C361.826 256.501 361.166 255.871 360.4 255.393C359.634 254.915 358.778 254.601 357.885 254.468C356.992 254.335 356.082 254.388 355.21 254.622C354.339 254.856 353.524 255.267 352.818 255.829C352.111 256.391 351.527 257.093 351.102 257.89C350.677 258.688 350.42 259.564 350.347 260.465C350.274 261.366 350.387 262.273 350.678 263.128Z" fill="black"/>
<path opacity="0.1" d="M368.781 301.761C368.781 301.761 380.399 273.081 402.095 262.443C411.226 258.036 418.683 250.78 423.346 241.765C425.526 237.471 427.309 232.986 428.673 228.366" stroke="#535461" stroke-width="2" stroke-miterlimit="10"/>
<path opacity="0.1" d="M442.297 221.582C440.036 224.429 428.331 228.597 428.331 228.597C428.331 228.597 429.74 216.217 432.002 213.39C433.125 212.14 434.681 211.366 436.355 211.227C438.028 211.087 439.691 211.592 441.005 212.639C442.319 213.685 443.185 215.195 443.426 216.859C443.667 218.523 443.265 220.217 442.302 221.594L442.297 221.582Z" fill="#6C63FF"/>
<path opacity="0.1" d="M438.289 244.133C434.844 245.293 422.765 242.408 422.765 242.408C422.765 242.408 430.654 232.802 434.099 231.642C435.717 231.212 437.438 231.415 438.913 232.21C440.387 233.005 441.504 234.331 442.038 235.921C442.571 237.511 442.48 239.244 441.784 240.769C441.088 242.295 439.838 243.497 438.289 244.133Z" fill="#6C63FF"/>
<path opacity="0.1" d="M416.511 270.812C412.955 270.073 403.978 261.473 403.978 261.473C403.978 261.473 415.629 257.169 419.189 257.908C420.799 258.357 422.179 259.403 423.049 260.834C423.919 262.264 424.213 263.972 423.873 265.612C423.532 267.252 422.583 268.701 421.216 269.665C419.849 270.63 418.167 271.038 416.511 270.807V270.812Z" fill="#6C63FF"/>
<path opacity="0.1" d="M395.495 287.248C391.865 287.12 381.565 280.167 381.565 280.167C381.565 280.167 392.326 273.952 395.956 274.08C397.62 274.25 399.158 275.047 400.257 276.309C401.356 277.572 401.935 279.206 401.877 280.88C401.818 282.555 401.126 284.144 399.941 285.326C398.756 286.509 397.167 287.196 395.495 287.248Z" fill="#6C63FF"/>
<path opacity="0.1" d="M411.513 234.349C411.979 237.96 419.844 247.583 419.844 247.583C419.844 247.583 425.022 236.276 424.561 232.666C424.504 231.764 424.264 230.884 423.854 230.079C423.444 229.274 422.873 228.562 422.178 227.987C421.482 227.412 420.676 226.987 419.81 226.736C418.943 226.486 418.034 226.416 417.14 226.531C416.245 226.647 415.384 226.945 414.609 227.407C413.834 227.869 413.162 228.486 412.635 229.219C412.107 229.952 411.736 230.785 411.543 231.667C411.35 232.55 411.34 233.463 411.513 234.349Z" fill="#6C63FF"/>
<path opacity="0.1" d="M387.185 253.893C388.705 257.194 399.087 264.023 399.087 264.023C399.087 264.023 400.653 251.681 399.133 248.38C398.335 246.905 397.007 245.789 395.417 245.259C393.828 244.73 392.097 244.826 390.576 245.528C389.055 246.231 387.858 247.486 387.228 249.041C386.598 250.595 386.583 252.331 387.185 253.897V253.893Z" fill="#6C63FF"/>
<path opacity="0.1" d="M366.14 276.176C367.08 279.692 376.164 288.176 376.164 288.176C376.164 288.176 379.79 276.28 378.846 272.764C378.307 271.178 377.186 269.857 375.71 269.068C374.234 268.279 372.515 268.082 370.899 268.516C369.283 268.95 367.893 269.982 367.009 271.405C366.126 272.827 365.815 274.533 366.14 276.176Z" fill="#6C63FF"/>
</g>
<path opacity="0.1" d="M4.88208 177.993C12.0343 208.612 27.1751 235.08 51.1038 247.909C100.832 274.571 212.981 260.821 296.682 245.021C338.973 237.066 377.361 215.089 405.667 182.627L4.88208 177.993Z" fill="#6C63FF"/>
<path opacity="0.1" d="M443.801 33.8677H397.876C396.824 33.8677 395.814 33.4488 395.069 32.7032C394.325 31.9575 393.907 30.9462 393.907 29.8918C393.907 28.8373 394.325 27.826 395.069 27.0803C395.814 26.3347 396.824 25.9158 397.876 25.9158H405.815C404.763 25.9158 403.753 25.4969 403.009 24.7513C402.264 24.0056 401.846 22.9943 401.846 21.9398C401.846 20.8853 402.264 19.874 403.009 19.1284C403.753 18.3828 404.763 17.9639 405.815 17.9639H400.146C399.094 17.9639 398.084 17.545 397.34 16.7993C396.595 16.0537 396.177 15.0424 396.177 13.9879C396.177 12.9334 396.595 11.9221 397.34 11.1765C398.084 10.4308 399.094 10.0119 400.146 10.0119H424.116C418.797 7.536 412.58 5.77395 405.42 4.84959C340.061 -3.56038 316.726 2.00225 308.494 7.7382C298.338 14.7947 287.008 19.9859 274.9 22.4866C234.57 30.8099 159.154 40.8375 90.7998 19.2679C56.8266 8.53875 31.5755 26.6627 16.4429 56.9353H451.774C451.205 48.1374 449.503 40.0163 446.381 32.9021C445.664 33.5236 444.749 33.8664 443.801 33.8677Z" fill="#6C63FF"/>
<path opacity="0.1" d="M0.984787 114.084C-0.778341 131.893 -0.178478 149.856 2.76873 167.507L405.98 182.276C417.204 169.344 426.629 154.949 433.996 139.483L0.984787 114.084ZM160.46 152.193H152.521C153.574 152.193 154.583 152.612 155.328 153.358C156.072 154.103 156.49 155.115 156.49 156.169C156.49 157.224 156.072 158.235 155.328 158.981C154.583 159.726 153.574 160.145 152.521 160.145H106.596C105.543 160.145 104.533 159.726 103.789 158.981C103.044 158.235 102.626 157.224 102.626 156.169C102.626 155.115 103.044 154.103 103.789 153.358C104.533 152.612 105.543 152.193 106.596 152.193H114.535C113.482 152.193 112.472 151.774 111.728 151.029C110.983 150.283 110.565 149.272 110.565 148.217C110.565 147.163 110.983 146.151 111.728 145.406C112.472 144.66 113.482 144.241 114.535 144.241H108.866C107.813 144.241 106.803 143.822 106.059 143.077C105.314 142.331 104.896 141.32 104.896 140.265C104.896 139.211 105.314 138.2 106.059 137.454C106.803 136.708 107.813 136.289 108.866 136.289H154.791C155.844 136.289 156.853 136.708 157.598 137.454C158.342 138.2 158.76 139.211 158.76 140.265C158.76 141.32 158.342 142.331 157.598 143.077C156.853 143.822 155.844 144.241 154.791 144.241H160.46C161.513 144.241 162.522 144.66 163.267 145.406C164.011 146.151 164.429 147.163 164.429 148.217C164.429 149.272 164.011 150.283 163.267 151.029C162.522 151.774 161.513 152.193 160.46 152.193Z" fill="#6C63FF"/>
<path opacity="0.1" d="M451.794 57.2117L11.5811 67.9408C6.22932 81.7277 2.69852 97.3138 1.05054 113.469H444.081C446.974 103.979 449.113 94.2749 450.48 84.4471C451.798 74.9518 452.325 65.7661 451.794 57.2117ZM90.4206 92.3578H82.4814C83.5342 92.3578 84.5439 92.7767 85.2883 93.5223C86.0328 94.2679 86.451 95.2792 86.451 96.3337C86.451 97.3882 86.0328 98.3995 85.2883 99.1452C84.5439 99.8908 83.5342 100.31 82.4814 100.31H36.5563C35.5035 100.31 34.4938 99.8908 33.7494 99.1452C33.0049 98.3995 32.5867 97.3882 32.5867 96.3337C32.5867 95.2792 33.0049 94.2679 33.7494 93.5223C34.4938 92.7767 35.5035 92.3578 36.5563 92.3578H44.4954C43.4426 92.3578 42.433 91.9389 41.6885 91.1932C40.9441 90.4476 40.5259 89.4363 40.5259 88.3818C40.5259 87.3273 40.9441 86.316 41.6885 85.5704C42.433 84.8247 43.4426 84.4058 44.4954 84.4058H38.8264C37.7736 84.4058 36.7639 83.9869 36.0195 83.2413C35.275 82.4957 34.8568 81.4844 34.8568 80.4299C34.8568 79.3754 35.275 78.3641 36.0195 77.6185C36.7639 76.8728 37.7736 76.4539 38.8264 76.4539H84.7515C85.8043 76.4539 86.814 76.8728 87.5584 77.6185C88.3028 78.3641 88.7211 79.3754 88.7211 80.4299C88.7211 81.4844 88.3028 82.4957 87.5584 83.2413C86.814 83.9869 85.8043 84.4058 84.7515 84.4058H90.4206C91.4734 84.4058 92.483 84.8247 93.2275 85.5704C93.9719 86.316 94.3901 87.3273 94.3901 88.3818C94.3901 89.4363 93.9719 90.4476 93.2275 91.1932C92.483 91.9389 91.4734 92.3578 90.4206 92.3578Z" fill="#6C63FF"/>
<path d="M386.732 335.352C386.732 335.352 368.373 234.498 333.366 218.132C303.702 204.254 271.624 194.899 262.503 192.361C261.141 190.164 259.566 188.106 257.802 186.217C245.335 173.181 237.845 173.424 236.634 173.585C236.059 171 235.646 168.382 235.398 165.745C235.361 165.332 235.323 164.949 235.29 164.54L235.398 164.486C235.323 163.706 235.258 162.902 235.2 162.072C240.289 159.352 244.975 155.934 249.121 151.917C249.175 152.094 249.22 152.272 249.278 152.453C258.262 144.847 267.061 137.034 275.674 129.014C278.146 126.699 280.742 124.186 281.582 120.922C281.851 119.799 281.956 118.642 281.891 117.489C282.003 115.013 281.418 112.483 281.319 109.974C281.319 109.562 281.364 109.178 281.418 108.786C281.994 104.68 284.845 101.308 287.185 97.8627C293.032 89.1551 296.084 78.8666 295.932 68.3741C295.996 63.3466 295.302 58.3382 293.872 53.5184C292.047 47.4028 288.248 40.9778 281.924 39.6408C279.477 39.1249 276.935 39.4468 274.438 39.2859C264.101 38.6256 256.364 30.2074 248.12 24.0381C238.058 16.5451 226.159 11.9194 213.685 10.6515C209.792 10.2389 205.771 10.21 202.067 11.448C193.749 14.221 188.698 22.7837 180.685 26.3036C174.76 28.9199 167.913 28.4949 161.733 30.4591C152.533 33.389 144.726 42.8388 144.52 52.5487C144.52 52.9077 144.52 53.2667 144.52 53.6257C144.52 53.6876 144.52 53.7495 144.52 53.8073C144.417 58.7138 146.168 63.7111 146.308 68.7332C146.308 69.1871 146.315 69.6424 146.328 70.099C146.283 75.5214 145.636 80.9602 143.663 86.0565C142.6 88.8007 141.232 91.9782 141.454 94.7224C141.331 96.4019 141.656 97.9782 142.822 99.2616L144.812 97.5037C144.145 101.122 143.81 104.793 143.811 108.472C143.811 127.017 152.232 143.622 165.515 154.797C165.592 156.032 165.666 157.356 165.737 158.767C166.051 164.882 166.298 172.554 166.228 180.914L146.798 198.803L96.8477 221.499C96.8477 221.499 51.1657 231.164 61.0041 295.443L65.7009 335.356H107.407L107.312 335.566H169.215L169.252 335.356H316.532L316.503 335.566H322.271V335.356L386.732 335.352ZM237 174.609C238.263 177.225 239.257 179.962 239.967 182.779C238.509 180.069 237.432 177.169 236.765 174.163L236.827 174.275L237 174.609ZM166.211 182.862C166.211 183.649 166.198 184.442 166.17 185.243L166.071 185.383C166.065 184.534 166.111 183.685 166.211 182.841V182.862Z" fill="url(#paint0_linear)"/>
<path d="M253.295 192.984L245.055 271.802L200.971 285.833C200.971 285.833 143.704 275.103 158.536 244.154C169.087 222.139 168.794 182.796 167.748 161.915C167.336 153.439 166.776 148.005 166.776 148.005C166.776 148.005 241.759 82.392 235.579 141.402C234.384 152.829 234.314 161.763 234.977 168.745C237.758 197.813 253.295 192.984 253.295 192.984Z" fill="#FDC2CC"/>
<path opacity="0.03" d="M253.295 192.984L245.055 271.802L200.971 285.833C200.971 285.833 143.704 275.103 158.536 244.154C169.087 222.139 168.794 182.796 167.748 161.915C167.336 153.439 166.776 148.005 166.776 148.005C166.776 148.005 241.759 82.392 235.579 141.402C234.384 152.829 234.314 161.763 234.977 168.745C237.758 197.813 253.295 192.984 253.295 192.984Z" fill="black"/>
<path opacity="0.1" d="M235.579 140.164C234.384 151.591 234.314 160.525 234.977 167.507C224.392 173.296 212.305 175.741 200.307 174.522C188.308 173.303 176.958 168.477 167.748 160.678C167.336 152.202 166.776 146.767 166.776 146.767C166.776 146.767 241.759 81.1543 235.579 140.164Z" fill="black"/>
<path d="M206.327 172.356C239.32 172.356 266.067 145.566 266.067 112.52C266.067 79.474 239.32 52.6848 206.327 52.6848C173.334 52.6848 146.588 79.474 146.588 112.52C146.588 145.566 173.334 172.356 206.327 172.356Z" fill="#FDC2CC"/>
<path opacity="0.03" d="M206.327 172.356C239.32 172.356 266.067 145.566 266.067 112.52C266.067 79.474 239.32 52.6848 206.327 52.6848C173.334 52.6848 146.588 79.474 146.588 112.52C146.588 145.566 173.334 172.356 206.327 172.356Z" fill="black"/>
<path opacity="0.1" d="M107.86 272.627C107.86 272.627 127.224 312.243 128.254 335.558L107.86 272.627Z" fill="black"/>
<path opacity="0.1" d="M318.802 295.328L313.24 335.562H318.802V295.328Z" fill="black"/>
<path opacity="0.1" d="M112.186 335.558L142.88 265.612C142.88 265.612 151.532 249.106 153.592 232.6C155.652 216.093 166.776 190.096 166.776 190.096C166.776 190.096 194.379 155.02 207.151 159.972C219.923 164.924 196.027 183.493 196.027 183.493C196.027 183.493 231.047 197.111 207.151 237.552C183.255 277.992 182.843 270.564 182.843 270.564L171.102 335.558H112.186Z" fill="black"/>
<path d="M111.362 335.558L142.056 265.612C142.056 265.612 150.708 249.106 152.768 232.6C154.078 222.106 159.051 207.774 162.499 198.725C164.75 192.808 168.062 187.354 172.272 182.631C181.195 172.628 197.403 156.497 206.327 159.964C219.099 164.915 195.203 183.485 195.203 183.485C195.203 183.485 230.223 197.103 206.327 237.543C182.431 277.984 182.019 270.556 182.019 270.556L170.278 335.55L111.362 335.558Z" fill="#FDC2CC"/>
<path opacity="0.15" d="M224.661 80.1266C225.344 80.1266 225.897 79.5723 225.897 78.8886C225.897 78.2049 225.344 77.6506 224.661 77.6506C223.978 77.6506 223.425 78.2049 223.425 78.8886C223.425 79.5723 223.978 80.1266 224.661 80.1266Z" fill="white"/>
<path opacity="0.15" d="M218.893 82.6027C219.576 82.6027 220.129 82.0484 220.129 81.3647C220.129 80.681 219.576 80.1267 218.893 80.1267C218.21 80.1267 217.657 80.681 217.657 81.3647C217.657 82.0484 218.21 82.6027 218.893 82.6027Z" fill="white"/>
<path opacity="0.1" d="M163.887 37.1151C169.849 35.1839 176.466 35.6007 182.184 33.034C189.917 29.5594 194.791 21.1494 202.817 18.4259C206.393 17.2126 210.274 17.258 214.027 17.6459C226.097 18.9041 237.59 23.4528 247.259 30.7973C255.214 36.8593 262.68 45.1248 272.654 45.7727C275.064 45.9295 277.516 45.6118 279.876 46.1193C285.991 47.4316 289.653 53.7411 291.412 59.7371C293.448 66.8429 293.925 74.3056 292.811 81.6134C291.697 88.9213 289.019 95.9015 284.961 102.076C282.703 105.46 279.951 108.773 279.394 112.805C278.851 116.758 280.532 120.856 279.551 124.727C278.727 127.933 276.255 130.401 273.849 132.674C265.54 140.545 257.049 148.214 248.375 155.68C243.868 141.336 250.481 125.89 249.451 110.89C249.039 105.047 246.979 98.6672 241.833 95.9107C237.017 93.3357 230.861 94.6727 225.988 92.1967C220.549 89.4526 218.316 82.9532 214.204 78.4552C207.201 70.7798 195.043 69.7894 185.249 73.2557C175.456 76.7221 167.451 83.8528 159.706 90.8061L145.628 103.454C142.88 100.351 144.965 95.5888 146.452 91.7098C148.668 85.8955 149.155 79.6272 149.006 73.4538C148.887 68.5019 147.181 63.6119 147.28 58.7921C147.478 49.2844 155.009 39.9914 163.887 37.1151Z" fill="black"/>
<path d="M163.887 35.8773C169.849 33.9461 176.466 34.3629 182.184 31.7962C189.917 28.3216 194.791 19.9116 202.817 17.1881C206.393 15.9748 210.274 16.0202 214.027 16.4081C226.097 17.6663 237.59 22.215 247.259 29.5596C255.214 35.6215 262.68 43.887 272.654 44.5349C275.064 44.6917 277.516 44.374 279.876 44.8815C285.991 46.1938 289.653 52.5033 291.412 58.4993C293.448 65.6051 293.925 73.0678 292.811 80.3756C291.697 87.6835 289.019 94.6637 284.961 100.838C282.703 104.222 279.951 107.535 279.394 111.567C278.851 115.52 280.532 119.618 279.551 123.489C278.727 126.695 276.255 129.163 273.849 131.437C265.54 139.307 257.049 146.976 248.375 154.442C243.868 140.098 250.481 124.652 249.451 109.652C249.039 103.809 246.979 97.4294 241.833 94.6729C237.017 92.0979 230.861 93.4349 225.988 90.959C220.549 88.2148 218.316 81.7154 214.204 77.2174C207.201 69.542 195.043 68.5516 185.249 72.0179C175.456 75.4843 167.451 82.615 159.706 89.5683L145.628 102.216C142.88 99.1131 144.965 94.351 146.452 90.472C148.668 84.6577 149.155 78.3894 149.006 72.216C148.887 67.2641 147.181 62.3741 147.28 57.5543C147.478 48.0466 155.009 38.7536 163.887 35.8773Z" fill="#865A61"/>
</g>
<defs>
<linearGradient id="paint0_linear" x1="223.17" y1="335.558" x2="223.17" y2="10.375" gradientUnits="userSpaceOnUse">
<stop stop-color="#808080" stop-opacity="0.25"/>
<stop offset="0.54" stop-color="#808080" stop-opacity="0.12"/>
<stop offset="1" stop-color="#808080" stop-opacity="0.1"/>
</linearGradient>
<clipPath id="clip0">
<rect width="452" height="335" fill="white" transform="translate(0 0.562012)"/>
</clipPath>
</defs>
</svg>
