<svg width="534" height="387" viewBox="0 0 534 387" fill="none" xmlns="http://www.w3.org/2000/svg">
<g clip-path="url(#clip0)">
<path d="M496.297 348.272H431.127V385.861H496.297V348.272Z" fill="#6C63FF"/>
<path d="M362.474 377.165C361.889 379.154 361.618 381.474 362.832 383.154C363.504 383.996 364.388 384.643 365.393 385.03C367.979 386.041 370.762 386.45 373.53 386.223C374.06 386.248 374.589 386.162 375.085 385.972C375.58 385.782 376.031 385.491 376.408 385.118C382.829 379.803 387.172 372.396 388.674 364.198C388.796 363.775 388.773 363.323 388.609 362.915C388.398 362.598 388.102 362.347 387.755 362.19C386.326 361.295 384.786 360.592 383.174 360.099C374.352 357.822 364.66 369.729 362.474 377.165Z" fill="#2F2E41"/>
<path d="M454.99 349.287C456.176 350.664 457.637 351.776 459.279 352.553C460.103 352.934 461.002 353.124 461.91 353.108C462.817 353.093 463.71 352.872 464.52 352.463C466.947 351.082 467.634 347.872 467.441 345.087C467.083 339.935 464.621 335.293 461.792 331.084C460.897 329.753 458.916 325.79 457.177 325.741C456.352 325.717 453.263 328.712 452.423 329.281C449.357 331.364 447.233 332.853 447.871 336.85C448.583 341.307 451.99 346.078 454.99 349.287Z" fill="#2F2E41"/>
<path d="M428.105 136.213C415.051 135.201 402.581 135.576 389.504 134.904C388.405 134.848 388.934 147.426 387.796 154.255C387.211 157.766 367.525 363.4 369.969 363.817C376.243 365.129 382.589 366.069 388.975 366.631C391.565 366.859 415.708 232.873 414.551 221.984C417.712 226.619 428.846 248.02 434.476 272.637C441.904 305.118 444.091 341.857 448.708 339.796C451.68 335.716 455.713 332.527 460.37 330.575C468.001 327.737 455.634 171.495 442.567 164.312C442.406 159.739 442.239 155.054 440.515 150.815C438.084 144.836 433.287 140.062 428.105 136.213Z" fill="#2F2E41"/>
<path d="M533.753 387H174.018V385.633H534L533.753 387Z" fill="#3F3D56"/>
<path d="M295.149 184.418H0V242.678H295.149V184.418Z" fill="#E6E6E6"/>
<path d="M295.149 92.3604H0V150.62H295.149V92.3604Z" fill="#E6E6E6"/>
<path d="M295.149 0H0V58.2601H295.149V0Z" fill="#E6E6E6"/>
<path d="M6.29199 51.969H288.858V6.29053H6.29199V51.969Z" fill="white"/>
<path d="M6.29199 144.533H288.858V98.8545H6.29199V144.533Z" fill="white"/>
<path d="M6.29199 236.387H288.858V190.709H6.29199V236.387Z" fill="white"/>
<path d="M31.0283 46.1544C40.6415 46.1544 48.4345 38.363 48.4345 28.752C48.4345 19.1409 40.6415 11.3496 31.0283 11.3496C21.4151 11.3496 13.6221 19.1409 13.6221 28.752C13.6221 38.363 21.4151 46.1544 31.0283 46.1544Z" fill="#6C63FF"/>
<path d="M244.444 21.9419H72.6523V25.725H244.444V21.9419Z" fill="#6C63FF"/>
<path d="M244.444 31.7783H72.6523V35.5614H244.444V31.7783Z" fill="#6C63FF"/>
<path d="M31.0283 139.272C40.6415 139.272 48.4345 131.48 48.4345 121.869C48.4345 112.258 40.6415 104.467 31.0283 104.467C21.4151 104.467 13.6221 112.258 13.6221 121.869C13.6221 131.48 21.4151 139.272 31.0283 139.272Z" fill="#CCCCCC"/>
<path d="M244.444 115.06H72.6523V118.843H244.444V115.06Z" fill="#CCCCCC"/>
<path d="M244.444 124.896H72.6523V128.679H244.444V124.896Z" fill="#CCCCCC"/>
<path d="M31.0283 231.329C40.6415 231.329 48.4346 223.537 48.4346 213.926C48.4346 204.315 40.6415 196.524 31.0283 196.524C21.4151 196.524 13.6221 204.315 13.6221 213.926C13.6221 223.537 21.4151 231.329 31.0283 231.329Z" fill="#CCCCCC"/>
<path d="M244.444 207.117H72.6523V210.9H244.444V207.117Z" fill="#CCCCCC"/>
<path d="M244.444 216.953H72.6523V220.736H244.444V216.953Z" fill="#CCCCCC"/>
<path d="M424.888 36.4716C418.113 25.0258 404.708 24.4924 404.708 24.4924C404.708 24.4924 391.646 22.8224 383.267 40.2545C375.457 56.5027 364.678 72.1906 381.532 75.9942L384.576 66.5211L386.461 76.6994C388.861 76.872 391.268 76.9131 393.672 76.8226C411.721 76.24 428.91 76.9931 428.357 70.5178C427.621 61.9098 431.408 47.4848 424.888 36.4716Z" fill="#2F2E41"/>
<path d="M399.893 75.4686C399.926 76.7569 399.916 78.1157 399.276 79.2341C398.006 81.4514 394.908 81.7833 393.044 83.5309C391.083 85.3687 390.861 88.3514 390.768 91.0365C390.67 93.8438 390.587 96.7431 391.612 99.3586C392.24 100.799 393.033 102.162 393.976 103.419C395.114 105.059 396.263 106.692 397.422 108.318C398.041 109.233 398.731 110.098 399.485 110.906C401.561 113.02 404.408 114.19 407.252 115.025C409.088 115.565 411.072 115.985 412.894 115.399C414.1 114.928 415.212 114.245 416.176 113.382C417.584 112.371 418.836 111.159 419.89 109.782C421.42 107.563 421.844 104.784 422.161 102.107C423.099 94.191 423.464 86.2173 423.253 78.2484C423.292 77.38 423.136 76.514 422.797 75.7134C421.854 73.8707 419.326 73.4773 417.994 71.8923C416.855 70.5372 416.808 68.6032 416.818 66.8332L416.843 62.3273C416.882 61.9476 416.806 61.5649 416.624 61.2295C416.458 61.0489 416.259 60.9026 416.037 60.7991C415.815 60.6957 415.575 60.637 415.331 60.6264C412.53 60.1617 409.69 59.9717 406.852 60.0593C404.551 60.1296 400.136 59.937 398.146 61.2183C396.34 62.3813 398.601 65.5935 399.02 67.3978C399.582 70.0517 399.875 72.7558 399.893 75.4686Z" fill="#FFB8B8"/>
<path d="M405.175 67.7309C415.235 67.7309 423.391 59.5768 423.391 49.5183C423.391 39.4597 415.235 31.3057 405.175 31.3057C395.114 31.3057 386.958 39.4597 386.958 49.5183C386.958 59.5768 395.114 67.7309 405.175 67.7309Z" fill="#FFB8B8"/>
<path d="M401.049 88.9058C391.647 59.1175 386.694 100.958 380.766 112.382C380.821 120.259 381.035 142.044 382.877 150.302C390.035 182.379 425.482 179.861 436.141 152.807C441.819 138.397 429.223 102.681 429.65 86.0166C414.04 70.2034 413.077 120.371 401.049 88.9058Z" fill="#6C63FF"/>
<path d="M390.728 78.6882C370.356 88.5876 380.075 115.184 372.691 132.591C366.793 156.472 351.794 163.981 386.088 164.537C393.477 142.709 386.26 118.998 396.335 96.7716C397.028 88.0663 400.015 84.7926 399.75 77.4207C397.775 74.3611 392.657 77.7403 390.728 78.6882Z" fill="#575A88"/>
<path d="M421.893 35.3685L408.65 28.4326L390.362 31.27L386.578 47.9784L395.997 47.6157L398.628 41.4773V47.5142L402.974 47.3475L405.497 37.575L407.073 47.9784L422.524 47.6627L421.893 35.3685Z" fill="#2F2E41"/>
<path d="M413.701 87.0722C424.187 85.8487 413.964 73.259 422.287 73.4729C447.208 69.2821 454.664 84.7143 445.186 106.253C436.498 123.505 467.231 147.74 450.062 157.394C443.969 159.63 435.244 166.664 429.289 163.602C419.728 139.577 419.383 112.127 413.701 87.0722Z" fill="#575A88"/>
<path d="M442.887 155.657C439.236 157.403 436.348 160.179 433.904 163.404C433.386 164.087 434.08 165.36 435.631 165.339C437.073 165.32 437.935 163.47 439.378 163.451C439.819 167.306 440.617 171.112 441.762 174.819C444.64 172.292 446.364 168.735 448.013 165.279L451.272 158.447C452.468 155.938 453.665 153.429 454.744 150.868C455.037 150.269 455.218 149.622 455.279 148.957C455.42 144.55 451.074 144.523 449.199 147.282C447.149 150.299 446.511 153.924 442.887 155.657Z" fill="#FFB8B8"/>
<path d="M443.636 79.8818C446.423 82.7768 449.229 85.6964 451.393 89.0824C453.556 92.4685 464.746 122.922 465.2 123.568C466.815 125.951 464.928 132.113 464.833 132.466C464.646 133.572 462.311 144.622 461.727 147.062C461.317 148.769 461.322 150.547 461.055 152.282C460.787 154.017 460.184 155.802 458.847 156.94C458.677 157.104 458.468 157.221 458.239 157.28C457.498 157.425 456.993 156.567 456.733 155.858C455.925 153.649 455.109 151.398 453.684 149.527C452.259 147.655 450.099 146.19 447.747 146.197C447.552 145.732 447.472 145.227 447.512 144.724C447.552 144.221 447.711 143.736 447.977 143.307C448.448 142.418 449.139 141.665 449.659 140.804C450.318 139.63 450.766 138.35 450.983 137.022C452.144 130.921 450.975 124.605 447.706 119.324C446.946 118.072 446.027 116.923 444.971 115.907C443.823 114.831 442.479 113.965 441.418 112.802C439.783 110.867 438.795 108.469 438.591 105.944C438.396 103.436 438.463 100.915 438.791 98.4203C439.268 93.4704 439.881 88.5133 440.588 83.591C440.642 82.9498 440.809 82.3231 441.079 81.739C441.634 80.7037 442.573 80.3814 443.636 79.8818Z" fill="#575A88"/>
<path d="M382.816 148.27C380.941 145.512 376.595 145.539 376.737 149.946C376.797 150.61 376.978 151.258 377.271 151.857C378.35 154.418 379.547 156.927 380.744 159.435L384.003 166.268C385.652 169.724 387.375 173.281 390.253 175.807C391.398 172.1 392.197 168.295 392.638 164.44C394.08 164.459 394.942 166.309 396.385 166.328C397.935 166.349 398.629 165.075 398.112 164.393C395.668 161.168 392.78 158.392 389.129 156.646C385.505 154.913 384.866 151.287 382.816 148.27Z" fill="#FFB8B8"/>
<path d="M390.937 82.7278C391.207 83.3118 391.373 83.9386 391.428 84.5798C392.135 89.5021 392.748 94.4591 393.225 99.409C393.553 101.903 393.62 104.425 393.424 106.933C393.221 109.458 392.232 111.856 390.597 113.791C389.537 114.954 388.193 115.819 387.044 116.896C385.989 117.912 385.07 119.06 384.31 120.313C381.04 125.594 379.871 131.909 381.033 138.011C381.25 139.339 381.698 140.619 382.356 141.792C382.876 142.654 383.567 143.407 384.038 144.296C384.304 144.724 384.464 145.21 384.504 145.713C384.544 146.215 384.463 146.72 384.269 147.186C381.916 147.179 379.757 148.644 378.332 150.515C376.907 152.387 376.091 154.638 375.282 156.847C375.023 157.556 374.518 158.414 373.776 158.269C373.548 158.209 373.339 158.092 373.168 157.929C371.831 156.79 371.229 155.006 370.961 153.271C370.693 151.536 370.698 149.758 370.289 148.05C369.704 145.61 367.37 134.561 367.183 133.455C367.087 133.102 365.2 126.94 366.816 124.556C367.27 123.911 378.459 93.4572 380.623 90.0712C382.786 86.6851 385.592 83.7656 388.379 80.8706C389.442 81.3702 390.382 81.6925 390.937 82.7278Z" fill="#575A88"/>
</g>
<defs>
<clipPath id="clip0">
<rect width="534" height="387" fill="white"/>
</clipPath>
</defs>
</svg>
