<svg width="342" height="404" viewBox="0 0 342 404" fill="none" xmlns="http://www.w3.org/2000/svg">
<path d="M129.464 68.4786C145.198 68.4786 157.952 55.7314 157.952 40.0069C157.952 24.2824 145.198 11.5352 129.464 11.5352C113.73 11.5352 100.975 24.2824 100.975 40.0069C100.975 55.7314 113.73 68.4786 129.464 68.4786Z" fill="#2F2E41"/>
<path d="M58.5664 283.615H46.0896L40.1551 235.531H58.565L58.5664 283.615Z" fill="#FEB8B8"/>
<path d="M37.183 280.052H61.2394V295.19H22.036C22.036 291.176 23.6318 287.325 26.4725 284.486C29.3131 281.647 33.1658 280.052 37.183 280.052Z" fill="#2F2E41"/>
<path d="M39.0945 276.657L27.1936 272.924L35.9361 225.269L53.5009 230.778L39.0945 276.657Z" fill="#FEB8B8"/>
<path d="M19.7525 266.861L42.7059 274.06L38.1705 288.504L0.765747 276.772C1.36134 274.876 2.32491 273.115 3.60146 271.59C4.87801 270.066 6.44252 268.807 8.20568 267.887C9.96883 266.967 11.8961 266.402 13.8774 266.226C15.8588 266.05 17.8554 266.266 19.7533 266.862L19.7525 266.861Z" fill="#2F2E41"/>
<path d="M43.1532 257.469C42.6081 257.469 42.0675 257.371 41.5573 257.179L32.3774 253.74C31.3471 253.351 30.4912 252.604 29.9657 251.637C29.4402 250.669 29.2799 249.545 29.5142 248.469C31.8246 238.087 39.6988 202.74 44.0106 183.782C49.1239 161.294 123.721 157.115 126.894 156.948L127.155 156.935L135.547 167.469C138.579 177.21 137.618 184.807 132.69 190.052C118.31 205.352 75.3791 195.858 70.2599 194.657L47.4425 254.523C47.1099 255.39 46.5222 256.135 45.7567 256.661C44.9913 257.187 44.0843 257.469 43.1553 257.469H43.1532Z" fill="#2F2E41"/>
<path d="M56.3801 264.588C55.835 264.588 55.2944 264.49 54.7842 264.298L45.6072 260.859C44.5768 260.469 43.7209 259.722 43.1953 258.755C42.6698 257.787 42.5096 256.663 42.744 255.587C45.0544 245.205 52.9286 209.858 57.2404 190.9C62.3537 168.412 136.951 164.233 140.124 164.066L140.385 164.053L148.773 174.59C151.806 184.331 150.844 191.929 145.917 197.173C131.538 212.47 88.6059 202.979 83.4868 201.777L60.6665 261.641C60.3339 262.508 59.7461 263.253 58.9807 263.779C58.2153 264.305 57.3083 264.587 56.3794 264.587L56.3801 264.588Z" fill="#2F2E41"/>
<path d="M29.8296 118.137C30.1666 118.588 30.4676 119.065 30.7299 119.563L80.9115 124.846L88.1364 114.948L104.508 123.89L90.3199 147.91L28.7764 132.227C27.2236 133.74 25.2468 134.745 23.1088 135.108C20.9708 135.47 18.773 135.174 16.8076 134.258C14.8423 133.342 13.2025 131.85 12.1065 129.98C11.0104 128.109 10.51 125.95 10.6718 123.789C10.8335 121.628 11.6499 119.567 13.0121 117.881C14.3744 116.194 16.2181 114.962 18.2979 114.349C20.3778 113.735 22.5952 113.769 24.6554 114.446C26.7156 115.122 28.5209 116.41 29.8311 118.137L29.8296 118.137Z" fill="#FEB8B8"/>
<path d="M146.444 178.624C145.719 178.622 145.004 178.448 144.359 178.117C134.324 173.017 114.785 164.186 96.6658 162.338C96.0457 162.278 95.4452 162.088 94.9028 161.782C94.3603 161.475 93.888 161.059 93.5161 160.559C93.137 160.054 92.866 159.477 92.7201 158.863C92.5742 158.248 92.5565 157.611 92.6681 156.99C94.3032 147.944 98.0535 124.91 97.5704 106.45C97.4281 100.774 99.2224 95.219 102.658 90.6974C106.094 86.1757 110.967 82.957 116.476 81.5703C119.792 80.6959 123.16 80.0322 126.559 79.5831C130.468 79.0884 134.438 79.5154 138.152 80.8299C141.866 82.1445 145.22 84.3099 147.945 87.1529C150.671 89.9959 152.693 93.4374 153.848 97.2016C155.004 100.966 155.261 104.948 154.6 108.83C151.369 127.96 148.111 154.68 150.942 173.332C151.072 174.168 150.968 175.023 150.642 175.804C150.315 176.585 149.779 177.259 149.092 177.754C148.323 178.316 147.396 178.621 146.444 178.624Z" fill="#CCCCCC"/>
<path d="M98.4995 129.965C97.874 129.964 97.2554 129.835 96.6817 129.586L83.6093 123.931C82.4958 123.448 81.6195 122.543 81.1728 121.415C80.7261 120.287 80.7453 119.028 81.2263 117.914L91.3311 94.5852C91.9314 93.1716 92.8043 91.8899 93.9002 90.8135C94.996 89.737 96.2933 88.8868 97.7179 88.3114C99.1425 87.736 100.667 87.4467 102.203 87.4599C103.74 87.4732 105.258 87.7887 106.673 88.3886C108.087 88.9885 109.37 89.8609 110.447 90.9561C111.524 92.0513 112.375 93.3478 112.95 94.7716C113.526 96.1953 113.816 97.7185 113.802 99.2541C113.789 100.79 113.473 102.308 112.873 103.721C112.851 103.773 112.829 103.824 112.807 103.875L102.702 127.204C102.346 128.023 101.759 128.721 101.013 129.211C100.266 129.701 99.3928 129.964 98.4995 129.965Z" fill="#CCCCCC"/>
<path d="M128.423 71.6467C142.225 71.6467 153.413 60.4649 153.413 46.6715C153.413 32.8781 142.225 21.6963 128.423 21.6963C114.621 21.6963 103.433 32.8781 103.433 46.6715C103.433 60.4649 114.621 71.6467 128.423 71.6467Z" fill="#FEB8B8"/>
<path d="M102.983 34.3982C114.82 41.6198 128.165 46.0142 141.978 47.2396L137.868 42.3178C140.86 43.4237 144.01 44.0486 147.198 44.1693C148.795 44.2156 150.38 43.8872 151.827 43.2105C153.273 42.5338 154.541 41.5276 155.528 40.2726C156.334 38.9701 156.813 37.4921 156.924 35.9646C157.034 34.4372 156.774 32.9056 156.164 31.5005C154.912 28.6969 152.962 26.2603 150.501 24.4226C146.139 20.9737 140.99 18.657 135.514 17.6789C130.039 16.7009 124.406 17.0919 119.118 18.8172C115.491 19.9005 112.242 21.9831 109.745 24.8264C107.375 27.7473 102.815 30.35 104.028 33.9089L102.983 34.3982Z" fill="#2F2E41"/>
<path d="M130.657 13.3591C135.638 8.30959 141.666 4.41277 148.317 1.94295C152.538 0.168186 157.168 -0.406107 161.696 0.283494C166.159 1.18101 170.379 4.26648 171.625 8.64312C172.64 12.2216 171.591 16.0748 170.011 19.4452C168.432 22.8155 166.322 25.938 165.044 29.4323C163.74 32.9979 163.348 36.8325 163.903 40.588C164.458 44.3435 165.943 47.9009 168.223 50.9374C170.503 53.9738 173.505 56.3931 176.958 57.9756C180.411 59.5581 184.204 60.2537 187.994 59.9992C183.609 60.5872 179.567 62.6468 175.281 63.7423C170.994 64.8377 165.935 64.7645 162.75 61.6949C159.38 58.4478 159.313 53.1686 159.476 48.4932L160.201 27.6417C160.325 24.0973 160.43 20.4391 159.151 17.1296C157.871 13.8201 154.832 10.9239 151.283 10.9543C148.593 10.9768 146.213 12.6058 144.056 14.2116C141.899 15.8174 139.616 17.5305 136.937 17.7698C134.258 18.009 131.199 16.0298 131.399 13.3474" fill="#2F2E41"/>
<path d="M86.4087 172.208C84.7529 172.206 83.1182 171.837 81.6223 171.127C80.1264 170.418 78.8066 169.386 77.7579 168.105C76.7092 166.824 75.9577 165.327 75.5577 163.721C75.1576 162.116 75.1189 160.441 75.4443 158.819C75.7697 157.196 76.4512 155.666 77.4395 154.338C78.4279 153.011 79.6986 151.919 81.1601 151.141C82.6216 150.363 84.2375 149.919 85.8915 149.84C87.5454 149.762 89.1961 150.051 90.7248 150.687C91.1846 150.881 91.6304 151.107 92.0588 151.363L137.581 130.94L138.86 118.601L158.483 118.076L158.353 138.618C158.329 140.998 157.538 143.306 156.097 145.201C154.656 147.096 152.642 148.476 150.354 149.136L97.1206 164.277C97.0179 164.629 96.8969 164.974 96.7579 165.313C95.9038 167.352 94.4667 169.094 92.6266 170.32C90.7866 171.546 88.6254 172.203 86.4137 172.207L86.4087 172.208Z" fill="#FEB8B8"/>
<path d="M156.821 128.141C156.263 128.423 155.653 128.588 155.028 128.625L140.811 129.499C139.599 129.572 138.408 129.162 137.499 128.358C136.589 127.555 136.036 126.424 135.96 125.213L134.4 99.839C134.213 96.7455 135.262 93.7043 137.317 91.3835C139.373 89.0628 142.266 87.6523 145.361 87.462C148.456 87.2717 151.5 88.3171 153.825 90.3686C156.149 92.42 157.564 95.3097 157.757 98.4029L159.318 123.777C159.373 124.668 159.165 125.556 158.722 126.331C158.279 127.106 157.618 127.735 156.822 128.141H156.821Z" fill="#CCCCCC"/>
<path d="M128.192 167.655H43.2698C42.5575 167.655 41.9801 168.232 41.9801 168.944V173.484C41.9801 174.196 42.5575 174.773 43.2698 174.773H128.192C128.904 174.773 129.481 174.196 129.481 173.484V168.944C129.481 168.232 128.904 167.655 128.192 167.655Z" fill="#3F3D56"/>
<path d="M9.34952 168.164V118.338C9.35163 116.585 10.0491 114.905 11.2889 113.666C12.5287 112.427 14.2096 111.73 15.963 111.728H106.517C108.27 111.73 109.951 112.427 111.191 113.666C112.431 114.905 113.128 116.585 113.13 118.338V168.164C113.128 169.916 112.431 171.596 111.191 172.836C109.951 174.075 108.27 174.772 106.517 174.774H15.963C14.2096 174.771 12.5287 174.074 11.2889 172.835C10.0491 171.596 9.35163 169.916 9.34952 168.164Z" fill="#3F3D56"/>
<path d="M62.329 149.355C65.7006 149.355 68.4339 146.623 68.4339 143.253C68.4339 139.884 65.7006 137.152 62.329 137.152C58.9573 137.152 56.224 139.884 56.224 143.253C56.224 146.623 58.9573 149.355 62.329 149.355Z" fill="white"/>
<path d="M336.234 215.659H84.0728C81.3113 215.659 79.0728 217.898 79.0728 220.659V398.21C79.0728 400.971 81.3113 403.21 84.0727 403.21H336.234C338.996 403.21 341.234 400.971 341.234 398.21V220.659C341.234 217.898 338.996 215.659 336.234 215.659Z" fill="#E6E6E6"/>
<path d="M320.927 233.519H99.38C96.6186 233.519 94.38 235.757 94.38 238.519V383.169C94.38 385.93 96.6186 388.169 99.38 388.169H320.927C323.689 388.169 325.927 385.93 325.927 383.169V238.519C325.927 235.757 323.689 233.519 320.927 233.519Z" fill="white"/>
<path d="M336.234 201.675H83.8552C81.0938 201.675 78.8552 203.913 78.8552 206.675V218.344C78.8552 221.106 81.0938 223.344 83.8552 223.344H336.234C338.996 223.344 341.234 221.106 341.234 218.344V206.675C341.234 203.913 338.996 201.675 336.234 201.675Z" fill="#6C63FF"/>
<path d="M94.1169 216.526C96.3363 216.526 98.1356 214.728 98.1356 212.509C98.1356 210.291 96.3363 208.493 94.1169 208.493C91.8974 208.493 90.0981 210.291 90.0981 212.509C90.0981 214.728 91.8974 216.526 94.1169 216.526Z" fill="white"/>
<path d="M109.371 216.526C111.59 216.526 113.389 214.728 113.389 212.509C113.389 210.291 111.59 208.493 109.371 208.493C107.151 208.493 105.352 210.291 105.352 212.509C105.352 214.728 107.151 216.526 109.371 216.526Z" fill="white"/>
<path d="M124.625 216.526C126.844 216.526 128.644 214.728 128.644 212.509C128.644 210.291 126.844 208.493 124.625 208.493C122.406 208.493 120.606 210.291 120.606 212.509C120.606 214.728 122.406 216.526 124.625 216.526Z" fill="white"/>
<path d="M264.696 256H254.225V266.471H264.696V256Z" fill="#E6E6E6"/>
<path d="M282.731 256H272.26V266.471H282.731V256Z" fill="#E6E6E6"/>
<path d="M300.766 256H290.294V266.471H300.766V256Z" fill="#E6E6E6"/>
<path opacity="0.997" d="M279.664 340.289C287.931 340.289 294.632 333.588 294.632 325.322C294.632 317.055 287.931 310.354 279.664 310.354C271.398 310.354 264.697 317.055 264.697 325.322C264.697 333.588 271.398 340.289 279.664 340.289Z" fill="#6C63FF"/>
<path d="M218.709 300.521H119.054C117.839 300.521 116.854 301.506 116.854 302.721C116.854 303.936 117.839 304.921 119.054 304.921H218.709C219.924 304.921 220.909 303.936 220.909 302.721C220.909 301.506 219.924 300.521 218.709 300.521Z" fill="#F3F3F3"/>
<path d="M192.04 310.721H119.054C117.839 310.721 116.854 311.706 116.854 312.921C116.854 314.136 117.839 315.121 119.054 315.121H192.04C193.255 315.121 194.24 314.136 194.24 312.921C194.24 311.706 193.255 310.721 192.04 310.721Z" fill="#F3F3F3"/>
<path d="M192.04 350.584H119.054C117.839 350.584 116.854 351.569 116.854 352.784C116.854 353.999 117.839 354.984 119.054 354.984H192.04C193.255 354.984 194.24 353.999 194.24 352.784C194.24 351.569 193.255 350.584 192.04 350.584Z" fill="#F3F3F3"/>
<path d="M195.693 320.921H119.054C117.839 320.921 116.854 321.906 116.854 323.121C116.854 324.337 117.839 325.322 119.054 325.322H195.693C196.909 325.322 197.894 324.337 197.894 323.121C197.894 321.906 196.909 320.921 195.693 320.921Z" fill="#E8E8E8"/>
<path d="M212.991 340.853H119.054C117.839 340.853 116.854 341.838 116.854 343.053C116.854 344.268 117.839 345.253 119.054 345.253H212.991C214.206 345.253 215.191 344.268 215.191 343.053C215.191 341.838 214.206 340.853 212.991 340.853Z" fill="#E8E8E8"/>
<path d="M141.62 255.202H121.854C119.093 255.202 116.854 257.441 116.854 260.202V279.951C116.854 282.712 119.093 284.951 121.854 284.951H141.62C144.382 284.951 146.62 282.712 146.62 279.951V260.202C146.62 257.441 144.382 255.202 141.62 255.202Z" fill="#6C63FF"/>
</svg>
