<svg width="585" height="410" viewBox="0 0 585 410" fill="none" xmlns="http://www.w3.org/2000/svg">
<g clip-path="url(#clip0)">
<path opacity="0.1" d="M248.877 16.2409C225.097 7.20438 199.968 -0.344029 174.316 0.604914C136.598 1.99598 100.391 23.2016 82.6603 54.3388C67.6164 80.7205 65.7602 111.642 59.2797 140.919C51.3045 176.984 36.0017 211.27 19.6628 244.791C10.889 262.799 1.62956 281.196 0.18885 300.935C-1.80765 328.341 12.2056 355.65 34.1832 373.879C56.1609 392.109 85.3475 401.728 114.642 403.825C130.231 404.941 146.521 403.906 160.367 397.123C175.017 389.947 185.696 376.98 200.405 369.906C214.035 363.349 229.98 362.433 245.283 363.285C265.263 364.397 284.987 368.317 303.872 374.931C325.261 382.436 345.151 393.311 366.465 400.924C387.779 408.537 411.65 412.786 433.461 406.435C453.965 400.466 470.153 385.973 484.749 371.297C508.616 347.342 530.491 321.486 550.158 293.985C563.33 275.54 575.589 256.081 581.412 234.584C592.549 193.483 577.224 147.114 543.236 119.045C515.074 95.7904 477.281 85.6971 440.286 79.5721C406.551 73.9863 367.544 73.6412 336.49 59.0835C306.877 45.1837 279.93 28.0488 248.877 16.2409Z" fill="#484848"/>
<path d="M341.336 334.266V353.854H346.91L345.831 332.826L341.336 334.266Z" fill="#AAABB0"/>
<path d="M257.607 330.314V349.902H263.187L262.107 328.874L257.607 330.314Z" fill="#AAABB0"/>
<path d="M355.004 301.56C355.004 299.574 353.394 297.964 351.407 297.964C349.421 297.964 347.811 299.574 347.811 301.56V329.236C347.811 331.222 349.421 332.832 351.407 332.832C353.394 332.832 355.004 331.222 355.004 329.236V301.56Z" fill="#AAABB0"/>
<path d="M262.733 293.828C262.733 291.842 261.123 290.232 259.137 290.232C257.151 290.232 255.541 291.842 255.541 293.828V329.23C255.541 331.216 257.151 332.826 259.137 332.826C261.123 332.826 262.733 331.216 262.733 329.23V293.828Z" fill="#AAABB0"/>
<path d="M364.182 89.3038C364.182 89.3038 371.375 86.2467 372.454 89.3038C373.533 92.361 374.073 118.78 374.073 118.78H367.236L364.182 89.3038Z" fill="#AAABB0"/>
<path d="M285.402 89.3038C285.402 89.3038 278.203 86.2467 277.124 89.3038C276.045 92.361 275.505 118.78 275.505 118.78H282.342L285.402 89.3038Z" fill="#AAABB0"/>
<path d="M286.475 63.0623L285.396 84.9904H290.253V62.5231L286.475 63.0623Z" fill="#AAABB0"/>
<path d="M282.342 118.78L283.783 87.1471C283.783 87.1471 283.243 80.1379 300.327 82.2946C317.41 84.4512 367.42 88.7646 367.42 88.7646V118.78H282.342Z" fill="#33323D"/>
<path d="M350.692 285.385L347.995 333.727C347.995 333.727 308.421 355.655 260.397 334.805L264.714 283.945L350.692 285.385Z" fill="#33323D"/>
<path d="M313.099 95.0514L313.995 126.323H369.756L366.519 84.9905L313.099 95.0514Z" fill="#444053"/>
<path d="M318.765 264.713H266.241V331.209H318.765V264.713Z" fill="#4C4981"/>
<path d="M299.431 291.855C299.431 291.855 306.985 285.924 308.243 287.719C309.5 289.515 303.753 297.246 301.411 296.346C299.069 295.446 299.431 291.855 299.431 291.855Z" fill="#FFB9B9"/>
<path d="M509.095 116.98H164.312V289.515H509.095V116.98Z" fill="#504F60"/>
<path d="M282.52 61.806C282.52 61.806 279.822 36.6429 282.52 33.5911C285.218 30.5394 330.544 1.59665 372.454 35.5645C372.454 35.5645 376.409 35.7478 375.692 44.7304C375.269 50.4156 375.298 56.1254 375.778 61.806C375.778 61.806 285.58 68.2761 282.52 61.806Z" fill="#33323D"/>
<path opacity="0.1" d="M282.52 61.806C282.52 61.806 279.822 36.6429 282.52 33.5911C285.218 30.5394 330.544 1.59665 372.454 35.5645C372.454 35.5645 376.409 35.7478 375.692 44.7304C375.269 50.4156 375.298 56.1254 375.778 61.806C375.778 61.806 285.58 68.2761 282.52 61.806Z" fill="black"/>
<path d="M282.52 65.041C282.52 65.041 279.822 39.8778 282.52 36.8261C285.218 33.7744 330.544 4.83163 372.454 38.7995C372.454 38.7995 376.409 38.9828 375.692 47.9654C375.269 53.6506 375.298 59.3604 375.778 65.041C375.778 65.041 285.58 71.5111 282.52 65.041Z" fill="#33323D"/>
<path d="M377.311 53.5405C377.311 53.5405 380.187 64.324 379.291 66.1194C378.395 67.9149 378.557 72.9507 378.557 72.9507C378.557 72.9507 378.751 76.1858 377.311 76.5416C375.87 76.8975 374.613 77.0808 375.778 78.1591C376.944 79.2375 375.778 80.855 375.778 80.855C375.778 80.855 375.147 83.3729 375.778 84.9905C376.409 86.608 372.087 87.2819 372.454 89.3038C372.821 91.3257 374.03 97.0302 372.454 97.2135C370.879 97.3968 372.994 104.401 371.575 104.401C370.156 104.401 369.146 116.98 369.146 116.98C369.146 116.98 359.164 108.536 352.511 110.871C352.511 110.871 353.05 103.861 355.209 101.344C357.367 98.8256 356.714 92.3609 356.714 92.3609L367.42 60.1885L377.311 53.5405Z" fill="#4C4981"/>
<path d="M323.891 202.233C321.554 204.816 319.034 191.024 319.034 191.024C319.034 191.024 312.381 200.19 308.065 194.081C305.075 189.849 307.433 177.858 309.144 170.897C309.91 167.802 310.557 165.699 310.557 165.699L320.27 164.082C320.27 164.082 320.303 166.195 320.518 168.762C320.81 172.229 321.441 176.531 322.785 177.561C325.153 179.346 326.233 199.629 323.891 202.233Z" fill="#AE6E79"/>
<path opacity="0.1" d="M318.856 40.7783C318.856 40.7783 301.946 40.6003 297.812 49.5829C293.679 58.5656 293.496 61.6281 291.877 63.0623C290.258 64.4965 309.5 72.0503 309.5 72.0503L310.401 102.961C310.401 102.961 314.178 99.1383 320.292 100.869C326.405 102.6 334.143 100.869 334.143 100.869C334.143 100.869 333.782 100.217 338.821 100.869C343.861 101.521 359.865 93.078 359.865 93.078C359.865 93.078 360.13 79.5555 359.774 76.6764C359.418 73.7972 371.192 52.6401 371.192 52.6401C371.192 52.6401 380.365 43.8354 370.835 40.7783C370.835 40.7783 367.463 35.6993 358.786 35.7478C350.11 35.7963 318.856 40.7783 318.856 40.7783Z" fill="black"/>
<path d="M318.856 40.2392C318.856 40.2392 301.946 40.0613 297.812 49.0439C293.679 58.0265 293.496 61.089 291.877 62.5232C290.258 63.9574 309.5 71.5112 309.5 71.5112L310.401 102.422C310.401 102.422 314.178 98.5992 320.292 100.33C326.405 102.061 334.143 100.33 334.143 100.33C334.143 100.33 333.782 99.6776 338.821 100.33C343.861 100.982 359.866 92.5389 359.866 92.5389C359.866 92.5389 366.157 82.2946 365.801 79.4209C365.445 76.5471 378.39 54.7969 378.39 54.7969C378.39 54.7969 380.37 43.2963 370.835 40.2392C370.835 40.2392 367.463 35.1602 358.786 35.2087C350.11 35.2572 318.856 40.2392 318.856 40.2392Z" fill="#4C4981"/>
<path opacity="0.1" d="M320.561 168.745C316.854 167.592 311.038 170.137 309.187 170.902C309.953 167.807 310.601 165.705 310.601 165.705L320.313 164.087C320.313 164.087 320.329 166.201 320.561 168.745Z" fill="black"/>
<path d="M297.089 62.5231H291.877C291.877 62.5231 290.798 73.4899 291.877 76.7249C292.956 79.96 293.496 79.4909 293.134 81.8848C292.773 84.2787 295.654 87.9451 295.654 87.9451C295.654 87.9451 296.01 96.9816 297.812 100.346C299.615 103.711 295.832 118.797 295.832 118.797C296.864 121.401 298.39 123.781 300.327 125.806C303.386 128.858 305.005 140.18 304.104 144.494C303.203 148.807 306.624 150.424 306.624 150.424C306.624 150.424 308.065 170.557 308.604 170.557C309.144 170.557 319.574 165.165 322.812 169.835L320.292 151.325L320.475 115.562C320.475 115.562 317.054 111.065 318.857 107.113C320.659 103.161 317.416 93.8113 317.416 93.8113L312.738 72.9669L297.089 62.5231Z" fill="#4C4981"/>
<path d="M264.714 346.667C264.714 346.667 257.159 345.049 256.981 346.667C256.803 348.284 247.986 364.821 258.962 369.673C269.937 374.526 299.248 384.948 346.915 371.469C346.915 371.469 349.969 372.547 349.252 365.899C348.534 359.251 348.534 351.881 348.534 351.881C348.534 351.881 341.336 349.902 335.94 350.624C330.544 351.347 283.599 360.869 264.714 346.667Z" fill="#33323D"/>
<path opacity="0.1" d="M264.714 346.667C264.714 346.667 257.159 345.049 256.981 346.667C256.803 348.284 247.986 364.821 258.962 369.673C269.937 374.526 299.248 384.948 346.915 371.469C346.915 371.469 349.969 372.547 349.252 365.899C348.534 359.251 348.534 351.881 348.534 351.881C348.534 351.881 341.336 349.902 335.94 350.624C330.544 351.347 283.599 360.869 264.714 346.667Z" fill="black"/>
<path d="M264.714 344.51C264.714 344.51 257.159 342.893 256.981 344.51C256.803 346.128 247.986 362.664 258.962 367.517C269.937 372.369 299.248 382.791 346.915 369.312C346.915 369.312 349.969 370.391 349.252 363.743C348.534 357.095 348.534 349.724 348.534 349.724C348.534 349.724 341.336 347.745 335.94 348.468C330.544 349.19 283.599 358.712 264.714 344.51Z" fill="#33323D"/>
<path d="M308.766 68.9824C308.302 71.619 307.25 74.1531 307.088 76.822C306.926 79.4909 307.957 82.5264 310.423 83.5724C311.111 83.7778 311.777 84.0486 312.414 84.3812C313.363 85.0228 313.752 86.2305 313.952 87.3628C314.217 88.8246 314.28 90.3158 314.14 91.7948C314.006 93.2829 313.687 94.8842 314.421 96.1836C315.711 98.4859 319.072 98.1462 321.63 97.4992L320.75 104.309C320.68 104.848 320.637 105.457 321.031 105.824C321.217 105.955 321.428 106.047 321.65 106.096C321.873 106.144 322.102 106.147 322.326 106.104C324.549 105.964 326.837 105.657 328.742 104.487C330.647 103.317 332.066 101.139 331.704 98.9442C331.283 96.3993 328.65 94.3774 329.006 91.8217C329.281 89.843 331.219 88.5867 332.492 87.0662C334.796 84.2841 334.92 80.057 333.113 76.9082C331.305 73.7595 327.814 71.8077 324.22 71.4518C322.229 71.2523 320.157 71.4949 318.285 70.8048C317.633 70.566 317.046 70.1799 316.568 69.6767C316.091 69.1735 315.736 68.5668 315.533 67.9041" fill="#444053"/>
<path d="M246.011 308.747L247.895 304.649C247.895 304.649 258.06 295.187 260.397 294.524C262.733 293.86 272.268 290.97 273.709 290.97C275.149 290.97 301.411 289.531 301.411 289.531L304.465 296.723L271.507 303.954L260.397 312.041L246.011 308.747Z" fill="#767D9F"/>
<path d="M325.197 198.395L323.475 211.631L322.812 216.726L315.079 217.805C315.079 217.805 314.243 216.015 313.061 213.265C309.473 204.919 302.717 187.708 306.635 184.737C311.842 180.78 313.11 193.903 313.11 193.903L319.045 191.024L325.197 198.395Z" fill="#FFB9B9"/>
<path d="M323.907 223.019H284.857V281.966H323.907V223.019Z" fill="white"/>
<path opacity="0.1" d="M323.907 223.019H284.857V281.966H323.907V223.019Z" fill="black"/>
<path d="M341.458 226.21L302.828 220.503L294.199 278.817L332.83 284.524L341.458 226.21Z" fill="white"/>
<path d="M326.348 229.002L306.464 226.065L302.023 256.078L321.907 259.015L326.348 229.002Z" fill="#6C63FF"/>
<path d="M323.982 268.178L299.892 264.619L298.927 271.137L323.017 274.696L323.982 268.178Z" fill="#6C63FF"/>
<path opacity="0.1" d="M334.143 74.2933C346.609 74.2933 356.714 64.1957 356.714 51.7397C356.714 39.2837 346.609 29.1861 334.143 29.1861C321.677 29.1861 311.572 39.2837 311.572 51.7397C311.572 64.1957 321.677 74.2933 334.143 74.2933Z" fill="black"/>
<path d="M334.143 73.7541C346.609 73.7541 356.714 63.6565 356.714 51.2005C356.714 38.7445 346.609 28.6469 334.143 28.6469C321.677 28.6469 311.572 38.7445 311.572 51.2005C311.572 63.6565 321.677 73.7541 334.143 73.7541Z" fill="#AE6E79"/>
<path d="M315.532 67.9149C315.379 67.334 315.434 66.7177 315.689 66.1734C316.547 64.3887 318.991 64.2323 320.972 64.324C325.628 64.5397 330.738 64.5666 334.38 61.6281C335.891 60.4204 337.58 57.3848 339.776 57.9618C341.73 58.474 342.544 61.1213 344.579 61.709C346.052 62.135 347.579 61.4556 349.079 61.1698C351.237 60.7439 353.45 61.0997 355.64 61.1159C357.831 61.1321 360.211 60.7169 361.705 59.1156C363.724 56.9589 363.394 53.5891 363.216 50.6344C362.995 46.8177 363.254 42.9884 363.988 39.2363C364.722 35.5052 365.849 31.332 363.788 28.1347C361.824 25.0884 357.756 24.2527 354.977 21.9181C352.376 19.7614 351 16.3053 348.253 14.305C344.795 11.787 340.095 12.1483 335.843 12.585L326.616 13.5663C324.236 13.8197 321.759 14.1055 319.801 15.5235C316.266 18.0792 315.781 23.39 312.435 26.1883C310.946 27.4284 309.041 28.0431 307.341 28.9705C305.642 29.8978 304.001 31.3644 303.807 33.2838C303.645 34.9014 304.519 36.3949 304.946 37.9531C305.955 41.6734 304.379 45.5015 303.37 49.2487C302.361 52.996 302.167 57.5466 305.097 60.0322C305.69 60.539 306.381 60.9272 306.958 61.4556C308.939 63.2618 309.208 66.3081 308.75 68.9393" fill="#444053"/>
<path d="M335.983 79.3723C336.281 79.3723 336.523 78.7688 336.523 78.0243C336.523 77.2799 336.281 76.6764 335.983 76.6764C335.685 76.6764 335.443 77.2799 335.443 78.0243C335.443 78.7688 335.685 79.3723 335.983 79.3723Z" fill="#444053"/>
<path d="M335.983 84.9904C336.281 84.9904 336.523 84.3869 336.523 83.6425C336.523 82.898 336.281 82.2946 335.983 82.2946C335.685 82.2946 335.443 82.898 335.443 83.6425C335.443 84.3869 335.685 84.9904 335.983 84.9904Z" fill="#444053"/>
<path d="M324.015 202.196C324.592 201.533 324.975 199.829 325.197 197.58L318.765 189.568C318.765 189.568 321.49 205.102 324.015 202.196Z" fill="#AE6E79"/>
<path opacity="0.1" d="M331.267 334.627C331.267 334.627 320.713 350.932 287.738 349.185C256.674 347.567 241.511 332.293 242.234 326.901C242.957 321.509 240.254 308.386 246.907 304.611C250.765 302.428 255.843 303.722 259.426 305.199C260.663 305.702 262.018 305.843 263.334 305.607C264.649 305.372 265.87 304.768 266.856 303.867C270.131 300.918 276.239 297.597 285.882 300.212C287.123 300.543 288.431 300.518 289.659 300.142C293.674 298.918 303.23 296.793 310.164 301.511C311.259 302.266 312.548 302.694 313.878 302.744C315.208 302.795 316.525 302.466 317.675 301.797L317.772 301.738C321.009 299.759 336.118 318.452 336.118 318.452C336.118 318.452 336.841 332.832 331.267 334.627Z" fill="black"/>
<path d="M331.267 335.166C331.267 335.166 320.713 351.471 287.738 349.724C256.674 348.107 241.511 332.832 242.234 327.44C242.957 322.048 240.254 308.925 246.907 305.151C250.765 302.967 255.843 304.261 259.426 305.738C260.663 306.241 262.018 306.382 263.334 306.147C264.649 305.911 265.87 305.308 266.856 304.407C270.131 301.457 276.239 298.136 285.882 300.751C287.123 301.082 288.431 301.057 289.659 300.681C293.674 299.457 303.23 297.333 310.164 302.05C311.259 302.805 312.548 303.233 313.878 303.283C315.208 303.334 316.525 303.005 317.675 302.336L317.772 302.277C321.009 300.298 336.118 318.991 336.118 318.991C336.118 318.991 336.841 333.371 331.267 335.166Z" fill="#767D9F"/>
<path opacity="0.1" d="M287.738 341.55C299.611 341.55 309.236 331.933 309.236 320.07C309.236 308.206 299.611 298.589 287.738 298.589C275.865 298.589 266.241 308.206 266.241 320.07C266.241 331.933 275.865 341.55 287.738 341.55Z" fill="black"/>
<path d="M287.738 342.089C299.611 342.089 309.236 332.472 309.236 320.609C309.236 308.745 299.611 299.128 287.738 299.128C275.865 299.128 266.241 308.745 266.241 320.609C266.241 332.472 275.865 342.089 287.738 342.089Z" fill="#FFB9B9"/>
<path d="M281.576 302.04C279.32 302.649 277.097 303.814 275.996 305.728C275.333 306.881 275.101 308.267 274.14 309.227C272.78 310.591 270.487 310.618 268.647 311.384C266.807 312.149 265.593 314.845 267.395 315.697C265.518 315.794 264.125 317.525 263.893 319.245C263.661 320.965 264.314 322.679 264.946 324.318C267.007 329.624 269.225 335.161 273.768 338.935C281.171 345.093 292.33 344.807 302.275 344.154C303.087 344.181 303.893 343.995 304.611 343.615C305.69 342.904 305.825 341.539 306.003 340.342C306.753 335.231 309.527 330.589 311.34 325.709C313.153 320.83 313.898 315.098 310.843 310.78C306.349 304.374 289.141 299.991 281.576 302.04Z" fill="#B96B6B"/>
<path opacity="0.1" d="M323.475 211.631L322.812 216.726L315.079 217.805C315.079 217.805 314.243 216.015 313.061 213.265L323.351 211.335L323.475 211.631Z" fill="black"/>
<path d="M331.623 324.205L336.123 318.991L335.222 290.237C335.666 288.163 335.967 286.06 336.123 283.945C336.302 280.888 333.873 274.062 333.873 274.062C334.25 272.696 334.762 271.37 335.4 270.105C336.48 267.948 333.879 263.095 333.879 263.095C333.879 263.095 330.004 250.516 331.623 244.224C333.242 237.932 331.229 234.341 331.229 234.341C331.229 234.341 329.648 227.332 329.826 224.458C330.004 221.584 326.227 218.883 326.227 218.883L323.351 211.874L311.842 214.031V238.293C311.842 238.293 312.559 261.478 311.842 265.974C311.124 270.471 313.277 274.779 313.277 274.779C313.277 274.779 312.02 281.427 313.099 283.945C314.178 286.463 316.337 292.572 316.337 292.572C315.936 294.755 316.06 297.002 316.698 299.128C317.777 302.277 316.698 304.072 316.698 304.072L331.623 324.205Z" fill="#767D9F"/>
<g opacity="0.1">
<path opacity="0.1" d="M364.004 37.4624C363.396 40.6186 363.123 43.8301 363.189 47.0435C363.236 44.3715 363.515 41.7087 364.026 39.0854C364.501 36.6914 365.105 34.1142 364.975 31.7256C364.777 33.6569 364.452 35.5733 364.004 37.4624Z" fill="black"/>
<path opacity="0.1" d="M306.975 59.7195C306.397 59.1803 305.707 58.8029 305.113 58.2906C303.537 56.9481 302.874 55.0017 302.744 52.8989C302.588 55.5948 303.138 58.2044 305.113 59.9082C305.707 60.4204 306.397 60.8086 306.975 61.337C308.182 62.5304 308.881 64.143 308.928 65.8391C309.084 63.5745 308.626 61.2184 306.975 59.7195Z" fill="black"/>
<path opacity="0.1" d="M305.253 39.5868C305.348 38.448 305.249 37.3015 304.962 36.1954C304.649 35.0416 304.088 33.9147 303.883 32.7555C303.883 32.8795 303.84 33.0089 303.823 33.1437C303.667 34.7612 304.541 36.2547 304.962 37.8129C305.117 38.3933 305.215 38.9874 305.253 39.5868Z" fill="black"/>
<path opacity="0.1" d="M361.722 57.3418C360.227 58.9593 357.847 59.3583 355.657 59.3421C353.466 59.3259 351.248 58.9701 349.095 59.4014C347.595 59.7033 346.068 60.3773 344.595 59.9406C342.561 59.3529 341.746 56.7055 339.798 56.1933C337.58 55.611 335.891 58.6466 334.402 59.8543C330.76 62.7658 325.65 62.7389 320.993 62.5502C319.013 62.4585 316.569 62.6149 315.716 64.4049C315.456 64.9477 315.4 65.566 315.559 66.1464L308.966 67.1817C308.941 67.7241 308.881 68.2643 308.788 68.7992L315.559 67.7208C315.4 67.1404 315.456 66.5221 315.716 65.9793C316.569 64.1892 319.013 64.0329 320.993 64.1245C325.65 64.3402 330.76 64.3672 334.402 61.4287C335.913 60.2209 337.602 57.1854 339.798 57.7677C341.746 58.2745 342.561 60.9273 344.595 61.515C346.068 61.9355 347.595 61.2615 349.095 60.9758C351.254 60.5444 353.466 60.9003 355.657 60.9165C357.847 60.9326 360.227 60.5175 361.722 58.9161C363.216 57.3148 363.432 54.9263 363.34 52.597C363.276 54.4033 362.903 56.0747 361.722 57.3418Z" fill="black"/>
</g>
<g opacity="0.1">
<path opacity="0.1" d="M311.772 83.2381C311.136 82.9037 310.469 82.6328 309.781 82.4293C308.61 81.8976 307.68 80.9475 307.174 79.7658C307.579 81.626 308.604 83.319 310.32 84.0468C311.009 84.2503 311.676 84.5212 312.311 84.8556C312.718 85.1424 313.046 85.526 313.266 85.9717C313.05 84.9149 312.657 83.8366 311.772 83.2381Z" fill="black"/>
<path opacity="0.1" d="M320.988 96.3562C318.5 96.987 315.252 97.3159 313.887 95.2078C313.929 95.7158 314.076 96.2095 314.319 96.6581C315.484 98.734 318.333 98.6639 320.756 98.1516L320.988 96.3562Z" fill="black"/>
<path opacity="0.1" d="M331.067 97.8336C331.413 100.023 329.988 102.206 328.1 103.355C326.211 104.503 323.907 104.821 321.684 104.972C321.331 105.018 320.971 104.977 320.637 104.854C320.536 105.082 320.503 105.334 320.543 105.58C320.583 105.826 320.694 106.056 320.862 106.24C321.031 106.424 321.249 106.555 321.491 106.617C321.733 106.679 321.987 106.67 322.224 106.59C324.447 106.45 326.735 106.142 328.639 104.972C330.544 103.802 331.969 101.624 331.602 99.4295C331.498 98.8755 331.318 98.3384 331.067 97.8336Z" fill="black"/>
<path opacity="0.1" d="M333.463 78.3155C333.793 79.6264 333.818 80.9951 333.538 82.3173C333.257 83.6395 332.678 84.8802 331.844 85.9448C330.571 87.4868 328.634 88.7215 328.359 90.7003C328.267 91.61 328.455 92.5261 328.898 93.326C328.85 92.9917 328.85 92.6521 328.898 92.3178C329.174 90.339 331.111 89.0828 332.384 87.5623C334.478 85.0336 334.769 81.3079 333.463 78.3155Z" fill="black"/>
</g>
<g opacity="0.1">
<path opacity="0.1" d="M268.653 312.214C270.487 311.454 272.781 311.427 274.146 310.057C275.106 309.097 275.338 307.712 276.002 306.563C277.081 304.644 279.32 303.485 281.576 302.875C289.13 300.827 306.354 305.205 310.843 311.551C312.159 313.471 312.876 315.737 312.905 318.064C313.078 315.378 312.355 312.71 310.849 310.478C306.359 304.132 289.152 299.754 281.581 301.802C279.326 302.412 277.103 303.571 276.007 305.49C275.344 306.639 275.112 308.025 274.151 308.984C272.786 310.348 270.493 310.375 268.658 311.141C267.261 311.718 266.224 313.422 266.602 314.565C266.753 314.048 267.014 313.569 267.368 313.164C267.722 312.758 268.161 312.434 268.653 312.214Z" fill="black"/>
<path opacity="0.1" d="M263.904 320.048C264.131 318.323 265.523 316.597 267.406 316.5C267.208 316.418 267.032 316.292 266.889 316.133C266.746 315.973 266.641 315.784 266.581 315.578C265.864 315.844 265.234 316.301 264.759 316.898C264.283 317.496 263.98 318.212 263.883 318.97C263.831 319.409 263.831 319.852 263.883 320.291C263.904 320.21 263.904 320.129 263.904 320.048Z" fill="black"/>
</g>
<path d="M378.206 124.657H329.103V188.641H378.206V124.657Z" fill="white"/>
<path opacity="0.1" d="M378.206 124.657H329.103V188.641H378.206V124.657Z" fill="black"/>
<path d="M396.967 128.411L348.575 136.729L359.43 199.786L407.822 191.469L396.967 128.411Z" fill="white"/>
<path d="M371.673 177.761L360.303 179.715L362.854 194.529L374.223 192.575L371.673 177.761Z" fill="#6C63FF"/>
<path d="M387.406 175.054L376.036 177.008L378.586 191.822L389.956 189.868L387.406 175.054Z" fill="#6C63FF"/>
<path d="M398.524 153.349L358.651 160.191L361.209 175.072L401.081 168.231L398.524 153.349Z" fill="#6C63FF"/>
<path d="M395.2 135.588L355.328 142.429L355.898 145.749L395.771 138.908L395.2 135.588Z" fill="#6C63FF"/>
<path d="M396.508 141.695L356.635 148.537L357.206 151.857L397.078 145.015L396.508 141.695Z" fill="#6C63FF"/>
<path d="M356.714 107.274C356.714 107.274 334.143 129.92 345.475 135.673C356.806 141.426 364.182 116.532 364.182 116.532L365.974 110.871L356.714 107.274Z" fill="#AE6E79"/>
<path opacity="0.1" d="M354.739 105.274L351.95 111.431C351.95 111.431 365.709 113.362 368.585 117.519L366.88 106.654L364.857 102.017L354.739 105.274Z" fill="black"/>
<path d="M355.279 104.735L352.489 110.892C352.489 110.892 366.249 112.822 369.125 116.979L367.42 106.115L365.396 101.478L355.279 104.735Z" fill="#4C4981"/>
<path d="M438.571 217.945L438.274 218.15L438.684 218.333L439.126 218.295L439.18 217.988L438.571 217.945Z" fill="#464A5F"/>
<path opacity="0.1" d="M438.571 217.945L438.274 218.15L438.684 218.333L439.126 218.295L439.18 217.988L438.571 217.945Z" fill="black"/>
<path d="M438.571 217.945L438.268 218.139L438.031 217.848L438.177 217.611L438.312 217.568L438.571 217.945Z" fill="#9C9CA1"/>
<path opacity="0.1" d="M438.571 217.945L438.268 218.139L438.031 217.848L438.177 217.611L438.312 217.568L438.571 217.945Z" fill="black"/>
<path d="M491.683 180.683L469.592 148.801C469.396 148.517 469.146 148.274 468.856 148.086C468.566 147.898 468.242 147.769 467.902 147.706C467.563 147.644 467.214 147.649 466.876 147.721C466.538 147.793 466.218 147.931 465.933 148.127L416.69 181.901C416.114 182.296 415.718 182.904 415.59 183.59C415.461 184.276 415.611 184.986 416.005 185.562L438.036 217.848L491.683 180.683Z" fill="#9C9CA1"/>
<path opacity="0.1" d="M491.683 180.683L469.592 148.801C469.396 148.517 469.146 148.274 468.856 148.086C468.566 147.898 468.242 147.769 467.902 147.706C467.563 147.644 467.214 147.649 466.876 147.721C466.538 147.793 466.218 147.931 465.933 148.127L416.69 181.901C416.114 182.296 415.718 182.904 415.59 183.59C415.461 184.276 415.611 184.986 416.005 185.562L438.036 217.848L491.683 180.683Z" fill="black"/>
<path d="M492.222 180.758L470.131 148.877C469.935 148.592 469.685 148.349 469.394 148.161C469.104 147.973 468.78 147.844 468.439 147.781C468.099 147.719 467.75 147.724 467.411 147.796C467.073 147.869 466.752 148.007 466.468 148.203L417.23 181.998C416.654 182.394 416.258 183.001 416.129 183.687C415.999 184.372 416.147 185.082 416.539 185.659L438.571 217.961L492.222 180.758Z" fill="#9C9CA1"/>
<path d="M510.687 187.061L492.341 181.173L438.684 218.339L457.321 224.431C457.739 224.567 458.182 224.603 458.615 224.538C459.049 224.472 459.461 224.306 459.82 224.054L510.838 188.059C510.934 188.005 511.011 187.924 511.059 187.825C511.107 187.727 511.124 187.616 511.108 187.508C511.091 187.399 511.042 187.299 510.967 187.219C510.892 187.139 510.794 187.084 510.687 187.061Z" fill="#464A5F"/>
<path opacity="0.1" d="M510.687 187.061L492.341 181.173L438.684 218.339L457.321 224.431C457.739 224.567 458.182 224.603 458.615 224.538C459.049 224.472 459.461 224.306 459.82 224.054L510.838 188.059C510.934 188.005 511.011 187.924 511.059 187.825C511.107 187.727 511.124 187.616 511.108 187.508C511.091 187.399 511.042 187.299 510.967 187.219C510.892 187.139 510.794 187.084 510.687 187.061Z" fill="black"/>
<path d="M510.574 186.689L492.228 180.796L438.571 217.961L457.208 224.043C457.625 224.181 458.068 224.219 458.502 224.154C458.936 224.09 459.348 223.924 459.706 223.671L510.725 187.676C510.817 187.621 510.89 187.54 510.936 187.443C510.981 187.346 510.997 187.238 510.981 187.132C510.965 187.026 510.917 186.927 510.845 186.849C510.772 186.77 510.678 186.714 510.574 186.689Z" fill="#464A5F"/>
<g opacity="0.1">
<path opacity="0.1" d="M483.557 179.335L482.202 177.394C482.121 177.281 481.999 177.204 481.862 177.179C481.726 177.154 481.584 177.183 481.468 177.259L479.456 178.602C479.343 178.681 479.265 178.801 479.237 178.936C479.21 179.072 479.236 179.213 479.31 179.329L480.556 181.243C480.634 181.358 480.754 181.438 480.889 181.467C481.025 181.497 481.167 181.472 481.285 181.4L483.405 180.068C483.521 179.989 483.601 179.869 483.629 179.732C483.657 179.595 483.631 179.453 483.557 179.335Z" fill="black"/>
<path opacity="0.1" d="M479.941 181.837L478.581 179.901C478.5 179.788 478.378 179.711 478.242 179.686C478.105 179.661 477.964 179.69 477.848 179.766L475.84 181.119C475.726 181.198 475.647 181.318 475.619 181.453C475.591 181.589 475.616 181.73 475.689 181.847L476.936 183.761C477.013 183.877 477.132 183.958 477.267 183.988C477.403 184.019 477.545 183.995 477.664 183.923L479.79 182.591C479.85 182.552 479.902 182.501 479.942 182.442C479.982 182.383 480.01 182.316 480.024 182.246C480.038 182.175 480.038 182.103 480.024 182.033C480.01 181.963 479.982 181.896 479.941 181.837Z" fill="black"/>
<path opacity="0.1" d="M476.142 184.462L474.783 182.527C474.701 182.414 474.579 182.337 474.443 182.312C474.306 182.287 474.165 182.316 474.049 182.392L472.036 183.745C471.922 183.825 471.843 183.946 471.815 184.083C471.788 184.219 471.815 184.361 471.89 184.479L473.137 186.393C473.215 186.507 473.334 186.587 473.47 186.617C473.605 186.646 473.747 186.621 473.865 186.549L475.986 185.217C476.046 185.178 476.099 185.128 476.139 185.069C476.18 185.01 476.208 184.943 476.223 184.873C476.238 184.802 476.238 184.73 476.224 184.659C476.21 184.589 476.183 184.522 476.142 184.462Z" fill="black"/>
<path opacity="0.1" d="M472.295 187.126L470.935 185.185C470.854 185.074 470.733 184.998 470.598 184.973C470.463 184.948 470.323 184.975 470.207 185.05L468.194 186.409C468.081 186.488 468.003 186.608 467.976 186.744C467.949 186.879 467.975 187.02 468.049 187.137L469.295 189.051C469.372 189.165 469.49 189.245 469.624 189.275C469.759 189.305 469.9 189.283 470.018 189.213L472.144 187.875C472.203 187.836 472.254 187.786 472.294 187.727C472.334 187.668 472.362 187.602 472.376 187.532C472.39 187.462 472.39 187.391 472.376 187.321C472.362 187.251 472.335 187.185 472.295 187.126Z" fill="black"/>
<path opacity="0.1" d="M468.453 189.784L467.093 187.848C467.012 187.736 466.89 187.659 466.754 187.634C466.617 187.609 466.476 187.637 466.36 187.714L464.352 189.067C464.238 189.146 464.159 189.265 464.131 189.401C464.103 189.536 464.128 189.677 464.201 189.795L465.448 191.709C465.525 191.824 465.644 191.906 465.779 191.936C465.915 191.966 466.057 191.943 466.176 191.871L468.302 190.534C468.361 190.494 468.412 190.444 468.452 190.385C468.492 190.326 468.52 190.26 468.534 190.19C468.548 190.121 468.548 190.049 468.534 189.979C468.52 189.909 468.493 189.843 468.453 189.784Z" fill="black"/>
<path opacity="0.1" d="M464.779 192.685L463.09 190.28C463.072 190.253 463.049 190.23 463.022 190.213C462.995 190.195 462.965 190.183 462.933 190.177C462.902 190.171 462.869 190.171 462.838 190.177C462.806 190.184 462.776 190.197 462.75 190.215L460.278 191.881C460.251 191.899 460.228 191.922 460.209 191.948C460.191 191.975 460.178 192.005 460.172 192.036C460.165 192.068 460.165 192.101 460.171 192.132C460.178 192.164 460.19 192.194 460.208 192.221L461.757 194.599C461.792 194.653 461.848 194.692 461.911 194.706C461.975 194.72 462.042 194.709 462.097 194.674L464.708 193.057C464.74 193.039 464.767 193.015 464.788 192.985C464.809 192.956 464.823 192.922 464.83 192.887C464.836 192.852 464.835 192.815 464.826 192.78C464.818 192.745 464.801 192.713 464.779 192.685Z" fill="black"/>
<path opacity="0.1" d="M460.937 195.343L459.237 192.938C459.219 192.911 459.195 192.888 459.168 192.87C459.14 192.853 459.11 192.84 459.078 192.834C459.046 192.828 459.013 192.829 458.981 192.835C458.949 192.842 458.919 192.855 458.892 192.874L456.42 194.54C456.367 194.577 456.331 194.633 456.319 194.696C456.307 194.76 456.32 194.825 456.356 194.879L457.904 197.257C457.921 197.285 457.943 197.31 457.969 197.329C457.996 197.348 458.026 197.362 458.058 197.369C458.09 197.376 458.123 197.376 458.155 197.37C458.187 197.364 458.217 197.351 458.244 197.332L460.85 195.715C460.884 195.699 460.913 195.676 460.936 195.648C460.959 195.619 460.976 195.586 460.984 195.55C460.992 195.514 460.993 195.477 460.984 195.441C460.976 195.405 460.96 195.372 460.937 195.343Z" fill="black"/>
<path opacity="0.1" d="M457.532 197.699L455.843 195.316C455.805 195.264 455.748 195.229 455.685 195.218C455.622 195.206 455.556 195.221 455.503 195.257L453.032 196.917C452.978 196.954 452.94 197.011 452.927 197.076C452.914 197.14 452.926 197.207 452.962 197.262L454.51 199.64C454.546 199.694 454.602 199.731 454.665 199.745C454.728 199.759 454.795 199.749 454.85 199.716L457.462 198.098C457.498 198.081 457.529 198.056 457.553 198.024C457.577 197.993 457.593 197.956 457.6 197.917C457.607 197.878 457.604 197.837 457.593 197.8C457.581 197.762 457.56 197.727 457.532 197.699Z" fill="black"/>
<path opacity="0.1" d="M453.722 200.33L452.033 197.926C451.996 197.874 451.939 197.838 451.875 197.827C451.812 197.816 451.747 197.83 451.694 197.866L449.222 199.527C449.195 199.545 449.171 199.568 449.153 199.595C449.135 199.622 449.122 199.653 449.115 199.685C449.109 199.717 449.109 199.75 449.115 199.782C449.121 199.814 449.134 199.845 449.152 199.872L450.701 202.25C450.737 202.303 450.792 202.341 450.856 202.355C450.919 202.369 450.985 202.358 451.041 202.325L453.652 200.708C453.684 200.689 453.711 200.664 453.732 200.635C453.753 200.605 453.767 200.571 453.774 200.535C453.78 200.499 453.779 200.462 453.77 200.427C453.762 200.392 453.745 200.359 453.722 200.33Z" fill="black"/>
<path opacity="0.1" d="M450.031 202.864L448.343 200.46C448.325 200.433 448.302 200.41 448.275 200.392C448.248 200.374 448.218 200.362 448.186 200.356C448.155 200.35 448.122 200.35 448.09 200.357C448.059 200.364 448.029 200.377 448.003 200.395L445.531 202.061C445.504 202.078 445.481 202.101 445.462 202.128C445.444 202.154 445.431 202.184 445.425 202.216C445.418 202.248 445.418 202.28 445.424 202.312C445.431 202.344 445.443 202.374 445.461 202.401L447.01 204.778C447.045 204.833 447.101 204.872 447.164 204.886C447.228 204.9 447.294 204.888 447.35 204.854L449.961 203.236C449.993 203.219 450.02 203.194 450.041 203.165C450.062 203.136 450.076 203.102 450.083 203.067C450.089 203.031 450.088 202.995 450.079 202.96C450.071 202.925 450.054 202.892 450.031 202.864Z" fill="black"/>
<path opacity="0.1" d="M446.341 205.442L444.668 203.031C444.63 202.979 444.573 202.944 444.51 202.933C444.447 202.922 444.381 202.936 444.328 202.972L441.857 204.633C441.829 204.651 441.806 204.674 441.787 204.701C441.769 204.728 441.756 204.759 441.75 204.791C441.743 204.823 441.743 204.856 441.749 204.888C441.756 204.92 441.768 204.951 441.787 204.978L443.335 207.356C443.372 207.409 443.427 207.447 443.49 207.461C443.553 207.475 443.62 207.464 443.675 207.431L446.287 205.814C446.317 205.794 446.343 205.769 446.362 205.739C446.381 205.709 446.394 205.675 446.399 205.64C446.404 205.605 446.402 205.569 446.392 205.534C446.382 205.5 446.364 205.468 446.341 205.442Z" fill="black"/>
<path opacity="0.1" d="M442.65 207.992L440.961 205.587C440.943 205.56 440.92 205.537 440.893 205.52C440.866 205.502 440.836 205.49 440.805 205.484C440.773 205.478 440.74 205.478 440.709 205.485C440.677 205.491 440.647 205.504 440.621 205.522L438.15 207.178C438.122 207.195 438.099 207.218 438.081 207.244C438.062 207.271 438.05 207.301 438.043 207.333C438.037 207.364 438.036 207.397 438.043 207.429C438.049 207.46 438.061 207.491 438.079 207.517L439.628 209.895C439.664 209.95 439.719 209.988 439.783 210.002C439.846 210.017 439.913 210.005 439.968 209.971L442.58 208.353C442.609 208.335 442.635 208.311 442.655 208.283C442.675 208.254 442.688 208.222 442.695 208.188C442.702 208.154 442.701 208.119 442.693 208.085C442.685 208.051 442.671 208.02 442.65 207.992Z" fill="black"/>
<path opacity="0.1" d="M481.128 175.825L479.768 173.884C479.687 173.771 479.565 173.694 479.429 173.669C479.292 173.644 479.151 173.673 479.035 173.749L477.044 175.108C476.93 175.186 476.851 175.306 476.822 175.441C476.794 175.577 476.819 175.718 476.892 175.836L478.139 177.75C478.217 177.864 478.336 177.944 478.472 177.974C478.607 178.003 478.749 177.979 478.867 177.906L480.993 176.574C481.111 176.493 481.191 176.368 481.216 176.227C481.241 176.087 481.21 175.942 481.128 175.825Z" fill="black"/>
<path opacity="0.1" d="M475.813 168.152L474.453 166.201C474.372 166.089 474.252 166.014 474.116 165.989C473.981 165.964 473.841 165.991 473.725 166.066L471.712 167.419C471.599 167.498 471.519 167.617 471.491 167.753C471.463 167.888 471.488 168.029 471.561 168.147L472.808 170.061C472.885 170.177 473.004 170.258 473.139 170.288C473.275 170.318 473.417 170.295 473.536 170.223L475.662 168.891C475.779 168.812 475.86 168.691 475.888 168.553C475.917 168.414 475.89 168.271 475.813 168.152Z" fill="black"/>
<path opacity="0.1" d="M477.508 178.327L476.148 176.391C476.066 176.28 475.946 176.204 475.81 176.179C475.675 176.154 475.535 176.182 475.419 176.256L473.407 177.61C473.294 177.689 473.216 177.809 473.188 177.944C473.161 178.08 473.187 178.221 473.261 178.337L474.502 180.251C474.579 180.367 474.698 180.448 474.834 180.478C474.969 180.509 475.112 180.485 475.23 180.413L477.356 179.081C477.417 179.042 477.468 178.992 477.508 178.932C477.549 178.873 477.577 178.806 477.591 178.736C477.605 178.665 477.605 178.593 477.59 178.523C477.576 178.453 477.548 178.386 477.508 178.327Z" fill="black"/>
<path opacity="0.1" d="M473.709 180.952L472.349 179.017C472.268 178.904 472.146 178.827 472.009 178.802C471.872 178.777 471.731 178.806 471.615 178.882L469.608 180.219C469.493 180.298 469.412 180.418 469.384 180.555C469.356 180.692 469.382 180.834 469.457 180.952L470.703 182.866C470.781 182.981 470.901 183.061 471.036 183.09C471.172 183.12 471.313 183.095 471.432 183.023L473.558 181.691C473.674 181.612 473.756 181.491 473.784 181.352C473.812 181.214 473.785 181.071 473.709 180.952Z" fill="black"/>
<path opacity="0.1" d="M469.862 183.616L468.507 181.675C468.426 181.562 468.304 181.485 468.167 181.46C468.031 181.435 467.89 181.464 467.773 181.54L465.761 182.915C465.648 182.995 465.57 183.114 465.542 183.25C465.515 183.385 465.541 183.526 465.615 183.643L466.861 185.557C466.939 185.672 467.059 185.752 467.194 185.781C467.33 185.81 467.472 185.786 467.59 185.713L469.711 184.382C469.772 184.342 469.825 184.291 469.866 184.231C469.907 184.171 469.936 184.103 469.95 184.031C469.964 183.959 469.964 183.886 469.948 183.814C469.933 183.743 469.904 183.675 469.862 183.616Z" fill="black"/>
<path opacity="0.1" d="M472.279 170.778L470.919 168.843C470.838 168.731 470.717 168.656 470.582 168.631C470.446 168.605 470.306 168.633 470.191 168.708L468.178 170.061C468.064 170.14 467.985 170.259 467.957 170.395C467.929 170.53 467.954 170.671 468.027 170.789L469.273 172.703C469.351 172.819 469.469 172.9 469.605 172.93C469.741 172.96 469.883 172.937 470.002 172.865L472.128 171.533C472.188 171.494 472.24 171.443 472.28 171.384C472.32 171.324 472.348 171.258 472.362 171.187C472.376 171.117 472.376 171.045 472.362 170.974C472.347 170.904 472.319 170.837 472.279 170.778Z" fill="black"/>
<path opacity="0.1" d="M468.48 173.409L467.12 171.468C467.039 171.356 466.917 171.279 466.781 171.254C466.644 171.229 466.503 171.257 466.387 171.334L464.379 172.671C464.266 172.749 464.186 172.869 464.158 173.004C464.13 173.14 464.155 173.281 464.228 173.399L465.475 175.313C465.553 175.427 465.672 175.507 465.808 175.537C465.943 175.566 466.085 175.542 466.203 175.469L468.329 174.137C468.443 174.058 468.522 173.939 468.55 173.803C468.578 173.668 468.553 173.527 468.48 173.409Z" fill="black"/>
<path opacity="0.1" d="M464.633 176.067L463.273 174.132C463.193 174.02 463.072 173.943 462.937 173.917C462.801 173.891 462.661 173.918 462.545 173.992L460.532 175.367C460.419 175.446 460.341 175.566 460.314 175.701C460.287 175.837 460.313 175.978 460.386 176.094L461.633 178.008C461.71 178.124 461.829 178.205 461.965 178.235C462.1 178.266 462.242 178.242 462.361 178.17L464.482 176.833C464.544 176.794 464.597 176.743 464.638 176.682C464.679 176.622 464.707 176.554 464.722 176.483C464.736 176.411 464.735 176.337 464.72 176.266C464.705 176.195 464.675 176.127 464.633 176.067Z" fill="black"/>
<path opacity="0.1" d="M466.02 186.274L464.66 184.338C464.579 184.226 464.459 184.149 464.324 184.123C464.188 184.097 464.048 184.124 463.931 184.198L461.935 185.557C461.822 185.637 461.744 185.756 461.717 185.892C461.69 186.027 461.716 186.168 461.789 186.285L463.014 188.199C463.091 188.313 463.209 188.393 463.343 188.423C463.478 188.453 463.619 188.431 463.737 188.361L465.863 187.023C465.923 186.985 465.974 186.935 466.015 186.876C466.055 186.817 466.083 186.751 466.098 186.681C466.112 186.612 466.113 186.54 466.099 186.47C466.086 186.4 466.059 186.333 466.02 186.274Z" fill="black"/>
<path opacity="0.1" d="M462.178 188.932L460.818 186.997C460.737 186.884 460.615 186.807 460.478 186.782C460.341 186.757 460.2 186.785 460.084 186.862L458.077 188.215C457.963 188.294 457.884 188.413 457.856 188.549C457.828 188.684 457.853 188.825 457.926 188.943L459.172 190.857C459.249 190.973 459.368 191.054 459.504 191.084C459.64 191.114 459.782 191.091 459.901 191.019L462.027 189.687C462.087 189.648 462.138 189.597 462.179 189.538C462.219 189.478 462.247 189.412 462.261 189.341C462.275 189.271 462.275 189.199 462.261 189.128C462.246 189.058 462.218 188.991 462.178 188.932Z" fill="black"/>
<path opacity="0.1" d="M458.503 191.833L456.814 189.428C456.796 189.401 456.773 189.379 456.746 189.361C456.72 189.343 456.689 189.331 456.658 189.325C456.626 189.319 456.594 189.319 456.562 189.326C456.531 189.332 456.501 189.345 456.474 189.363L454.003 191.03C453.976 191.047 453.952 191.07 453.934 191.096C453.916 191.123 453.903 191.153 453.896 191.185C453.89 191.216 453.89 191.249 453.896 191.281C453.902 191.312 453.915 191.342 453.933 191.369L455.481 193.747C455.498 193.775 455.521 193.798 455.547 193.817C455.574 193.836 455.604 193.849 455.635 193.856C455.667 193.864 455.7 193.864 455.732 193.858C455.764 193.852 455.794 193.84 455.821 193.822L458.433 192.205C458.464 192.187 458.492 192.163 458.512 192.133C458.533 192.104 458.548 192.071 458.554 192.035C458.561 192 458.56 191.963 458.551 191.928C458.542 191.893 458.526 191.861 458.503 191.833Z" fill="black"/>
<path opacity="0.1" d="M455.098 194.189L453.409 191.779C453.371 191.727 453.315 191.692 453.251 191.681C453.188 191.67 453.123 191.684 453.069 191.72L450.603 193.38C450.549 193.418 450.512 193.474 450.499 193.539C450.486 193.603 450.498 193.67 450.533 193.725L452.082 196.103C452.118 196.157 452.174 196.194 452.237 196.208C452.3 196.222 452.366 196.212 452.422 196.179L455.033 194.561C455.066 194.544 455.094 194.52 455.116 194.491C455.137 194.461 455.152 194.427 455.158 194.391C455.164 194.355 455.162 194.318 455.152 194.283C455.141 194.248 455.123 194.216 455.098 194.189Z" fill="black"/>
<path opacity="0.1" d="M451.289 196.82L449.6 194.416C449.562 194.363 449.505 194.328 449.442 194.317C449.378 194.306 449.313 194.32 449.26 194.356L446.789 196.017C446.761 196.034 446.738 196.057 446.72 196.084C446.701 196.11 446.689 196.14 446.682 196.172C446.675 196.204 446.675 196.236 446.682 196.268C446.688 196.3 446.7 196.33 446.718 196.357L448.267 198.74C448.303 198.793 448.359 198.831 448.422 198.845C448.485 198.859 448.551 198.848 448.607 198.815L451.219 197.198C451.25 197.179 451.277 197.154 451.298 197.125C451.319 197.095 451.334 197.061 451.34 197.025C451.347 196.989 451.346 196.952 451.337 196.917C451.328 196.882 451.312 196.849 451.289 196.82Z" fill="black"/>
<path opacity="0.1" d="M447.598 199.376L445.909 196.971C445.891 196.944 445.868 196.921 445.841 196.904C445.814 196.886 445.784 196.874 445.753 196.868C445.721 196.862 445.688 196.862 445.657 196.869C445.625 196.875 445.596 196.888 445.569 196.906L443.098 198.551C443.071 198.568 443.047 198.591 443.029 198.618C443.011 198.644 442.998 198.674 442.991 198.706C442.985 198.738 442.985 198.77 442.991 198.802C442.997 198.834 443.01 198.864 443.028 198.891L444.576 201.268C444.612 201.323 444.667 201.362 444.731 201.376C444.794 201.39 444.861 201.378 444.916 201.344L447.528 199.726C447.556 199.708 447.58 199.685 447.599 199.657C447.618 199.63 447.631 199.599 447.638 199.566C447.644 199.533 447.644 199.5 447.637 199.467C447.63 199.434 447.617 199.403 447.598 199.376Z" fill="black"/>
<path opacity="0.1" d="M471.178 177.302L469.818 175.367C469.737 175.255 469.617 175.18 469.481 175.154C469.346 175.129 469.206 175.157 469.09 175.232L467.077 176.59C466.964 176.67 466.886 176.79 466.859 176.925C466.832 177.061 466.858 177.201 466.932 177.318L468.178 179.232C468.256 179.346 468.374 179.425 468.509 179.454C468.643 179.483 468.783 179.46 468.901 179.389L471.027 178.057C471.087 178.018 471.139 177.967 471.179 177.908C471.219 177.848 471.247 177.782 471.261 177.711C471.275 177.641 471.275 177.569 471.261 177.498C471.247 177.428 471.219 177.361 471.178 177.302Z" fill="black"/>
<path opacity="0.1" d="M467.331 179.966L465.971 178.025C465.89 177.912 465.768 177.835 465.631 177.81C465.494 177.785 465.353 177.813 465.237 177.89L463.23 179.249C463.116 179.327 463.037 179.447 463.009 179.582C462.981 179.718 463.006 179.859 463.079 179.976L464.325 181.89C464.402 182.006 464.521 182.087 464.657 182.117C464.793 182.148 464.935 182.124 465.054 182.052L467.18 180.715C467.239 180.676 467.29 180.625 467.33 180.566C467.369 180.508 467.397 180.441 467.411 180.372C467.425 180.302 467.425 180.23 467.412 180.161C467.398 180.091 467.37 180.025 467.331 179.966Z" fill="black"/>
<path opacity="0.1" d="M463.494 182.624L462.135 180.688C462.053 180.576 461.931 180.499 461.795 180.474C461.658 180.448 461.517 180.477 461.401 180.553L459.388 181.907C459.275 181.986 459.197 182.106 459.17 182.242C459.143 182.377 459.169 182.518 459.242 182.635L460.489 184.549C460.566 184.664 460.685 184.745 460.821 184.776C460.956 184.806 461.098 184.782 461.217 184.71L463.338 183.373C463.398 183.335 463.449 183.284 463.489 183.226C463.53 183.167 463.558 183.101 463.572 183.031C463.587 182.961 463.588 182.89 463.574 182.82C463.561 182.75 463.534 182.683 463.494 182.624Z" fill="black"/>
<path opacity="0.1" d="M459.647 185.282L458.287 183.346C458.206 183.235 458.085 183.159 457.95 183.134C457.814 183.109 457.675 183.137 457.559 183.212L455.546 184.565C455.433 184.644 455.355 184.764 455.328 184.9C455.301 185.035 455.327 185.176 455.4 185.293L456.647 187.228C456.724 187.342 456.842 187.423 456.976 187.453C457.111 187.483 457.252 187.46 457.37 187.39L459.496 186.058C459.559 186.019 459.614 185.967 459.656 185.906C459.698 185.845 459.727 185.776 459.741 185.703C459.755 185.63 459.754 185.555 459.738 185.483C459.722 185.41 459.691 185.342 459.647 185.282Z" fill="black"/>
<path opacity="0.1" d="M455.999 188.183L454.311 185.778C454.293 185.751 454.27 185.728 454.243 185.71C454.216 185.693 454.186 185.68 454.154 185.674C454.123 185.668 454.09 185.669 454.058 185.675C454.027 185.682 453.997 185.695 453.971 185.713L451.499 187.379C451.445 187.416 451.408 187.471 451.395 187.535C451.382 187.598 451.394 187.664 451.429 187.719L452.978 190.102C452.995 190.129 453.018 190.153 453.045 190.171C453.071 190.189 453.101 190.202 453.133 190.209C453.165 190.215 453.197 190.215 453.229 190.209C453.261 190.203 453.291 190.19 453.318 190.172L455.929 188.555C455.961 188.537 455.988 188.512 456.009 188.483C456.03 188.454 456.044 188.42 456.051 188.385C456.057 188.349 456.056 188.313 456.047 188.278C456.039 188.243 456.022 188.211 455.999 188.183Z" fill="black"/>
<path opacity="0.1" d="M452.573 190.539L450.884 188.129C450.845 188.076 450.788 188.041 450.723 188.03C450.659 188.019 450.593 188.033 450.539 188.069L448.073 189.73C448.019 189.767 447.981 189.824 447.968 189.888C447.955 189.953 447.967 190.02 448.003 190.075L449.551 192.453C449.587 192.508 449.642 192.546 449.706 192.56C449.769 192.574 449.836 192.563 449.891 192.528L452.503 190.911C452.534 190.893 452.561 190.869 452.582 190.839C452.603 190.81 452.618 190.777 452.624 190.741C452.631 190.706 452.63 190.669 452.621 190.634C452.612 190.599 452.596 190.567 452.573 190.539Z" fill="black"/>
<path opacity="0.1" d="M448.764 193.159L447.075 190.749C447.036 190.697 446.978 190.661 446.914 190.65C446.85 190.639 446.783 190.653 446.729 190.69L444.258 192.35C444.205 192.388 444.168 192.445 444.155 192.509C444.142 192.573 444.154 192.64 444.188 192.696L445.742 195.073C445.777 195.128 445.833 195.166 445.896 195.181C445.96 195.195 446.027 195.183 446.082 195.149L448.688 193.531C448.721 193.515 448.749 193.491 448.771 193.462C448.793 193.433 448.808 193.399 448.816 193.363C448.823 193.328 448.822 193.291 448.813 193.255C448.804 193.22 448.787 193.187 448.764 193.159Z" fill="black"/>
<path opacity="0.1" d="M445.073 195.726L443.384 193.321C443.365 193.294 443.342 193.271 443.314 193.253C443.287 193.235 443.257 193.223 443.225 193.217C443.192 193.211 443.159 193.211 443.128 193.218C443.096 193.225 443.065 193.238 443.038 193.256L440.567 194.922C440.514 194.959 440.478 195.016 440.466 195.079C440.454 195.142 440.467 195.208 440.502 195.262L442.051 197.64C442.067 197.668 442.09 197.692 442.116 197.712C442.142 197.731 442.173 197.745 442.204 197.752C442.236 197.759 442.269 197.759 442.301 197.753C442.334 197.747 442.364 197.734 442.391 197.715L444.997 196.098C445.03 196.081 445.058 196.057 445.08 196.028C445.102 195.999 445.117 195.966 445.125 195.93C445.132 195.894 445.131 195.857 445.122 195.822C445.113 195.787 445.096 195.754 445.073 195.726Z" fill="black"/>
<path opacity="0.1" d="M443.907 201.926L442.218 199.521C442.18 199.469 442.124 199.434 442.06 199.423C441.997 199.412 441.932 199.426 441.878 199.462L439.407 201.123C439.38 201.14 439.356 201.163 439.338 201.19C439.32 201.216 439.307 201.246 439.3 201.278C439.294 201.31 439.294 201.342 439.3 201.374C439.306 201.406 439.319 201.436 439.337 201.462L440.885 203.846C440.922 203.899 440.977 203.937 441.04 203.951C441.104 203.965 441.17 203.954 441.225 203.921L443.837 202.304C443.869 202.285 443.896 202.26 443.917 202.231C443.938 202.201 443.952 202.167 443.959 202.131C443.965 202.095 443.964 202.058 443.955 202.023C443.946 201.988 443.93 201.955 443.907 201.926Z" fill="black"/>
<path opacity="0.1" d="M440.216 204.482L438.527 202.077C438.51 202.05 438.487 202.027 438.46 202.01C438.433 201.992 438.403 201.98 438.371 201.974C438.339 201.968 438.307 201.968 438.275 201.975C438.244 201.981 438.214 201.994 438.188 202.012L435.716 203.678C435.689 203.696 435.666 203.719 435.647 203.745C435.629 203.772 435.616 203.802 435.61 203.834C435.603 203.865 435.603 203.898 435.609 203.93C435.615 203.961 435.628 203.991 435.646 204.018L437.195 206.396C437.23 206.451 437.286 206.489 437.349 206.503C437.413 206.517 437.479 206.506 437.535 206.471L440.146 204.854C440.178 204.836 440.205 204.812 440.226 204.782C440.247 204.753 440.261 204.719 440.268 204.684C440.274 204.649 440.273 204.612 440.264 204.577C440.256 204.542 440.239 204.51 440.216 204.482Z" fill="black"/>
<path opacity="0.1" d="M446.012 189.202L444.393 186.937C444.342 186.867 444.265 186.819 444.18 186.804C444.094 186.789 444.006 186.808 443.934 186.856L441.603 188.425C441.567 188.449 441.536 188.48 441.511 188.516C441.487 188.552 441.47 188.593 441.462 188.635C441.453 188.678 441.453 188.722 441.462 188.764C441.47 188.807 441.487 188.848 441.511 188.884L442.968 191.121C442.991 191.158 443.021 191.19 443.056 191.215C443.091 191.241 443.131 191.259 443.173 191.268C443.215 191.278 443.259 191.279 443.302 191.271C443.345 191.263 443.385 191.247 443.422 191.224L445.887 189.676C445.928 189.654 445.964 189.625 445.992 189.588C446.021 189.552 446.042 189.511 446.053 189.466C446.065 189.421 446.067 189.375 446.06 189.33C446.053 189.284 446.036 189.241 446.012 189.202Z" fill="black"/>
<path opacity="0.1" d="M442.321 191.757L440.729 189.493C440.705 189.457 440.673 189.426 440.637 189.403C440.601 189.379 440.56 189.363 440.518 189.354C440.475 189.346 440.431 189.347 440.389 189.356C440.346 189.365 440.306 189.382 440.27 189.407L437.939 191.003C437.903 191.026 437.872 191.056 437.848 191.092C437.824 191.128 437.807 191.168 437.798 191.21C437.79 191.252 437.79 191.295 437.798 191.338C437.807 191.38 437.823 191.42 437.848 191.455L439.304 193.698C439.352 193.771 439.426 193.822 439.51 193.841C439.595 193.86 439.684 193.846 439.758 193.801L442.224 192.253C442.265 192.23 442.301 192.197 442.329 192.158C442.357 192.119 442.376 192.075 442.386 192.028C442.395 191.981 442.394 191.932 442.383 191.885C442.371 191.839 442.35 191.795 442.321 191.757Z" fill="black"/>
<path opacity="0.1" d="M438.63 194.313L437.038 192.043C436.987 191.973 436.911 191.925 436.825 191.91C436.74 191.895 436.652 191.914 436.58 191.962L434.248 193.531C434.212 193.555 434.181 193.586 434.157 193.622C434.132 193.658 434.116 193.699 434.107 193.741C434.098 193.784 434.098 193.828 434.107 193.87C434.116 193.913 434.132 193.953 434.157 193.99L435.614 196.227C435.636 196.264 435.666 196.296 435.701 196.321C435.736 196.347 435.776 196.365 435.819 196.374C435.861 196.384 435.905 196.385 435.947 196.377C435.99 196.369 436.031 196.353 436.067 196.33L438.533 194.782C438.571 194.759 438.604 194.728 438.63 194.691C438.656 194.654 438.674 194.612 438.683 194.569C438.692 194.525 438.692 194.479 438.683 194.435C438.674 194.391 438.656 194.35 438.63 194.313Z" fill="black"/>
<path opacity="0.1" d="M434.988 196.933L433.299 194.523C433.261 194.471 433.204 194.436 433.141 194.425C433.077 194.414 433.012 194.428 432.959 194.464L430.487 196.125C430.433 196.162 430.396 196.219 430.383 196.283C430.37 196.347 430.382 196.414 430.417 196.47L431.966 198.847C432.002 198.901 432.058 198.939 432.121 198.953C432.184 198.967 432.25 198.956 432.306 198.923L434.918 197.305C434.95 197.289 434.979 197.265 435.001 197.236C435.023 197.207 435.039 197.173 435.045 197.137C435.052 197.101 435.05 197.064 435.04 197.028C435.03 196.993 435.012 196.961 434.988 196.933Z" fill="black"/>
<path opacity="0.1" d="M478.662 172.051L477.2 169.975C477.118 169.863 476.996 169.787 476.859 169.763C476.722 169.739 476.582 169.768 476.466 169.845L470.757 173.841C470.647 173.921 470.571 174.04 470.545 174.174C470.519 174.308 470.544 174.447 470.617 174.563L471.993 176.687C472.033 176.746 472.083 176.797 472.143 176.836C472.202 176.875 472.268 176.902 472.338 176.916C472.407 176.929 472.479 176.929 472.549 176.915C472.618 176.901 472.684 176.873 472.743 176.833L478.538 172.784C478.649 172.701 478.724 172.579 478.747 172.442C478.77 172.305 478.74 172.165 478.662 172.051Z" fill="black"/>
<path opacity="0.1" d="M441.371 198.201L439.58 195.672C439.561 195.645 439.538 195.622 439.51 195.604C439.483 195.586 439.452 195.574 439.42 195.569C439.387 195.563 439.354 195.564 439.322 195.572C439.291 195.579 439.261 195.593 439.234 195.612L433.072 199.926C433.02 199.962 432.983 200.017 432.971 200.08C432.959 200.142 432.972 200.207 433.007 200.26L434.691 202.864C434.709 202.892 434.732 202.917 434.76 202.935C434.788 202.954 434.819 202.967 434.851 202.974C434.884 202.98 434.918 202.98 434.951 202.974C434.983 202.967 435.014 202.953 435.042 202.934L441.306 198.551C441.361 198.513 441.399 198.455 441.411 198.389C441.423 198.323 441.409 198.256 441.371 198.201Z" fill="black"/>
<path opacity="0.1" d="M460.975 178.86L459.323 176.445C459.286 176.392 459.23 176.356 459.167 176.344C459.103 176.332 459.037 176.345 458.983 176.38L445.299 185.611C445.246 185.647 445.208 185.703 445.195 185.766C445.182 185.83 445.194 185.896 445.229 185.951L446.918 188.539C446.936 188.567 446.96 188.591 446.987 188.61C447.015 188.629 447.046 188.642 447.079 188.648C447.111 188.655 447.145 188.655 447.178 188.648C447.21 188.641 447.241 188.628 447.269 188.609L460.91 179.205C460.937 179.187 460.96 179.164 460.978 179.136C460.995 179.109 461.008 179.078 461.014 179.046C461.02 179.014 461.019 178.981 461.013 178.949C461.006 178.918 460.993 178.887 460.975 178.86Z" fill="black"/>
</g>
<path d="M483.918 179.4L482.558 177.458C482.477 177.346 482.355 177.269 482.218 177.244C482.082 177.219 481.941 177.247 481.824 177.324L479.817 178.682C479.703 178.761 479.624 178.881 479.596 179.016C479.568 179.152 479.593 179.293 479.666 179.41L480.912 181.324C480.99 181.44 481.109 181.521 481.244 181.551C481.38 181.581 481.522 181.558 481.641 181.486L483.767 180.149C483.826 180.11 483.877 180.059 483.917 180C483.957 179.941 483.984 179.875 483.998 179.806C484.012 179.736 484.013 179.664 483.999 179.595C483.985 179.525 483.958 179.459 483.918 179.4Z" fill="#464A5F"/>
<path d="M480.281 181.901L478.921 179.966C478.84 179.855 478.719 179.779 478.584 179.754C478.449 179.729 478.309 179.756 478.193 179.831L476.18 181.184C476.066 181.263 475.987 181.383 475.959 181.518C475.931 181.653 475.956 181.795 476.029 181.912L477.276 183.826C477.353 183.942 477.472 184.023 477.607 184.053C477.743 184.083 477.885 184.06 478.004 183.988L480.13 182.656C480.19 182.617 480.242 182.566 480.282 182.507C480.322 182.447 480.35 182.381 480.364 182.31C480.378 182.24 480.378 182.168 480.364 182.098C480.35 182.027 480.321 181.961 480.281 181.901Z" fill="#464A5F"/>
<path d="M476.504 184.532L475.144 182.597C475.063 182.484 474.941 182.407 474.804 182.382C474.668 182.357 474.526 182.386 474.41 182.462L472.403 183.821C472.289 183.9 472.21 184.019 472.182 184.155C472.154 184.29 472.179 184.431 472.252 184.549L473.498 186.463C473.576 186.577 473.696 186.658 473.831 186.687C473.967 186.716 474.109 186.692 474.227 186.619L476.353 185.287C476.413 185.248 476.465 185.197 476.505 185.138C476.545 185.079 476.573 185.012 476.587 184.942C476.601 184.871 476.601 184.799 476.587 184.729C476.572 184.658 476.544 184.592 476.504 184.532Z" fill="#464A5F"/>
<path d="M472.651 187.191L471.291 185.25C471.21 185.138 471.089 185.063 470.954 185.037C470.819 185.012 470.679 185.04 470.563 185.115L468.55 186.473C468.491 186.513 468.44 186.565 468.401 186.625C468.362 186.684 468.335 186.751 468.322 186.822C468.309 186.892 468.31 186.964 468.325 187.034C468.34 187.104 468.369 187.17 468.41 187.228L469.656 189.142C469.734 189.258 469.853 189.339 469.988 189.369C470.124 189.399 470.266 189.376 470.385 189.304L472.506 187.967C472.568 187.927 472.622 187.875 472.664 187.814C472.706 187.753 472.734 187.683 472.748 187.61C472.761 187.538 472.76 187.463 472.743 187.39C472.727 187.318 472.695 187.25 472.651 187.191Z" fill="#464A5F"/>
<path d="M468.809 189.849L467.45 187.913C467.368 187.802 467.248 187.726 467.112 187.701C466.977 187.676 466.837 187.704 466.721 187.778L464.709 189.132C464.596 189.211 464.518 189.331 464.49 189.467C464.463 189.602 464.489 189.743 464.563 189.86L465.804 191.774C465.881 191.889 466 191.97 466.136 192.001C466.271 192.031 466.414 192.007 466.532 191.935L468.658 190.598C468.718 190.559 468.769 190.508 468.808 190.45C468.848 190.391 468.876 190.324 468.89 190.255C468.904 190.185 468.904 190.113 468.89 190.044C468.876 189.974 468.849 189.908 468.809 189.849Z" fill="#464A5F"/>
<path d="M465.135 192.749L463.446 190.345C463.428 190.318 463.405 190.295 463.378 190.277C463.351 190.259 463.321 190.247 463.289 190.241C463.258 190.235 463.225 190.236 463.194 190.242C463.162 190.249 463.132 190.262 463.106 190.28L460.635 191.946C460.607 191.964 460.584 191.986 460.566 192.013C460.547 192.039 460.534 192.07 460.528 192.101C460.521 192.133 460.521 192.165 460.528 192.197C460.534 192.229 460.546 192.259 460.564 192.286L462.113 194.663C462.148 194.718 462.204 194.757 462.268 194.771C462.331 194.785 462.398 194.773 462.453 194.739L465.065 193.121C465.096 193.104 465.123 193.079 465.144 193.05C465.165 193.021 465.179 192.987 465.186 192.952C465.193 192.916 465.192 192.88 465.183 192.845C465.174 192.81 465.157 192.777 465.135 192.749Z" fill="#464A5F"/>
<path d="M461.293 195.408L459.604 193.003C459.586 192.976 459.562 192.953 459.535 192.935C459.507 192.917 459.477 192.905 459.445 192.899C459.413 192.893 459.38 192.893 459.348 192.9C459.316 192.907 459.285 192.92 459.259 192.938L456.793 194.604C456.765 194.622 456.742 194.644 456.724 194.671C456.705 194.698 456.693 194.728 456.686 194.759C456.68 194.791 456.679 194.824 456.686 194.855C456.692 194.887 456.704 194.917 456.722 194.944L458.271 197.327C458.289 197.354 458.311 197.378 458.338 197.396C458.365 197.414 458.395 197.427 458.426 197.434C458.458 197.44 458.491 197.44 458.522 197.434C458.554 197.428 458.584 197.415 458.611 197.397L461.223 195.78C461.253 195.761 461.28 195.737 461.3 195.707C461.321 195.678 461.335 195.645 461.341 195.609C461.348 195.574 461.347 195.538 461.339 195.503C461.33 195.469 461.315 195.436 461.293 195.408Z" fill="#464A5F"/>
<path d="M457.888 197.764L456.199 195.354C456.161 195.302 456.105 195.266 456.041 195.255C455.978 195.244 455.913 195.258 455.859 195.294L453.388 196.933C453.334 196.971 453.296 197.027 453.283 197.092C453.27 197.156 453.282 197.223 453.318 197.279L454.866 199.656C454.903 199.71 454.958 199.748 455.021 199.762C455.085 199.776 455.151 199.765 455.206 199.732L457.818 198.114C457.846 198.096 457.87 198.073 457.889 198.045C457.908 198.018 457.921 197.987 457.928 197.954C457.934 197.921 457.934 197.888 457.927 197.855C457.92 197.822 457.907 197.791 457.888 197.764Z" fill="#464A5F"/>
<path d="M454.078 200.4L452.39 198.012C452.352 197.96 452.295 197.924 452.232 197.913C452.168 197.902 452.103 197.916 452.05 197.952L449.578 199.613C449.551 199.631 449.527 199.654 449.509 199.681C449.491 199.708 449.478 199.739 449.471 199.771C449.465 199.803 449.465 199.836 449.471 199.868C449.477 199.9 449.49 199.931 449.508 199.958L451.057 202.336C451.093 202.389 451.149 202.427 451.212 202.441C451.275 202.455 451.341 202.444 451.397 202.411L454.008 200.794C454.043 200.777 454.074 200.751 454.097 200.72C454.121 200.689 454.136 200.653 454.143 200.615C454.15 200.576 454.148 200.537 454.136 200.5C454.125 200.463 454.105 200.428 454.078 200.4Z" fill="#464A5F"/>
<path d="M450.388 202.951L448.699 200.546C448.681 200.519 448.658 200.496 448.631 200.478C448.604 200.461 448.574 200.448 448.542 200.442C448.511 200.436 448.478 200.437 448.447 200.443C448.415 200.45 448.385 200.463 448.359 200.481L445.887 202.147C445.86 202.165 445.837 202.187 445.819 202.214C445.8 202.241 445.787 202.271 445.781 202.302C445.774 202.334 445.774 202.367 445.78 202.398C445.787 202.43 445.799 202.46 445.817 202.487L447.366 204.865C447.383 204.892 447.405 204.916 447.432 204.935C447.458 204.954 447.488 204.967 447.52 204.974C447.552 204.981 447.584 204.982 447.616 204.976C447.648 204.97 447.679 204.958 447.706 204.94L450.317 203.323C450.349 203.305 450.376 203.28 450.397 203.251C450.418 203.222 450.432 203.188 450.439 203.153C450.446 203.117 450.444 203.081 450.436 203.046C450.427 203.011 450.41 202.979 450.388 202.951Z" fill="#464A5F"/>
<path d="M446.697 205.506L445.008 203.096C444.97 203.044 444.913 203.009 444.85 202.998C444.787 202.987 444.721 203.001 444.668 203.037L442.197 204.698C442.143 204.735 442.105 204.792 442.092 204.856C442.079 204.92 442.091 204.987 442.127 205.043L443.675 207.42C443.712 207.474 443.767 207.512 443.83 207.526C443.893 207.54 443.96 207.529 444.015 207.496L446.627 205.878C446.658 205.861 446.685 205.836 446.706 205.807C446.727 205.777 446.742 205.744 446.748 205.709C446.755 205.673 446.754 205.637 446.745 205.602C446.736 205.567 446.72 205.534 446.697 205.506Z" fill="#464A5F"/>
<path d="M443.006 208.057L441.317 205.652C441.299 205.625 441.276 205.602 441.249 205.584C441.223 205.567 441.192 205.554 441.161 205.548C441.129 205.542 441.097 205.543 441.065 205.549C441.034 205.556 441.004 205.569 440.977 205.587L438.506 207.253C438.479 207.271 438.455 207.293 438.437 207.32C438.419 207.347 438.406 207.377 438.399 207.408C438.393 207.44 438.393 207.473 438.399 207.504C438.405 207.536 438.418 207.566 438.436 207.593L439.984 209.971C440.001 209.998 440.024 210.022 440.05 210.041C440.077 210.06 440.107 210.073 440.138 210.08C440.17 210.087 440.203 210.088 440.235 210.082C440.267 210.076 440.297 210.064 440.324 210.046L442.936 208.429C442.967 208.411 442.994 208.386 443.015 208.357C443.036 208.328 443.051 208.294 443.057 208.259C443.064 208.223 443.063 208.187 443.054 208.152C443.045 208.117 443.029 208.084 443.006 208.057Z" fill="#464A5F"/>
<path d="M481.484 175.906L480.125 173.965C480.043 173.854 479.923 173.778 479.787 173.753C479.652 173.728 479.512 173.755 479.396 173.83L477.384 175.189C477.271 175.268 477.192 175.388 477.165 175.523C477.138 175.659 477.164 175.8 477.238 175.916L478.479 177.831C478.556 177.946 478.675 178.027 478.811 178.057C478.946 178.088 479.088 178.064 479.207 177.992L481.333 176.655C481.393 176.616 481.444 176.565 481.483 176.507C481.523 176.448 481.551 176.381 481.565 176.312C481.579 176.242 481.579 176.17 481.565 176.101C481.551 176.031 481.524 175.965 481.484 175.906Z" fill="#464A5F"/>
<path d="M476.169 168.217L474.81 166.281C474.728 166.17 474.608 166.095 474.472 166.069C474.337 166.044 474.197 166.072 474.081 166.147L472.069 167.5C471.956 167.58 471.877 167.699 471.85 167.835C471.823 167.97 471.849 168.111 471.923 168.228L473.169 170.142C473.246 170.256 473.364 170.336 473.499 170.366C473.633 170.397 473.774 170.374 473.892 170.304L476.018 168.972C476.078 168.933 476.13 168.882 476.17 168.823C476.211 168.763 476.238 168.697 476.253 168.626C476.267 168.556 476.267 168.484 476.252 168.413C476.238 168.343 476.21 168.276 476.169 168.217Z" fill="#464A5F"/>
<path d="M477.864 178.391L476.504 176.445C476.423 176.334 476.302 176.258 476.167 176.233C476.031 176.208 475.891 176.235 475.775 176.31L473.763 177.663C473.65 177.743 473.572 177.863 473.545 177.998C473.518 178.134 473.544 178.274 473.617 178.391L474.864 180.305C474.941 180.419 475.058 180.5 475.193 180.53C475.327 180.56 475.468 180.538 475.587 180.467L477.713 179.135C477.831 179.056 477.913 178.934 477.941 178.794C477.97 178.655 477.942 178.51 477.864 178.391Z" fill="#464A5F"/>
<path d="M474.065 181.017L472.727 179.081C472.645 178.97 472.525 178.894 472.389 178.869C472.254 178.844 472.114 178.872 471.998 178.947L469.986 180.3C469.871 180.38 469.792 180.501 469.765 180.637C469.738 180.774 469.765 180.916 469.84 181.033L471.081 182.947C471.159 183.062 471.278 183.142 471.414 183.171C471.55 183.2 471.691 183.176 471.809 183.104L473.935 181.772C473.994 181.731 474.043 181.679 474.082 181.619C474.12 181.559 474.146 181.492 474.158 181.421C474.17 181.351 474.168 181.279 474.152 181.21C474.136 181.141 474.106 181.075 474.065 181.017Z" fill="#464A5F"/>
<path d="M470.223 183.681L468.863 181.74C468.782 181.627 468.66 181.55 468.523 181.525C468.387 181.5 468.246 181.528 468.129 181.605L466.122 182.963C466.008 183.042 465.929 183.162 465.901 183.297C465.873 183.433 465.898 183.574 465.971 183.691L467.218 185.605C467.295 185.721 467.414 185.802 467.549 185.832C467.685 185.863 467.827 185.839 467.946 185.767L470.072 184.43C470.131 184.391 470.182 184.34 470.222 184.281C470.262 184.223 470.289 184.156 470.303 184.087C470.318 184.017 470.318 183.945 470.304 183.876C470.29 183.806 470.263 183.74 470.223 183.681Z" fill="#464A5F"/>
<path d="M472.635 170.843L471.275 168.896C471.194 168.785 471.073 168.709 470.938 168.684C470.802 168.659 470.663 168.687 470.547 168.762L468.534 170.115C468.421 170.195 468.343 170.314 468.316 170.45C468.289 170.585 468.315 170.726 468.389 170.843L469.635 172.757C469.712 172.871 469.83 172.951 469.964 172.981C470.099 173.012 470.24 172.989 470.358 172.919L472.484 171.587C472.602 171.508 472.684 171.385 472.713 171.246C472.741 171.107 472.713 170.962 472.635 170.843Z" fill="#464A5F"/>
<path d="M468.836 173.474L467.477 171.533C467.395 171.422 467.275 171.346 467.139 171.321C467.004 171.296 466.864 171.324 466.748 171.398L464.735 172.757C464.622 172.836 464.542 172.955 464.514 173.091C464.486 173.226 464.511 173.367 464.584 173.485L465.831 175.399C465.908 175.514 466.027 175.596 466.163 175.626C466.298 175.656 466.44 175.633 466.559 175.561L468.685 174.223C468.745 174.184 468.796 174.134 468.835 174.075C468.875 174.016 468.903 173.95 468.917 173.88C468.931 173.811 468.931 173.739 468.917 173.669C468.903 173.599 468.876 173.533 468.836 173.474Z" fill="#464A5F"/>
<path d="M464.994 176.132L463.635 174.197C463.553 174.084 463.432 174.007 463.295 173.982C463.158 173.957 463.017 173.985 462.901 174.062L460.894 175.415C460.78 175.494 460.701 175.613 460.672 175.749C460.644 175.884 460.669 176.025 460.742 176.143L461.989 178.062C462.066 178.178 462.185 178.259 462.321 178.289C462.456 178.32 462.598 178.296 462.717 178.224L464.838 176.887C464.898 176.848 464.951 176.798 464.991 176.739C465.032 176.68 465.061 176.613 465.075 176.543C465.09 176.472 465.09 176.4 465.076 176.329C465.062 176.259 465.035 176.192 464.994 176.132Z" fill="#464A5F"/>
<path d="M466.376 186.339L465.016 184.403C464.935 184.292 464.814 184.216 464.679 184.191C464.543 184.166 464.403 184.194 464.288 184.268L462.275 185.611C462.162 185.69 462.084 185.81 462.057 185.946C462.03 186.081 462.056 186.222 462.129 186.339L463.376 188.253C463.453 188.367 463.571 188.447 463.705 188.477C463.839 188.507 463.98 188.485 464.099 188.415L466.225 187.077C466.342 186.998 466.423 186.877 466.451 186.739C466.479 186.601 466.452 186.457 466.376 186.339Z" fill="#464A5F"/>
<path d="M462.534 188.997L461.174 187.061C461.093 186.95 460.972 186.874 460.837 186.849C460.701 186.824 460.561 186.852 460.446 186.926L458.433 188.307C458.319 188.385 458.24 188.505 458.212 188.64C458.184 188.776 458.209 188.917 458.282 189.035L459.528 190.949C459.606 191.064 459.724 191.145 459.86 191.176C459.996 191.206 460.138 191.182 460.257 191.11L462.383 189.779C462.447 189.739 462.502 189.687 462.545 189.626C462.587 189.564 462.617 189.495 462.631 189.421C462.645 189.347 462.644 189.272 462.627 189.199C462.61 189.126 462.579 189.057 462.534 188.997Z" fill="#464A5F"/>
<path d="M458.859 191.897L457.17 189.493C457.152 189.466 457.129 189.443 457.103 189.425C457.076 189.408 457.046 189.395 457.014 189.389C456.982 189.383 456.95 189.384 456.918 189.39C456.887 189.397 456.857 189.41 456.83 189.428L454.381 191.094C454.353 191.112 454.33 191.134 454.312 191.161C454.293 191.188 454.281 191.218 454.274 191.249C454.268 191.281 454.267 191.313 454.274 191.345C454.28 191.377 454.292 191.407 454.31 191.434L455.859 193.812C455.876 193.839 455.899 193.863 455.925 193.882C455.951 193.901 455.981 193.914 456.013 193.921C456.045 193.928 456.078 193.929 456.11 193.923C456.141 193.917 456.172 193.905 456.199 193.887L458.811 192.27C458.84 192.249 458.864 192.223 458.883 192.193C458.901 192.163 458.913 192.129 458.917 192.094C458.922 192.059 458.919 192.024 458.909 191.99C458.899 191.956 458.882 191.924 458.859 191.897Z" fill="#464A5F"/>
<path d="M455.46 194.238L453.771 191.827C453.732 191.775 453.674 191.74 453.61 191.729C453.546 191.718 453.48 191.732 453.426 191.768L450.954 193.429C450.901 193.467 450.864 193.524 450.851 193.588C450.838 193.652 450.85 193.718 450.884 193.774L452.438 196.152C452.474 196.206 452.529 196.245 452.593 196.259C452.656 196.273 452.723 196.262 452.778 196.227L455.384 194.61C455.417 194.593 455.445 194.569 455.467 194.54C455.489 194.511 455.505 194.478 455.512 194.442C455.519 194.406 455.518 194.369 455.509 194.334C455.5 194.298 455.483 194.266 455.46 194.238Z" fill="#464A5F"/>
<path d="M451.645 196.89L449.956 194.48C449.918 194.428 449.861 194.393 449.798 194.382C449.735 194.371 449.669 194.385 449.616 194.421L447.145 196.082C447.091 196.119 447.053 196.176 447.04 196.24C447.027 196.304 447.039 196.371 447.075 196.427L448.623 198.804C448.66 198.858 448.715 198.896 448.778 198.91C448.841 198.924 448.908 198.913 448.963 198.88L451.575 197.262C451.608 197.246 451.636 197.222 451.659 197.193C451.681 197.164 451.696 197.13 451.703 197.094C451.709 197.058 451.708 197.021 451.698 196.985C451.688 196.95 451.67 196.917 451.645 196.89Z" fill="#464A5F"/>
<path d="M447.96 199.441L446.287 197.036C446.269 197.009 446.246 196.986 446.219 196.968C446.192 196.951 446.162 196.938 446.13 196.932C446.099 196.926 446.066 196.927 446.035 196.933C446.003 196.94 445.973 196.953 445.947 196.971L443.475 198.637C443.422 198.673 443.384 198.729 443.371 198.793C443.358 198.856 443.37 198.922 443.405 198.977L444.954 201.355C444.989 201.409 445.045 201.448 445.108 201.462C445.172 201.476 445.239 201.465 445.294 201.43L447.906 199.813C447.936 199.794 447.963 199.769 447.983 199.739C448.003 199.709 448.016 199.675 448.021 199.639C448.026 199.604 448.023 199.567 448.013 199.533C448.002 199.499 447.984 199.467 447.96 199.441Z" fill="#464A5F"/>
<path d="M471.534 177.372L470.18 175.431C470.099 175.319 469.977 175.242 469.84 175.217C469.703 175.192 469.562 175.22 469.446 175.296L467.433 176.655C467.321 176.735 467.242 176.855 467.215 176.99C467.188 177.125 467.214 177.266 467.288 177.383L468.534 179.297C468.612 179.412 468.731 179.492 468.867 179.521C469.003 179.55 469.144 179.526 469.263 179.453L471.383 178.122C471.443 178.083 471.494 178.032 471.533 177.973C471.573 177.914 471.601 177.848 471.615 177.778C471.629 177.709 471.629 177.637 471.615 177.567C471.601 177.498 471.574 177.431 471.534 177.372Z" fill="#464A5F"/>
<path d="M467.692 180.03L466.333 178.095C466.252 177.983 466.132 177.906 465.996 177.88C465.861 177.854 465.721 177.88 465.604 177.955L463.592 179.313C463.479 179.393 463.401 179.513 463.373 179.648C463.346 179.784 463.372 179.924 463.446 180.041L464.692 181.955C464.769 182.069 464.887 182.15 465.022 182.18C465.156 182.21 465.297 182.187 465.415 182.117L467.541 180.78C467.601 180.741 467.652 180.69 467.691 180.631C467.731 180.572 467.759 180.506 467.773 180.436C467.787 180.367 467.787 180.295 467.773 180.225C467.759 180.156 467.732 180.089 467.692 180.03Z" fill="#464A5F"/>
<path d="M463.851 182.688L462.475 180.758C462.393 180.646 462.271 180.569 462.135 180.544C461.998 180.519 461.857 180.547 461.741 180.623L459.777 181.971C459.663 182.05 459.584 182.17 459.555 182.305C459.527 182.441 459.552 182.582 459.625 182.699L460.872 184.613C460.949 184.729 461.068 184.81 461.204 184.84C461.339 184.87 461.482 184.847 461.6 184.775L463.726 183.443C463.784 183.402 463.834 183.35 463.871 183.289C463.909 183.229 463.934 183.162 463.946 183.092C463.957 183.022 463.955 182.95 463.938 182.881C463.922 182.811 463.892 182.746 463.851 182.688Z" fill="#464A5F"/>
<path d="M460.003 185.347L458.643 183.411C458.562 183.3 458.441 183.224 458.306 183.199C458.171 183.174 458.031 183.201 457.915 183.276L455.902 184.629C455.789 184.709 455.711 184.829 455.684 184.964C455.657 185.1 455.683 185.24 455.757 185.357L457.003 187.271C457.08 187.386 457.198 187.466 457.332 187.496C457.467 187.526 457.608 187.504 457.726 187.433L459.852 186.101C459.912 186.062 459.964 186.011 460.004 185.952C460.044 185.893 460.072 185.826 460.086 185.756C460.1 185.685 460.1 185.613 460.086 185.543C460.072 185.473 460.044 185.406 460.003 185.347Z" fill="#464A5F"/>
<path d="M456.334 188.247L454.645 185.843C454.627 185.816 454.603 185.793 454.576 185.775C454.548 185.757 454.518 185.745 454.486 185.739C454.454 185.733 454.421 185.733 454.389 185.74C454.357 185.746 454.327 185.759 454.3 185.778L451.828 187.444C451.775 187.48 451.737 187.536 451.724 187.599C451.711 187.663 451.723 187.729 451.758 187.784L453.307 190.167C453.325 190.194 453.348 190.218 453.375 190.236C453.402 190.254 453.433 190.267 453.465 190.274C453.497 190.28 453.53 190.28 453.562 190.274C453.594 190.268 453.625 190.255 453.652 190.237L456.258 188.619C456.29 188.602 456.318 188.578 456.339 188.549C456.361 188.52 456.376 188.486 456.383 188.451C456.39 188.415 456.389 188.379 456.381 188.344C456.373 188.309 456.357 188.276 456.334 188.247Z" fill="#464A5F"/>
<path d="M452.929 190.604L451.24 188.199C451.222 188.172 451.199 188.149 451.172 188.131C451.146 188.114 451.115 188.101 451.084 188.095C451.052 188.089 451.02 188.09 450.988 188.096C450.957 188.103 450.927 188.116 450.9 188.134L448.445 189.795C448.391 189.832 448.353 189.889 448.34 189.953C448.327 190.018 448.34 190.085 448.375 190.14L449.924 192.518C449.96 192.571 450.015 192.609 450.079 192.623C450.142 192.637 450.208 192.626 450.264 192.593L452.875 190.976C452.905 190.956 452.931 190.931 452.95 190.901C452.97 190.871 452.982 190.837 452.988 190.802C452.993 190.767 452.99 190.731 452.98 190.696C452.97 190.662 452.953 190.631 452.929 190.604Z" fill="#464A5F"/>
<path d="M449.12 193.24L447.431 190.83C447.392 190.778 447.334 190.742 447.27 190.731C447.206 190.72 447.14 190.734 447.085 190.771L444.619 192.431C444.565 192.469 444.528 192.525 444.515 192.59C444.502 192.654 444.514 192.721 444.549 192.776L446.098 195.154C446.133 195.209 446.189 195.247 446.252 195.261C446.316 195.276 446.383 195.264 446.438 195.23L449.049 193.612C449.081 193.594 449.108 193.57 449.129 193.541C449.15 193.511 449.164 193.478 449.171 193.442C449.178 193.407 449.176 193.371 449.168 193.336C449.159 193.301 449.142 193.268 449.12 193.24Z" fill="#464A5F"/>
<path d="M445.429 195.79L443.74 193.386C443.721 193.359 443.698 193.336 443.671 193.318C443.643 193.3 443.613 193.288 443.581 193.282C443.549 193.276 443.516 193.276 443.484 193.283C443.452 193.29 443.421 193.303 443.395 193.321L440.929 194.987C440.901 195.005 440.878 195.027 440.86 195.054C440.841 195.08 440.829 195.111 440.822 195.142C440.815 195.174 440.815 195.206 440.822 195.238C440.828 195.27 440.84 195.3 440.858 195.327L442.407 197.71C442.425 197.737 442.447 197.76 442.474 197.779C442.501 197.797 442.531 197.81 442.562 197.816C442.594 197.823 442.627 197.823 442.658 197.817C442.69 197.811 442.72 197.798 442.747 197.78L445.359 196.162C445.389 196.144 445.416 196.119 445.436 196.09C445.457 196.061 445.471 196.027 445.477 195.992C445.484 195.957 445.483 195.921 445.475 195.886C445.466 195.851 445.451 195.819 445.429 195.79Z" fill="#464A5F"/>
<path d="M444.269 201.996L442.58 199.586C442.541 199.534 442.483 199.498 442.419 199.487C442.355 199.476 442.289 199.49 442.234 199.527L439.763 201.187C439.709 201.225 439.671 201.281 439.658 201.346C439.645 201.41 439.658 201.477 439.693 201.533L441.242 203.91C441.278 203.964 441.333 204.002 441.396 204.016C441.46 204.03 441.526 204.019 441.581 203.986L444.193 202.368C444.226 202.352 444.254 202.328 444.276 202.299C444.298 202.27 444.313 202.236 444.321 202.2C444.328 202.165 444.327 202.128 444.318 202.092C444.309 202.057 444.292 202.024 444.269 201.996Z" fill="#464A5F"/>
<path d="M440.578 204.547L438.889 202.142C438.871 202.115 438.847 202.092 438.82 202.074C438.792 202.056 438.762 202.044 438.73 202.038C438.698 202.032 438.665 202.032 438.633 202.039C438.601 202.046 438.571 202.059 438.544 202.077L436.072 203.743C436.018 203.779 435.981 203.835 435.968 203.899C435.955 203.962 435.967 204.028 436.002 204.083L437.551 206.461C437.568 206.488 437.591 206.512 437.618 206.531C437.645 206.55 437.675 206.563 437.708 206.57C437.74 206.578 437.773 206.578 437.805 206.572C437.838 206.566 437.869 206.554 437.896 206.536L440.502 204.919C440.535 204.902 440.563 204.878 440.585 204.849C440.607 204.82 440.623 204.786 440.63 204.751C440.637 204.715 440.636 204.678 440.627 204.643C440.618 204.607 440.601 204.574 440.578 204.547Z" fill="#464A5F"/>
<path d="M446.368 189.272L444.776 187.002C444.725 186.932 444.649 186.884 444.563 186.869C444.477 186.854 444.389 186.872 444.317 186.921L441.97 188.49C441.898 188.539 441.848 188.615 441.831 188.7C441.814 188.786 441.831 188.875 441.878 188.948L443.335 191.191C443.384 191.264 443.459 191.315 443.545 191.334C443.631 191.352 443.72 191.335 443.794 191.288L446.254 189.741C446.294 189.719 446.329 189.689 446.356 189.653C446.383 189.617 446.403 189.575 446.414 189.531C446.424 189.487 446.426 189.441 446.418 189.397C446.41 189.352 446.393 189.31 446.368 189.272Z" fill="#464A5F"/>
<path d="M442.677 191.822L441.085 189.557C441.061 189.522 441.029 189.491 440.993 189.467C440.957 189.443 440.916 189.427 440.874 189.419C440.831 189.411 440.787 189.412 440.745 189.42C440.702 189.429 440.662 189.447 440.626 189.471L438.295 191.046C438.224 191.094 438.174 191.168 438.156 191.253C438.139 191.338 438.156 191.426 438.204 191.499L439.66 193.741C439.709 193.814 439.784 193.866 439.869 193.885C439.955 193.904 440.044 193.889 440.119 193.844L442.585 192.296C442.623 192.272 442.655 192.239 442.68 192.202C442.704 192.165 442.722 192.123 442.73 192.078C442.739 192.034 442.738 191.989 442.729 191.945C442.72 191.901 442.702 191.859 442.677 191.822Z" fill="#464A5F"/>
<path d="M438.986 194.378L437.367 192.108C437.317 192.038 437.242 191.99 437.157 191.975C437.072 191.96 436.985 191.978 436.914 192.027L434.578 193.596C434.505 193.645 434.455 193.721 434.438 193.806C434.421 193.892 434.438 193.981 434.486 194.054L435.943 196.297C435.991 196.37 436.066 196.421 436.152 196.439C436.238 196.458 436.327 196.441 436.401 196.394L438.867 194.847C438.907 194.825 438.942 194.795 438.97 194.76C438.998 194.724 439.018 194.682 439.03 194.638C439.041 194.594 439.043 194.548 439.035 194.503C439.028 194.459 439.011 194.416 438.986 194.378Z" fill="#464A5F"/>
<path d="M435.349 197.004L433.66 194.593C433.621 194.541 433.564 194.506 433.5 194.495C433.435 194.484 433.369 194.498 433.315 194.534L430.844 196.195C430.79 196.233 430.754 196.29 430.742 196.354C430.73 196.419 430.743 196.485 430.779 196.54L432.328 198.918C432.363 198.972 432.418 199.011 432.482 199.025C432.546 199.039 432.612 199.028 432.667 198.993L435.279 197.376C435.31 197.358 435.338 197.333 435.359 197.304C435.379 197.275 435.394 197.241 435.4 197.206C435.407 197.17 435.406 197.134 435.397 197.099C435.388 197.064 435.372 197.031 435.349 197.004Z" fill="#464A5F"/>
<path d="M479.024 172.132L477.583 170.05C477.501 169.939 477.379 169.863 477.242 169.839C477.106 169.815 476.965 169.844 476.849 169.921L471.108 173.916C470.997 173.996 470.921 174.116 470.895 174.25C470.869 174.384 470.895 174.523 470.968 174.639L472.349 176.763C472.389 176.822 472.44 176.872 472.499 176.911C472.558 176.951 472.624 176.978 472.694 176.991C472.764 177.005 472.835 177.004 472.905 176.99C472.974 176.976 473.04 176.948 473.099 176.909L478.889 172.859C479 172.778 479.076 172.658 479.101 172.522C479.126 172.387 479.099 172.247 479.024 172.132Z" fill="#464A5F"/>
<path d="M441.727 198.265L439.936 195.736C439.917 195.709 439.894 195.686 439.866 195.669C439.839 195.651 439.808 195.639 439.776 195.633C439.744 195.628 439.71 195.629 439.679 195.636C439.647 195.644 439.617 195.658 439.59 195.677L433.428 199.991C433.375 200.028 433.339 200.084 433.327 200.147C433.315 200.211 433.328 200.276 433.364 200.33L435.052 202.929C435.07 202.957 435.094 202.981 435.121 203C435.149 203.019 435.18 203.032 435.213 203.039C435.246 203.045 435.279 203.045 435.312 203.038C435.345 203.031 435.376 203.018 435.403 202.999L441.668 198.616C441.722 198.577 441.758 198.518 441.769 198.453C441.78 198.387 441.765 198.32 441.727 198.265Z" fill="#464A5F"/>
<path d="M461.331 178.925L459.712 176.526C459.675 176.472 459.618 176.434 459.553 176.421C459.489 176.408 459.422 176.42 459.366 176.456L445.688 185.675C445.661 185.693 445.637 185.716 445.619 185.742C445.601 185.769 445.588 185.799 445.581 185.831C445.575 185.862 445.575 185.895 445.581 185.927C445.587 185.958 445.6 185.988 445.618 186.015L447.301 188.603C447.319 188.631 447.343 188.656 447.37 188.674C447.398 188.693 447.429 188.706 447.462 188.713C447.494 188.719 447.528 188.719 447.561 188.712C447.593 188.706 447.624 188.692 447.652 188.673L461.293 179.27C461.343 179.229 461.375 179.17 461.382 179.105C461.389 179.041 461.371 178.976 461.331 178.925Z" fill="#464A5F"/>
<path opacity="0.1" d="M461.396 170.687L454.122 160.124C453.921 159.831 453.611 159.629 453.262 159.562C452.912 159.495 452.55 159.569 452.255 159.768L432.22 173.21C432.072 173.31 431.946 173.437 431.848 173.586C431.75 173.735 431.682 173.901 431.648 174.076C431.615 174.251 431.616 174.43 431.652 174.605C431.688 174.779 431.758 174.944 431.858 175.092L439.272 185.956C439.372 186.103 439.5 186.23 439.649 186.328C439.798 186.426 439.964 186.493 440.139 186.526C440.315 186.559 440.494 186.557 440.669 186.52C440.843 186.484 441.009 186.413 441.155 186.312L461.05 172.557C461.196 172.457 461.321 172.33 461.417 172.181C461.514 172.033 461.58 171.867 461.612 171.694C461.644 171.52 461.641 171.341 461.604 171.169C461.567 170.996 461.496 170.832 461.396 170.687Z" fill="black"/>
<path d="M461.73 170.751L454.456 160.189C454.254 159.896 453.945 159.695 453.596 159.629C453.246 159.562 452.885 159.636 452.589 159.833L432.581 173.285C432.432 173.384 432.305 173.511 432.206 173.66C432.107 173.808 432.039 173.975 432.004 174.15C431.97 174.325 431.971 174.505 432.007 174.679C432.043 174.854 432.114 175.02 432.214 175.167L439.607 186.021C439.706 186.168 439.834 186.295 439.983 186.392C440.132 186.49 440.299 186.558 440.474 186.591C440.649 186.624 440.829 186.622 441.003 186.585C441.178 186.548 441.343 186.477 441.49 186.376L461.395 172.622C461.54 172.521 461.664 172.393 461.759 172.244C461.855 172.096 461.92 171.93 461.951 171.756C461.982 171.582 461.978 171.404 461.941 171.232C461.903 171.059 461.831 170.896 461.73 170.751Z" fill="#939498"/>
<path d="M506.834 187.821L491.402 182.678L441.905 217.034L457.224 222.021C457.637 222.156 458.076 222.193 458.506 222.129C458.936 222.065 459.345 221.903 459.701 221.654L506.975 188.808C507.067 188.754 507.141 188.674 507.187 188.577C507.233 188.481 507.25 188.374 507.235 188.268C507.22 188.162 507.174 188.063 507.102 187.984C507.031 187.904 506.938 187.848 506.834 187.821Z" fill="#6C63FF"/>
<path fill-rule="evenodd" clip-rule="evenodd" d="M41 79.5183C45.4183 79.5183 49 75.9366 49 71.5183C49 67.1 45.4183 63.5183 41 63.5183C36.5817 63.5183 33 67.1 33 71.5183C33 75.9366 36.5817 79.5183 41 79.5183Z" fill="#60A3FF"/>
<path fill-rule="evenodd" clip-rule="evenodd" d="M430.378 47.0435C441.147 47.0435 449.878 38.3131 449.878 27.5435C449.878 16.774 441.147 8.04352 430.378 8.04352C419.608 8.04352 410.878 16.774 410.878 27.5435C410.878 38.3131 419.608 47.0435 430.378 47.0435Z" fill="#FFB4C4"/>
</g>
<defs>
<clipPath id="clip0">
<rect width="585" height="409" fill="white" transform="translate(0 0.518311)"/>
</clipPath>
</defs>
</svg>
