<svg width="565" height="392" viewBox="0 0 565 392" fill="none" xmlns="http://www.w3.org/2000/svg">
<path d="M112.573 392C174.745 392 225.145 388.183 225.145 383.474C225.145 378.765 174.745 374.948 112.573 374.948C50.4004 374.948 0 378.765 0 383.474C0 388.183 50.4004 392 112.573 392Z" fill="#E6E6E6"/>
<path d="M86.0483 86.9779C105.639 78.6685 130.04 83.9333 153.87 87.5872C154.092 83.1623 156.78 77.7769 153.964 74.6898C150.544 70.9393 150.859 66.9985 152.917 63.0351C158.181 52.8999 150.639 42.1156 143.025 33.1485C141.308 31.132 139.139 29.5475 136.694 28.5239C134.248 27.5002 131.595 27.0663 128.949 27.2573L114.844 28.262C111.411 28.5065 108.136 29.7904 105.455 31.9421C102.775 34.0938 100.817 37.0105 99.844 40.3021C96.4759 44.8699 94.6732 49.4252 95.8082 53.9567C90.7633 57.3946 89.9157 61.5445 92.1827 66.2229C94.105 69.1685 94.0845 72.0358 92.0953 74.8238C89.4828 78.3782 87.4818 82.3415 86.1744 86.5512L86.0483 86.9779Z" fill="#2F2E41"/>
<path d="M551.612 338.878H152.323C148.772 338.878 145.367 337.471 142.856 334.967C140.345 332.464 138.934 329.068 138.934 325.527C283.677 308.752 425.698 308.752 565 325.527C565 329.068 563.589 332.464 561.079 334.967C558.568 337.471 555.162 338.878 551.612 338.878Z" fill="#2F2E41"/>
<path d="M565 326.312L138.934 325.527L188.314 242.673L188.55 242.28V59.6786C188.55 57.4623 188.988 55.2675 189.838 53.2198C190.689 51.1721 191.935 49.3115 193.507 47.7443C195.078 46.1771 196.944 44.9339 198.998 44.0858C201.051 43.2377 203.252 42.8013 205.475 42.8015H496.097C498.32 42.8013 500.521 43.2377 502.574 44.0858C504.627 44.9339 506.493 46.1771 508.065 47.7443C509.637 49.3115 510.883 51.1721 511.734 53.2198C512.584 55.2675 513.022 57.4623 513.022 59.6786V243.536L565 326.312Z" fill="#3F3D56"/>
<path d="M205.089 54.5818C203.627 54.5834 202.226 55.1631 201.192 56.1938C200.159 57.2244 199.578 58.6217 199.576 60.0792V226.573C199.578 228.03 200.159 229.428 201.192 230.458C202.226 231.489 203.627 232.069 205.089 232.07H498.846C500.307 232.069 501.708 231.489 502.742 230.458C503.775 229.428 504.357 228.03 504.359 226.573V60.0792C504.357 58.6217 503.775 57.2244 502.742 56.1938C501.708 55.1632 500.307 54.5835 498.846 54.5818H205.089Z" fill="white"/>
<path d="M206.32 254.06C205.868 254.061 205.426 254.19 205.046 254.433C204.665 254.676 204.363 255.023 204.173 255.431L188.958 288.416C188.792 288.775 188.72 289.17 188.747 289.564C188.775 289.958 188.901 290.339 189.115 290.672C189.328 291.004 189.623 291.278 189.97 291.468C190.318 291.657 190.708 291.757 191.104 291.757H511.075C511.478 291.757 511.874 291.654 512.225 291.459C512.577 291.263 512.873 290.981 513.085 290.639C513.296 290.298 513.417 289.908 513.435 289.507C513.453 289.105 513.368 288.706 513.188 288.347L496.649 255.362C496.454 254.97 496.153 254.64 495.779 254.41C495.406 254.18 494.975 254.059 494.536 254.06H206.32Z" fill="#2F2E41"/>
<path d="M350.786 51.833C352.743 51.833 354.33 50.2508 354.33 48.299C354.33 46.3471 352.743 44.7649 350.786 44.7649C348.829 44.7649 347.242 46.3471 347.242 48.299C347.242 50.2508 348.829 51.833 350.786 51.833Z" fill="white"/>
<path d="M319.335 298.04C318.816 298.04 318.311 298.211 317.899 298.526C317.487 298.841 317.19 299.283 317.054 299.783L313.238 313.919C313.143 314.268 313.131 314.634 313.201 314.989C313.272 315.344 313.423 315.678 313.643 315.965C313.864 316.252 314.148 316.485 314.473 316.645C314.798 316.805 315.156 316.888 315.519 316.888H388.102C388.479 316.888 388.85 316.798 389.185 316.626C389.52 316.454 389.808 316.204 390.027 315.898C390.245 315.592 390.387 315.239 390.441 314.867C390.494 314.495 390.458 314.116 390.334 313.761L385.427 299.625C385.267 299.162 384.965 298.761 384.565 298.477C384.165 298.192 383.686 298.04 383.195 298.04H319.335Z" fill="#2F2E41"/>
<path d="M513.021 239.531V242.672H188.314L188.558 242.28V239.531H513.021Z" fill="#2F2E41"/>
<path d="M503.965 109.949C534.411 109.949 559.093 85.3359 559.093 54.9744C559.093 24.6129 534.411 0 503.965 0C473.518 0 448.836 24.6129 448.836 54.9744C448.836 85.3359 473.518 109.949 503.965 109.949Z" fill="#6C63FF"/>
<path d="M526.804 78.9274H481.126C480.291 78.9266 479.49 78.5954 478.899 78.0064C478.309 77.4175 477.976 76.6189 477.976 75.786V48.2989C477.976 47.466 478.309 46.6675 478.899 46.0785C479.49 45.4896 480.291 45.1584 481.126 45.1575H526.804C527.639 45.1584 528.44 45.4896 529.03 46.0785C529.621 46.6675 529.953 47.466 529.954 48.2989V75.786C529.953 76.6189 529.621 77.4175 529.03 78.0064C528.44 78.5954 527.639 78.9266 526.804 78.9274ZM481.126 48.2989V75.786H526.806L526.804 48.2989L481.126 48.2989Z" fill="white"/>
<path d="M518.141 48.2989H489.789V35.7333C489.789 26.632 495.751 20.0264 503.965 20.0264C512.179 20.0264 518.141 26.632 518.141 35.7333L518.141 48.2989ZM492.939 45.1575H514.991V35.7333C514.991 28.335 510.457 23.1678 503.965 23.1678C497.473 23.1678 492.939 28.335 492.939 35.7333L492.939 45.1575Z" fill="white"/>
<path d="M503.965 64.3985C505.705 64.3985 507.115 62.9921 507.115 61.2571C507.115 59.5222 505.705 58.1157 503.965 58.1157C502.225 58.1157 500.815 59.5222 500.815 61.2571C500.815 62.9921 502.225 64.3985 503.965 64.3985Z" fill="white"/>
<path d="M465.48 175.597H238.454C237.34 175.596 236.271 175.154 235.483 174.368C234.695 173.582 234.251 172.516 234.25 171.405V115.247C234.251 114.136 234.695 113.07 235.483 112.284C236.271 111.498 237.34 111.056 238.454 111.055H465.48C466.595 111.056 467.663 111.498 468.451 112.284C469.24 113.07 469.683 114.136 469.684 115.247V171.405C469.683 172.516 469.24 173.582 468.451 174.368C467.663 175.154 466.595 175.596 465.48 175.597ZM238.454 112.732C237.785 112.732 237.144 112.998 236.671 113.469C236.199 113.941 235.933 114.58 235.932 115.247V171.405C235.933 172.072 236.199 172.711 236.671 173.183C237.144 173.654 237.785 173.92 238.454 173.92H465.48C466.149 173.92 466.79 173.654 467.263 173.183C467.736 172.711 468.002 172.072 468.003 171.405V115.247C468.002 114.58 467.736 113.941 467.263 113.469C466.79 112.998 466.149 112.732 465.48 112.732L238.454 112.732Z" fill="#E6E6E6"/>
<path d="M273.729 158.249C283.188 158.249 290.855 150.603 290.855 141.171C290.855 131.739 283.188 124.094 273.729 124.094C264.271 124.094 256.604 131.739 256.604 141.171C256.604 150.603 264.271 158.249 273.729 158.249Z" fill="#E6E6E6"/>
<path d="M313.281 129.786C312.906 129.786 312.535 129.859 312.188 130.001C311.841 130.144 311.526 130.354 311.26 130.618C310.995 130.883 310.784 131.197 310.64 131.542C310.497 131.888 310.423 132.258 310.423 132.632C310.423 133.007 310.497 133.377 310.64 133.723C310.784 134.068 310.995 134.382 311.26 134.647C311.526 134.911 311.841 135.121 312.188 135.263C312.535 135.406 312.906 135.479 313.281 135.479H447.84C448.596 135.479 449.322 135.179 449.858 134.645C450.393 134.111 450.694 133.387 450.694 132.632C450.694 131.878 450.393 131.154 449.858 130.62C449.322 130.086 448.596 129.786 447.84 129.786H313.281Z" fill="#E6E6E6"/>
<path d="M313.281 146.864C312.524 146.864 311.799 147.164 311.263 147.697C310.728 148.231 310.427 148.955 310.427 149.71C310.427 150.465 310.728 151.189 311.263 151.723C311.799 152.256 312.524 152.556 313.281 152.556H371.182C371.939 152.556 372.665 152.256 373.2 151.723C373.736 151.189 374.037 150.465 374.037 149.71C374.037 148.955 373.736 148.231 373.2 147.697C372.665 147.164 371.939 146.864 371.182 146.864H313.281Z" fill="#E6E6E6"/>
<path d="M187.755 148.015L145.788 170.265L145.256 151.724C158.954 149.443 171.987 145.473 184.037 139.01L188.426 128.196C188.904 127.018 189.681 125.984 190.682 125.195C191.682 124.407 192.87 123.892 194.13 123.7C195.39 123.508 196.679 123.646 197.869 124.101C199.06 124.555 200.111 125.311 200.92 126.293C202.104 127.73 202.696 129.563 202.576 131.419C202.456 133.275 201.632 135.016 200.273 136.289L187.755 148.015Z" fill="#FFB8B8"/>
<path d="M85.2118 276.475C84.9056 275.355 84.8407 274.184 85.0211 273.037C85.2015 271.891 85.6233 270.795 86.2587 269.823L95.4777 255.714C97.6582 252.377 101.004 249.967 104.866 248.95C108.728 247.934 112.831 248.385 116.378 250.215C112.504 256.792 113.044 262.561 117.717 267.575C110.463 271.106 103.759 275.664 97.8125 281.106C96.7269 281.844 95.4802 282.313 94.1762 282.473C92.8721 282.634 91.5486 282.481 90.3158 282.028C89.083 281.575 87.9766 280.834 87.0888 279.868C86.201 278.903 85.5574 277.739 85.2118 276.475Z" fill="#2F2E41"/>
<path d="M189.667 258.028C188.272 260.346 186.302 262.268 183.948 263.609C181.594 264.951 178.933 265.666 176.222 265.686L114.976 266.149L112.32 250.786L139.413 242.84L116.57 225.358L141.538 196.222L186.887 238.372C189.538 240.835 191.26 244.131 191.766 247.709C192.272 251.287 191.531 254.929 189.667 258.028Z" fill="#2F2E41"/>
<path d="M105.414 363.093H91.0706C78.1924 275.064 65.0836 186.79 103.82 153.842L149.506 161.259L143.663 199.93L118.164 229.066L105.414 363.093Z" fill="#2F2E41"/>
<path d="M118.022 383.034C116.9 383.339 115.725 383.404 114.575 383.224C113.425 383.044 112.326 382.624 111.351 381.99L95.7775 379.903C92.4309 377.728 90.0136 374.392 88.9945 370.541C87.9753 366.69 88.4271 362.598 90.2621 359.061C96.8574 362.924 102.643 362.385 107.671 357.725C111.223 364.878 117.076 364.442 122.666 370.468C123.406 371.55 123.876 372.794 124.037 374.094C124.198 375.394 124.045 376.714 123.59 377.944C123.136 379.173 122.394 380.276 121.425 381.162C120.457 382.047 119.29 382.689 118.022 383.034Z" fill="#2F2E41"/>
<path d="M139.413 95.0404L112.851 88.6834C117.263 79.6787 117.626 69.6592 115.507 59.0175L133.569 58.4878C134.135 71.721 135.847 84.0841 139.413 95.0404Z" fill="#FFB8B8"/>
<path d="M146.713 177.209C127.377 190.348 113.715 177.659 103.289 158.08C104.738 146.1 102.392 131.763 98.0475 116.185C96.1153 109.314 96.8367 101.971 100.069 95.604C103.302 89.2375 108.81 84.3108 115.507 81.7966L138.35 91.3321C157.747 107.098 161.565 124.176 154.288 142.188L146.713 177.209Z" fill="#6C63FF"/>
<path d="M91.0706 108.284L69.8212 119.409L107.539 141.658L112.787 154.567C113.137 155.429 113.308 156.353 113.288 157.282C113.269 158.212 113.06 159.128 112.674 159.974C112.288 160.82 111.733 161.58 111.044 162.205C110.354 162.831 109.544 163.31 108.662 163.613C107.66 163.957 106.592 164.066 105.541 163.93C104.49 163.794 103.485 163.417 102.604 162.829C101.723 162.241 100.991 161.458 100.465 160.541C99.9384 159.623 99.632 158.597 99.5698 157.542L99.0391 148.545L51.1004 132.769C49.4852 132.238 48.0126 131.347 46.7939 130.164C45.5752 128.981 44.6424 127.536 44.0663 125.941C43.2265 123.614 43.1838 121.076 43.9448 118.723C44.7057 116.37 46.2275 114.335 48.2718 112.937L86.8207 86.5645L91.0706 108.284Z" fill="#FFB8B8"/>
<path d="M112.32 110.403C103.458 106.53 95.3989 110.737 85.227 114.111L83.6333 86.0346C93.7336 80.6664 103.363 79.219 112.32 83.3859L112.32 110.403Z" fill="#6C63FF"/>
<path d="M122.921 72.3951C132.287 72.3951 139.88 64.8237 139.88 55.4839C139.88 46.1441 132.287 38.5728 122.921 38.5728C113.555 38.5728 105.963 46.1441 105.963 55.4839C105.963 64.8237 113.555 72.3951 122.921 72.3951Z" fill="#FFB8B8"/>
<path d="M143.209 53.3503C126.419 54.9902 113.625 52.2518 105.448 44.4549V38.1758H141.784L143.209 53.3503Z" fill="#2F2E41"/>
</svg>
