<svg width="384" height="361" viewBox="0 0 384 361" fill="none" xmlns="http://www.w3.org/2000/svg">
<path d="M151.044 53.889C161.786 44.3834 177.764 43.5102 189.298 52.0359C194.257 55.7012 198.84 59.8848 202.964 64.5305L206.303 68.3226C206.303 68.3226 180.029 75.5125 211.952 90.7241L251.065 125.264L275.694 160.868L279.548 167.614C287.599 176.741 286.976 189.827 277.95 197.991C268.924 206.156 255.079 205.376 247.028 196.248L246.845 196.413C254.897 205.54 254.106 219.558 245.08 227.723C236.054 235.887 222.21 235.106 214.159 225.979L214.089 226.042C222.141 235.169 221.35 249.188 212.324 257.352C203.298 265.517 189.453 264.736 181.402 255.609L182.786 256.969L94.8118 161.98C90.4219 157.232 86.5795 152.038 83.3392 146.502C75.9938 133.949 78.6787 117.93 89.5697 108.292L151.044 53.889Z" fill="#FFDECF"/>
<path d="M214.089 226.042L214.158 225.979C222.209 235.106 236.053 235.887 245.08 227.722L116.84 84.1577L89.5697 108.291C78.6787 117.93 75.9938 133.949 83.3392 146.501C86.5795 152.039 90.4213 157.231 94.8118 161.98L182.785 256.969L181.401 255.609C189.453 264.736 203.297 265.517 212.323 257.352C221.35 249.187 222.14 235.169 214.089 226.042Z" fill="#FFCDBE"/>
<path d="M179.45 59.3903L168.212 69.4285C159.394 77.3059 158.63 90.8402 166.507 99.6584C174.385 108.477 187.919 109.24 196.737 101.363L209.917 89.5898L279.547 167.613L291.421 157.203C300.445 145.852 299.98 129.649 290.319 118.834L233.341 55.0481C225.563 46.3409 213.415 42.9816 202.268 46.4567C193.826 49.0889 186.045 53.4992 179.45 59.3903Z" fill="#C78760"/>
<path d="M290.319 118.834L258.191 82.8662L227.99 109.843L279.547 167.613L291.421 157.203C300.446 145.852 299.98 129.65 290.319 118.834Z" fill="#875042"/>
<path d="M126.646 170.57L118.007 178.543C108.981 186.707 95.1366 185.926 87.0852 176.799C79.0338 167.672 79.8241 153.654 88.8503 145.489L97.4894 137.517C106.516 129.352 120.36 130.132 128.411 139.26C136.462 148.387 135.672 162.405 126.646 170.57Z" fill="#C78760"/>
<path d="M184.978 236.702L176.338 244.675C167.312 252.839 153.468 252.059 145.416 242.931C137.365 233.804 138.155 219.786 147.181 211.621L155.82 203.648C164.847 195.484 178.691 196.265 186.743 205.392C194.794 214.52 194.004 228.538 184.978 236.702Z" fill="#875042"/>
<path d="M155.863 203.693L147.224 211.666C138.198 219.831 124.354 219.05 116.302 209.923C108.251 200.795 109.041 186.777 118.068 178.613L126.707 170.64C135.733 162.475 149.577 163.256 157.628 172.383C165.68 181.511 164.889 195.529 155.863 203.693Z" fill="#C78760"/>
<path d="M155.863 203.694C164.831 195.582 165.665 181.693 157.778 172.562L116.153 209.744C116.204 209.803 116.251 209.864 116.303 209.922C124.354 219.049 138.198 219.83 147.224 211.666L155.863 203.694Z" fill="#875042"/>
<path d="M150.972 47.0459H77.7881L91.1205 71.4881L116.84 84.1586L148.713 57.4097C151.879 54.7528 152.68 50.505 150.972 47.0459V47.0459Z" fill="#BCB2FF"/>
<path d="M30 45.1074V65.3418L71.2361 112.038C74.6325 115.884 80.5032 116.248 84.3493 112.852L116.842 84.1597L77.7886 45.1074L30 45.1074Z" fill="#54499E"/>
<path d="M228.398 51.4976C228.187 53.5359 228.947 55.6379 230.719 57.2845L258.022 82.6609L285.726 71.6441L299.513 51.4976L228.398 51.4976Z" fill="#BCB2FF"/>
<path d="M299.514 45.1064L258.024 82.6606L287.91 116.135C291.327 119.963 297.2 120.295 301.027 116.878L347.102 75.7419V45.1064H299.514Z" fill="#54499E"/>
<rect x="30" width="120.966" height="51.4973" fill="#54499E"/>
<rect width="118.736" height="51.4973" transform="matrix(-1 0 0 1 347.102 0.0180664)" fill="#54499E"/>
<path d="M84.2251 0.0180664H151.85V51.5154H84.2251V0.0180664Z" fill="#BCB2FF"/>
<rect width="64.0495" height="51.4973" transform="matrix(-1 0 0 1 292.414 0)" fill="#BCB2FF"/>
<path d="M24.0723 315.943V324H3.90625V315.943H9.42383V299.342H3.90625V291.285H24.0723V299.342H18.5547V315.943H24.0723ZM62.2559 291.285V324.488H59.0332L41.5039 307.936V324H32.373V290.797H35.5957L53.125 307.643V291.285H62.2559ZM96.2402 291.285V299.342H86.6211V323.854H77.4902V299.342H67.8711V291.285H96.2402ZM123.975 304.029V310.865H110.986V316.188H125.684V324H101.855V291.285H125.684V298.854H110.986V304.029H123.975ZM147.998 291.285C149.658 291.285 151.27 291.513 152.832 291.969C154.427 292.424 155.859 293.124 157.129 294.068C158.398 295.012 159.408 296.201 160.156 297.633C160.938 299.065 161.328 300.742 161.328 302.662C161.328 305.104 160.628 307.122 159.229 308.717C157.861 310.312 156.104 311.402 153.955 311.988L162.988 324H151.855L143.115 311.012V324H133.984V291.285H147.998ZM143.115 299.83V305.934C143.669 306.129 144.255 306.292 144.873 306.422C145.524 306.552 146.208 306.617 146.924 306.617C148.356 306.617 149.544 306.34 150.488 305.787C151.465 305.201 151.953 304.322 151.953 303.15C151.953 301.816 151.465 300.937 150.488 300.514C149.544 300.058 148.356 299.83 146.924 299.83H143.115ZM197.998 291.285V324.488H194.775L177.246 307.936V324H168.115V290.797H171.338L188.867 307.643V291.285H197.998ZM230.566 291.285V315.943H245.264V324H221.436V291.285H230.566ZM268.408 290.797L283.545 324H272.9L271.289 319.605H260.938L259.326 324H248.682L263.818 290.797H268.408ZM266.113 305.543L263.623 312.281H268.604L266.113 305.543ZM306.006 306.471H313.818V319.654C312.288 321.249 310.514 322.503 308.496 323.414C306.51 324.293 304.297 324.732 301.855 324.732C299.642 324.732 297.493 324.358 295.41 323.609C293.359 322.828 291.504 321.705 289.844 320.24C288.216 318.775 286.914 316.985 285.938 314.869C284.993 312.753 284.521 310.344 284.521 307.643C284.521 304.941 284.993 302.532 285.938 300.416C286.914 298.3 288.216 296.51 289.844 295.045C291.504 293.58 293.359 292.473 295.41 291.725C297.493 290.943 299.642 290.553 301.855 290.553C303.581 290.553 305.176 290.797 306.641 291.285C308.105 291.773 309.391 292.49 310.498 293.434V302.271C309.196 301.23 307.959 300.449 306.787 299.928C305.615 299.374 304.085 299.098 302.197 299.098C300.732 299.098 299.365 299.472 298.096 300.221C296.859 300.969 295.85 301.995 295.068 303.297C294.287 304.566 293.896 306.015 293.896 307.643C293.896 309.27 294.287 310.735 295.068 312.037C295.85 313.307 296.859 314.316 298.096 315.064C299.365 315.813 300.732 316.188 302.197 316.188C302.946 316.188 303.646 316.122 304.297 315.992C304.948 315.829 305.501 315.634 305.957 315.406L306.006 306.471ZM334.521 290.504C337.223 290.504 339.567 290.911 341.553 291.725C343.571 292.506 345.133 293.613 346.24 295.045C347.38 296.477 347.949 298.137 347.949 300.025C347.949 301.686 347.542 303.118 346.729 304.322C345.947 305.527 344.922 306.487 343.652 307.203C344.661 307.561 345.605 308.033 346.484 308.619C347.363 309.173 348.063 309.905 348.584 310.816C349.137 311.728 349.414 312.916 349.414 314.381C349.414 316.204 348.828 317.913 347.656 319.508C346.484 321.07 344.873 322.34 342.822 323.316C340.771 324.26 338.428 324.732 335.791 324.732C334.294 324.732 332.617 324.651 330.762 324.488C328.906 324.358 327.132 324.179 325.439 323.951C323.779 323.723 322.428 323.495 321.387 323.268V291.773C323.372 291.383 325.472 291.074 327.686 290.846C329.899 290.618 332.178 290.504 334.521 290.504ZM334.863 298.756C333.203 298.756 331.755 298.886 330.518 299.146V304.762H335.107C336.182 304.762 337.093 304.501 337.842 303.98C338.59 303.46 338.965 302.695 338.965 301.686C338.965 300.807 338.574 300.107 337.793 299.586C337.044 299.033 336.068 298.756 334.863 298.756ZM330.518 316.09C331.201 316.318 332.015 316.48 332.959 316.578C333.903 316.643 334.635 316.676 335.156 316.676C336.491 316.676 337.565 316.415 338.379 315.895C339.225 315.374 339.648 314.609 339.648 313.6C339.648 312.623 339.176 311.923 338.232 311.5C337.288 311.077 336.149 310.865 334.814 310.865H330.518V316.09ZM377.881 304.029V310.865H364.893V316.188H379.59V324H355.762V291.285H379.59V298.854H364.893V304.029H377.881Z" fill="#484848"/>
<rect x="86" y="354" width="193" height="7" fill="#54499E"/>
</svg>
