<svg width="512" height="426" viewBox="0 0 512 426" fill="none" xmlns="http://www.w3.org/2000/svg">
<g clip-path="url(#clip0)">
<path d="M452.699 243.839C449.888 267.976 444.048 287.355 436.032 302.811C425.365 323.404 407.12 331.701 390.821 340.383C386.112 342.887 381.215 345.021 376.176 346.766C346.517 357.084 313.323 354.347 287.248 348.899C268.96 345.075 250.396 342.722 231.733 341.864C226.411 341.623 221.083 341.504 215.749 341.505C207.525 341.516 59.4454 344.334 23.3921 271.168C14.4908 253.119 8.38942 231.072 6.19742 204.198C-0.00524235 128.22 34.0854 78.32 78.0588 45.7038C161.243 -15.9948 275.264 -13.4073 357.221 49.9165C411.813 92.0968 462.928 155.934 452.699 243.839Z" fill="#F2F2F2"/>
<path d="M160 221.842C160 282.235 124.183 303.322 80 303.322C35.8172 303.322 0 282.235 0 221.842C0 161.45 80 84.6206 80 84.6206C80 84.6206 160 161.45 160 221.842Z" fill="#6C63FF"/>
<path d="M77.0857 294.084L77.9049 243.54L112.003 181.011L78.0335 235.611L78.4015 212.885L101.902 167.646L78.4991 206.871L79.1615 165.997L104.326 129.981L79.2655 159.569L79.6793 84.6206L77.0783 183.839L77.2921 179.746L51.7071 140.491L76.882 187.604L74.498 233.253L74.4271 232.041L44.9321 190.731L74.3375 236.322L74.0393 242.031L73.986 242.117L74.0105 242.585L67.9625 358.403H76.0431L77.0127 298.581L106.346 253.102L77.0857 294.084Z" fill="#3F3D56"/>
<path d="M512 225.585C512 285.977 476.183 307.064 432 307.064C387.817 307.064 352 285.977 352 225.585C352 165.192 432 88.3628 432 88.3628C432 88.3628 512 165.192 512 225.585Z" fill="#6C63FF"/>
<path d="M429.086 297.826L429.905 247.282L464.003 184.753L430.033 239.354L430.401 216.628L453.902 171.388L430.499 210.613L431.161 169.739L456.326 133.723L431.265 163.312L431.679 88.3628L429.078 187.582L429.292 183.489L403.707 144.233L428.882 191.346L426.498 236.996L426.427 235.784L396.932 194.473L426.337 240.064L426.039 245.773L425.986 245.859L426.011 246.328L419.963 362.145H428.043L429.013 302.323L458.346 256.844L429.086 297.826Z" fill="#3F3D56"/>
<path d="M345.6 174.293C345.6 240.323 306.44 263.378 258.133 263.378C209.827 263.378 170.667 240.323 170.667 174.293C170.667 108.264 258.133 24.2642 258.133 24.2642C258.133 24.2642 345.6 108.264 345.6 174.293Z" fill="#6C63FF"/>
<path d="M254.947 253.277L255.843 198.016L293.123 129.651L255.983 189.348L256.386 164.5L282.079 115.039L256.492 157.925L257.216 113.236L284.73 73.8577L257.331 106.208L257.783 24.2642L254.939 132.743L255.173 128.268L227.2 85.3491L254.724 136.859L252.118 186.769L252.04 185.444L219.792 140.279L251.943 190.124L251.616 196.366L251.558 196.46L251.585 196.972L244.972 323.599H253.807L254.867 258.194L286.939 208.47L254.947 253.277Z" fill="#3F3D56"/>
<path d="M443.733 367.62C443.733 381.792 351.086 425.892 236.8 425.892C122.514 425.892 29.8667 381.792 29.8667 367.62C29.8667 353.448 115.047 321.644 229.333 321.644C343.62 321.644 443.733 353.448 443.733 367.62Z" fill="#3F3D56"/>
<path opacity="0.1" d="M443.733 367.62C443.733 381.792 351.086 425.892 236.8 425.892C122.514 425.892 29.8667 381.792 29.8667 367.62C29.8667 353.448 115.047 321.644 229.333 321.644C343.62 321.644 443.733 353.448 443.733 367.62Z" fill="black"/>
<path d="M443.733 367.62C443.733 381.792 351.086 393.281 236.8 393.281C122.514 393.281 29.8667 381.792 29.8667 367.62C29.8667 353.448 115.047 321.644 229.333 321.644C343.62 321.644 443.733 353.448 443.733 367.62Z" fill="#3F3D56"/>
<path d="M306.362 296.561C306.362 316.891 319.086 333.343 334.81 333.343L306.362 296.561Z" fill="#3F3D56"/>
<path d="M334.81 333.343C334.81 312.784 349.01 296.148 366.557 296.148L334.81 333.343Z" fill="#6C63FF"/>
<path d="M316.669 298.404C316.669 317.716 324.783 333.342 334.81 333.342L316.669 298.404Z" fill="#6C63FF"/>
<path d="M334.81 333.343C334.81 307.073 351.222 285.816 371.505 285.816L334.81 333.343Z" fill="#3F3D56"/>
<path d="M328.826 333.602C328.826 333.602 332.86 333.478 334.076 332.61C335.292 331.742 340.282 330.706 340.584 332.097C340.885 333.489 346.647 339.02 342.092 339.057C337.537 339.094 331.508 338.346 330.295 337.605C329.081 336.864 328.826 333.602 328.826 333.602Z" fill="#A8A8A8"/>
<path opacity="0.2" d="M342.173 338.572C337.618 338.609 331.59 337.861 330.376 337.12C329.452 336.556 329.084 334.531 328.96 333.597C328.875 333.6 328.826 333.602 328.826 333.602C328.826 333.602 329.081 336.863 330.295 337.604C331.508 338.345 337.537 339.093 342.092 339.057C343.407 339.046 343.861 338.577 343.836 337.883C343.653 338.302 343.152 338.564 342.173 338.572Z" fill="black"/>
<path opacity="0.1" d="M239.467 376.174C278.347 376.174 309.867 371.147 309.867 364.947C309.867 358.747 278.347 353.72 239.467 353.72C200.586 353.72 169.067 358.747 169.067 364.947C169.067 371.147 200.586 376.174 239.467 376.174Z" fill="black"/>
<path d="M270.4 339.821H263.467V355.859H270.4V339.821Z" fill="#FFB9B9"/>
<path d="M270.933 123.306H244.267V171.42H270.933V123.306Z" fill="#FF6584"/>
<path d="M290.518 214.366L291.44 221.767L267.136 229.168L264.059 215.6L290.518 214.366Z" fill="#FFB9B9"/>
<path d="M254.522 143.128C254.522 143.128 253.907 148.679 252.676 148.679C251.446 148.679 247.138 150.838 247.138 150.838L245.908 156.697L254.522 161.94L268.674 160.398L272.674 154.23L268.674 150.221C268.674 150.221 265.29 142.82 266.521 141.278C267.751 139.736 254.522 143.128 254.522 143.128Z" fill="#FFB9B9"/>
<path opacity="0.1" d="M254.522 143.128C254.522 143.128 253.907 148.679 252.676 148.679C251.446 148.679 247.138 150.838 247.138 150.838L245.908 156.697L254.522 161.94L268.674 160.398L272.674 154.23L268.674 150.221C268.674 150.221 265.29 142.82 266.521 141.278C267.751 139.736 254.522 143.128 254.522 143.128Z" fill="black"/>
<path d="M216.065 335.254C216.065 335.254 213.296 353.758 209.912 354.991C206.528 356.225 222.834 358.384 222.834 358.384L224.064 351.599C224.064 351.599 224.372 339.263 225.602 337.413C226.833 335.563 216.065 335.254 216.065 335.254Z" fill="#FFB9B9"/>
<path d="M247.446 227.627C247.446 227.627 292.056 219.609 292.363 218.067C292.671 216.525 301.593 229.785 296.055 255.69C290.518 281.595 276.673 342.655 276.673 342.655C276.673 342.655 262.521 346.973 262.829 343.581C263.136 340.188 267.751 281.286 267.751 281.286L264.675 256.307L259.444 259.391L237.601 302.565L226.525 339.88C226.525 339.88 212.373 342.347 214.527 337.104C216.68 331.862 223.756 291.155 223.756 291.155L243.139 233.794C243.139 233.794 242.523 227.627 247.446 227.627Z" fill="#2F2E41"/>
<path d="M258.675 147.292C265.812 147.292 271.597 141.493 271.597 134.34C271.597 127.186 265.812 121.387 258.675 121.387C251.539 121.387 245.754 127.186 245.754 134.34C245.754 141.493 251.539 147.292 258.675 147.292Z" fill="#FFB9B9"/>
<path d="M272.058 150.53C272.058 150.53 265.905 156.389 251.445 154.847C236.986 153.305 255.445 187.845 255.445 187.845L261.29 222.693C261.29 222.693 287.133 219.609 288.056 213.749C288.979 207.89 272.058 150.53 272.058 150.53Z" fill="#F2F2F2"/>
<path d="M265.905 183.527C265.905 183.527 258.522 179.827 255.753 169.65C252.984 159.473 250.523 148.988 248.984 149.296C247.685 149.557 235.64 154.214 231.736 157.328C231.016 157.902 230.573 158.424 230.525 158.856C230.217 161.632 241.601 189.387 241.601 189.387C241.601 189.387 250.523 209.432 246.831 215.908C243.139 222.384 242.831 230.711 249.6 230.094C256.368 229.477 278.827 228.244 275.75 210.974C275.75 210.974 281.596 223.001 297.901 214.366C297.901 214.366 307.746 212.824 307.439 209.432C307.131 206.04 291.748 176.743 291.748 176.743C291.748 176.743 289.287 163.79 293.902 158.856L283.442 146.521C283.442 146.521 280.98 142.82 278.519 144.67C276.058 146.521 270.52 149.605 269.597 149.913C268.674 150.221 268.067 148.805 268.067 148.805C265.936 153.274 265.081 158.247 265.598 163.174C266.521 171.192 265.905 183.527 265.905 183.527Z" fill="#2F2E41"/>
<path d="M216.988 351.29C216.988 351.29 216.301 349.132 212.337 351.29C212.337 351.29 213.604 344.506 209.297 344.506C204.989 344.506 203.451 352.524 203.451 352.524C203.451 352.524 202.22 357.767 193.914 359.925C185.607 362.084 192.068 369.485 197.913 369.485C203.759 369.485 211.45 364.859 211.45 364.859C211.45 364.859 227.448 365.168 227.756 362.084C228.063 359 226.218 349.748 224.987 349.748C223.756 349.748 221.295 354.066 221.295 354.066L216.988 351.29Z" fill="#2F2E41"/>
<path d="M269.289 345.863C269.289 345.863 264.982 341.237 262.521 348.947C260.06 356.657 258.214 359.741 259.752 360.974C261.29 362.208 262.521 361.591 261.906 364.058C261.29 366.525 263.752 371.768 269.289 371.768C274.827 371.768 276.365 367.759 276.058 364.983C275.75 362.208 273.289 358.815 273.289 358.815L270.828 350.181L269.289 345.863Z" fill="#2F2E41"/>
<path d="M293.594 128.942L277.288 134.493C277.288 134.493 262.521 143.128 268.982 144.979C275.443 146.829 280.98 139.428 280.98 139.428L295.132 135.727L293.594 128.942Z" fill="#FFB9B9"/>
<path d="M249.884 114.31C247.948 115.64 246.407 117.461 244.941 119.298C241.964 123.031 239.047 127.49 239.78 132.212C240.059 134.006 240.854 135.675 241.302 137.434C241.906 139.808 241.866 142.292 241.823 144.742C241.859 145.783 241.73 146.823 241.441 147.823C241.01 148.798 240.504 149.737 239.925 150.632C238.444 153.399 238.407 156.686 238.406 159.826C238.335 160.883 238.479 161.943 238.828 162.943C239.232 163.887 239.986 164.627 240.61 165.442C241.645 166.819 242.336 168.424 242.625 170.123C242.913 171.823 242.791 173.567 242.268 175.209C243.071 175.212 243.858 174.986 244.537 174.557C245.217 174.127 245.76 173.513 246.103 172.785C246.209 173.568 246.142 174.364 245.906 175.118C245.669 175.871 245.27 176.563 244.736 177.143C248.257 176.094 252.033 174.325 253.318 170.875C253.695 169.703 253.908 168.484 253.95 167.253C254.634 158.599 255.024 149.621 251.928 141.514C250.938 138.92 249.589 136.41 249.257 133.652C248.925 130.895 249.94 127.708 252.468 126.57C252.526 127.276 252.839 127.936 253.348 128.428C253.91 128.847 254.95 128.584 254.961 127.882L256.181 129.586C256.649 129.355 257.049 129.006 257.34 128.572L258.177 129.599L259.957 128.301L261.503 129.972C262.098 129.632 262.572 129.114 262.86 128.491C263.192 128.989 263.603 129.537 264.198 129.591C265.494 129.708 265.762 127.646 266.894 127.003C267.312 126.818 267.783 126.789 268.22 126.922C268.658 127.055 269.033 127.341 269.279 127.728C269.746 128.524 269.916 129.46 269.759 130.37C269.29 134.611 265.681 138.48 266.751 142.609C267.353 144.931 269.38 146.793 269.532 149.188C269.655 151.101 268.533 152.911 268.55 154.828C268.57 157.075 270.119 158.983 271.63 160.642C274.321 163.595 277.153 166.409 280.127 169.084L279.208 167.474C279.637 167.44 280.068 167.499 280.472 167.648C280.876 167.797 281.242 168.032 281.547 168.336C281.811 167.41 281.374 166.445 280.961 165.576C278.487 160.369 276.49 154.826 276.192 149.067C275.777 141.062 278.649 132.933 276.829 125.127C275.782 120.757 273.343 116.848 269.88 113.993C268.197 112.604 266.921 111.772 264.742 111.619C262.305 111.407 259.855 111.426 257.422 111.677C254.734 111.933 252.148 112.837 249.884 114.31Z" fill="#FF6584"/>
<path d="M280.98 146.829C280.98 146.829 284.364 147.137 285.903 146.829C287.441 146.521 289.595 144.979 289.595 144.979L301.285 136.344L291.133 137.886C291.133 137.886 292.979 123.7 292.363 123.392C291.748 123.083 322.206 117.224 321.591 126.784C320.975 136.344 303.747 155.155 293.902 158.856L287.441 159.781L280.98 146.829Z" fill="#2F2E41"/>
<path d="M314.133 256.16H169.067V290.375H314.133V256.16Z" fill="white"/>
<path d="M295.2 263.912H187.467V282.089H295.2V263.912Z" fill="#3F3D56"/>
<path d="M212.503 272.602C212.459 272.136 210.403 271.928 207.581 272.045C209.216 269.737 210.163 267.895 209.797 267.605C209.451 267.331 208.037 268.515 206.315 270.436C206.152 267.858 205.774 266.051 205.333 266.051C204.853 266.051 204.447 268.201 204.313 271.157C201.917 269.43 199.982 268.416 199.684 268.794C199.399 269.155 200.695 270.679 202.754 272.502C200.036 272.906 198.122 273.476 198.164 273.934C198.207 274.4 200.264 274.608 203.086 274.491C201.45 276.799 200.503 278.641 200.87 278.931C201.215 279.205 202.63 278.021 204.352 276.099C204.515 278.678 204.893 280.485 205.333 280.485C205.814 280.485 206.22 278.335 206.353 275.379C208.75 277.106 210.685 278.12 210.983 277.742C211.267 277.381 209.972 275.857 207.913 274.034C210.63 273.63 212.545 273.06 212.503 272.602Z" fill="white"/>
<path d="M230.636 272.602C230.593 272.136 228.536 271.928 225.714 272.045C227.349 269.737 228.297 267.895 227.93 267.605C227.584 267.331 226.17 268.515 224.448 270.436C224.285 267.858 223.907 266.051 223.467 266.051C222.986 266.051 222.58 268.201 222.447 271.157C220.05 269.43 218.115 268.416 217.817 268.794C217.533 269.155 218.828 270.679 220.887 272.502C218.169 272.906 216.255 273.476 216.297 273.934C216.34 274.4 218.397 274.608 221.219 274.491C219.584 276.799 218.637 278.641 219.003 278.931C219.349 279.205 220.763 278.021 222.485 276.099C222.648 278.678 223.026 280.485 223.467 280.485C223.947 280.485 224.353 278.335 224.487 275.379C226.883 277.106 228.818 278.12 229.116 277.742C229.4 277.381 228.105 275.857 226.046 274.034C228.764 273.63 230.678 273.06 230.636 272.602Z" fill="white"/>
<path d="M248.769 272.602C248.726 272.136 246.669 271.928 243.848 272.045C245.483 269.737 246.43 267.895 246.063 267.605C245.718 267.331 244.303 268.515 242.581 270.436C242.418 267.858 242.04 266.051 241.6 266.051C241.119 266.051 240.713 268.201 240.58 271.157C238.183 269.43 236.248 268.416 235.95 268.794C235.666 269.155 236.961 270.679 239.02 272.502C236.303 272.906 234.388 273.476 234.431 273.934C234.474 274.4 236.53 274.608 239.352 274.491C237.717 276.799 236.77 278.641 237.136 278.931C237.482 279.205 238.896 278.021 240.619 276.099C240.781 278.678 241.159 280.485 241.6 280.485C242.08 280.485 242.486 278.335 242.62 275.379C245.016 277.106 246.951 278.12 247.249 277.742C247.534 277.381 246.239 275.857 244.18 274.034C246.897 273.63 248.811 273.06 248.769 272.602Z" fill="white"/>
<path d="M266.903 272.602C266.859 272.136 264.803 271.928 261.981 272.045C263.616 269.737 264.563 267.895 264.197 267.605C263.851 267.331 262.437 268.515 260.714 270.436C260.552 267.858 260.174 266.051 259.733 266.051C259.253 266.051 258.847 268.201 258.713 271.157C256.317 269.43 254.382 268.416 254.084 268.794C253.799 269.155 255.095 270.679 257.154 272.502C254.436 272.906 252.522 273.476 252.564 273.934C252.607 274.4 254.664 274.608 257.485 274.491C255.85 276.799 254.903 278.641 255.27 278.931C255.615 279.205 257.03 278.021 258.752 276.099C258.915 278.678 259.293 280.485 259.733 280.485C260.214 280.485 260.62 278.335 260.753 275.379C263.15 277.106 265.085 278.12 265.383 277.742C265.667 277.381 264.372 275.857 262.313 274.034C265.03 273.63 266.945 273.06 266.903 272.602Z" fill="white"/>
<path d="M285.036 272.602C284.993 272.136 282.936 271.928 280.114 272.045C281.75 269.737 282.697 267.895 282.33 267.605C281.985 267.331 280.57 268.515 278.848 270.436C278.685 267.858 278.307 266.051 277.867 266.051C277.386 266.051 276.98 268.201 276.847 271.157C274.45 269.43 272.515 268.416 272.217 268.794C271.933 269.155 273.228 270.679 275.287 272.502C272.57 272.906 270.655 273.476 270.697 273.934C270.741 274.4 272.797 274.608 275.619 274.491C273.984 276.799 273.037 278.641 273.403 278.931C273.749 279.205 275.163 278.021 276.885 276.099C277.048 278.678 277.426 280.485 277.867 280.485C278.347 280.485 278.753 278.335 278.887 275.379C281.283 277.106 283.218 278.12 283.516 277.742C283.801 277.381 282.505 275.857 280.446 274.034C283.164 273.63 285.078 273.06 285.036 272.602Z" fill="white"/>
<path d="M228.679 241.505C228.679 241.505 227.141 261.858 234.524 262.783C241.908 263.709 235.14 239.654 235.14 239.654L228.679 241.505Z" fill="#FFB9B9"/>
<path d="M232.678 158.239L230.525 158.856C230.525 158.856 221.603 230.402 227.448 244.28C227.448 244.28 233.601 240.887 236.678 241.504L241.6 183.219L232.678 158.239Z" fill="#2F2E41"/>
</g>
<defs>
<clipPath id="clip0">
<rect width="512" height="425" fill="white" transform="translate(0 0.89209)"/>
</clipPath>
</defs>
</svg>
