<svg width="340" height="444" viewBox="0 0 340 444" fill="none" xmlns="http://www.w3.org/2000/svg">
<path d="M23.4098 390.435C23.8817 408.061 26.8341 425.533 32.1801 442.335C32.3023 442.725 32.4303 443.109 32.5584 443.499H65.2883C65.2534 443.15 65.2184 442.76 65.1835 442.335C63.0011 417.246 50.419 264.549 65.4629 238.437C64.1476 240.555 20.8725 310.717 23.4098 390.435Z" fill="#E6E6E6"/>
<path d="M25.8656 442.335C26.1391 442.725 26.4243 443.115 26.7152 443.499H51.2685C51.0823 443.168 50.8669 442.778 50.6167 442.335C46.5603 435.014 34.5544 413.126 23.4097 390.436C11.4328 366.051 0.445229 340.741 1.37057 331.581C1.08538 333.647 -7.20185 396.628 25.8656 442.335Z" fill="#E6E6E6"/>
<path d="M332.349 161.268H65.3662C63.7523 161.267 62.205 160.625 61.0638 159.483C59.9225 158.342 59.2806 156.795 59.2787 155.181V6.47085C59.2806 4.85691 59.9225 3.30961 61.0638 2.16838C62.205 1.02715 63.7523 0.385183 65.3662 0.383301H332.349C333.963 0.385255 335.51 1.02725 336.651 2.16846C337.792 3.30967 338.434 4.85693 338.436 6.47085V155.181C338.434 156.795 337.792 158.342 336.651 159.483C335.51 160.625 333.963 161.267 332.349 161.268Z" fill="#6C63FF"/>
<path d="M335.652 443.5H61.7117C60.5588 443.499 59.4536 443.04 58.6385 442.225C57.8233 441.41 57.3648 440.305 57.3634 439.152V4.34825C57.3648 3.19544 57.8233 2.09023 58.6385 1.27507C59.4536 0.459907 60.5588 0.00135332 61.7117 0H335.652C336.804 0.00135562 337.91 0.459907 338.725 1.27507C339.54 2.09023 339.999 3.19544 340 4.34825V439.152C339.999 440.305 339.54 441.41 338.725 442.225C337.91 443.04 336.804 443.499 335.652 443.5ZM61.7117 1.7393C61.0199 1.74005 60.3568 2.01517 59.8677 2.50428C59.3786 2.99339 59.1035 3.65654 59.1027 4.34825V439.152C59.1035 439.843 59.3786 440.507 59.8677 440.996C60.3568 441.485 61.0199 441.76 61.7117 441.761H335.652C336.343 441.76 337.007 441.485 337.496 440.996C337.985 440.507 338.26 439.843 338.261 439.152V4.34825C338.26 3.65654 337.985 2.99339 337.496 2.50428C337.007 2.01517 336.343 1.74005 335.652 1.7393H61.7117Z" fill="#E6E6E6"/>
<path d="M94.0647 242.146C99.3479 242.146 103.631 237.863 103.631 232.58C103.631 227.297 99.3479 223.014 94.0647 223.014C88.7814 223.014 84.4985 227.297 84.4985 232.58C84.4985 237.863 88.7814 242.146 94.0647 242.146Z" fill="#E6E6E6"/>
<path d="M295.823 250.843H136.678C135.064 250.841 133.516 250.199 132.375 249.058C131.234 247.916 130.592 246.369 130.59 244.755V220.405C130.592 218.791 131.234 217.244 132.375 216.102C133.516 214.961 135.064 214.319 136.678 214.317H295.823C297.437 214.319 298.985 214.961 300.126 216.103C301.267 217.244 301.909 218.791 301.911 220.405V244.755C301.909 246.369 301.267 247.916 300.126 249.058C298.985 250.199 297.437 250.841 295.823 250.843Z" fill="#E6E6E6"/>
<path d="M301.911 251.712H130.59C130.359 251.712 130.138 251.62 129.975 251.457C129.812 251.294 129.72 251.073 129.72 250.842C129.72 250.612 129.812 250.39 129.975 250.227C130.138 250.064 130.359 249.973 130.59 249.973H301.911C302.142 249.973 302.363 250.064 302.526 250.227C302.689 250.39 302.781 250.612 302.781 250.842C302.781 251.073 302.689 251.294 302.526 251.457C302.363 251.62 302.142 251.712 301.911 251.712Z" fill="#3F3D56"/>
<path d="M94.0647 299.542C99.3479 299.542 103.631 295.26 103.631 289.976C103.631 284.693 99.3479 280.41 94.0647 280.41C88.7814 280.41 84.4985 284.693 84.4985 289.976C84.4985 295.26 88.7814 299.542 94.0647 299.542Z" fill="#E6E6E6"/>
<path d="M295.823 308.239H136.678C135.064 308.237 133.516 307.595 132.375 306.454C131.234 305.313 130.592 303.766 130.59 302.152V277.801C130.592 276.187 131.234 274.64 132.375 273.499C133.516 272.358 135.064 271.716 136.678 271.714H295.823C297.437 271.716 298.985 272.358 300.126 273.499C301.267 274.64 301.909 276.187 301.911 277.801V302.152C301.909 303.766 301.267 305.313 300.126 306.454C298.985 307.595 297.437 308.237 295.823 308.239Z" fill="#E6E6E6"/>
<path d="M301.911 309.108H130.59C130.359 309.108 130.138 309.017 129.975 308.854C129.812 308.691 129.72 308.469 129.72 308.239C129.72 308.008 129.812 307.787 129.975 307.624C130.138 307.461 130.359 307.369 130.59 307.369H301.911C302.142 307.369 302.363 307.461 302.526 307.624C302.689 307.787 302.781 308.008 302.781 308.239C302.781 308.469 302.689 308.691 302.526 308.854C302.363 309.017 302.142 309.108 301.911 309.108Z" fill="#3F3D56"/>
<path d="M94.0647 356.939C99.3479 356.939 103.631 352.656 103.631 347.373C103.631 342.09 99.3479 337.807 94.0647 337.807C88.7814 337.807 84.4985 342.09 84.4985 347.373C84.4985 352.656 88.7814 356.939 94.0647 356.939Z" fill="#E6E6E6"/>
<path d="M202.771 365.636H136.678C135.064 365.634 133.516 364.992 132.375 363.851C131.234 362.709 130.592 361.162 130.59 359.548V335.198C130.592 333.584 131.234 332.037 132.375 330.895C133.516 329.754 135.064 329.112 136.678 329.11H202.771C204.385 329.112 205.932 329.754 207.073 330.896C208.215 332.037 208.857 333.584 208.858 335.198V359.548C208.857 361.162 208.215 362.709 207.073 363.85C205.932 364.992 204.385 365.634 202.771 365.636Z" fill="#E6E6E6"/>
<path d="M208.858 366.506H130.59C130.359 366.506 130.138 366.414 129.975 366.251C129.812 366.088 129.72 365.867 129.72 365.636C129.72 365.406 129.812 365.184 129.975 365.021C130.138 364.858 130.359 364.767 130.59 364.767H208.858C209.089 364.767 209.31 364.858 209.473 365.021C209.636 365.184 209.728 365.406 209.728 365.636C209.728 365.867 209.636 366.088 209.473 366.251C209.31 366.414 209.089 366.506 208.858 366.506Z" fill="#3F3D56"/>
<path d="M295.823 365.636H229.73C228.116 365.634 226.569 364.992 225.428 363.851C224.286 362.709 223.644 361.162 223.642 359.548V335.198C223.644 333.584 224.286 332.037 225.428 330.895C226.569 329.754 228.116 329.112 229.73 329.11H295.823C297.437 329.112 298.985 329.754 300.126 330.896C301.267 332.037 301.909 333.584 301.911 335.198V359.548C301.909 361.162 301.267 362.709 300.126 363.85C298.985 364.992 297.437 365.634 295.823 365.636Z" fill="#E6E6E6"/>
<path d="M301.911 366.506H223.642C223.412 366.506 223.191 366.414 223.028 366.251C222.864 366.088 222.773 365.867 222.773 365.636C222.773 365.406 222.864 365.184 223.028 365.021C223.191 364.858 223.412 364.767 223.642 364.767H301.911C302.142 364.767 302.363 364.858 302.526 365.021C302.689 365.184 302.781 365.406 302.781 365.636C302.781 365.867 302.689 366.088 302.526 366.251C302.363 366.414 302.142 366.506 301.911 366.506Z" fill="#3F3D56"/>
<path d="M94.3774 46.9563C93.0207 46.9786 91.7271 47.5332 90.7756 48.5005C89.824 49.4678 89.2908 50.7704 89.2908 52.1272C89.2908 53.4841 89.824 54.7866 90.7756 55.7539C91.7271 56.7212 93.0207 57.2759 94.3774 57.2982H303.168C303.847 57.3101 304.523 57.1879 305.155 56.9387C305.787 56.6895 306.364 56.3181 306.853 55.8458C307.341 55.3734 307.732 54.8094 308.003 54.1859C308.273 53.5624 308.418 52.8918 308.429 52.2122C308.44 51.5327 308.318 50.8576 308.068 50.2256C307.818 49.5936 307.446 49.017 306.973 48.5289C306.5 48.0408 305.935 47.6506 305.312 47.3808C304.688 47.1109 304.017 46.9667 303.338 46.9563C303.281 46.9553 303.224 46.9553 303.168 46.9563H94.3774Z" fill="white"/>
<path d="M94.3774 75.6545C93.0207 75.6769 91.7271 76.2314 90.7756 77.1988C89.824 78.1661 89.2908 79.4686 89.2908 80.8255C89.2908 82.1823 89.824 83.4848 90.7756 84.4522C91.7271 85.4195 93.0207 85.9741 94.3774 85.9964H303.168C304.538 86.0174 305.861 85.4935 306.845 84.5399C307.83 83.5862 308.395 82.2807 308.418 80.9103C308.44 79.5398 307.918 78.2165 306.965 77.231C306.013 76.2456 304.708 75.6785 303.338 75.6545C303.281 75.6536 303.224 75.6536 303.168 75.6545H94.3774Z" fill="white"/>
<path d="M94.3774 104.353C93.0207 104.376 91.7271 104.93 90.7756 105.897C89.824 106.865 89.2908 108.167 89.2908 109.524C89.2908 110.881 89.824 112.184 90.7756 113.151C91.7271 114.118 93.0207 114.673 94.3774 114.695H303.168C304.538 114.716 305.861 114.192 306.845 113.239C307.83 112.285 308.395 110.979 308.418 109.609C308.44 108.239 307.918 106.915 306.965 105.93C306.013 104.944 304.708 104.377 303.338 104.353C303.281 104.352 303.224 104.352 303.168 104.353H94.3774Z" fill="white"/>
<path d="M293.908 408.507L291.719 406.319C291.672 406.272 291.616 406.234 291.554 406.209C291.493 406.183 291.426 406.17 291.36 406.17H290.295C290.194 406.17 290.096 406.2 290.012 406.256C289.929 406.312 289.863 406.391 289.825 406.484C289.786 406.577 289.776 406.679 289.796 406.778C289.816 406.876 289.864 406.967 289.935 407.038L291.147 408.249H281.474C281.243 408.249 281.022 408.341 280.859 408.504C280.696 408.667 280.604 408.888 280.604 409.119C280.604 409.349 280.696 409.57 280.859 409.733C281.022 409.897 281.243 409.988 281.474 409.988H291.147L290.059 411.076C289.978 411.157 289.922 411.26 289.9 411.373C289.877 411.486 289.889 411.602 289.933 411.709C289.977 411.815 290.051 411.906 290.147 411.969C290.242 412.033 290.355 412.067 290.47 412.067H291.33C291.406 412.067 291.481 412.052 291.552 412.023C291.622 411.994 291.686 411.951 291.74 411.897L293.908 409.73C293.988 409.649 294.052 409.554 294.095 409.449C294.139 409.345 294.161 409.232 294.161 409.119C294.161 409.005 294.139 408.893 294.095 408.788C294.052 408.683 293.988 408.588 293.908 408.507Z" fill="#6C63FF"/>
<path d="M287.997 423.033C285.245 423.033 282.555 422.217 280.266 420.688C277.978 419.159 276.195 416.986 275.142 414.443C274.088 411.901 273.813 409.103 274.35 406.404C274.887 403.705 276.212 401.225 278.158 399.28C280.104 397.334 282.583 396.008 285.282 395.471C287.981 394.935 290.779 395.21 293.322 396.263C295.864 397.316 298.037 399.1 299.566 401.388C301.095 403.676 301.911 406.367 301.911 409.119C301.907 412.808 300.44 416.344 297.831 418.953C295.223 421.561 291.686 423.029 287.997 423.033ZM287.997 396.943C285.589 396.943 283.235 397.657 281.233 398.995C279.23 400.333 277.67 402.235 276.748 404.459C275.827 406.684 275.586 409.132 276.056 411.494C276.525 413.855 277.685 416.025 279.388 417.728C281.09 419.43 283.26 420.59 285.622 421.06C287.983 421.529 290.431 421.288 292.656 420.367C294.881 419.445 296.782 417.885 298.12 415.883C299.458 413.88 300.172 411.527 300.172 409.119C300.168 405.891 298.884 402.796 296.602 400.513C294.319 398.231 291.225 396.947 287.997 396.943Z" fill="#3F3D56"/>
</svg>
