<svg width="629" height="376" viewBox="0 0 629 376" fill="none" xmlns="http://www.w3.org/2000/svg">
<g clip-path="url(#clip0)">
<path d="M481.577 371.748C473.524 364.944 468.633 354.197 469.916 343.733C471.198 333.27 479.144 323.652 489.45 321.43C499.756 319.208 511.504 325.358 514.634 335.424C516.357 316.018 518.342 295.798 528.661 279.271C538.005 264.306 554.189 253.599 571.729 251.683C589.269 249.768 607.736 257.003 618.674 270.844C629.613 284.686 632.292 304.81 624.63 320.701C618.987 332.408 608.589 341.12 597.694 348.208C562.491 370.919 520.268 380.154 478.796 374.215L481.577 371.748Z" fill="#F2F2F2"/>
<path d="M601.33 257.404C586.857 269.19 573.58 282.372 561.691 296.759C543.084 319.198 528.027 344.356 517.045 371.356C516.241 373.326 519.44 374.184 520.235 372.236C538.204 328.354 566.89 289.677 603.669 259.743C605.321 258.398 602.968 256.07 601.33 257.404Z" fill="white"/>
<path d="M202.485 369.899C213.546 360.555 220.264 345.793 218.502 331.422C216.741 317.051 205.828 303.839 191.673 300.788C177.517 297.736 161.381 306.184 157.082 320.009C154.716 293.354 151.989 265.582 137.815 242.882C124.981 222.329 102.753 207.621 78.662 204.99C54.5712 202.359 29.2067 212.297 14.1822 231.308C-0.842351 250.32 -4.52105 277.959 6.00175 299.787C13.7535 315.866 28.035 327.832 42.9985 337.568C90.7371 368.627 149.957 381.58 206.305 373.289" fill="#F2F2F2"/>
<path d="M38.0051 212.847C57.883 229.036 76.1188 247.141 92.4489 266.902C108.782 286.643 123.161 307.921 135.384 330.437C142.217 343.068 148.355 356.062 153.77 369.362C154.874 372.067 150.481 373.245 149.389 370.569C139.796 347.122 127.929 324.671 113.956 303.539C100.051 282.483 84.136 262.825 66.4346 244.842C56.4227 234.675 45.8592 225.067 34.7921 216.06C32.5237 214.213 35.7554 211.016 38.0051 212.848L38.0051 212.847Z" fill="white"/>
<path d="M451.506 375.177H187.615V104.457C187.615 46.859 234.481 0 292.087 0H347.035C404.641 0 451.506 46.859 451.506 104.457V375.177Z" fill="#F2F2F2"/>
<path d="M396.559 375.177H187.615V104.457C187.558 82.3868 194.547 60.8744 207.567 43.052C208.047 42.3979 208.525 41.7523 209.019 41.1138C215.317 32.8556 222.811 25.5828 231.254 19.5353C231.731 19.1883 232.21 18.8474 232.696 18.5064C239.761 13.6178 247.404 9.62151 255.45 6.60843C255.928 6.42735 256.414 6.24592 256.901 6.0719C264.178 3.47535 271.721 1.69673 279.392 0.768877C279.867 0.703926 280.355 0.653101 280.844 0.602275C288.319 -0.196852 295.857 -0.196852 303.332 0.602275C303.819 0.653101 304.308 0.70392 304.789 0.769572C312.457 1.69749 319.999 3.47589 327.274 6.07193C327.761 6.24595 328.247 6.42737 328.726 6.6088C336.673 9.58388 344.226 13.5205 351.216 18.331C351.701 18.6645 352.188 19.0055 352.666 19.3465C357.399 22.7243 361.845 26.4874 365.957 30.5974C369.256 33.8941 372.329 37.4081 375.157 41.116C375.649 41.7524 376.128 42.398 376.607 43.0509C389.627 60.8736 396.617 82.3863 396.559 104.457V375.177Z" fill="#CCCCCC"/>
<path d="M379.569 254.094C385.958 254.094 391.137 248.915 391.137 242.528C391.137 236.14 385.958 230.961 379.569 230.961C373.18 230.961 368.001 236.14 368.001 242.528C368.001 248.915 373.18 254.094 379.569 254.094Z" fill="#6C63FF"/>
<path d="M429.888 367.069H421.024L416.807 332.885L429.89 332.885L429.888 367.069Z" fill="#FFB8B8"/>
<path d="M414.693 364.536H431.787V375.298H403.93C403.93 373.884 404.208 372.485 404.749 371.179C405.29 369.874 406.083 368.687 407.082 367.688C408.082 366.689 409.268 365.896 410.574 365.355C411.88 364.814 413.28 364.536 414.693 364.536Z" fill="#2F2E41"/>
<path d="M473.991 367.069H465.127L460.91 332.885L473.992 332.885L473.991 367.069Z" fill="#FFB8B8"/>
<path d="M458.795 364.536H475.889V375.298H448.032C448.032 373.884 448.311 372.485 448.852 371.179C449.392 369.874 450.185 368.687 451.185 367.688C452.184 366.689 453.371 365.896 454.676 365.355C455.982 364.814 457.382 364.536 458.795 364.536Z" fill="#2F2E41"/>
<path d="M385.423 244.819C384.786 243.88 384.362 242.812 384.182 241.691C384.001 240.57 384.069 239.423 384.38 238.332C384.691 237.24 385.237 236.229 385.981 235.371C386.725 234.513 387.648 233.829 388.684 233.366L418.816 150.331L433.642 158.421L399.239 237.773C399.901 239.566 399.882 241.539 399.186 243.32C398.489 245.1 397.164 246.563 395.461 247.431C393.758 248.3 391.796 248.514 389.946 248.032C388.096 247.551 386.487 246.408 385.423 244.819Z" fill="#FFB8B8"/>
<path d="M469.463 260.422C468.478 259.857 467.629 259.083 466.975 258.155C466.321 257.227 465.879 256.166 465.68 255.049C465.48 253.931 465.528 252.783 465.821 251.686C466.113 250.589 466.642 249.569 467.371 248.699L458.037 160.862L474.91 161.633L478.789 248.032C480.17 249.353 481.019 251.136 481.174 253.041C481.329 254.946 480.779 256.842 479.63 258.369C478.48 259.896 476.81 260.948 474.936 261.327C473.063 261.705 471.115 261.383 469.463 260.422Z" fill="#FFB8B8"/>
<path d="M442.546 134.95C452.353 134.95 460.303 127.001 460.303 117.196C460.303 107.39 452.353 99.4409 442.546 99.4409C432.738 99.4409 424.788 107.39 424.788 117.196C424.788 127.001 432.738 134.95 442.546 134.95Z" fill="#FFB8B8"/>
<path d="M469.349 240.445H415.814L415.879 240.028C415.975 239.406 425.42 177.543 418.454 157.304C417.755 155.315 417.816 153.138 418.626 151.192C419.437 149.246 420.938 147.668 422.842 146.762H422.842C432.799 142.074 451.912 136.301 468.043 150.311C470.417 152.406 472.271 155.025 473.458 157.961C474.645 160.896 475.133 164.067 474.882 167.223L469.349 240.445Z" fill="#6C63FF"/>
<path d="M426.096 186.685L401.994 181.796L413.292 155.028C413.968 152.435 415.645 150.217 417.955 148.859C420.265 147.5 423.019 147.114 425.614 147.784C428.209 148.453 430.432 150.125 431.796 152.431C433.159 154.737 433.553 157.49 432.889 160.086L426.096 186.685Z" fill="#6C63FF"/>
<path d="M456.965 195.763L455.516 162.552C454.417 156.309 457.992 150.408 463.489 149.443C468.988 148.482 474.357 152.812 475.46 159.101L480.907 190.133L456.965 195.763Z" fill="#6C63FF"/>
<path d="M467.568 236.469C476.182 269.271 477.122 310.976 474.798 356.468L463.23 355.022L442.264 268.276L430.696 356.468L417.682 355.745C413.794 308.013 410.009 267.036 416.236 240.083L467.568 236.469Z" fill="#2F2E41"/>
<path d="M454.246 130.917C450.933 134.445 444.781 132.551 444.349 127.731C444.315 127.357 444.318 126.98 444.357 126.607C444.579 124.471 445.813 122.533 445.518 120.279C445.451 119.718 445.242 119.183 444.91 118.725C442.27 115.191 436.074 120.306 433.582 117.107C432.055 115.145 433.85 112.056 432.678 109.863C431.131 106.969 426.548 108.396 423.674 106.811C420.476 105.048 420.668 100.143 422.773 97.1591C425.34 93.5203 429.84 91.5787 434.285 91.2989C438.73 91.0191 443.144 92.2204 447.293 93.8373C452.008 95.6744 456.683 98.2133 459.585 102.358C463.113 107.399 463.452 114.176 461.688 120.07C460.614 123.656 456.951 128.036 454.246 130.917Z" fill="#2F2E41"/>
<path d="M607.297 375.642H73.519C73.2911 375.641 73.0728 375.55 72.9119 375.389C72.751 375.228 72.6606 375.009 72.6606 374.781C72.6606 374.553 72.751 374.335 72.9119 374.173C73.0728 374.012 73.2911 373.921 73.519 373.92H607.297C607.525 373.921 607.743 374.012 607.904 374.173C608.065 374.335 608.155 374.553 608.155 374.781C608.155 375.009 608.065 375.228 607.904 375.389C607.743 375.55 607.525 375.641 607.297 375.642Z" fill="#3F3D56"/>
<path d="M339.082 296.744H245.093C243.855 296.751 242.665 296.266 241.784 295.397C240.903 294.527 240.403 293.344 240.394 292.106V82.3476C240.403 81.1099 240.903 79.9266 241.784 79.0573C242.665 78.1879 243.855 77.7034 245.093 77.71H339.082C340.319 77.7034 341.509 78.1879 342.39 79.0573C343.271 79.9266 343.771 81.1099 343.781 82.3476V292.106C343.771 293.344 343.271 294.527 342.39 295.397C341.509 296.266 340.319 296.751 339.082 296.744Z" fill="white"/>
<path d="M343.781 145.582H240.394V147.027H343.781V145.582Z" fill="#CCCCCC"/>
<path d="M344.142 228.07H240.755V229.516H344.142V228.07Z" fill="#CCCCCC"/>
<path d="M274.374 77.71H272.928V297.467H274.374V77.71Z" fill="#CCCCCC"/>
<path d="M310.523 77.71H309.078V297.467H310.523V77.71Z" fill="#CCCCCC"/>
</g>
<defs>
<clipPath id="clip0">
<rect width="629" height="376" fill="white"/>
</clipPath>
</defs>
</svg>
